solid faience_pusherv2_002
facet normal 0.9999878383544882 -6.897678523593082e-15 -0.004931849867755722
  outer loop
    vertex -85.14668764701763 25.000000000000114 -29.146441597275192
    vertex -85.00294002467307 5.000000000000113 0.0
    vertex -85.14668764701777 5.000000000000113 -29.146441597275192
  endloop
endfacet
facet normal 0.9999878383544882 -6.897678523593082e-15 -0.004931849867755722
  outer loop
    vertex -85.00294002467307 5.000000000000113 0.0
    vertex -85.14668764701763 25.000000000000114 -29.146441597275192
    vertex -85.00294002467294 25.000000000000114 0.0
  endloop
endfacet
facet normal 6.721947868726105e-15 1.0 -1.664371528906989e-17
  outer loop
    vertex -90.00294002467294 25.000000000000146 -29.028508922986287
    vertex -85.00294002467294 25.000000000000114 0.0
    vertex -85.14668764701763 25.000000000000114 -29.146441597275192
  endloop
endfacet
facet normal 6.721947868726105e-15 1.0 -1.664371528906989e-17
  outer loop
    vertex -85.00294002467294 25.000000000000114 0.0
    vertex -90.00294002467294 25.000000000000146 -29.028508922986287
    vertex -90.00294002467294 25.000000000000146 0.0
  endloop
endfacet
facet normal 5.65270728665467e-15 1.0 5.728461372929214e-16
  outer loop
    vertex -85.00294002467307 5.000000000000113 0.0
    vertex -85.02529989235703 5.000000000000112 -24.1479153131572
    vertex -85.14668764701777 5.000000000000113 -29.146441597275192
  endloop
endfacet
facet normal 5.65270728665467e-15 1.0 5.728461372929214e-16
  outer loop
    vertex -85.02529989235703 5.000000000000112 -24.1479153131572
    vertex -85.00294002467307 5.000000000000113 0.0
    vertex -78.74372026137314 5.000000000000055 -13.268431671091793
  endloop
endfacet
facet normal 5.65270728665467e-15 1.0 5.728461372929214e-16
  outer loop
    vertex -85.02529989235703 5.000000000000112 -24.1479153131572
    vertex -78.74372026137314 5.000000000000055 -13.268431671091793
    vertex -78.42588301617737 5.000000000000055 -13.68264523346489
  endloop
endfacet
facet normal 5.65270728665467e-15 1.0 5.728461372929214e-16
  outer loop
    vertex -85.02529989235703 5.000000000000112 -24.1479153131572
    vertex -78.42588301617737 5.000000000000055 -13.68264523346489
    vertex -78.01166945380426 5.000000000000054 -14.000482478660668
  endloop
endfacet
facet normal 5.65270728665467e-15 1.0 5.728461372929214e-16
  outer loop
    vertex -85.02529989235703 5.000000000000112 -24.1479153131572
    vertex -78.01166945380426 5.000000000000054 -14.000482478660668
    vertex -77.52930754400931 5.000000000000052 -14.200283323669929
  endloop
endfacet
facet normal 5.65270728665467e-15 1.0 5.728461372929214e-16
  outer loop
    vertex -85.02529989235703 5.000000000000112 -24.1479153131572
    vertex -77.52930754400931 5.000000000000052 -14.200283323669929
    vertex -77.01166945380426 5.000000000000051 -14.268431671091792
  endloop
endfacet
facet normal 5.65270728665467e-15 1.0 5.728461372929214e-16
  outer loop
    vertex -78.74372026137314 5.000000000000055 -13.268431671091793
    vertex -85.00294002467307 5.000000000000113 0.0
    vertex -78.9435211063824 5.000000000000055 -12.786069761296835
  endloop
endfacet
facet normal 5.65270728665467e-15 1.0 5.728461372929214e-16
  outer loop
    vertex -78.9435211063824 5.000000000000055 -12.786069761296835
    vertex -85.00294002467307 5.000000000000113 0.0
    vertex -79.01166945380426 5.000000000000053 -12.268431671091795
  endloop
endfacet
facet normal 5.65270728665467e-15 1.0 5.728461372929214e-16
  outer loop
    vertex -79.01166945380426 5.000000000000053 -12.268431671091795
    vertex -85.00294002467307 5.000000000000113 0.0
    vertex -78.9435211063824 5.000000000000052 -11.750793580886755
  endloop
endfacet
facet normal 5.65270728665467e-15 1.0 5.728461372929214e-16
  outer loop
    vertex -78.9435211063824 5.000000000000052 -11.750793580886755
    vertex -85.00294002467307 5.000000000000113 0.0
    vertex -78.74372026137314 5.00000000000005 -11.268431671091797
  endloop
endfacet
facet normal 5.65270728665467e-15 1.0 5.728461372929214e-16
  outer loop
    vertex -78.74372026137314 5.00000000000005 -11.268431671091797
    vertex -85.00294002467307 5.000000000000113 0.0
    vertex -78.42588301617735 5.000000000000047 -10.854218108718703
  endloop
endfacet
facet normal 5.65270728665467e-15 1.0 5.728461372929214e-16
  outer loop
    vertex -78.42588301617735 5.000000000000047 -10.854218108718703
    vertex -85.00294002467307 5.000000000000113 0.0
    vertex -78.01166945380426 5.000000000000044 -10.536380863522924
  endloop
endfacet
facet normal 5.65270728665467e-15 1.0 5.728461372929214e-16
  outer loop
    vertex -78.01166945380426 5.000000000000044 -10.536380863522924
    vertex -85.00294002467307 5.000000000000113 0.0
    vertex -77.52930754400931 5.000000000000043 -10.336580018513663
  endloop
endfacet
facet normal 5.65270728665467e-15 1.0 5.728461372929214e-16
  outer loop
    vertex -77.52930754400931 5.000000000000043 -10.336580018513663
    vertex -85.00294002467307 5.000000000000113 0.0
    vertex -77.01166945380426 5.000000000000039 -10.268431671091799
  endloop
endfacet
facet normal 5.65270728665467e-15 1.0 5.728461372929214e-16
  outer loop
    vertex -69.0091296313775 5.0000000000000036 -24.53686334218359
    vertex -75.27961864623539 5.00000000000004 -13.268431671091793
    vertex -69.0091296313775 5.000000000000005 0.0
  endloop
endfacet
facet normal 5.65270728665467e-15 1.0 5.728461372929214e-16
  outer loop
    vertex -75.27961864623539 5.00000000000004 -13.268431671091793
    vertex -69.0091296313775 5.0000000000000036 -24.53686334218359
    vertex -75.59745589143118 5.000000000000043 -13.68264523346489
  endloop
endfacet
facet normal 5.65270728665467e-15 1.0 5.728461372929214e-16
  outer loop
    vertex -75.59745589143118 5.000000000000043 -13.68264523346489
    vertex -69.0091296313775 5.0000000000000036 -24.53686334218359
    vertex -85.02529989235703 5.000000000000112 -24.1479153131572
  endloop
endfacet
facet normal 5.65270728665467e-15 1.0 5.728461372929214e-16
  outer loop
    vertex -75.59745589143118 5.000000000000043 -13.68264523346489
    vertex -85.02529989235703 5.000000000000112 -24.1479153131572
    vertex -76.01166945380427 5.000000000000046 -14.000482478660672
  endloop
endfacet
facet normal 5.65270728665467e-15 1.0 5.728461372929214e-16
  outer loop
    vertex -76.01166945380427 5.000000000000046 -14.000482478660672
    vertex -85.02529989235703 5.000000000000112 -24.1479153131572
    vertex -76.49403136359923 5.000000000000048 -14.200283323669929
  endloop
endfacet
facet normal 5.65270728665467e-15 1.0 5.728461372929214e-16
  outer loop
    vertex -76.49403136359923 5.000000000000048 -14.200283323669929
    vertex -85.02529989235703 5.000000000000112 -24.1479153131572
    vertex -77.01166945380426 5.000000000000051 -14.268431671091792
  endloop
endfacet
facet normal 5.65270728665467e-15 1.0 5.728461372929214e-16
  outer loop
    vertex -69.0091296313775 5.000000000000005 0.0
    vertex -75.27961864623539 5.00000000000004 -13.268431671091793
    vertex -75.07981780122613 5.000000000000038 -12.786069761296838
  endloop
endfacet
facet normal 5.65270728665467e-15 1.0 5.728461372929214e-16
  outer loop
    vertex -69.0091296313775 5.000000000000005 0.0
    vertex -75.07981780122613 5.000000000000038 -12.786069761296838
    vertex -75.01166945380427 5.000000000000036 -12.268431671091795
  endloop
endfacet
facet normal 5.65270728665467e-15 1.0 5.728461372929214e-16
  outer loop
    vertex -69.0091296313775 5.000000000000005 0.0
    vertex -75.01166945380427 5.000000000000036 -12.268431671091795
    vertex -75.07981780122613 5.0000000000000355 -11.750793580886755
  endloop
endfacet
facet normal 5.65270728665467e-15 1.0 5.728461372929214e-16
  outer loop
    vertex -69.0091296313775 5.000000000000005 0.0
    vertex -75.07981780122613 5.0000000000000355 -11.750793580886755
    vertex -75.27961864623539 5.0000000000000355 -11.268431671091797
  endloop
endfacet
facet normal 5.65270728665467e-15 1.0 5.728461372929214e-16
  outer loop
    vertex -69.0091296313775 5.000000000000005 0.0
    vertex -75.27961864623539 5.0000000000000355 -11.268431671091797
    vertex -75.59745589143118 5.0000000000000355 -10.854218108718703
  endloop
endfacet
facet normal 5.65270728665467e-15 1.0 5.728461372929214e-16
  outer loop
    vertex -69.0091296313775 5.000000000000005 0.0
    vertex -75.59745589143118 5.0000000000000355 -10.854218108718703
    vertex -76.01166945380427 5.0000000000000355 -10.536380863522924
  endloop
endfacet
facet normal 5.65270728665467e-15 1.0 5.728461372929214e-16
  outer loop
    vertex -69.0091296313775 5.000000000000005 0.0
    vertex -76.01166945380427 5.0000000000000355 -10.536380863522924
    vertex -76.49403136359922 5.000000000000038 -10.336580018513663
  endloop
endfacet
facet normal 5.65270728665467e-15 1.0 5.728461372929214e-16
  outer loop
    vertex -69.0091296313775 5.000000000000005 0.0
    vertex -76.49403136359922 5.000000000000038 -10.336580018513663
    vertex -77.01166945380426 5.000000000000039 -10.268431671091799
  endloop
endfacet
facet normal 5.65270728665467e-15 1.0 5.728461372929214e-16
  outer loop
    vertex -69.0091296313775 5.000000000000005 0.0
    vertex -77.01166945380426 5.000000000000039 -10.268431671091799
    vertex -85.00294002467307 5.000000000000113 0.0
  endloop
endfacet
facet normal 1.0 -6.767919558114954e-15 5.023840947038817e-31
  outer loop
    vertex -69.0091296313775 5.0000000000000036 -29.538337492561364
    vertex -69.00912963137755 5.3634410771804155e-15 0.0
    vertex -69.00912963137755 3.2806259251654586e-15 -29.538337492561364
  endloop
endfacet
facet normal 1.0 -6.767919558114954e-15 5.023840947038817e-31
  outer loop
    vertex -69.00912963137755 5.3634410771804155e-15 0.0
    vertex -69.0091296313775 5.0000000000000036 -29.538337492561364
    vertex -69.0091296313775 5.0000000000000036 -24.53686334218359
  endloop
endfacet
facet normal 1.0 -6.767919558114954e-15 5.023840947038817e-31
  outer loop
    vertex -69.00912963137755 5.3634410771804155e-15 0.0
    vertex -69.0091296313775 5.0000000000000036 -24.53686334218359
    vertex -69.0091296313775 5.000000000000005 0.0
  endloop
endfacet
facet normal -6.7617350719736805e-15 -1.0 3.5869901503057584e-17
  outer loop
    vertex -69.00912963137755 3.2806259251654586e-15 -29.538337492561364
    vertex -75.5974558914312 4.3004488858855435e-14 -13.682645233464903
    vertex -90.00294002467311 1.462857612821722e-13 -29.028508922986287
  endloop
endfacet
facet normal -6.7617350719736805e-15 -1.0 3.5869901503057584e-17
  outer loop
    vertex -75.5974558914312 4.3004488858855435e-14 -13.682645233464903
    vertex -69.00912963137755 3.2806259251654586e-15 -29.538337492561364
    vertex -75.2796186462354 4.018452237630754e-14 -13.268431671091808
  endloop
endfacet
facet normal -6.7617350719736805e-15 -1.0 3.5869901503057584e-17
  outer loop
    vertex -75.2796186462354 4.018452237630754e-14 -13.268431671091808
    vertex -69.00912963137755 3.2806259251654586e-15 -29.538337492561364
    vertex -69.00912963137755 5.3634410771804155e-15 0.0
  endloop
endfacet
facet normal -6.7617350719736805e-15 -1.0 3.5869901503057584e-17
  outer loop
    vertex -90.00294002467311 1.462857612821722e-13 -29.028508922986287
    vertex -75.5974558914312 4.3004488858855435e-14 -13.682645233464903
    vertex -76.01166945380429 4.5824455341403336e-14 -14.000482478660686
  endloop
endfacet
facet normal -6.7617350719736805e-15 -1.0 3.5869901503057584e-17
  outer loop
    vertex -90.00294002467311 1.462857612821722e-13 -29.028508922986287
    vertex -76.01166945380429 4.5824455341403336e-14 -14.000482478660686
    vertex -76.49403136359925 4.7939430203314254e-14 -14.200283323669943
  endloop
endfacet
facet normal -6.7617350719736805e-15 -1.0 3.5869901503057584e-17
  outer loop
    vertex -90.00294002467311 1.462857612821722e-13 -29.028508922986287
    vertex -76.49403136359925 4.7939430203314254e-14 -14.200283323669943
    vertex -77.01166945380429 5.0759396685862156e-14 -14.268431671091806
  endloop
endfacet
facet normal -6.7617350719736805e-15 -1.0 3.5869901503057584e-17
  outer loop
    vertex -75.2796186462354 4.018452237630754e-14 -13.268431671091808
    vertex -69.00912963137755 5.3634410771804155e-15 0.0
    vertex -75.07981780122616 3.8069547514396615e-14 -12.786069761296853
  endloop
endfacet
facet normal -6.7617350719736805e-15 -1.0 3.5869901503057584e-17
  outer loop
    vertex -75.07981780122616 3.8069547514396615e-14 -12.786069761296853
    vertex -69.00912963137755 5.3634410771804155e-15 0.0
    vertex -75.01166945380429 3.665956427312267e-14 -12.26843167109181
  endloop
endfacet
facet normal -6.7617350719736805e-15 -1.0 3.5869901503057584e-17
  outer loop
    vertex -75.01166945380429 3.665956427312267e-14 -12.26843167109181
    vertex -69.00912963137755 5.3634410771804155e-15 0.0
    vertex -75.07981780122616 3.524958103184872e-14 -11.75079358088677
  endloop
endfacet
facet normal -6.7617350719736805e-15 -1.0 3.5869901503057584e-17
  outer loop
    vertex -75.07981780122616 3.524958103184872e-14 -11.75079358088677
    vertex -69.00912963137755 5.3634410771804155e-15 0.0
    vertex -75.2796186462354 3.524958103184872e-14 -11.268431671091811
  endloop
endfacet
facet normal -6.7617350719736805e-15 -1.0 3.5869901503057584e-17
  outer loop
    vertex -75.2796186462354 3.524958103184872e-14 -11.268431671091811
    vertex -69.00912963137755 5.3634410771804155e-15 0.0
    vertex -75.5974558914312 3.524958103184872e-14 -10.854218108718717
  endloop
endfacet
facet normal -6.7617350719736805e-15 -1.0 3.5869901503057584e-17
  outer loop
    vertex -75.5974558914312 3.524958103184872e-14 -10.854218108718717
    vertex -69.00912963137755 5.3634410771804155e-15 0.0
    vertex -76.01166945380429 3.595457265248569e-14 -10.536380863522934
  endloop
endfacet
facet normal -6.7617350719736805e-15 -1.0 3.5869901503057584e-17
  outer loop
    vertex -76.01166945380429 3.595457265248569e-14 -10.536380863522934
    vertex -69.00912963137755 5.3634410771804155e-15 0.0
    vertex -76.49403136359925 3.8069547514396615e-14 -10.336580018513677
  endloop
endfacet
facet normal -6.7617350719736805e-15 -1.0 3.5869901503057584e-17
  outer loop
    vertex -76.49403136359925 3.8069547514396615e-14 -10.336580018513677
    vertex -69.00912963137755 5.3634410771804155e-15 0.0
    vertex -77.01166945380429 3.947953075567056e-14 -10.268431671091813
  endloop
endfacet
facet normal -6.7617350719736805e-15 -1.0 3.5869901503057584e-17
  outer loop
    vertex -90.00294002467311 1.462857612821722e-13 -29.028508922986287
    vertex -78.4258830161774 5.4989346409684e-14 -13.682645233464903
    vertex -90.00294002467311 1.462857612821722e-13 0.0
  endloop
endfacet
facet normal -6.7617350719736805e-15 -1.0 3.5869901503057584e-17
  outer loop
    vertex -78.4258830161774 5.4989346409684e-14 -13.682645233464903
    vertex -90.00294002467311 1.462857612821722e-13 -29.028508922986287
    vertex -78.01166945380429 5.428435478904703e-14 -14.000482478660683
  endloop
endfacet
facet normal -6.7617350719736805e-15 -1.0 3.5869901503057584e-17
  outer loop
    vertex -78.01166945380429 5.428435478904703e-14 -14.000482478660683
    vertex -90.00294002467311 1.462857612821722e-13 -29.028508922986287
    vertex -77.52930754400933 5.2169379927136103e-14 -14.200283323669943
  endloop
endfacet
facet normal -6.7617350719736805e-15 -1.0 3.5869901503057584e-17
  outer loop
    vertex -77.52930754400933 5.2169379927136103e-14 -14.200283323669943
    vertex -90.00294002467311 1.462857612821722e-13 -29.028508922986287
    vertex -77.01166945380429 5.0759396685862156e-14 -14.268431671091806
  endloop
endfacet
facet normal -6.7617350719736805e-15 -1.0 3.5869901503057584e-17
  outer loop
    vertex -90.00294002467311 1.462857612821722e-13 0.0
    vertex -78.4258830161774 5.4989346409684e-14 -13.682645233464903
    vertex -78.74372026137317 5.4989346409684e-14 -13.268431671091808
  endloop
endfacet
facet normal -6.7617350719736805e-15 -1.0 3.5869901503057584e-17
  outer loop
    vertex -90.00294002467311 1.462857612821722e-13 0.0
    vertex -78.74372026137317 5.4989346409684e-14 -13.268431671091808
    vertex -78.94352110638242 5.4989346409684e-14 -12.786069761296849
  endloop
endfacet
facet normal -6.7617350719736805e-15 -1.0 3.5869901503057584e-17
  outer loop
    vertex -90.00294002467311 1.462857612821722e-13 0.0
    vertex -78.94352110638242 5.4989346409684e-14 -12.786069761296849
    vertex -79.01166945380429 5.357936316841005e-14 -12.26843167109181
  endloop
endfacet
facet normal -6.7617350719736805e-15 -1.0 3.5869901503057584e-17
  outer loop
    vertex -90.00294002467311 1.462857612821722e-13 0.0
    vertex -79.01166945380429 5.357936316841005e-14 -12.26843167109181
    vertex -78.94352110638242 5.2169379927136103e-14 -11.750793580886768
  endloop
endfacet
facet normal -6.7617350719736805e-15 -1.0 3.5869901503057584e-17
  outer loop
    vertex -90.00294002467311 1.462857612821722e-13 0.0
    vertex -78.94352110638242 5.2169379927136103e-14 -11.750793580886768
    vertex -78.74372026137317 5.005440506522518e-14 -11.268431671091811
  endloop
endfacet
facet normal -6.7617350719736805e-15 -1.0 3.5869901503057584e-17
  outer loop
    vertex -90.00294002467311 1.462857612821722e-13 0.0
    vertex -78.74372026137317 5.005440506522518e-14 -11.268431671091811
    vertex -78.42588301617738 4.7234438582677284e-14 -10.854218108718717
  endloop
endfacet
facet normal -6.7617350719736805e-15 -1.0 3.5869901503057584e-17
  outer loop
    vertex -90.00294002467311 1.462857612821722e-13 0.0
    vertex -78.42588301617738 4.7234438582677284e-14 -10.854218108718717
    vertex -78.01166945380429 4.441447210012938e-14 -10.536380863522934
  endloop
endfacet
facet normal -6.7617350719736805e-15 -1.0 3.5869901503057584e-17
  outer loop
    vertex -90.00294002467311 1.462857612821722e-13 0.0
    vertex -78.01166945380429 4.441447210012938e-14 -10.536380863522934
    vertex -77.52930754400933 4.2299497238218464e-14 -10.336580018513677
  endloop
endfacet
facet normal -6.7617350719736805e-15 -1.0 3.5869901503057584e-17
  outer loop
    vertex -90.00294002467311 1.462857612821722e-13 0.0
    vertex -77.52930754400933 4.2299497238218464e-14 -10.336580018513677
    vertex -77.01166945380429 3.947953075567056e-14 -10.268431671091813
  endloop
endfacet
facet normal -6.7617350719736805e-15 -1.0 3.5869901503057584e-17
  outer loop
    vertex -90.00294002467311 1.462857612821722e-13 0.0
    vertex -77.01166945380429 3.947953075567056e-14 -10.268431671091813
    vertex -69.00912963137755 5.3634410771804155e-15 0.0
  endloop
endfacet
facet normal -0.024277550932146473 1.2829903850517077e-16 -0.9997052568235985
  outer loop
    vertex -85.14668764701763 25.000000000000114 -29.146441597275192
    vertex -85.14668764701777 5.000000000000113 -29.146441597275192
    vertex -90.00294002467294 25.000000000000146 -29.028508922986287
  endloop
endfacet
facet normal -0.024277550932146473 1.2829903850517077e-16 -0.9997052568235985
  outer loop
    vertex -90.00294002467311 1.462857612821722e-13 -29.028508922986287
    vertex -85.14668764701777 5.000000000000113 -29.146441597275192
    vertex -69.00912963137755 3.2806259251654586e-15 -29.538337492561364
  endloop
endfacet
facet normal -0.024277550932146473 1.2829903850517077e-16 -0.9997052568235985
  outer loop
    vertex -85.14668764701777 5.000000000000113 -29.146441597275192
    vertex -90.00294002467311 1.462857612821722e-13 -29.028508922986287
    vertex -90.00294002467294 25.000000000000146 -29.028508922986287
  endloop
endfacet
facet normal -0.024277550932146473 1.2829903850517077e-16 -0.9997052568235985
  outer loop
    vertex -69.00912963137755 3.2806259251654586e-15 -29.538337492561364
    vertex -85.14668764701777 5.000000000000113 -29.146441597275192
    vertex -69.0091296313775 5.0000000000000036 -29.538337492561364
  endloop
endfacet
facet normal -1.0 6.7617350719736805e-15 0.0
  outer loop
    vertex -90.00294002467294 25.000000000000146 0.0
    vertex -90.00294002467311 1.462857612821722e-13 -29.028508922986287
    vertex -90.00294002467311 1.462857612821722e-13 0.0
  endloop
endfacet
facet normal -1.0 6.7617350719736805e-15 0.0
  outer loop
    vertex -90.00294002467311 1.462857612821722e-13 -29.028508922986287
    vertex -90.00294002467294 25.000000000000146 0.0
    vertex -90.00294002467294 25.000000000000146 -29.028508922986287
  endloop
endfacet
facet normal 2.4077905109353964e-31 3.5869901503057584e-17 1.0
  outer loop
    vertex -90.00294002467311 1.462857612821722e-13 0.0
    vertex -85.00294002467307 5.000000000000113 0.0
    vertex -90.00294002467294 25.000000000000146 0.0
  endloop
endfacet
facet normal 2.4077905109353964e-31 3.5869901503057584e-17 1.0
  outer loop
    vertex -85.00294002467307 5.000000000000113 0.0
    vertex -90.00294002467311 1.462857612821722e-13 0.0
    vertex -69.00912963137755 5.3634410771804155e-15 0.0
  endloop
endfacet
facet normal 2.4077905109353964e-31 3.5869901503057584e-17 1.0
  outer loop
    vertex -85.00294002467307 5.000000000000113 0.0
    vertex -69.00912963137755 5.3634410771804155e-15 0.0
    vertex -69.0091296313775 5.000000000000005 0.0
  endloop
endfacet
facet normal 2.4077905109353964e-31 3.5869901503057584e-17 1.0
  outer loop
    vertex -85.00294002467294 25.000000000000114 0.0
    vertex -90.00294002467294 25.000000000000146 0.0
    vertex -85.00294002467307 5.000000000000113 0.0
  endloop
endfacet
facet normal -0.024277550932146584 1.611107171437143e-16 -0.9997052568235985
  outer loop
    vertex -69.0091296313775 5.0000000000000036 -29.538337492561364
    vertex -85.14668764701777 5.000000000000113 -29.146441597275192
    vertex -85.14668764701763 25.000000000000114 -29.146441597275192
  endloop
endfacet
facet normal 0.024277550932146622 -1.7104955120631495e-16 0.9997052568235985
  outer loop
    vertex -69.0091296313775 5.0000000000000036 -24.53686334218359
    vertex -85.0252998923569 25.000000000000114 -24.1479153131572
    vertex -85.02529989235703 5.000000000000112 -24.1479153131572
  endloop
endfacet
facet normal 0.024277550932146622 -1.7104955120631495e-16 0.9997052568235985
  outer loop
    vertex -85.0252998923569 25.000000000000114 -24.1479153131572
    vertex -69.0091296313775 5.0000000000000036 -24.53686334218359
    vertex -68.88774187671677 5.000000000000003 -24.53981120844337
  endloop
endfacet
facet normal 0.7779310655641829 0.6280655666534621 -0.018891829303710424
  outer loop
    vertex -69.0091296313775 5.0000000000000036 -29.538337492561364
    vertex -85.0252998923569 25.000000000000114 -24.1479153131572
    vertex -68.88774187671677 5.000000000000003 -24.53981120844337
  endloop
endfacet
facet normal 0.7779310655641829 0.6280655666534621 -0.018891829303710424
  outer loop
    vertex -85.0252998923569 25.000000000000114 -24.1479153131572
    vertex -69.0091296313775 5.0000000000000036 -29.538337492561364
    vertex -85.14668764701763 25.000000000000114 -29.146441597275192
  endloop
endfacet
facet normal -0.9997052568235986 6.765924760006765e-15 0.024277550932146584
  outer loop
    vertex -85.0252998923569 25.000000000000114 -24.1479153131572
    vertex -85.14668764701777 5.000000000000113 -29.146441597275192
    vertex -85.02529989235703 5.000000000000112 -24.1479153131572
  endloop
endfacet
facet normal -0.9997052568235986 6.765924760006765e-15 0.024277550932146584
  outer loop
    vertex -85.14668764701777 5.000000000000113 -29.146441597275192
    vertex -85.0252998923569 25.000000000000114 -24.1479153131572
    vertex -85.14668764701763 25.000000000000114 -29.146441597275192
  endloop
endfacet
facet normal 6.774729209962746e-15 1.0 -1.1737754149491724e-17
  outer loop
    vertex -85.14668764701777 5.000000000000113 -29.146441597275192
    vertex -69.0091296313775 5.0000000000000036 -24.53686334218359
    vertex -69.0091296313775 5.0000000000000036 -29.538337492561364
  endloop
endfacet
facet normal 6.774729209962746e-15 1.0 -1.1737754149491724e-17
  outer loop
    vertex -69.0091296313775 5.0000000000000036 -24.53686334218359
    vertex -85.14668764701777 5.000000000000113 -29.146441597275192
    vertex -85.02529989235703 5.000000000000112 -24.1479153131572
  endloop
endfacet
facet normal 0.9999878383544882 -7.239212637245653e-15 -0.004931849867757
  outer loop
    vertex -85.01667285137796 18.068163847961728 -12.591585298146088
    vertex -85.01156706565197 18.068163847961728 -11.556330015011113
    vertex -85.01411995851495 18.000016047339702 -12.0739576565786
  endloop
endfacet
facet normal 0.9999878383544882 -7.239212637245653e-15 -0.004931849867757
  outer loop
    vertex -85.01156706565197 18.068163847961728 -11.556330015011113
    vertex -85.01667285137796 18.068163847961728 -12.591585298146088
    vertex -85.01905176881118 18.267963089834986 -13.073937471360875
  endloop
endfacet
facet normal 0.9999878383544882 -7.239212637245653e-15 -0.004931849867757
  outer loop
    vertex -85.01156706565197 18.068163847961728 -11.556330015011113
    vertex -85.01905176881118 18.267963089834986 -13.073937471360875
    vertex -85.00918814821874 18.267963089834986 -11.073977841796326
  endloop
endfacet
facet normal 0.9999878383544882 -7.239212637245653e-15 -0.004931849867757
  outer loop
    vertex -85.00918814821874 18.267963089834986 -11.073977841796326
    vertex -85.01905176881118 18.267963089834986 -13.073937471360875
    vertex -85.02109459152292 18.585797784809664 -13.488142672743027
  endloop
endfacet
facet normal 0.9999878383544882 -7.239212637245653e-15 -0.004931849867757
  outer loop
    vertex -85.00918814821874 18.267963089834986 -11.073977841796326
    vertex -85.02109459152292 18.585797784809664 -13.488142672743027
    vertex -85.00714532550698 18.58579778480966 -10.659772640414172
  endloop
endfacet
facet normal 0.9999878383544882 -7.239212637245653e-15 -0.004931849867757
  outer loop
    vertex -85.00714532550698 18.58579778480966 -10.659772640414172
    vertex -85.02109459152292 18.585797784809664 -13.488142672743027
    vertex -85.0055778125086 19.000008023669906 -10.341941810832385
  endloop
endfacet
facet normal 0.9999878383544882 -7.239212637245653e-15 -0.004931849867757
  outer loop
    vertex -85.0055778125086 19.000008023669906 -10.341941810832385
    vertex -85.02109459152292 18.585797784809664 -13.488142672743027
    vertex -85.0226621045213 19.00000802366991 -13.805973502324813
  endloop
endfacet
facet normal 0.9999878383544882 -7.239212637245653e-15 -0.004931849867757
  outer loop
    vertex -85.0055778125086 19.000008023669906 -10.341941810832385
    vertex -85.0226621045213 19.00000802366991 -13.805973502324813
    vertex -85.00459243264399 19.482366063152178 -10.142144998846685
  endloop
endfacet
facet normal 0.9999878383544882 -7.239212637245653e-15 -0.004931849867757
  outer loop
    vertex -85.00459243264399 19.482366063152178 -10.142144998846685
    vertex -85.0226621045213 19.00000802366991 -13.805973502324813
    vertex -85.0236474843859 19.48236606315218 -14.005770314310512
  endloop
endfacet
facet normal 0.9999878383544882 -7.239212637245653e-15 -0.004931849867757
  outer loop
    vertex -85.00459243264399 19.482366063152178 -10.142144998846685
    vertex -85.0236474843859 19.48236606315218 -14.005770314310512
    vertex -85.0042563379225 20.000000000000114 -10.073998027014051
  endloop
endfacet
facet normal 0.9999878383544882 -7.239212637245653e-15 -0.004931849867757
  outer loop
    vertex -85.0042563379225 20.000000000000114 -10.073998027014051
    vertex -85.0236474843859 19.48236606315218 -14.005770314310512
    vertex -85.0239835791074 20.000000000000114 -14.073917286143146
  endloop
endfacet
facet normal 0.9999878383544882 -7.239212637245653e-15 -0.004931849867757
  outer loop
    vertex -85.0042563379225 20.000000000000114 -10.073998027014051
    vertex -85.0239835791074 20.000000000000114 -14.073917286143146
    vertex -85.0236474843859 20.517633936848046 -14.005770314310512
  endloop
endfacet
facet normal 0.9999878383544882 -7.239212637245653e-15 -0.004931849867757
  outer loop
    vertex -85.0042563379225 20.000000000000114 -10.073998027014051
    vertex -85.0236474843859 20.517633936848046 -14.005770314310512
    vertex -85.00459243264399 20.517633936848046 -10.142144998846685
  endloop
endfacet
facet normal 0.9999878383544882 -7.239212637245653e-15 -0.004931849867757
  outer loop
    vertex -85.00459243264399 20.517633936848046 -10.142144998846685
    vertex -85.0236474843859 20.517633936848046 -14.005770314310512
    vertex -85.02266210452129 20.99999197633032 -13.805973502324813
  endloop
endfacet
facet normal 0.9999878383544882 -7.239212637245653e-15 -0.004931849867757
  outer loop
    vertex -85.00459243264399 20.517633936848046 -10.142144998846685
    vertex -85.02266210452129 20.99999197633032 -13.805973502324813
    vertex -85.00557781250859 20.999991976330318 -10.341941810832385
  endloop
endfacet
facet normal 0.9999878383544882 -7.239212637245653e-15 -0.004931849867757
  outer loop
    vertex -85.00557781250859 20.999991976330318 -10.341941810832385
    vertex -85.02266210452129 20.99999197633032 -13.805973502324813
    vertex -85.00714532550697 21.414202215190564 -10.659772640414172
  endloop
endfacet
facet normal 0.9999878383544882 -7.239212637245653e-15 -0.004931849867757
  outer loop
    vertex -85.00714532550697 21.414202215190564 -10.659772640414172
    vertex -85.02266210452129 20.99999197633032 -13.805973502324813
    vertex -85.02109459152291 21.414202215190564 -13.488142672743027
  endloop
endfacet
facet normal 0.9999878383544882 -7.239212637245653e-15 -0.004931849867757
  outer loop
    vertex -85.00714532550697 21.414202215190564 -10.659772640414172
    vertex -85.02109459152291 21.414202215190564 -13.488142672743027
    vertex -85.01905176881115 21.73203691016524 -13.073937471360871
  endloop
endfacet
facet normal 0.9999878383544882 -7.239212637245653e-15 -0.004931849867757
  outer loop
    vertex -85.00714532550697 21.414202215190564 -10.659772640414172
    vertex -85.01905176881115 21.73203691016524 -13.073937471360871
    vertex -85.00918814821871 21.73203691016524 -11.073977841796326
  endloop
endfacet
facet normal 0.9999878383544882 -7.239212637245653e-15 -0.004931849867757
  outer loop
    vertex -85.00918814821871 21.73203691016524 -11.073977841796326
    vertex -85.01905176881115 21.73203691016524 -13.073937471360871
    vertex -85.01667285137792 21.931836152038496 -12.591585298146084
  endloop
endfacet
facet normal 0.9999878383544882 -7.239212637245653e-15 -0.004931849867757
  outer loop
    vertex -85.00918814821871 21.73203691016524 -11.073977841796326
    vertex -85.01667285137792 21.931836152038496 -12.591585298146084
    vertex -85.01156706565195 21.931836152038496 -11.556330015011113
  endloop
endfacet
facet normal 0.9999878383544882 -7.239212637245653e-15 -0.004931849867757
  outer loop
    vertex -85.01156706565195 21.931836152038496 -11.556330015011113
    vertex -85.01667285137792 21.931836152038496 -12.591585298146084
    vertex -85.01411995851494 21.99998395266052 -12.0739576565786
  endloop
endfacet
facet normal 0.13052619222005077 2.1177162637738213e-15 -0.9914448613738106
  outer loop
    vertex -77.52930754400931 5.000000000000043 -10.336580018513663
    vertex -77.01166945380429 3.947953075567056e-14 -10.268431671091813
    vertex -77.52930754400933 4.2299497238218464e-14 -10.336580018513677
  endloop
endfacet
facet normal 0.13052619222005077 2.1177162637738213e-15 -0.9914448613738106
  outer loop
    vertex -77.01166945380429 3.947953075567056e-14 -10.268431671091813
    vertex -77.52930754400931 5.000000000000043 -10.336580018513663
    vertex -77.01166945380426 5.000000000000039 -10.268431671091799
  endloop
endfacet
facet normal -0.13052619222005077 3.236409250581015e-15 -0.9914448613738106
  outer loop
    vertex -77.01166945380426 5.000000000000039 -10.268431671091799
    vertex -76.49403136359925 3.8069547514396615e-14 -10.336580018513677
    vertex -77.01166945380429 3.947953075567056e-14 -10.268431671091813
  endloop
endfacet
facet normal -0.13052619222005077 3.236409250581015e-15 -0.9914448613738106
  outer loop
    vertex -76.49403136359925 3.8069547514396615e-14 -10.336580018513677
    vertex -77.01166945380426 5.000000000000039 -10.268431671091799
    vertex -76.49403136359922 5.000000000000038 -10.336580018513663
  endloop
endfacet
facet normal -0.38268343236509283 4.134546295380301e-15 -0.9238795325112855
  outer loop
    vertex -76.49403136359922 5.000000000000038 -10.336580018513663
    vertex -76.01166945380429 3.595457265248569e-14 -10.536380863522934
    vertex -76.49403136359925 3.8069547514396615e-14 -10.336580018513677
  endloop
endfacet
facet normal -0.38268343236509283 4.134546295380301e-15 -0.9238795325112855
  outer loop
    vertex -76.01166945380429 3.595457265248569e-14 -10.536380863522934
    vertex -76.49403136359922 5.000000000000038 -10.336580018513663
    vertex -76.01166945380427 5.0000000000000355 -10.536380863522924
  endloop
endfacet
facet normal -0.6087614290087249 4.75092084281022e-15 -0.7933533402912321
  outer loop
    vertex -76.01166945380427 5.0000000000000355 -10.536380863522924
    vertex -75.5974558914312 3.524958103184872e-14 -10.854218108718717
    vertex -76.01166945380429 3.595457265248569e-14 -10.536380863522934
  endloop
endfacet
facet normal -0.6087614290087249 4.75092084281022e-15 -0.7933533402912321
  outer loop
    vertex -75.5974558914312 3.524958103184872e-14 -10.854218108718717
    vertex -76.01166945380427 5.0000000000000355 -10.536380863522924
    vertex -75.59745589143118 5.0000000000000355 -10.854218108718703
  endloop
endfacet
facet normal -0.7933533402912268 5.04352798607052e-15 -0.6087614290087315
  outer loop
    vertex -75.59745589143118 5.0000000000000355 -10.854218108718703
    vertex -75.2796186462354 3.524958103184872e-14 -11.268431671091811
    vertex -75.5974558914312 3.524958103184872e-14 -10.854218108718717
  endloop
endfacet
facet normal -0.7933533402912268 5.04352798607052e-15 -0.6087614290087315
  outer loop
    vertex -75.2796186462354 3.524958103184872e-14 -11.268431671091811
    vertex -75.59745589143118 5.0000000000000355 -10.854218108718703
    vertex -75.27961864623539 5.0000000000000355 -11.268431671091797
  endloop
endfacet
facet normal -0.92387953251129 4.99242703190421e-15 -0.38268343236508207
  outer loop
    vertex -75.27961864623539 5.0000000000000355 -11.268431671091797
    vertex -75.07981780122616 3.524958103184872e-14 -11.75079358088677
    vertex -75.2796186462354 3.524958103184872e-14 -11.268431671091811
  endloop
endfacet
facet normal -0.92387953251129 4.99242703190421e-15 -0.38268343236508207
  outer loop
    vertex -75.07981780122616 3.524958103184872e-14 -11.75079358088677
    vertex -75.27961864623539 5.0000000000000355 -11.268431671091797
    vertex -75.07981780122613 5.0000000000000355 -11.750793580886755
  endloop
endfacet
facet normal -0.9914448613738104 4.601100425889399e-15 -0.13052619222005216
  outer loop
    vertex -75.07981780122613 5.0000000000000355 -11.750793580886755
    vertex -75.01166945380429 3.665956427312267e-14 -12.26843167109181
    vertex -75.07981780122616 3.524958103184872e-14 -11.75079358088677
  endloop
endfacet
facet normal -0.9914448613738104 4.601100425889399e-15 -0.13052619222005216
  outer loop
    vertex -75.01166945380429 3.665956427312267e-14 -12.26843167109181
    vertex -75.07981780122613 5.0000000000000355 -11.750793580886755
    vertex -75.01166945380427 5.000000000000036 -12.268431671091795
  endloop
endfacet
facet normal -0.9914448613738105 3.896216429528184e-15 0.13052619222005143
  outer loop
    vertex -75.01166945380427 5.000000000000036 -12.268431671091795
    vertex -75.07981780122616 3.8069547514396615e-14 -12.786069761296853
    vertex -75.01166945380429 3.665956427312267e-14 -12.26843167109181
  endloop
endfacet
facet normal -0.9914448613738105 3.896216429528184e-15 0.13052619222005143
  outer loop
    vertex -75.07981780122616 3.8069547514396615e-14 -12.786069761296853
    vertex -75.01166945380427 5.000000000000036 -12.268431671091795
    vertex -75.07981780122613 5.000000000000038 -12.786069761296838
  endloop
endfacet
facet normal -0.9238795325112892 2.9258117222967356e-15 0.382683432365084
  outer loop
    vertex -75.07981780122613 5.000000000000038 -12.786069761296838
    vertex -75.2796186462354 4.018452237630754e-14 -13.268431671091808
    vertex -75.07981780122616 3.8069547514396615e-14 -12.786069761296853
  endloop
endfacet
facet normal -0.9238795325112892 2.9258117222967356e-15 0.382683432365084
  outer loop
    vertex -75.2796186462354 4.018452237630754e-14 -13.268431671091808
    vertex -75.07981780122613 5.000000000000038 -12.786069761296838
    vertex -75.27961864623539 5.00000000000004 -13.268431671091793
  endloop
endfacet
facet normal -0.7933533402912268 1.7560177813231344e-15 0.6087614290087315
  outer loop
    vertex -75.27961864623539 5.00000000000004 -13.268431671091793
    vertex -75.5974558914312 4.3004488858855435e-14 -13.682645233464903
    vertex -75.2796186462354 4.018452237630754e-14 -13.268431671091808
  endloop
endfacet
facet normal -0.7933533402912268 1.7560177813231344e-15 0.6087614290087315
  outer loop
    vertex -75.5974558914312 4.3004488858855435e-14 -13.682645233464903
    vertex -75.27961864623539 5.00000000000004 -13.268431671091793
    vertex -75.59745589143118 5.000000000000043 -13.68264523346489
  endloop
endfacet
facet normal -0.6087614290087265 4.665541305091437e-16 0.7933533402912307
  outer loop
    vertex -75.5974558914312 4.3004488858855435e-14 -13.682645233464903
    vertex -76.01166945380427 5.000000000000046 -14.000482478660672
    vertex -76.01166945380429 4.5824455341403336e-14 -14.000482478660686
  endloop
endfacet
facet normal -0.6087614290087265 4.665541305091437e-16 0.7933533402912307
  outer loop
    vertex -76.01166945380427 5.000000000000046 -14.000482478660672
    vertex -75.5974558914312 4.3004488858855435e-14 -13.682645233464903
    vertex -75.59745589143118 5.000000000000043 -13.68264523346489
  endloop
endfacet
facet normal -0.38268343236508295 -8.547044132820644e-16 0.9238795325112897
  outer loop
    vertex -76.01166945380429 4.5824455341403336e-14 -14.000482478660686
    vertex -76.49403136359923 5.000000000000048 -14.200283323669929
    vertex -76.49403136359925 4.7939430203314254e-14 -14.200283323669943
  endloop
endfacet
facet normal -0.38268343236508295 -8.547044132820644e-16 0.9238795325112897
  outer loop
    vertex -76.49403136359923 5.000000000000048 -14.200283323669929
    vertex -76.01166945380429 4.5824455341403336e-14 -14.000482478660686
    vertex -76.01166945380427 5.000000000000046 -14.000482478660672
  endloop
endfacet
facet normal -0.13052619222005354 -2.117716263773808e-15 0.9914448613738103
  outer loop
    vertex -76.49403136359925 4.7939430203314254e-14 -14.200283323669943
    vertex -77.01166945380426 5.000000000000051 -14.268431671091792
    vertex -77.01166945380429 5.0759396685862156e-14 -14.268431671091806
  endloop
endfacet
facet normal -0.13052619222005354 -2.117716263773808e-15 0.9914448613738103
  outer loop
    vertex -77.01166945380426 5.000000000000051 -14.268431671091792
    vertex -76.49403136359925 4.7939430203314254e-14 -14.200283323669943
    vertex -76.49403136359923 5.000000000000048 -14.200283323669929
  endloop
endfacet
facet normal 0.13052619222005077 -3.236409250581015e-15 0.9914448613738106
  outer loop
    vertex -77.01166945380429 5.0759396685862156e-14 -14.268431671091806
    vertex -77.52930754400931 5.000000000000052 -14.200283323669929
    vertex -77.52930754400933 5.2169379927136103e-14 -14.200283323669943
  endloop
endfacet
facet normal 0.13052619222005077 -3.236409250581015e-15 0.9914448613738106
  outer loop
    vertex -77.52930754400931 5.000000000000052 -14.200283323669929
    vertex -77.01166945380429 5.0759396685862156e-14 -14.268431671091806
    vertex -77.01166945380426 5.000000000000051 -14.268431671091792
  endloop
endfacet
facet normal 0.3826834323650951 -4.134546295380308e-15 0.9238795325112845
  outer loop
    vertex -77.52930754400933 5.2169379927136103e-14 -14.200283323669943
    vertex -78.01166945380426 5.000000000000054 -14.000482478660668
    vertex -78.01166945380429 5.428435478904703e-14 -14.000482478660683
  endloop
endfacet
facet normal 0.3826834323650951 -4.134546295380308e-15 0.9238795325112845
  outer loop
    vertex -78.01166945380426 5.000000000000054 -14.000482478660668
    vertex -77.52930754400933 5.2169379927136103e-14 -14.200283323669943
    vertex -77.52930754400931 5.000000000000052 -14.200283323669929
  endloop
endfacet
facet normal 0.6087614290087128 -4.750920842810193e-15 0.7933533402912413
  outer loop
    vertex -78.01166945380429 5.428435478904703e-14 -14.000482478660683
    vertex -78.42588301617737 5.000000000000055 -13.68264523346489
    vertex -78.4258830161774 5.4989346409684e-14 -13.682645233464903
  endloop
endfacet
facet normal 0.6087614290087128 -4.750920842810193e-15 0.7933533402912413
  outer loop
    vertex -78.42588301617737 5.000000000000055 -13.68264523346489
    vertex -78.01166945380429 5.428435478904703e-14 -14.000482478660683
    vertex -78.01166945380426 5.000000000000054 -14.000482478660668
  endloop
endfacet
facet normal 0.7933533402912374 -5.043527986070529e-15 0.608761429008718
  outer loop
    vertex -78.42588301617737 5.000000000000055 -13.68264523346489
    vertex -78.74372026137317 5.4989346409684e-14 -13.268431671091808
    vertex -78.4258830161774 5.4989346409684e-14 -13.682645233464903
  endloop
endfacet
facet normal 0.7933533402912374 -5.043527986070529e-15 0.608761429008718
  outer loop
    vertex -78.74372026137317 5.4989346409684e-14 -13.268431671091808
    vertex -78.42588301617737 5.000000000000055 -13.68264523346489
    vertex -78.74372026137314 5.000000000000055 -13.268431671091793
  endloop
endfacet
facet normal 0.92387953251129 -4.99242703190421e-15 0.38268343236508207
  outer loop
    vertex -78.74372026137314 5.000000000000055 -13.268431671091793
    vertex -78.94352110638242 5.4989346409684e-14 -12.786069761296849
    vertex -78.74372026137317 5.4989346409684e-14 -13.268431671091808
  endloop
endfacet
facet normal 0.92387953251129 -4.99242703190421e-15 0.38268343236508207
  outer loop
    vertex -78.94352110638242 5.4989346409684e-14 -12.786069761296849
    vertex -78.74372026137314 5.000000000000055 -13.268431671091793
    vertex -78.9435211063824 5.000000000000055 -12.786069761296835
  endloop
endfacet
facet normal 0.9914448613738104 -4.601100425889399e-15 0.13052619222005216
  outer loop
    vertex -78.94352110638242 5.4989346409684e-14 -12.786069761296849
    vertex -79.01166945380426 5.000000000000053 -12.268431671091795
    vertex -79.01166945380429 5.357936316841005e-14 -12.26843167109181
  endloop
endfacet
facet normal 0.9914448613738104 -4.601100425889399e-15 0.13052619222005216
  outer loop
    vertex -79.01166945380426 5.000000000000053 -12.268431671091795
    vertex -78.94352110638242 5.4989346409684e-14 -12.786069761296849
    vertex -78.9435211063824 5.000000000000055 -12.786069761296835
  endloop
endfacet
facet normal 0.9914448613738104 -3.896216429528182e-15 -0.1305261922200518
  outer loop
    vertex -79.01166945380429 5.357936316841005e-14 -12.26843167109181
    vertex -78.9435211063824 5.000000000000052 -11.750793580886755
    vertex -78.94352110638242 5.2169379927136103e-14 -11.750793580886768
  endloop
endfacet
facet normal 0.9914448613738104 -3.896216429528182e-15 -0.1305261922200518
  outer loop
    vertex -78.9435211063824 5.000000000000052 -11.750793580886755
    vertex -79.01166945380429 5.357936316841005e-14 -12.26843167109181
    vertex -79.01166945380426 5.000000000000053 -12.268431671091795
  endloop
endfacet
facet normal 0.9238795325112895 -2.9258117222967403e-15 -0.382683432365083
  outer loop
    vertex -78.94352110638242 5.2169379927136103e-14 -11.750793580886768
    vertex -78.74372026137314 5.00000000000005 -11.268431671091797
    vertex -78.74372026137317 5.005440506522518e-14 -11.268431671091811
  endloop
endfacet
facet normal 0.9238795325112895 -2.9258117222967403e-15 -0.382683432365083
  outer loop
    vertex -78.74372026137314 5.00000000000005 -11.268431671091797
    vertex -78.94352110638242 5.2169379927136103e-14 -11.750793580886768
    vertex -78.9435211063824 5.000000000000052 -11.750793580886755
  endloop
endfacet
facet normal 0.7933533402912268 -1.7560177813231344e-15 -0.6087614290087315
  outer loop
    vertex -78.74372026137317 5.005440506522518e-14 -11.268431671091811
    vertex -78.42588301617735 5.000000000000047 -10.854218108718703
    vertex -78.42588301617738 4.7234438582677284e-14 -10.854218108718717
  endloop
endfacet
facet normal 0.7933533402912268 -1.7560177813231344e-15 -0.6087614290087315
  outer loop
    vertex -78.42588301617735 5.000000000000047 -10.854218108718703
    vertex -78.74372026137317 5.005440506522518e-14 -11.268431671091811
    vertex -78.74372026137314 5.00000000000005 -11.268431671091797
  endloop
endfacet
facet normal 0.6087614290087249 -4.66554130509133e-16 -0.7933533402912321
  outer loop
    vertex -78.42588301617735 5.000000000000047 -10.854218108718703
    vertex -78.01166945380429 4.441447210012938e-14 -10.536380863522934
    vertex -78.42588301617738 4.7234438582677284e-14 -10.854218108718717
  endloop
endfacet
facet normal 0.6087614290087249 -4.66554130509133e-16 -0.7933533402912321
  outer loop
    vertex -78.01166945380429 4.441447210012938e-14 -10.536380863522934
    vertex -78.42588301617735 5.000000000000047 -10.854218108718703
    vertex -78.01166945380426 5.000000000000044 -10.536380863522924
  endloop
endfacet
facet normal 0.38268343236509283 8.547044132820103e-16 -0.9238795325112855
  outer loop
    vertex -78.01166945380426 5.000000000000044 -10.536380863522924
    vertex -77.52930754400933 4.2299497238218464e-14 -10.336580018513677
    vertex -78.01166945380429 4.441447210012938e-14 -10.536380863522934
  endloop
endfacet
facet normal 0.38268343236509283 8.547044132820103e-16 -0.9238795325112855
  outer loop
    vertex -77.52930754400933 4.2299497238218464e-14 -10.336580018513677
    vertex -78.01166945380426 5.000000000000044 -10.536380863522924
    vertex -77.52930754400931 5.000000000000043 -10.336580018513663
  endloop
endfacet
facet normal -0.9999878383544882 7.239212637245653e-15 0.004931849867757
  outer loop
    vertex -90.01150625742441 18.068163847961767 -11.53167076567233
    vertex -90.0166120431504 18.068163847961767 -12.566926048807304
    vertex -90.01405915028741 18.000016047339738 -12.049298407239814
  endloop
endfacet
facet normal -0.9999878383544882 7.239212637245653e-15 0.004931849867757
  outer loop
    vertex -90.0166120431504 18.068163847961767 -12.566926048807304
    vertex -90.01150625742441 18.068163847961767 -11.53167076567233
    vertex -90.0091273399912 18.26796308983502 -11.049318592457542
  endloop
endfacet
facet normal -0.9999878383544882 7.239212637245653e-15 0.004931849867757
  outer loop
    vertex -90.0166120431504 18.068163847961767 -12.566926048807304
    vertex -90.0091273399912 18.26796308983502 -11.049318592457542
    vertex -90.01899096058364 18.26796308983502 -13.049278222022089
  endloop
endfacet
facet normal -0.9999878383544882 7.239212637245653e-15 0.004931849867757
  outer loop
    vertex -90.01899096058364 18.26796308983502 -13.049278222022089
    vertex -90.0091273399912 18.26796308983502 -11.049318592457542
    vertex -90.00708451727944 18.5857977848097 -10.635113391075386
  endloop
endfacet
facet normal -0.9999878383544882 7.239212637245653e-15 0.004931849867757
  outer loop
    vertex -90.01899096058364 18.26796308983502 -13.049278222022089
    vertex -90.00708451727944 18.5857977848097 -10.635113391075386
    vertex -90.02103378329537 18.5857977848097 -13.463483423404242
  endloop
endfacet
facet normal -0.9999878383544882 7.239212637245653e-15 0.004931849867757
  outer loop
    vertex -90.02103378329537 18.5857977848097 -13.463483423404242
    vertex -90.00708451727944 18.5857977848097 -10.635113391075386
    vertex -90.00551700428106 19.000008023669942 -10.3172825614936
  endloop
endfacet
facet normal -0.9999878383544882 7.239212637245653e-15 0.004931849867757
  outer loop
    vertex -90.02103378329537 18.5857977848097 -13.463483423404242
    vertex -90.00551700428106 19.000008023669942 -10.3172825614936
    vertex -90.02260129629374 19.000008023669945 -13.781314252986029
  endloop
endfacet
facet normal -0.9999878383544882 7.239212637245653e-15 0.004931849867757
  outer loop
    vertex -90.02260129629374 19.000008023669945 -13.781314252986029
    vertex -90.00551700428106 19.000008023669942 -10.3172825614936
    vertex -90.00453162441643 19.482366063152213 -10.117485749507901
  endloop
endfacet
facet normal -0.9999878383544882 7.239212637245653e-15 0.004931849867757
  outer loop
    vertex -90.02260129629374 19.000008023669945 -13.781314252986029
    vertex -90.00453162441643 19.482366063152213 -10.117485749507901
    vertex -90.02358667615836 19.482366063152217 -13.981111064971728
  endloop
endfacet
facet normal -0.9999878383544882 7.239212637245653e-15 0.004931849867757
  outer loop
    vertex -90.02358667615836 19.482366063152217 -13.981111064971728
    vertex -90.00453162441643 19.482366063152213 -10.117485749507901
    vertex -90.00419552969495 20.00000000000015 -10.049338777675267
  endloop
endfacet
facet normal -0.9999878383544882 7.239212637245653e-15 0.004931849867757
  outer loop
    vertex -90.02358667615836 19.482366063152217 -13.981111064971728
    vertex -90.00419552969495 20.00000000000015 -10.049338777675267
    vertex -90.02392277087984 20.00000000000015 -14.049258036804362
  endloop
endfacet
facet normal -0.9999878383544882 7.239212637245653e-15 0.004931849867757
  outer loop
    vertex -90.02392277087984 20.00000000000015 -14.049258036804362
    vertex -90.00419552969495 20.00000000000015 -10.049338777675267
    vertex -90.00453162441643 20.517633936848082 -10.117485749507901
  endloop
endfacet
facet normal -0.9999878383544882 7.239212637245653e-15 0.004931849867757
  outer loop
    vertex -90.02392277087984 20.00000000000015 -14.049258036804362
    vertex -90.00453162441643 20.517633936848082 -10.117485749507901
    vertex -90.02358667615836 20.517633936848082 -13.981111064971728
  endloop
endfacet
facet normal -0.9999878383544882 7.239212637245653e-15 0.004931849867757
  outer loop
    vertex -90.02358667615836 20.517633936848082 -13.981111064971728
    vertex -90.00453162441643 20.517633936848082 -10.117485749507901
    vertex -90.00551700428105 20.999991976330353 -10.3172825614936
  endloop
endfacet
facet normal -0.9999878383544882 7.239212637245653e-15 0.004931849867757
  outer loop
    vertex -90.02358667615836 20.517633936848082 -13.981111064971728
    vertex -90.00551700428105 20.999991976330353 -10.3172825614936
    vertex -90.02260129629373 20.999991976330357 -13.781314252986029
  endloop
endfacet
facet normal -0.9999878383544882 7.239212637245653e-15 0.004931849867757
  outer loop
    vertex -90.02260129629373 20.999991976330357 -13.781314252986029
    vertex -90.00551700428105 20.999991976330353 -10.3172825614936
    vertex -90.00708451727942 21.4142022151906 -10.635113391075386
  endloop
endfacet
facet normal -0.9999878383544882 7.239212637245653e-15 0.004931849867757
  outer loop
    vertex -90.02260129629373 20.999991976330357 -13.781314252986029
    vertex -90.00708451727942 21.4142022151906 -10.635113391075386
    vertex -90.02103378329537 21.4142022151906 -13.463483423404242
  endloop
endfacet
facet normal -0.9999878383544882 7.239212637245653e-15 0.004931849867757
  outer loop
    vertex -90.02103378329537 21.4142022151906 -13.463483423404242
    vertex -90.00708451727942 21.4142022151906 -10.635113391075386
    vertex -90.00912733999115 21.732036910165277 -11.049318592457542
  endloop
endfacet
facet normal -0.9999878383544882 7.239212637245653e-15 0.004931849867757
  outer loop
    vertex -90.02103378329537 21.4142022151906 -13.463483423404242
    vertex -90.00912733999115 21.732036910165277 -11.049318592457542
    vertex -90.0189909605836 21.732036910165277 -13.049278222022087
  endloop
endfacet
facet normal -0.9999878383544882 7.239212637245653e-15 0.004931849867757
  outer loop
    vertex -90.0189909605836 21.732036910165277 -13.049278222022087
    vertex -90.00912733999115 21.732036910165277 -11.049318592457542
    vertex -90.01150625742439 21.93183615203853 -11.53167076567233
  endloop
endfacet
facet normal -0.9999878383544882 7.239212637245653e-15 0.004931849867757
  outer loop
    vertex -90.0189909605836 21.732036910165277 -13.049278222022087
    vertex -90.01150625742439 21.93183615203853 -11.53167076567233
    vertex -90.01661204315037 21.93183615203853 -12.5669260488073
  endloop
endfacet
facet normal -0.9999878383544882 7.239212637245653e-15 0.004931849867757
  outer loop
    vertex -90.01661204315037 21.93183615203853 -12.5669260488073
    vertex -90.01150625742439 21.93183615203853 -11.53167076567233
    vertex -90.01405915028738 21.99998395266056 -12.049298407239814
  endloop
endfacet
facet normal 0.004889657208455728 0.13052619222005316 0.9914328037728616
  outer loop
    vertex -90.00419552969495 20.00000000000015 -10.049338777675267
    vertex -85.00459243264399 20.517633936848046 -10.142144998846685
    vertex -90.00453162441643 20.517633936848082 -10.117485749507901
  endloop
endfacet
facet normal 0.004889657208455728 0.13052619222005316 0.9914328037728616
  outer loop
    vertex -85.00459243264399 20.517633936848046 -10.142144998846685
    vertex -90.00419552969495 20.00000000000015 -10.049338777675267
    vertex -85.0042563379225 20.000000000000114 -10.073998027014051
  endloop
endfacet
facet normal 0.004889657208453839 -0.13052619222005246 0.9914328037728617
  outer loop
    vertex -85.00459243264399 19.482366063152178 -10.142144998846685
    vertex -90.00419552969495 20.00000000000015 -10.049338777675267
    vertex -90.00453162441643 19.482366063152213 -10.117485749507901
  endloop
endfacet
facet normal 0.004889657208453839 -0.13052619222005246 0.9914328037728617
  outer loop
    vertex -90.00419552969495 20.00000000000015 -10.049338777675267
    vertex -85.00459243264399 19.482366063152178 -10.142144998846685
    vertex -85.0042563379225 20.000000000000114 -10.073998027014051
  endloop
endfacet
facet normal 0.004556435150236419 -0.3826834323650893 0.923868296615917
  outer loop
    vertex -85.0055778125086 19.000008023669906 -10.341941810832385
    vertex -90.00453162441643 19.482366063152213 -10.117485749507901
    vertex -90.00551700428106 19.000008023669942 -10.3172825614936
  endloop
endfacet
facet normal 0.004556435150236419 -0.3826834323650893 0.923868296615917
  outer loop
    vertex -90.00453162441643 19.482366063152213 -10.117485749507901
    vertex -85.0055778125086 19.000008023669906 -10.341941810832385
    vertex -85.00459243264399 19.482366063152178 -10.142144998846685
  endloop
endfacet
facet normal 0.003912699566395489 -0.6087614290087224 0.7933436918091437
  outer loop
    vertex -85.00714532550698 18.58579778480966 -10.659772640414172
    vertex -90.00551700428106 19.000008023669942 -10.3172825614936
    vertex -90.00708451727944 18.5857977848097 -10.635113391075386
  endloop
endfacet
facet normal 0.003912699566395489 -0.6087614290087224 0.7933436918091437
  outer loop
    vertex -90.00551700428106 19.000008023669942 -10.3172825614936
    vertex -85.00714532550698 18.58579778480966 -10.659772640414172
    vertex -85.0055778125086 19.000008023669906 -10.341941810832385
  endloop
endfacet
facet normal 0.0030023199731464695 -0.7933533402912365 0.6087540254680182
  outer loop
    vertex -85.00714532550698 18.58579778480966 -10.659772640414172
    vertex -90.0091273399912 18.26796308983502 -11.049318592457542
    vertex -85.00918814821874 18.267963089834986 -11.073977841796326
  endloop
endfacet
facet normal 0.0030023199731464695 -0.7933533402912365 0.6087540254680182
  outer loop
    vertex -90.0091273399912 18.26796308983502 -11.049318592457542
    vertex -85.00714532550698 18.58579778480966 -10.659772640414172
    vertex -90.00708451727944 18.5857977848097 -10.635113391075386
  endloop
endfacet
facet normal 0.0018873372352958815 -0.9238795325112862 0.3826787783048434
  outer loop
    vertex -85.00918814821874 18.267963089834986 -11.073977841796326
    vertex -90.01150625742441 18.068163847961767 -11.53167076567233
    vertex -85.01156706565197 18.068163847961728 -11.556330015011113
  endloop
endfacet
facet normal 0.0018873372352958815 -0.9238795325112862 0.3826787783048434
  outer loop
    vertex -90.01150625742441 18.068163847961767 -11.53167076567233
    vertex -85.00918814821874 18.267963089834986 -11.073977841796326
    vertex -90.0091273399912 18.26796308983502 -11.049318592457542
  endloop
endfacet
facet normal 0.0006437355838321119 -0.9914448613738104 0.13052460480677242
  outer loop
    vertex -85.01156706565197 18.068163847961728 -11.556330015011113
    vertex -90.01405915028741 18.000016047339738 -12.049298407239814
    vertex -85.01411995851495 18.000016047339702 -12.0739576565786
  endloop
endfacet
facet normal 0.0006437355838321119 -0.9914448613738104 0.13052460480677242
  outer loop
    vertex -90.01405915028741 18.000016047339738 -12.049298407239814
    vertex -85.01156706565197 18.068163847961728 -11.556330015011113
    vertex -90.01150625742441 18.068163847961767 -11.53167076567233
  endloop
endfacet
facet normal -0.0006437355838464626 -0.9914448613738105 -0.1305246048067716
  outer loop
    vertex -85.01411995851495 18.000016047339702 -12.0739576565786
    vertex -90.0166120431504 18.068163847961767 -12.566926048807304
    vertex -85.01667285137796 18.068163847961728 -12.591585298146088
  endloop
endfacet
facet normal -0.0006437355838464626 -0.9914448613738105 -0.1305246048067716
  outer loop
    vertex -90.0166120431504 18.068163847961767 -12.566926048807304
    vertex -85.01411995851495 18.000016047339702 -12.0739576565786
    vertex -90.01405915028741 18.000016047339738 -12.049298407239814
  endloop
endfacet
facet normal -0.0018873372353092578 -0.9238795325112862 -0.3826787783048434
  outer loop
    vertex -85.01667285137796 18.068163847961728 -12.591585298146088
    vertex -90.01899096058364 18.26796308983502 -13.049278222022089
    vertex -85.01905176881118 18.267963089834986 -13.073937471360875
  endloop
endfacet
facet normal -0.0018873372353092578 -0.9238795325112862 -0.3826787783048434
  outer loop
    vertex -90.01899096058364 18.26796308983502 -13.049278222022089
    vertex -85.01667285137796 18.068163847961728 -12.591585298146088
    vertex -90.0166120431504 18.068163847961767 -12.566926048807304
  endloop
endfacet
facet normal -0.00300231997315798 -0.7933533402912327 -0.6087540254680228
  outer loop
    vertex -85.01905176881118 18.267963089834986 -13.073937471360875
    vertex -90.02103378329537 18.5857977848097 -13.463483423404242
    vertex -85.02109459152292 18.585797784809664 -13.488142672743027
  endloop
endfacet
facet normal -0.00300231997315798 -0.7933533402912327 -0.6087540254680228
  outer loop
    vertex -90.02103378329537 18.5857977848097 -13.463483423404242
    vertex -85.01905176881118 18.267963089834986 -13.073937471360875
    vertex -90.01899096058364 18.26796308983502 -13.049278222022089
  endloop
endfacet
facet normal -0.003912699566404308 -0.6087614290087207 -0.7933436918091448
  outer loop
    vertex -85.0226621045213 19.00000802366991 -13.805973502324813
    vertex -90.02103378329537 18.5857977848097 -13.463483423404242
    vertex -90.02260129629374 19.000008023669945 -13.781314252986029
  endloop
endfacet
facet normal -0.003912699566404308 -0.6087614290087207 -0.7933436918091448
  outer loop
    vertex -90.02103378329537 18.5857977848097 -13.463483423404242
    vertex -85.0226621045213 19.00000802366991 -13.805973502324813
    vertex -85.02109459152292 18.585797784809664 -13.488142672743027
  endloop
endfacet
facet normal -0.0045564351502419605 -0.38268343236508917 -0.923868296615917
  outer loop
    vertex -85.0236474843859 19.48236606315218 -14.005770314310512
    vertex -90.02260129629374 19.000008023669945 -13.781314252986029
    vertex -90.02358667615836 19.482366063152217 -13.981111064971728
  endloop
endfacet
facet normal -0.0045564351502419605 -0.38268343236508917 -0.923868296615917
  outer loop
    vertex -90.02260129629374 19.000008023669945 -13.781314252986029
    vertex -85.0236474843859 19.48236606315218 -14.005770314310512
    vertex -85.0226621045213 19.00000802366991 -13.805973502324813
  endloop
endfacet
facet normal -0.004889657208455728 -0.13052619222005316 -0.9914328037728616
  outer loop
    vertex -85.0239835791074 20.000000000000114 -14.073917286143146
    vertex -90.02358667615836 19.482366063152217 -13.981111064971728
    vertex -90.02392277087984 20.00000000000015 -14.049258036804362
  endloop
endfacet
facet normal -0.004889657208455728 -0.13052619222005316 -0.9914328037728616
  outer loop
    vertex -90.02358667615836 19.482366063152217 -13.981111064971728
    vertex -85.0239835791074 20.000000000000114 -14.073917286143146
    vertex -85.0236474843859 19.48236606315218 -14.005770314310512
  endloop
endfacet
facet normal -0.004889657208453838 0.13052619222005316 -0.9914328037728616
  outer loop
    vertex -90.02358667615836 20.517633936848082 -13.981111064971728
    vertex -85.0239835791074 20.000000000000114 -14.073917286143146
    vertex -90.02392277087984 20.00000000000015 -14.049258036804362
  endloop
endfacet
facet normal -0.004889657208453838 0.13052619222005316 -0.9914328037728616
  outer loop
    vertex -85.0239835791074 20.000000000000114 -14.073917286143146
    vertex -90.02358667615836 20.517633936848082 -13.981111064971728
    vertex -85.0236474843859 20.517633936848046 -14.005770314310512
  endloop
endfacet
facet normal -0.004556435150236423 0.38268343236508734 -0.9238682966159177
  outer loop
    vertex -90.02260129629373 20.999991976330357 -13.781314252986029
    vertex -85.0236474843859 20.517633936848046 -14.005770314310512
    vertex -90.02358667615836 20.517633936848082 -13.981111064971728
  endloop
endfacet
facet normal -0.004556435150236423 0.38268343236508734 -0.9238682966159177
  outer loop
    vertex -85.0236474843859 20.517633936848046 -14.005770314310512
    vertex -90.02260129629373 20.999991976330357 -13.781314252986029
    vertex -85.02266210452129 20.99999197633032 -13.805973502324813
  endloop
endfacet
facet normal -0.003912699566395494 0.6087614290087207 -0.7933436918091448
  outer loop
    vertex -90.02103378329537 21.4142022151906 -13.463483423404242
    vertex -85.02266210452129 20.99999197633032 -13.805973502324813
    vertex -90.02260129629373 20.999991976330357 -13.781314252986029
  endloop
endfacet
facet normal -0.003912699566395494 0.6087614290087207 -0.7933436918091448
  outer loop
    vertex -85.02266210452129 20.99999197633032 -13.805973502324813
    vertex -90.02103378329537 21.4142022151906 -13.463483423404242
    vertex -85.02109459152291 21.414202215190564 -13.488142672743027
  endloop
endfacet
facet normal -0.003002319973146463 0.7933533402912374 -0.6087540254680168
  outer loop
    vertex -90.02103378329537 21.4142022151906 -13.463483423404242
    vertex -85.01905176881115 21.73203691016524 -13.073937471360871
    vertex -85.02109459152291 21.414202215190564 -13.488142672743027
  endloop
endfacet
facet normal -0.003002319973146463 0.7933533402912374 -0.6087540254680168
  outer loop
    vertex -85.01905176881115 21.73203691016524 -13.073937471360871
    vertex -90.02103378329537 21.4142022151906 -13.463483423404242
    vertex -90.0189909605836 21.732036910165277 -13.049278222022087
  endloop
endfacet
facet normal -0.0018873372352958865 0.9238795325112859 -0.3826787783048444
  outer loop
    vertex -90.0189909605836 21.732036910165277 -13.049278222022087
    vertex -85.01667285137792 21.931836152038496 -12.591585298146084
    vertex -85.01905176881115 21.73203691016524 -13.073937471360871
  endloop
endfacet
facet normal -0.0018873372352958865 0.9238795325112859 -0.3826787783048444
  outer loop
    vertex -85.01667285137792 21.931836152038496 -12.591585298146084
    vertex -90.0189909605836 21.732036910165277 -13.049278222022087
    vertex -90.01661204315037 21.93183615203853 -12.5669260488073
  endloop
endfacet
facet normal -0.00064373558383211 0.9914448613738104 -0.13052460480677205
  outer loop
    vertex -90.01661204315037 21.93183615203853 -12.5669260488073
    vertex -85.01411995851494 21.99998395266052 -12.0739576565786
    vertex -85.01667285137792 21.931836152038496 -12.591585298146084
  endloop
endfacet
facet normal -0.00064373558383211 0.9914448613738104 -0.13052460480677205
  outer loop
    vertex -85.01411995851494 21.99998395266052 -12.0739576565786
    vertex -90.01661204315037 21.93183615203853 -12.5669260488073
    vertex -90.01405915028738 21.99998395266056 -12.049298407239814
  endloop
endfacet
facet normal 0.0006437355838464643 0.9914448613738104 0.13052460480677194
  outer loop
    vertex -90.01405915028738 21.99998395266056 -12.049298407239814
    vertex -85.01156706565195 21.931836152038496 -11.556330015011113
    vertex -85.01411995851494 21.99998395266052 -12.0739576565786
  endloop
endfacet
facet normal 0.0006437355838464643 0.9914448613738104 0.13052460480677194
  outer loop
    vertex -85.01156706565195 21.931836152038496 -11.556330015011113
    vertex -90.01405915028738 21.99998395266056 -12.049298407239814
    vertex -90.01150625742439 21.93183615203853 -11.53167076567233
  endloop
endfacet
facet normal 0.0018873372353092578 0.9238795325112862 0.3826787783048434
  outer loop
    vertex -90.01150625742439 21.93183615203853 -11.53167076567233
    vertex -85.00918814821871 21.73203691016524 -11.073977841796326
    vertex -85.01156706565195 21.931836152038496 -11.556330015011113
  endloop
endfacet
facet normal 0.0018873372353092578 0.9238795325112862 0.3826787783048434
  outer loop
    vertex -85.00918814821871 21.73203691016524 -11.073977841796326
    vertex -90.01150625742439 21.93183615203853 -11.53167076567233
    vertex -90.00912733999115 21.732036910165277 -11.049318592457542
  endloop
endfacet
facet normal 0.0030023199731579564 0.7933533402912363 0.6087540254680182
  outer loop
    vertex -90.00912733999115 21.732036910165277 -11.049318592457542
    vertex -85.00714532550697 21.414202215190564 -10.659772640414172
    vertex -85.00918814821871 21.73203691016524 -11.073977841796326
  endloop
endfacet
facet normal 0.0030023199731579564 0.7933533402912363 0.6087540254680182
  outer loop
    vertex -85.00714532550697 21.414202215190564 -10.659772640414172
    vertex -90.00912733999115 21.732036910165277 -11.049318592457542
    vertex -90.00708451727942 21.4142022151906 -10.635113391075386
  endloop
endfacet
facet normal 0.003912699566404318 0.6087614290087181 0.7933436918091468
  outer loop
    vertex -90.00551700428105 20.999991976330353 -10.3172825614936
    vertex -85.00714532550697 21.414202215190564 -10.659772640414172
    vertex -90.00708451727942 21.4142022151906 -10.635113391075386
  endloop
endfacet
facet normal 0.003912699566404318 0.6087614290087181 0.7933436918091468
  outer loop
    vertex -85.00714532550697 21.414202215190564 -10.659772640414172
    vertex -90.00551700428105 20.999991976330353 -10.3172825614936
    vertex -85.00557781250859 20.999991976330318 -10.341941810832385
  endloop
endfacet
facet normal 0.0045564351502419605 0.38268343236508917 0.923868296615917
  outer loop
    vertex -90.00453162441643 20.517633936848082 -10.117485749507901
    vertex -85.00557781250859 20.999991976330318 -10.341941810832385
    vertex -90.00551700428105 20.999991976330353 -10.3172825614936
  endloop
endfacet
facet normal 0.0045564351502419605 0.38268343236508917 0.923868296615917
  outer loop
    vertex -85.00557781250859 20.999991976330318 -10.341941810832385
    vertex -90.00453162441643 20.517633936848082 -10.117485749507901
    vertex -85.00459243264399 20.517633936848046 -10.142144998846685
  endloop
endfacet
endsolid faience_pusherv2_002
