solid faience_pusherv2_002
facet normal -0.92387953251129 -0.38268343236508207 0.0
  outer loop
    vertex 294.73205080756884 15.999999999999993 0.0
    vertex 294.9318516525781 15.517638090205041 -4.9999999999999964
    vertex 294.9318516525781 15.517638090205041 0.0
  endloop
endfacet
facet normal -0.92387953251129 -0.38268343236508207 0.0
  outer loop
    vertex 294.9318516525781 15.517638090205041 -4.9999999999999964
    vertex 294.73205080756884 15.999999999999993 0.0
    vertex 294.73205080756884 15.999999999999993 -4.9999999999999964
  endloop
endfacet
facet normal -0.7933533402912477 -0.6087614290087043 0.0
  outer loop
    vertex 294.41421356237305 16.414213562373092 0.0
    vertex 294.73205080756884 15.999999999999993 -4.9999999999999964
    vertex 294.73205080756884 15.999999999999993 0.0
  endloop
endfacet
facet normal -0.7933533402912477 -0.6087614290087043 0.0
  outer loop
    vertex 294.73205080756884 15.999999999999993 -4.9999999999999964
    vertex 294.41421356237305 16.414213562373092 0.0
    vertex 294.41421356237305 16.414213562373092 -4.9999999999999964
  endloop
endfacet
facet normal -0.6087614290087161 -0.7933533402912386 0.0
  outer loop
    vertex 294.41421356237305 16.414213562373092 0.0
    vertex 293.99999999999994 16.732050807568886 -4.9999999999999964
    vertex 294.41421356237305 16.414213562373092 -4.9999999999999964
  endloop
endfacet
facet normal -0.6087614290087161 -0.7933533402912386 0.0
  outer loop
    vertex 293.99999999999994 16.732050807568886 -4.9999999999999964
    vertex 294.41421356237305 16.414213562373092 0.0
    vertex 293.99999999999994 16.732050807568886 0.0
  endloop
endfacet
facet normal -0.38268343236507985 -0.923879532511291 0.0
  outer loop
    vertex 293.99999999999994 16.732050807568886 0.0
    vertex 293.51763809020497 16.93185165257814 -4.9999999999999964
    vertex 293.99999999999994 16.732050807568886 -4.9999999999999964
  endloop
endfacet
facet normal -0.38268343236507985 -0.923879532511291 0.0
  outer loop
    vertex 293.51763809020497 16.93185165257814 -4.9999999999999964
    vertex 293.99999999999994 16.732050807568886 0.0
    vertex 293.51763809020497 16.93185165257814 0.0
  endloop
endfacet
facet normal -0.13052619222005635 -0.9914448613738099 0.0
  outer loop
    vertex 293.51763809020497 16.93185165257814 0.0
    vertex 292.99999999999994 16.999999999999993 -4.9999999999999964
    vertex 293.51763809020497 16.93185165257814 -4.9999999999999964
  endloop
endfacet
facet normal -0.13052619222005635 -0.9914448613738099 0.0
  outer loop
    vertex 292.99999999999994 16.999999999999993 -4.9999999999999964
    vertex 293.51763809020497 16.93185165257814 0.0
    vertex 292.99999999999994 16.999999999999993 0.0
  endloop
endfacet
facet normal 0.13052619222005635 -0.9914448613738099 0.0
  outer loop
    vertex 292.99999999999994 16.999999999999993 0.0
    vertex 292.4823619097949 16.93185165257814 -4.9999999999999964
    vertex 292.99999999999994 16.999999999999993 -4.9999999999999964
  endloop
endfacet
facet normal 0.13052619222005635 -0.9914448613738099 0.0
  outer loop
    vertex 292.4823619097949 16.93185165257814 -4.9999999999999964
    vertex 292.99999999999994 16.999999999999993 0.0
    vertex 292.4823619097949 16.93185165257814 0.0
  endloop
endfacet
facet normal 0.38268343236507985 -0.923879532511291 0.0
  outer loop
    vertex 292.4823619097949 16.93185165257814 0.0
    vertex 291.99999999999994 16.732050807568886 -4.9999999999999964
    vertex 292.4823619097949 16.93185165257814 -4.9999999999999964
  endloop
endfacet
facet normal 0.38268343236507985 -0.923879532511291 0.0
  outer loop
    vertex 291.99999999999994 16.732050807568886 -4.9999999999999964
    vertex 292.4823619097949 16.93185165257814 0.0
    vertex 291.99999999999994 16.732050807568886 0.0
  endloop
endfacet
facet normal 0.6087614290087128 -0.7933533402912413 0.0
  outer loop
    vertex 291.99999999999994 16.732050807568886 0.0
    vertex 291.58578643762684 16.414213562373092 -4.9999999999999964
    vertex 291.99999999999994 16.732050807568886 -4.9999999999999964
  endloop
endfacet
facet normal 0.6087614290087128 -0.7933533402912413 0.0
  outer loop
    vertex 291.58578643762684 16.414213562373092 -4.9999999999999964
    vertex 291.99999999999994 16.732050807568886 0.0
    vertex 291.58578643762684 16.414213562373092 0.0
  endloop
endfacet
facet normal 0.7933533402912477 -0.6087614290087043 0.0
  outer loop
    vertex 291.58578643762684 16.414213562373092 -4.9999999999999964
    vertex 291.2679491924311 15.999999999999993 0.0
    vertex 291.2679491924311 15.999999999999993 -4.9999999999999964
  endloop
endfacet
facet normal 0.7933533402912477 -0.6087614290087043 0.0
  outer loop
    vertex 291.2679491924311 15.999999999999993 0.0
    vertex 291.58578643762684 16.414213562373092 -4.9999999999999964
    vertex 291.58578643762684 16.414213562373092 0.0
  endloop
endfacet
facet normal 0.92387953251129 -0.38268343236508207 0.0
  outer loop
    vertex 291.2679491924311 15.999999999999993 -4.9999999999999964
    vertex 291.0681483474218 15.517638090205041 0.0
    vertex 291.0681483474218 15.517638090205041 -4.9999999999999964
  endloop
endfacet
facet normal 0.92387953251129 -0.38268343236508207 0.0
  outer loop
    vertex 291.0681483474218 15.517638090205041 0.0
    vertex 291.2679491924311 15.999999999999993 -4.9999999999999964
    vertex 291.2679491924311 15.999999999999993 0.0
  endloop
endfacet
facet normal 0.9914448613738077 -0.1305261922200727 0.0
  outer loop
    vertex 291.0681483474218 15.517638090205041 -4.9999999999999964
    vertex 290.99999999999994 14.999999999999995 0.0
    vertex 290.99999999999994 14.999999999999995 -4.9999999999999964
  endloop
endfacet
facet normal 0.9914448613738077 -0.1305261922200727 0.0
  outer loop
    vertex 290.99999999999994 14.999999999999995 0.0
    vertex 291.0681483474218 15.517638090205041 -4.9999999999999964
    vertex 291.0681483474218 15.517638090205041 0.0
  endloop
endfacet
facet normal 0.9914448613738077 0.13052619222007342 0.0
  outer loop
    vertex 290.99999999999994 14.999999999999995 -4.9999999999999964
    vertex 291.0681483474218 14.482361909794973 0.0
    vertex 291.0681483474218 14.482361909794973 -4.9999999999999964
  endloop
endfacet
facet normal 0.9914448613738077 0.13052619222007342 0.0
  outer loop
    vertex 291.0681483474218 14.482361909794973 0.0
    vertex 290.99999999999994 14.999999999999995 -4.9999999999999964
    vertex 290.99999999999994 14.999999999999995 0.0
  endloop
endfacet
facet normal 0.92387953251129 0.38268343236508207 0.0
  outer loop
    vertex 291.0681483474218 14.482361909794973 -4.9999999999999964
    vertex 291.2679491924311 13.999999999999996 0.0
    vertex 291.2679491924311 13.999999999999996 -4.9999999999999964
  endloop
endfacet
facet normal 0.92387953251129 0.38268343236508207 0.0
  outer loop
    vertex 291.2679491924311 13.999999999999996 0.0
    vertex 291.0681483474218 14.482361909794973 -4.9999999999999964
    vertex 291.0681483474218 14.482361909794973 0.0
  endloop
endfacet
facet normal 0.7933533402912477 0.6087614290087043 0.0
  outer loop
    vertex 291.2679491924311 13.999999999999996 -4.9999999999999964
    vertex 291.58578643762684 13.585786437626897 0.0
    vertex 291.58578643762684 13.585786437626897 -4.9999999999999964
  endloop
endfacet
facet normal 0.7933533402912477 0.6087614290087043 0.0
  outer loop
    vertex 291.58578643762684 13.585786437626897 0.0
    vertex 291.2679491924311 13.999999999999996 -4.9999999999999964
    vertex 291.2679491924311 13.999999999999996 0.0
  endloop
endfacet
facet normal 0.6087614290087161 0.7933533402912386 0.0
  outer loop
    vertex 291.58578643762684 13.585786437626897 0.0
    vertex 291.99999999999994 13.267949192431129 -4.9999999999999964
    vertex 291.58578643762684 13.585786437626897 -4.9999999999999964
  endloop
endfacet
facet normal 0.6087614290087161 0.7933533402912386 0.0
  outer loop
    vertex 291.99999999999994 13.267949192431129 -4.9999999999999964
    vertex 291.58578643762684 13.585786437626897 0.0
    vertex 291.99999999999994 13.267949192431129 0.0
  endloop
endfacet
facet normal 0.38268343236507985 0.923879532511291 0.0
  outer loop
    vertex 291.99999999999994 13.267949192431129 0.0
    vertex 292.4823619097949 13.068148347421873 -4.9999999999999964
    vertex 291.99999999999994 13.267949192431129 -4.9999999999999964
  endloop
endfacet
facet normal 0.38268343236507985 0.923879532511291 0.0
  outer loop
    vertex 292.4823619097949 13.068148347421873 -4.9999999999999964
    vertex 291.99999999999994 13.267949192431129 0.0
    vertex 292.4823619097949 13.068148347421873 0.0
  endloop
endfacet
facet normal 0.13052619222005635 0.9914448613738099 0.0
  outer loop
    vertex 292.4823619097949 13.068148347421873 0.0
    vertex 292.99999999999994 12.999999999999998 -4.9999999999999964
    vertex 292.4823619097949 13.068148347421873 -4.9999999999999964
  endloop
endfacet
facet normal 0.13052619222005635 0.9914448613738099 0.0
  outer loop
    vertex 292.99999999999994 12.999999999999998 -4.9999999999999964
    vertex 292.4823619097949 13.068148347421873 0.0
    vertex 292.99999999999994 12.999999999999998 0.0
  endloop
endfacet
facet normal -0.13052619222005635 0.9914448613738099 0.0
  outer loop
    vertex 292.99999999999994 12.999999999999998 0.0
    vertex 293.51763809020497 13.068148347421873 -4.9999999999999964
    vertex 292.99999999999994 12.999999999999998 -4.9999999999999964
  endloop
endfacet
facet normal -0.13052619222005635 0.9914448613738099 0.0
  outer loop
    vertex 293.51763809020497 13.068148347421873 -4.9999999999999964
    vertex 292.99999999999994 12.999999999999998 0.0
    vertex 293.51763809020497 13.068148347421873 0.0
  endloop
endfacet
facet normal -0.38268343236507524 0.9238795325112928 0.0
  outer loop
    vertex 293.51763809020497 13.068148347421873 0.0
    vertex 293.99999999999994 13.267949192431129 -4.9999999999999964
    vertex 293.51763809020497 13.068148347421873 -4.9999999999999964
  endloop
endfacet
facet normal -0.38268343236507524 0.9238795325112928 0.0
  outer loop
    vertex 293.99999999999994 13.267949192431129 -4.9999999999999964
    vertex 293.51763809020497 13.068148347421873 0.0
    vertex 293.99999999999994 13.267949192431129 0.0
  endloop
endfacet
facet normal -0.6087614290087161 0.7933533402912386 0.0
  outer loop
    vertex 293.99999999999994 13.267949192431129 0.0
    vertex 294.41421356237305 13.585786437626897 -4.9999999999999964
    vertex 293.99999999999994 13.267949192431129 -4.9999999999999964
  endloop
endfacet
facet normal -0.6087614290087161 0.7933533402912386 0.0
  outer loop
    vertex 294.41421356237305 13.585786437626897 -4.9999999999999964
    vertex 293.99999999999994 13.267949192431129 0.0
    vertex 294.41421356237305 13.585786437626897 0.0
  endloop
endfacet
facet normal -0.7933533402912477 0.6087614290087043 0.0
  outer loop
    vertex 294.73205080756884 13.999999999999996 0.0
    vertex 294.41421356237305 13.585786437626897 -4.9999999999999964
    vertex 294.41421356237305 13.585786437626897 0.0
  endloop
endfacet
facet normal -0.7933533402912477 0.6087614290087043 0.0
  outer loop
    vertex 294.41421356237305 13.585786437626897 -4.9999999999999964
    vertex 294.73205080756884 13.999999999999996 0.0
    vertex 294.73205080756884 13.999999999999996 -4.9999999999999964
  endloop
endfacet
facet normal -0.92387953251129 0.38268343236508207 0.0
  outer loop
    vertex 294.9318516525781 14.48236190979495 0.0
    vertex 294.73205080756884 13.999999999999996 -4.9999999999999964
    vertex 294.73205080756884 13.999999999999996 0.0
  endloop
endfacet
facet normal -0.92387953251129 0.38268343236508207 0.0
  outer loop
    vertex 294.73205080756884 13.999999999999996 -4.9999999999999964
    vertex 294.9318516525781 14.48236190979495 0.0
    vertex 294.9318516525781 14.48236190979495 -4.9999999999999964
  endloop
endfacet
facet normal -0.9914448613738077 0.1305261922200727 0.0
  outer loop
    vertex 294.99999999999994 14.999999999999995 0.0
    vertex 294.9318516525781 14.48236190979495 -4.9999999999999964
    vertex 294.9318516525781 14.48236190979495 0.0
  endloop
endfacet
facet normal -0.9914448613738077 0.1305261922200727 0.0
  outer loop
    vertex 294.9318516525781 14.48236190979495 -4.9999999999999964
    vertex 294.99999999999994 14.999999999999995 0.0
    vertex 294.99999999999994 14.999999999999995 -4.9999999999999964
  endloop
endfacet
facet normal -0.9914448613738077 -0.13052619222007342 0.0
  outer loop
    vertex 294.9318516525781 15.517638090205041 0.0
    vertex 294.99999999999994 14.999999999999995 -4.9999999999999964
    vertex 294.99999999999994 14.999999999999995 0.0
  endloop
endfacet
facet normal -0.9914448613738077 -0.13052619222007342 0.0
  outer loop
    vertex 294.99999999999994 14.999999999999995 -4.9999999999999964
    vertex 294.9318516525781 15.517638090205041 0.0
    vertex 294.9318516525781 15.517638090205041 -4.9999999999999964
  endloop
endfacet
facet normal 0.38268343236507985 0.0 -0.923879532511291
  outer loop
    vertex 311.982361909795 4.999999999999991 -20.78439886308053
    vertex 311.5 0.0 -20.98419970808979
    vertex 311.5 4.999999999999991 -20.98419970808979
  endloop
endfacet
facet normal 0.38268343236507985 0.0 -0.923879532511291
  outer loop
    vertex 311.5 0.0 -20.98419970808979
    vertex 311.982361909795 4.999999999999991 -20.78439886308053
    vertex 311.982361909795 0.0 -20.78439886308053
  endloop
endfacet
facet normal 1.0 0.0 0.0
  outer loop
    vertex 305.0 30.000000000000014 -38.62166735421155
    vertex 305.0 4.999999999999991 -33.62166735421155
    vertex 305.0 4.999999999999991 -38.62166735421155
  endloop
endfacet
facet normal 1.0 0.0 0.0
  outer loop
    vertex 305.0 4.999999999999991 -33.62166735421155
    vertex 305.0 30.000000000000014 -38.62166735421155
    vertex 305.0 30.000000000000014 -33.62166735421155
  endloop
endfacet
facet normal -0.024279227677492046 1.8875600727595664e-17 -0.9997052161029194
  outer loop
    vertex 305.0 30.000000000000014 -38.62166735421155
    vertex 300.0 0.0 -38.50023541964519
    vertex 300.0 30.000000000000014 -38.50023541964519
  endloop
endfacet
facet normal -0.024279227677492046 1.8875600727595664e-17 -0.9997052161029194
  outer loop
    vertex 300.0 0.0 -38.50023541964519
    vertex 305.0 30.000000000000014 -38.62166735421155
    vertex 305.0 0.0 -38.62166735421155
  endloop
endfacet
facet normal -0.024279227677492046 1.8875600727595664e-17 -0.9997052161029194
  outer loop
    vertex 305.0 0.0 -38.62166735421155
    vertex 305.0 30.000000000000014 -38.62166735421155
    vertex 305.0 4.999999999999991 -38.62166735421155
  endloop
endfacet
facet normal 0.0 1.0 0.0
  outer loop
    vertex 305.0 4.999999999999991 -33.62166735421155
    vertex 320.0 4.999999999999991 -38.62166735421155
    vertex 305.0 4.999999999999991 -38.62166735421155
  endloop
endfacet
facet normal 0.0 1.0 0.0
  outer loop
    vertex 320.0 4.999999999999991 -38.62166735421155
    vertex 305.0 4.999999999999991 -33.62166735421155
    vertex 320.0 4.999999999999991 -33.62166735421155
  endloop
endfacet
facet normal 0.3826834323650781 0.0 -0.9238795325112916
  outer loop
    vertex 311.982361909795 4.999999999999991 1.0264348140252488
    vertex 311.5 0.0 0.8266339690159887
    vertex 311.5 4.999999999999991 0.8266339690159887
  endloop
endfacet
facet normal 0.3826834323650781 0.0 -0.9238795325112916
  outer loop
    vertex 311.5 0.0 0.8266339690159887
    vertex 311.982361909795 4.999999999999991 1.0264348140252488
    vertex 311.982361909795 0.0 1.0264348140252488
  endloop
endfacet
facet normal 0.6087614290087154 0.0 -0.7933533402912392
  outer loop
    vertex 311.5 4.999999999999991 0.8266339690159887
    vertex 311.0857864376269 0.0 0.508796723820209
    vertex 311.0857864376269 4.999999999999991 0.508796723820209
  endloop
endfacet
facet normal 0.6087614290087154 0.0 -0.7933533402912392
  outer loop
    vertex 311.0857864376269 0.0 0.508796723820209
    vertex 311.5 4.999999999999991 0.8266339690159887
    vertex 311.5 0.0 0.8266339690159887
  endloop
endfacet
facet normal 1.0 0.0 0.0
  outer loop
    vertex 305.0 30.000000000000014 -33.62166735421155
    vertex 305.0 4.999999999999991 9.999999999999998
    vertex 305.0 4.999999999999991 -33.62166735421155
  endloop
endfacet
facet normal 1.0 0.0 0.0
  outer loop
    vertex 305.0 4.999999999999991 9.999999999999998
    vertex 305.0 30.000000000000014 -33.62166735421155
    vertex 305.0 30.000000000000014 9.999999999999998
  endloop
endfacet
facet normal 0.0 -1.9128235304508758e-17 1.0
  outer loop
    vertex 300.0 0.0 9.999999999999998
    vertex 305.0 4.999999999999991 9.999999999999998
    vertex 300.0 30.000000000000014 9.999999999999998
  endloop
endfacet
facet normal 0.0 -1.9128235304508758e-17 1.0
  outer loop
    vertex 305.0 4.999999999999991 9.999999999999998
    vertex 300.0 0.0 9.999999999999998
    vertex 320.0 0.0 9.999999999999998
  endloop
endfacet
facet normal 0.0 -1.9128235304508758e-17 1.0
  outer loop
    vertex 305.0 4.999999999999991 9.999999999999998
    vertex 320.0 0.0 9.999999999999998
    vertex 320.0 4.999999999999991 9.999999999999998
  endloop
endfacet
facet normal 0.0 -1.9128235304508758e-17 1.0
  outer loop
    vertex 305.0 30.000000000000014 9.999999999999998
    vertex 300.0 30.000000000000014 9.999999999999998
    vertex 305.0 4.999999999999991 9.999999999999998
  endloop
endfacet
facet normal 0.7933533402912479 0.0 -0.6087614290087042
  outer loop
    vertex 310.7679491924311 4.999999999999991 0.0945831614471086
    vertex 311.0857864376269 0.0 0.508796723820209
    vertex 310.7679491924311 0.0 0.0945831614471086
  endloop
endfacet
facet normal 0.7933533402912479 0.0 -0.6087614290087042
  outer loop
    vertex 311.0857864376269 0.0 0.508796723820209
    vertex 310.7679491924311 4.999999999999991 0.0945831614471086
    vertex 311.0857864376269 4.999999999999991 0.508796723820209
  endloop
endfacet
facet normal 0.0 1.0 0.0
  outer loop
    vertex 305.0 4.999999999999991 -33.62166735421155
    vertex 311.0857864376269 4.999999999999991 -24.13046407803176
    vertex 320.0 4.999999999999991 -33.62166735421155
  endloop
endfacet
facet normal 0.0 1.0 0.0
  outer loop
    vertex 311.0857864376269 4.999999999999991 -24.13046407803176
    vertex 305.0 4.999999999999991 -33.62166735421155
    vertex 310.7679491924311 4.999999999999991 -23.716250515658665
  endloop
endfacet
facet normal 0.0 1.0 0.0
  outer loop
    vertex 310.7679491924311 4.999999999999991 -23.716250515658665
    vertex 305.0 4.999999999999991 -33.62166735421155
    vertex 310.56814834742187 4.999999999999991 -23.233888605863704
  endloop
endfacet
facet normal 0.0 1.0 0.0
  outer loop
    vertex 310.56814834742187 4.999999999999991 -23.233888605863704
    vertex 305.0 4.999999999999991 -33.62166735421155
    vertex 305.0 4.999999999999991 9.999999999999998
  endloop
endfacet
facet normal 0.0 1.0 0.0
  outer loop
    vertex 320.0 4.999999999999991 -33.62166735421155
    vertex 311.0857864376269 4.999999999999991 -24.13046407803176
    vertex 311.5 4.999999999999991 -24.44830132322754
  endloop
endfacet
facet normal 0.0 1.0 0.0
  outer loop
    vertex 320.0 4.999999999999991 -33.62166735421155
    vertex 311.5 4.999999999999991 -24.44830132322754
    vertex 311.982361909795 4.999999999999991 -24.6481021682368
  endloop
endfacet
facet normal 0.0 1.0 0.0
  outer loop
    vertex 320.0 4.999999999999991 -33.62166735421155
    vertex 311.982361909795 4.999999999999991 -24.6481021682368
    vertex 312.5 4.999999999999991 -24.716250515658665
  endloop
endfacet
facet normal 0.0 1.0 0.0
  outer loop
    vertex 310.56814834742187 4.999999999999991 -23.233888605863704
    vertex 305.0 4.999999999999991 9.999999999999998
    vertex 310.5 4.999999999999991 -22.716250515658665
  endloop
endfacet
facet normal 0.0 1.0 0.0
  outer loop
    vertex 310.5 4.999999999999991 -22.716250515658665
    vertex 305.0 4.999999999999991 9.999999999999998
    vertex 310.56814834742187 4.999999999999991 -22.19861242545362
  endloop
endfacet
facet normal 0.0 1.0 0.0
  outer loop
    vertex 310.56814834742187 4.999999999999991 -22.19861242545362
    vertex 305.0 4.999999999999991 9.999999999999998
    vertex 310.7679491924311 4.999999999999991 -21.716250515658665
  endloop
endfacet
facet normal 0.0 1.0 0.0
  outer loop
    vertex 310.7679491924311 4.999999999999991 -21.716250515658665
    vertex 305.0 4.999999999999991 9.999999999999998
    vertex 311.0857864376269 4.999999999999991 -21.30203695328557
  endloop
endfacet
facet normal 0.0 1.0 0.0
  outer loop
    vertex 311.0857864376269 4.999999999999991 -21.30203695328557
    vertex 305.0 4.999999999999991 9.999999999999998
    vertex 311.5 4.999999999999991 -20.98419970808979
  endloop
endfacet
facet normal 0.0 1.0 0.0
  outer loop
    vertex 311.5 4.999999999999991 -20.98419970808979
    vertex 305.0 4.999999999999991 9.999999999999998
    vertex 311.982361909795 4.999999999999991 -20.78439886308053
  endloop
endfacet
facet normal 0.0 1.0 0.0
  outer loop
    vertex 311.982361909795 4.999999999999991 -20.78439886308053
    vertex 305.0 4.999999999999991 9.999999999999998
    vertex 312.5 4.999999999999991 -20.71625051565867
  endloop
endfacet
facet normal 0.0 1.0 0.0
  outer loop
    vertex 312.5 4.999999999999991 -20.71625051565867
    vertex 305.0 4.999999999999991 9.999999999999998
    vertex 310.7679491924311 4.999999999999991 -1.9054168385528878
  endloop
endfacet
facet normal 0.0 1.0 0.0
  outer loop
    vertex 312.5 4.999999999999991 -20.71625051565867
    vertex 310.7679491924311 4.999999999999991 -1.9054168385528878
    vertex 311.0857864376269 4.999999999999991 -2.3196304009259827
  endloop
endfacet
facet normal 0.0 1.0 0.0
  outer loop
    vertex 312.5 4.999999999999991 -20.71625051565867
    vertex 311.0857864376269 4.999999999999991 -2.3196304009259827
    vertex 311.5 4.999999999999991 -2.637467646121768
  endloop
endfacet
facet normal 0.0 1.0 0.0
  outer loop
    vertex 312.5 4.999999999999991 -20.71625051565867
    vertex 311.5 4.999999999999991 -2.637467646121768
    vertex 311.982361909795 4.999999999999991 -2.8372684911310224
  endloop
endfacet
facet normal 0.0 1.0 0.0
  outer loop
    vertex 312.5 4.999999999999991 -20.71625051565867
    vertex 311.982361909795 4.999999999999991 -2.8372684911310224
    vertex 312.5 4.999999999999991 -2.905416838552886
  endloop
endfacet
facet normal 0.0 1.0 0.0
  outer loop
    vertex 310.7679491924311 4.999999999999991 -1.9054168385528878
    vertex 305.0 4.999999999999991 9.999999999999998
    vertex 310.56814834742187 4.999999999999991 -1.4230549287579295
  endloop
endfacet
facet normal 0.0 1.0 0.0
  outer loop
    vertex 310.56814834742187 4.999999999999991 -1.4230549287579295
    vertex 305.0 4.999999999999991 9.999999999999998
    vertex 310.5 4.999999999999991 -0.9054168385528896
  endloop
endfacet
facet normal 0.0 1.0 0.0
  outer loop
    vertex 310.5 4.999999999999991 -0.9054168385528896
    vertex 305.0 4.999999999999991 9.999999999999998
    vertex 310.56814834742187 4.999999999999991 -0.38777874834784404
  endloop
endfacet
facet normal 0.0 1.0 0.0
  outer loop
    vertex 310.56814834742187 4.999999999999991 -0.38777874834784404
    vertex 305.0 4.999999999999991 9.999999999999998
    vertex 310.7679491924311 4.999999999999991 0.0945831614471086
  endloop
endfacet
facet normal 0.0 1.0 0.0
  outer loop
    vertex 310.7679491924311 4.999999999999991 0.0945831614471086
    vertex 305.0 4.999999999999991 9.999999999999998
    vertex 311.0857864376269 4.999999999999991 0.508796723820209
  endloop
endfacet
facet normal 0.0 1.0 0.0
  outer loop
    vertex 311.0857864376269 4.999999999999991 0.508796723820209
    vertex 305.0 4.999999999999991 9.999999999999998
    vertex 311.5 4.999999999999991 0.8266339690159887
  endloop
endfacet
facet normal 0.0 1.0 0.0
  outer loop
    vertex 311.5 4.999999999999991 0.8266339690159887
    vertex 305.0 4.999999999999991 9.999999999999998
    vertex 311.982361909795 4.999999999999991 1.0264348140252488
  endloop
endfacet
facet normal 0.0 1.0 0.0
  outer loop
    vertex 311.982361909795 4.999999999999991 1.0264348140252488
    vertex 305.0 4.999999999999991 9.999999999999998
    vertex 312.5 4.999999999999991 1.0945831614471124
  endloop
endfacet
facet normal 0.0 1.0 0.0
  outer loop
    vertex 320.0 4.999999999999991 -33.62166735421155
    vertex 314.43185165257813 4.999999999999991 -23.233888605863708
    vertex 320.0 4.999999999999991 9.999999999999998
  endloop
endfacet
facet normal 0.0 1.0 0.0
  outer loop
    vertex 314.43185165257813 4.999999999999991 -23.233888605863708
    vertex 320.0 4.999999999999991 -33.62166735421155
    vertex 314.23205080756884 4.999999999999991 -23.71625051565867
  endloop
endfacet
facet normal 0.0 1.0 0.0
  outer loop
    vertex 314.23205080756884 4.999999999999991 -23.71625051565867
    vertex 320.0 4.999999999999991 -33.62166735421155
    vertex 313.9142135623731 4.999999999999991 -24.13046407803176
  endloop
endfacet
facet normal 0.0 1.0 0.0
  outer loop
    vertex 313.9142135623731 4.999999999999991 -24.13046407803176
    vertex 320.0 4.999999999999991 -33.62166735421155
    vertex 313.5 4.999999999999991 -24.448301323227543
  endloop
endfacet
facet normal 0.0 1.0 0.0
  outer loop
    vertex 313.5 4.999999999999991 -24.448301323227543
    vertex 320.0 4.999999999999991 -33.62166735421155
    vertex 313.017638090205 4.999999999999991 -24.6481021682368
  endloop
endfacet
facet normal 0.0 1.0 0.0
  outer loop
    vertex 313.017638090205 4.999999999999991 -24.6481021682368
    vertex 320.0 4.999999999999991 -33.62166735421155
    vertex 312.5 4.999999999999991 -24.716250515658665
  endloop
endfacet
facet normal 0.0 1.0 0.0
  outer loop
    vertex 320.0 4.999999999999991 9.999999999999998
    vertex 314.43185165257813 4.999999999999991 -23.233888605863708
    vertex 314.5 4.999999999999991 -22.716250515658665
  endloop
endfacet
facet normal 0.0 1.0 0.0
  outer loop
    vertex 320.0 4.999999999999991 9.999999999999998
    vertex 314.5 4.999999999999991 -22.716250515658665
    vertex 314.43185165257813 4.999999999999991 -22.198612425453625
  endloop
endfacet
facet normal 0.0 1.0 0.0
  outer loop
    vertex 320.0 4.999999999999991 9.999999999999998
    vertex 314.43185165257813 4.999999999999991 -22.198612425453625
    vertex 314.23205080756884 4.999999999999991 -21.71625051565867
  endloop
endfacet
facet normal 0.0 1.0 0.0
  outer loop
    vertex 320.0 4.999999999999991 9.999999999999998
    vertex 314.23205080756884 4.999999999999991 -21.71625051565867
    vertex 313.9142135623731 4.999999999999991 -21.302036953285572
  endloop
endfacet
facet normal 0.0 1.0 0.0
  outer loop
    vertex 320.0 4.999999999999991 9.999999999999998
    vertex 313.9142135623731 4.999999999999991 -21.302036953285572
    vertex 313.5 4.999999999999991 -20.98419970808979
  endloop
endfacet
facet normal 0.0 1.0 0.0
  outer loop
    vertex 320.0 4.999999999999991 9.999999999999998
    vertex 313.5 4.999999999999991 -20.98419970808979
    vertex 313.017638090205 4.999999999999991 -20.78439886308053
  endloop
endfacet
facet normal 0.0 1.0 0.0
  outer loop
    vertex 320.0 4.999999999999991 9.999999999999998
    vertex 313.017638090205 4.999999999999991 -20.78439886308053
    vertex 312.5 4.999999999999991 -20.71625051565867
  endloop
endfacet
facet normal 0.0 1.0 0.0
  outer loop
    vertex 320.0 4.999999999999991 9.999999999999998
    vertex 312.5 4.999999999999991 -20.71625051565867
    vertex 314.23205080756884 4.999999999999991 -1.9054168385528878
  endloop
endfacet
facet normal 0.0 1.0 0.0
  outer loop
    vertex 314.23205080756884 4.999999999999991 -1.9054168385528878
    vertex 312.5 4.999999999999991 -20.71625051565867
    vertex 313.9142135623731 4.999999999999991 -2.3196304009259827
  endloop
endfacet
facet normal 0.0 1.0 0.0
  outer loop
    vertex 313.9142135623731 4.999999999999991 -2.3196304009259827
    vertex 312.5 4.999999999999991 -20.71625051565867
    vertex 313.5 4.999999999999991 -2.637467646121768
  endloop
endfacet
facet normal 0.0 1.0 0.0
  outer loop
    vertex 313.5 4.999999999999991 -2.637467646121768
    vertex 312.5 4.999999999999991 -20.71625051565867
    vertex 313.017638090205 4.999999999999991 -2.8372684911310224
  endloop
endfacet
facet normal 0.0 1.0 0.0
  outer loop
    vertex 313.017638090205 4.999999999999991 -2.8372684911310224
    vertex 312.5 4.999999999999991 -20.71625051565867
    vertex 312.5 4.999999999999991 -2.905416838552886
  endloop
endfacet
facet normal 0.0 1.0 0.0
  outer loop
    vertex 320.0 4.999999999999991 9.999999999999998
    vertex 314.23205080756884 4.999999999999991 -1.9054168385528878
    vertex 314.43185165257813 4.999999999999991 -1.4230549287579295
  endloop
endfacet
facet normal 0.0 1.0 0.0
  outer loop
    vertex 320.0 4.999999999999991 9.999999999999998
    vertex 314.43185165257813 4.999999999999991 -1.4230549287579295
    vertex 314.5 4.999999999999991 -0.9054168385528896
  endloop
endfacet
facet normal 0.0 1.0 0.0
  outer loop
    vertex 320.0 4.999999999999991 9.999999999999998
    vertex 314.5 4.999999999999991 -0.9054168385528896
    vertex 314.43185165257813 4.999999999999991 -0.38777874834784964
  endloop
endfacet
facet normal 0.0 1.0 0.0
  outer loop
    vertex 320.0 4.999999999999991 9.999999999999998
    vertex 314.43185165257813 4.999999999999991 -0.38777874834784964
    vertex 314.23205080756884 4.999999999999991 0.0945831614471086
  endloop
endfacet
facet normal 0.0 1.0 0.0
  outer loop
    vertex 320.0 4.999999999999991 9.999999999999998
    vertex 314.23205080756884 4.999999999999991 0.0945831614471086
    vertex 313.9142135623731 4.999999999999991 0.5087967238202034
  endloop
endfacet
facet normal 0.0 1.0 0.0
  outer loop
    vertex 320.0 4.999999999999991 9.999999999999998
    vertex 313.9142135623731 4.999999999999991 0.5087967238202034
    vertex 313.5 4.999999999999991 0.8266339690159887
  endloop
endfacet
facet normal 0.0 1.0 0.0
  outer loop
    vertex 320.0 4.999999999999991 9.999999999999998
    vertex 313.5 4.999999999999991 0.8266339690159887
    vertex 313.017638090205 4.999999999999991 1.0264348140252488
  endloop
endfacet
facet normal 0.0 1.0 0.0
  outer loop
    vertex 320.0 4.999999999999991 9.999999999999998
    vertex 313.017638090205 4.999999999999991 1.0264348140252488
    vertex 312.5 4.999999999999991 1.0945831614471124
  endloop
endfacet
facet normal 0.0 1.0 0.0
  outer loop
    vertex 320.0 4.999999999999991 9.999999999999998
    vertex 312.5 4.999999999999991 1.0945831614471124
    vertex 305.0 4.999999999999991 9.999999999999998
  endloop
endfacet
facet normal 0.6087614290087128 0.0 -0.7933533402912413
  outer loop
    vertex 311.5 4.999999999999991 -20.98419970808979
    vertex 311.0857864376269 0.0 -21.30203695328557
    vertex 311.0857864376269 4.999999999999991 -21.30203695328557
  endloop
endfacet
facet normal 0.6087614290087128 0.0 -0.7933533402912413
  outer loop
    vertex 311.0857864376269 0.0 -21.30203695328557
    vertex 311.5 4.999999999999991 -20.98419970808979
    vertex 311.5 0.0 -20.98419970808979
  endloop
endfacet
facet normal 0.9238795325112898 0.0 -0.3826834323650822
  outer loop
    vertex 310.56814834742187 4.999999999999991 -0.38777874834784404
    vertex 310.7679491924311 0.0 0.0945831614471086
    vertex 310.56814834742187 0.0 -0.38777874834784404
  endloop
endfacet
facet normal 0.9238795325112898 0.0 -0.3826834323650822
  outer loop
    vertex 310.7679491924311 0.0 0.0945831614471086
    vertex 310.56814834742187 4.999999999999991 -0.38777874834784404
    vertex 310.7679491924311 4.999999999999991 0.0945831614471086
  endloop
endfacet
facet normal -1.0 0.0 0.0
  outer loop
    vertex 300.0 30.000000000000014 9.999999999999998
    vertex 300.0 0.0 0.0
    vertex 300.0 0.0 9.999999999999998
  endloop
endfacet
facet normal -1.0 0.0 0.0
  outer loop
    vertex 300.0 0.0 0.0
    vertex 300.0 30.000000000000014 9.999999999999998
    vertex 300.0 30.000000000000014 0.0
  endloop
endfacet
facet normal 0.7933533402912477 0.0 -0.6087614290087043
  outer loop
    vertex 310.7679491924311 4.999999999999991 -21.716250515658665
    vertex 311.0857864376269 0.0 -21.30203695328557
    vertex 310.7679491924311 0.0 -21.716250515658665
  endloop
endfacet
facet normal 0.7933533402912477 0.0 -0.6087614290087043
  outer loop
    vertex 311.0857864376269 0.0 -21.30203695328557
    vertex 310.7679491924311 4.999999999999991 -21.716250515658665
    vertex 311.0857864376269 4.999999999999991 -21.30203695328557
  endloop
endfacet
facet normal 0.9914448613738076 0.0 -0.13052619222007295
  outer loop
    vertex 310.5 4.999999999999991 -0.9054168385528896
    vertex 310.56814834742187 0.0 -0.38777874834784404
    vertex 310.5 0.0 -0.9054168385528896
  endloop
endfacet
facet normal 0.9914448613738076 0.0 -0.13052619222007295
  outer loop
    vertex 310.56814834742187 0.0 -0.38777874834784404
    vertex 310.5 4.999999999999991 -0.9054168385528896
    vertex 310.56814834742187 4.999999999999991 -0.38777874834784404
  endloop
endfacet
facet normal 1.747577747062129e-33 -1.9128235304508755e-17 1.0
  outer loop
    vertex 286.0 0.0 0.0
    vertex 291.0681483474218 14.482361909794973 0.0
    vertex 286.0 30.000000000000014 0.0
  endloop
endfacet
facet normal 1.747577747062129e-33 -1.9128235304508755e-17 1.0
  outer loop
    vertex 291.0681483474218 14.482361909794973 0.0
    vertex 286.0 0.0 0.0
    vertex 291.2679491924311 13.999999999999996 0.0
  endloop
endfacet
facet normal 1.747577747062129e-33 -1.9128235304508755e-17 1.0
  outer loop
    vertex 291.2679491924311 13.999999999999996 0.0
    vertex 286.0 0.0 0.0
    vertex 300.0 0.0 0.0
  endloop
endfacet
facet normal 1.747577747062129e-33 -1.9128235304508755e-17 1.0
  outer loop
    vertex 286.0 30.000000000000014 0.0
    vertex 291.0681483474218 14.482361909794973 0.0
    vertex 290.99999999999994 14.999999999999995 0.0
  endloop
endfacet
facet normal 1.747577747062129e-33 -1.9128235304508755e-17 1.0
  outer loop
    vertex 291.2679491924311 13.999999999999996 0.0
    vertex 300.0 0.0 0.0
    vertex 291.58578643762684 13.585786437626897 0.0
  endloop
endfacet
facet normal 1.747577747062129e-33 -1.9128235304508755e-17 1.0
  outer loop
    vertex 291.58578643762684 13.585786437626897 0.0
    vertex 300.0 0.0 0.0
    vertex 291.99999999999994 13.267949192431129 0.0
  endloop
endfacet
facet normal 1.747577747062129e-33 -1.9128235304508755e-17 1.0
  outer loop
    vertex 291.99999999999994 13.267949192431129 0.0
    vertex 300.0 0.0 0.0
    vertex 292.4823619097949 13.068148347421873 0.0
  endloop
endfacet
facet normal 1.747577747062129e-33 -1.9128235304508755e-17 1.0
  outer loop
    vertex 292.4823619097949 13.068148347421873 0.0
    vertex 300.0 0.0 0.0
    vertex 292.99999999999994 12.999999999999998 0.0
  endloop
endfacet
facet normal 1.747577747062129e-33 -1.9128235304508755e-17 1.0
  outer loop
    vertex 292.99999999999994 12.999999999999998 0.0
    vertex 300.0 0.0 0.0
    vertex 293.51763809020497 13.068148347421873 0.0
  endloop
endfacet
facet normal 1.747577747062129e-33 -1.9128235304508755e-17 1.0
  outer loop
    vertex 293.51763809020497 13.068148347421873 0.0
    vertex 300.0 0.0 0.0
    vertex 293.99999999999994 13.267949192431129 0.0
  endloop
endfacet
facet normal 1.747577747062129e-33 -1.9128235304508755e-17 1.0
  outer loop
    vertex 293.99999999999994 13.267949192431129 0.0
    vertex 300.0 0.0 0.0
    vertex 294.41421356237305 13.585786437626897 0.0
  endloop
endfacet
facet normal 1.747577747062129e-33 -1.9128235304508755e-17 1.0
  outer loop
    vertex 294.41421356237305 13.585786437626897 0.0
    vertex 300.0 0.0 0.0
    vertex 294.73205080756884 13.999999999999996 0.0
  endloop
endfacet
facet normal 1.747577747062129e-33 -1.9128235304508755e-17 1.0
  outer loop
    vertex 294.73205080756884 13.999999999999996 0.0
    vertex 300.0 0.0 0.0
    vertex 294.9318516525781 14.48236190979495 0.0
  endloop
endfacet
facet normal 1.747577747062129e-33 -1.9128235304508755e-17 1.0
  outer loop
    vertex 294.9318516525781 14.48236190979495 0.0
    vertex 300.0 0.0 0.0
    vertex 294.99999999999994 14.999999999999995 0.0
  endloop
endfacet
facet normal 1.747577747062129e-33 -1.9128235304508755e-17 1.0
  outer loop
    vertex 286.0 30.000000000000014 0.0
    vertex 291.2679491924311 15.999999999999993 0.0
    vertex 300.0 30.000000000000014 0.0
  endloop
endfacet
facet normal 1.747577747062129e-33 -1.9128235304508755e-17 1.0
  outer loop
    vertex 291.2679491924311 15.999999999999993 0.0
    vertex 286.0 30.000000000000014 0.0
    vertex 291.0681483474218 15.517638090205041 0.0
  endloop
endfacet
facet normal 1.747577747062129e-33 -1.9128235304508755e-17 1.0
  outer loop
    vertex 291.0681483474218 15.517638090205041 0.0
    vertex 286.0 30.000000000000014 0.0
    vertex 290.99999999999994 14.999999999999995 0.0
  endloop
endfacet
facet normal 1.747577747062129e-33 -1.9128235304508755e-17 1.0
  outer loop
    vertex 300.0 30.000000000000014 0.0
    vertex 291.2679491924311 15.999999999999993 0.0
    vertex 291.58578643762684 16.414213562373092 0.0
  endloop
endfacet
facet normal 1.747577747062129e-33 -1.9128235304508755e-17 1.0
  outer loop
    vertex 300.0 30.000000000000014 0.0
    vertex 291.58578643762684 16.414213562373092 0.0
    vertex 291.99999999999994 16.732050807568886 0.0
  endloop
endfacet
facet normal 1.747577747062129e-33 -1.9128235304508755e-17 1.0
  outer loop
    vertex 300.0 30.000000000000014 0.0
    vertex 291.99999999999994 16.732050807568886 0.0
    vertex 292.4823619097949 16.93185165257814 0.0
  endloop
endfacet
facet normal 1.747577747062129e-33 -1.9128235304508755e-17 1.0
  outer loop
    vertex 300.0 30.000000000000014 0.0
    vertex 292.4823619097949 16.93185165257814 0.0
    vertex 292.99999999999994 16.999999999999993 0.0
  endloop
endfacet
facet normal 1.747577747062129e-33 -1.9128235304508755e-17 1.0
  outer loop
    vertex 300.0 30.000000000000014 0.0
    vertex 292.99999999999994 16.999999999999993 0.0
    vertex 293.51763809020497 16.93185165257814 0.0
  endloop
endfacet
facet normal 1.747577747062129e-33 -1.9128235304508755e-17 1.0
  outer loop
    vertex 300.0 30.000000000000014 0.0
    vertex 293.51763809020497 16.93185165257814 0.0
    vertex 293.99999999999994 16.732050807568886 0.0
  endloop
endfacet
facet normal 1.747577747062129e-33 -1.9128235304508755e-17 1.0
  outer loop
    vertex 300.0 30.000000000000014 0.0
    vertex 293.99999999999994 16.732050807568886 0.0
    vertex 294.41421356237305 16.414213562373092 0.0
  endloop
endfacet
facet normal 1.747577747062129e-33 -1.9128235304508755e-17 1.0
  outer loop
    vertex 300.0 30.000000000000014 0.0
    vertex 294.41421356237305 16.414213562373092 0.0
    vertex 294.73205080756884 15.999999999999993 0.0
  endloop
endfacet
facet normal 1.747577747062129e-33 -1.9128235304508755e-17 1.0
  outer loop
    vertex 300.0 30.000000000000014 0.0
    vertex 294.73205080756884 15.999999999999993 0.0
    vertex 294.9318516525781 15.517638090205041 0.0
  endloop
endfacet
facet normal 1.747577747062129e-33 -1.9128235304508755e-17 1.0
  outer loop
    vertex 300.0 30.000000000000014 0.0
    vertex 294.9318516525781 15.517638090205041 0.0
    vertex 294.99999999999994 14.999999999999995 0.0
  endloop
endfacet
facet normal 1.747577747062129e-33 -1.9128235304508755e-17 1.0
  outer loop
    vertex 300.0 30.000000000000014 0.0
    vertex 294.99999999999994 14.999999999999995 0.0
    vertex 300.0 0.0 0.0
  endloop
endfacet
facet normal 0.9914448613738077 0.0 0.13052619222007306
  outer loop
    vertex 310.56814834742187 4.999999999999991 -1.4230549287579295
    vertex 310.5 0.0 -0.9054168385528896
    vertex 310.56814834742187 0.0 -1.4230549287579295
  endloop
endfacet
facet normal 0.9914448613738077 0.0 0.13052619222007306
  outer loop
    vertex 310.5 0.0 -0.9054168385528896
    vertex 310.56814834742187 4.999999999999991 -1.4230549287579295
    vertex 310.5 4.999999999999991 -0.9054168385528896
  endloop
endfacet
facet normal -1.0 -1.0173135836389662e-17 0.0
  outer loop
    vertex 286.0 30.000000000000014 0.0
    vertex 286.0 0.0 -4.9999999999999964
    vertex 286.0 0.0 0.0
  endloop
endfacet
facet normal -1.0 -1.0173135836389662e-17 0.0
  outer loop
    vertex 286.0 0.0 -4.9999999999999964
    vertex 286.0 30.000000000000014 0.0
    vertex 286.0 30.000000000000014 -4.9999999999999964
  endloop
endfacet
facet normal -1.4245039556742089e-18 2.8809897246701336e-17 -1.0
  outer loop
    vertex 286.0 30.000000000000014 -4.9999999999999964
    vertex 291.0681483474218 15.517638090205041 -4.9999999999999964
    vertex 286.0 0.0 -4.9999999999999964
  endloop
endfacet
facet normal -1.4245039556742089e-18 2.8809897246701336e-17 -1.0
  outer loop
    vertex 291.0681483474218 15.517638090205041 -4.9999999999999964
    vertex 286.0 30.000000000000014 -4.9999999999999964
    vertex 291.2679491924311 15.999999999999993 -4.9999999999999964
  endloop
endfacet
facet normal -1.4245039556742089e-18 2.8809897246701336e-17 -1.0
  outer loop
    vertex 291.2679491924311 15.999999999999993 -4.9999999999999964
    vertex 286.0 30.000000000000014 -4.9999999999999964
    vertex 300.0 30.000000000000014 -4.9999999999999964
  endloop
endfacet
facet normal -1.4245039556742089e-18 2.8809897246701336e-17 -1.0
  outer loop
    vertex 286.0 0.0 -4.9999999999999964
    vertex 291.0681483474218 15.517638090205041 -4.9999999999999964
    vertex 290.99999999999994 14.999999999999995 -4.9999999999999964
  endloop
endfacet
facet normal -1.4245039556742089e-18 2.8809897246701336e-17 -1.0
  outer loop
    vertex 291.2679491924311 15.999999999999993 -4.9999999999999964
    vertex 300.0 30.000000000000014 -4.9999999999999964
    vertex 291.58578643762684 16.414213562373092 -4.9999999999999964
  endloop
endfacet
facet normal -1.4245039556742089e-18 2.8809897246701336e-17 -1.0
  outer loop
    vertex 291.58578643762684 16.414213562373092 -4.9999999999999964
    vertex 300.0 30.000000000000014 -4.9999999999999964
    vertex 291.99999999999994 16.732050807568886 -4.9999999999999964
  endloop
endfacet
facet normal -1.4245039556742089e-18 2.8809897246701336e-17 -1.0
  outer loop
    vertex 291.99999999999994 16.732050807568886 -4.9999999999999964
    vertex 300.0 30.000000000000014 -4.9999999999999964
    vertex 292.4823619097949 16.93185165257814 -4.9999999999999964
  endloop
endfacet
facet normal -1.4245039556742089e-18 2.8809897246701336e-17 -1.0
  outer loop
    vertex 292.4823619097949 16.93185165257814 -4.9999999999999964
    vertex 300.0 30.000000000000014 -4.9999999999999964
    vertex 292.99999999999994 16.999999999999993 -4.9999999999999964
  endloop
endfacet
facet normal -1.4245039556742089e-18 2.8809897246701336e-17 -1.0
  outer loop
    vertex 292.99999999999994 16.999999999999993 -4.9999999999999964
    vertex 300.0 30.000000000000014 -4.9999999999999964
    vertex 293.51763809020497 16.93185165257814 -4.9999999999999964
  endloop
endfacet
facet normal -1.4245039556742089e-18 2.8809897246701336e-17 -1.0
  outer loop
    vertex 293.51763809020497 16.93185165257814 -4.9999999999999964
    vertex 300.0 30.000000000000014 -4.9999999999999964
    vertex 293.99999999999994 16.732050807568886 -4.9999999999999964
  endloop
endfacet
facet normal -1.4245039556742089e-18 2.8809897246701336e-17 -1.0
  outer loop
    vertex 293.99999999999994 16.732050807568886 -4.9999999999999964
    vertex 300.0 30.000000000000014 -4.9999999999999964
    vertex 294.41421356237305 16.414213562373092 -4.9999999999999964
  endloop
endfacet
facet normal -1.4245039556742089e-18 2.8809897246701336e-17 -1.0
  outer loop
    vertex 294.41421356237305 16.414213562373092 -4.9999999999999964
    vertex 300.0 30.000000000000014 -4.9999999999999964
    vertex 294.73205080756884 15.999999999999993 -4.9999999999999964
  endloop
endfacet
facet normal -1.4245039556742089e-18 2.8809897246701336e-17 -1.0
  outer loop
    vertex 294.73205080756884 15.999999999999993 -4.9999999999999964
    vertex 300.0 30.000000000000014 -4.9999999999999964
    vertex 294.9318516525781 15.517638090205041 -4.9999999999999964
  endloop
endfacet
facet normal -1.4245039556742089e-18 2.8809897246701336e-17 -1.0
  outer loop
    vertex 294.9318516525781 15.517638090205041 -4.9999999999999964
    vertex 300.0 30.000000000000014 -4.9999999999999964
    vertex 294.99999999999994 14.999999999999995 -4.9999999999999964
  endloop
endfacet
facet normal -1.4245039556742089e-18 2.8809897246701336e-17 -1.0
  outer loop
    vertex 286.0 0.0 -4.9999999999999964
    vertex 291.2679491924311 13.999999999999996 -4.9999999999999964
    vertex 300.0 0.0 -4.9999999999999964
  endloop
endfacet
facet normal -1.4245039556742089e-18 2.8809897246701336e-17 -1.0
  outer loop
    vertex 291.2679491924311 13.999999999999996 -4.9999999999999964
    vertex 286.0 0.0 -4.9999999999999964
    vertex 291.0681483474218 14.482361909794973 -4.9999999999999964
  endloop
endfacet
facet normal -1.4245039556742089e-18 2.8809897246701336e-17 -1.0
  outer loop
    vertex 291.0681483474218 14.482361909794973 -4.9999999999999964
    vertex 286.0 0.0 -4.9999999999999964
    vertex 290.99999999999994 14.999999999999995 -4.9999999999999964
  endloop
endfacet
facet normal -1.4245039556742089e-18 2.8809897246701336e-17 -1.0
  outer loop
    vertex 300.0 0.0 -4.9999999999999964
    vertex 291.2679491924311 13.999999999999996 -4.9999999999999964
    vertex 291.58578643762684 13.585786437626897 -4.9999999999999964
  endloop
endfacet
facet normal -1.4245039556742089e-18 2.8809897246701336e-17 -1.0
  outer loop
    vertex 300.0 0.0 -4.9999999999999964
    vertex 291.58578643762684 13.585786437626897 -4.9999999999999964
    vertex 291.99999999999994 13.267949192431129 -4.9999999999999964
  endloop
endfacet
facet normal -1.4245039556742089e-18 2.8809897246701336e-17 -1.0
  outer loop
    vertex 300.0 0.0 -4.9999999999999964
    vertex 291.99999999999994 13.267949192431129 -4.9999999999999964
    vertex 292.4823619097949 13.068148347421873 -4.9999999999999964
  endloop
endfacet
facet normal -1.4245039556742089e-18 2.8809897246701336e-17 -1.0
  outer loop
    vertex 300.0 0.0 -4.9999999999999964
    vertex 292.4823619097949 13.068148347421873 -4.9999999999999964
    vertex 292.99999999999994 12.999999999999998 -4.9999999999999964
  endloop
endfacet
facet normal -1.4245039556742089e-18 2.8809897246701336e-17 -1.0
  outer loop
    vertex 300.0 0.0 -4.9999999999999964
    vertex 292.99999999999994 12.999999999999998 -4.9999999999999964
    vertex 293.51763809020497 13.068148347421873 -4.9999999999999964
  endloop
endfacet
facet normal -1.4245039556742089e-18 2.8809897246701336e-17 -1.0
  outer loop
    vertex 300.0 0.0 -4.9999999999999964
    vertex 293.51763809020497 13.068148347421873 -4.9999999999999964
    vertex 293.99999999999994 13.267949192431129 -4.9999999999999964
  endloop
endfacet
facet normal -1.4245039556742089e-18 2.8809897246701336e-17 -1.0
  outer loop
    vertex 300.0 0.0 -4.9999999999999964
    vertex 293.99999999999994 13.267949192431129 -4.9999999999999964
    vertex 294.41421356237305 13.585786437626897 -4.9999999999999964
  endloop
endfacet
facet normal -1.4245039556742089e-18 2.8809897246701336e-17 -1.0
  outer loop
    vertex 300.0 0.0 -4.9999999999999964
    vertex 294.41421356237305 13.585786437626897 -4.9999999999999964
    vertex 294.73205080756884 13.999999999999996 -4.9999999999999964
  endloop
endfacet
facet normal -1.4245039556742089e-18 2.8809897246701336e-17 -1.0
  outer loop
    vertex 300.0 0.0 -4.9999999999999964
    vertex 294.73205080756884 13.999999999999996 -4.9999999999999964
    vertex 294.9318516525781 14.48236190979495 -4.9999999999999964
  endloop
endfacet
facet normal -1.4245039556742089e-18 2.8809897246701336e-17 -1.0
  outer loop
    vertex 300.0 0.0 -4.9999999999999964
    vertex 294.9318516525781 14.48236190979495 -4.9999999999999964
    vertex 294.99999999999994 14.999999999999995 -4.9999999999999964
  endloop
endfacet
facet normal -1.4245039556742089e-18 2.8809897246701336e-17 -1.0
  outer loop
    vertex 300.0 0.0 -4.9999999999999964
    vertex 294.99999999999994 14.999999999999995 -4.9999999999999964
    vertex 300.0 30.000000000000014 -4.9999999999999964
  endloop
endfacet
facet normal 0.9238795325112898 0.0 0.3826834323650822
  outer loop
    vertex 310.7679491924311 4.999999999999991 -1.9054168385528878
    vertex 310.56814834742187 0.0 -1.4230549287579295
    vertex 310.7679491924311 0.0 -1.9054168385528878
  endloop
endfacet
facet normal 0.9238795325112898 0.0 0.3826834323650822
  outer loop
    vertex 310.56814834742187 0.0 -1.4230549287579295
    vertex 310.7679491924311 4.999999999999991 -1.9054168385528878
    vertex 310.56814834742187 4.999999999999991 -1.4230549287579295
  endloop
endfacet
facet normal 0.857492925712544 0.5144957554275269 0.0
  outer loop
    vertex 305.0 30.000000000000014 -38.62166735421155
    vertex 320.0 4.999999999999991 -33.62166735421155
    vertex 320.0 4.999999999999991 -38.62166735421155
  endloop
endfacet
facet normal 0.857492925712544 0.5144957554275269 0.0
  outer loop
    vertex 320.0 4.999999999999991 -33.62166735421155
    vertex 305.0 30.000000000000014 -38.62166735421155
    vertex 305.0 30.000000000000014 -33.62166735421155
  endloop
endfacet
facet normal 0.0 0.0 -1.0
  outer loop
    vertex 320.0 4.999999999999991 -38.62166735421155
    vertex 305.0 0.0 -38.62166735421155
    vertex 305.0 4.999999999999991 -38.62166735421155
  endloop
endfacet
facet normal 0.0 0.0 -1.0
  outer loop
    vertex 305.0 0.0 -38.62166735421155
    vertex 320.0 4.999999999999991 -38.62166735421155
    vertex 320.0 0.0 -38.62166735421155
  endloop
endfacet
facet normal 1.0 0.0 0.0
  outer loop
    vertex 320.0 4.999999999999991 -38.62166735421155
    vertex 320.0 0.0 9.999999999999998
    vertex 320.0 0.0 -38.62166735421155
  endloop
endfacet
facet normal 1.0 0.0 0.0
  outer loop
    vertex 320.0 0.0 9.999999999999998
    vertex 320.0 4.999999999999991 -38.62166735421155
    vertex 320.0 4.999999999999991 9.999999999999998
  endloop
endfacet
facet normal 1.0 0.0 0.0
  outer loop
    vertex 320.0 4.999999999999991 9.999999999999998
    vertex 320.0 4.999999999999991 -38.62166735421155
    vertex 320.0 4.999999999999991 -33.62166735421155
  endloop
endfacet
facet normal 0.92387953251129 0.0 -0.38268343236508207
  outer loop
    vertex 310.56814834742187 4.999999999999991 -22.19861242545362
    vertex 310.7679491924311 0.0 -21.716250515658665
    vertex 310.56814834742187 0.0 -22.19861242545362
  endloop
endfacet
facet normal 0.92387953251129 0.0 -0.38268343236508207
  outer loop
    vertex 310.7679491924311 0.0 -21.716250515658665
    vertex 310.56814834742187 4.999999999999991 -22.19861242545362
    vertex 310.7679491924311 4.999999999999991 -21.716250515658665
  endloop
endfacet
facet normal 1.0173135836389662e-17 -1.0 -1.912823530450875e-17
  outer loop
    vertex 300.0 0.0 -38.50023541964519
    vertex 310.7679491924311 0.0 -23.716250515658665
    vertex 300.0 0.0 -4.9999999999999964
  endloop
endfacet
facet normal 1.0173135836389662e-17 -1.0 -1.912823530450875e-17
  outer loop
    vertex 310.7679491924311 0.0 -23.716250515658665
    vertex 300.0 0.0 -38.50023541964519
    vertex 311.0857864376269 0.0 -24.13046407803176
  endloop
endfacet
facet normal 1.0173135836389662e-17 -1.0 -1.912823530450875e-17
  outer loop
    vertex 311.0857864376269 0.0 -24.13046407803176
    vertex 300.0 0.0 -38.50023541964519
    vertex 311.5 0.0 -24.44830132322754
  endloop
endfacet
facet normal 1.0173135836389662e-17 -1.0 -1.912823530450875e-17
  outer loop
    vertex 311.5 0.0 -24.44830132322754
    vertex 300.0 0.0 -38.50023541964519
    vertex 311.982361909795 0.0 -24.6481021682368
  endloop
endfacet
facet normal 1.0173135836389662e-17 -1.0 -1.912823530450875e-17
  outer loop
    vertex 311.982361909795 0.0 -24.6481021682368
    vertex 300.0 0.0 -38.50023541964519
    vertex 312.5 0.0 -24.716250515658665
  endloop
endfacet
facet normal 1.0173135836389662e-17 -1.0 -1.912823530450875e-17
  outer loop
    vertex 300.0 0.0 -4.9999999999999964
    vertex 310.7679491924311 0.0 -23.716250515658665
    vertex 310.56814834742187 0.0 -23.233888605863704
  endloop
endfacet
facet normal 1.0173135836389662e-17 -1.0 -1.912823530450875e-17
  outer loop
    vertex 300.0 0.0 -4.9999999999999964
    vertex 310.56814834742187 0.0 -23.233888605863704
    vertex 310.5 0.0 -22.716250515658665
  endloop
endfacet
facet normal 1.0173135836389662e-17 -1.0 -1.912823530450875e-17
  outer loop
    vertex 300.0 0.0 -4.9999999999999964
    vertex 310.5 0.0 -22.716250515658665
    vertex 310.56814834742187 0.0 -22.19861242545362
  endloop
endfacet
facet normal 1.0173135836389662e-17 -1.0 -1.912823530450875e-17
  outer loop
    vertex 300.0 0.0 -4.9999999999999964
    vertex 310.56814834742187 0.0 -22.19861242545362
    vertex 310.7679491924311 0.0 -21.716250515658665
  endloop
endfacet
facet normal 1.0173135836389662e-17 -1.0 -1.912823530450875e-17
  outer loop
    vertex 300.0 0.0 -4.9999999999999964
    vertex 310.7679491924311 0.0 -21.716250515658665
    vertex 311.0857864376269 0.0 -21.30203695328557
  endloop
endfacet
facet normal 1.0173135836389662e-17 -1.0 -1.912823530450875e-17
  outer loop
    vertex 300.0 0.0 -4.9999999999999964
    vertex 311.0857864376269 0.0 -21.30203695328557
    vertex 311.5 0.0 -20.98419970808979
  endloop
endfacet
facet normal 1.0173135836389662e-17 -1.0 -1.912823530450875e-17
  outer loop
    vertex 300.0 0.0 -4.9999999999999964
    vertex 311.5 0.0 -20.98419970808979
    vertex 311.982361909795 0.0 -20.78439886308053
  endloop
endfacet
facet normal 1.0173135836389662e-17 -1.0 -1.912823530450875e-17
  outer loop
    vertex 300.0 0.0 -4.9999999999999964
    vertex 311.982361909795 0.0 -20.78439886308053
    vertex 312.5 0.0 -20.71625051565867
  endloop
endfacet
facet normal 1.0173135836389662e-17 -1.0 -1.912823530450875e-17
  outer loop
    vertex 320.0 0.0 -38.62166735421155
    vertex 314.23205080756884 0.0 -23.71625051565867
    vertex 305.0 0.0 -38.62166735421155
  endloop
endfacet
facet normal 1.0173135836389662e-17 -1.0 -1.912823530450875e-17
  outer loop
    vertex 314.23205080756884 0.0 -23.71625051565867
    vertex 320.0 0.0 -38.62166735421155
    vertex 314.43185165257813 0.0 -23.233888605863708
  endloop
endfacet
facet normal 1.0173135836389662e-17 -1.0 -1.912823530450875e-17
  outer loop
    vertex 314.43185165257813 0.0 -23.233888605863708
    vertex 320.0 0.0 -38.62166735421155
    vertex 320.0 0.0 9.999999999999998
  endloop
endfacet
facet normal 1.0173135836389662e-17 -1.0 -1.912823530450875e-17
  outer loop
    vertex 305.0 0.0 -38.62166735421155
    vertex 314.23205080756884 0.0 -23.71625051565867
    vertex 313.9142135623731 0.0 -24.13046407803176
  endloop
endfacet
facet normal 1.0173135836389662e-17 -1.0 -1.912823530450875e-17
  outer loop
    vertex 305.0 0.0 -38.62166735421155
    vertex 313.9142135623731 0.0 -24.13046407803176
    vertex 300.0 0.0 -38.50023541964519
  endloop
endfacet
facet normal 1.0173135836389662e-17 -1.0 -1.912823530450875e-17
  outer loop
    vertex 300.0 0.0 -38.50023541964519
    vertex 313.9142135623731 0.0 -24.13046407803176
    vertex 313.5 0.0 -24.448301323227543
  endloop
endfacet
facet normal 1.0173135836389662e-17 -1.0 -1.912823530450875e-17
  outer loop
    vertex 300.0 0.0 -38.50023541964519
    vertex 313.5 0.0 -24.448301323227543
    vertex 313.017638090205 0.0 -24.6481021682368
  endloop
endfacet
facet normal 1.0173135836389662e-17 -1.0 -1.912823530450875e-17
  outer loop
    vertex 300.0 0.0 -38.50023541964519
    vertex 313.017638090205 0.0 -24.6481021682368
    vertex 312.5 0.0 -24.716250515658665
  endloop
endfacet
facet normal 1.0173135836389662e-17 -1.0 -1.912823530450875e-17
  outer loop
    vertex 314.43185165257813 0.0 -23.233888605863708
    vertex 320.0 0.0 9.999999999999998
    vertex 314.5 0.0 -22.716250515658665
  endloop
endfacet
facet normal 1.0173135836389662e-17 -1.0 -1.912823530450875e-17
  outer loop
    vertex 314.5 0.0 -22.716250515658665
    vertex 320.0 0.0 9.999999999999998
    vertex 314.43185165257813 0.0 -22.198612425453625
  endloop
endfacet
facet normal 1.0173135836389662e-17 -1.0 -1.912823530450875e-17
  outer loop
    vertex 314.43185165257813 0.0 -22.198612425453625
    vertex 320.0 0.0 9.999999999999998
    vertex 314.23205080756884 0.0 -21.71625051565867
  endloop
endfacet
facet normal 1.0173135836389662e-17 -1.0 -1.912823530450875e-17
  outer loop
    vertex 314.23205080756884 0.0 -21.71625051565867
    vertex 320.0 0.0 9.999999999999998
    vertex 313.9142135623731 0.0 -21.302036953285572
  endloop
endfacet
facet normal 1.0173135836389662e-17 -1.0 -1.912823530450875e-17
  outer loop
    vertex 313.9142135623731 0.0 -21.302036953285572
    vertex 320.0 0.0 9.999999999999998
    vertex 313.5 0.0 -20.98419970808979
  endloop
endfacet
facet normal 1.0173135836389662e-17 -1.0 -1.912823530450875e-17
  outer loop
    vertex 313.5 0.0 -20.98419970808979
    vertex 320.0 0.0 9.999999999999998
    vertex 313.017638090205 0.0 -20.78439886308053
  endloop
endfacet
facet normal 1.0173135836389662e-17 -1.0 -1.912823530450875e-17
  outer loop
    vertex 313.017638090205 0.0 -20.78439886308053
    vertex 320.0 0.0 9.999999999999998
    vertex 312.5 0.0 -20.71625051565867
  endloop
endfacet
facet normal 1.0173135836389662e-17 -1.0 -1.912823530450875e-17
  outer loop
    vertex 312.5 0.0 -20.71625051565867
    vertex 320.0 0.0 9.999999999999998
    vertex 314.23205080756884 0.0 -1.9054168385528878
  endloop
endfacet
facet normal 1.0173135836389662e-17 -1.0 -1.912823530450875e-17
  outer loop
    vertex 312.5 0.0 -20.71625051565867
    vertex 314.23205080756884 0.0 -1.9054168385528878
    vertex 313.9142135623731 0.0 -2.3196304009259827
  endloop
endfacet
facet normal 1.0173135836389662e-17 -1.0 -1.912823530450875e-17
  outer loop
    vertex 312.5 0.0 -20.71625051565867
    vertex 313.9142135623731 0.0 -2.3196304009259827
    vertex 313.5 0.0 -2.637467646121768
  endloop
endfacet
facet normal 1.0173135836389662e-17 -1.0 -1.912823530450875e-17
  outer loop
    vertex 312.5 0.0 -20.71625051565867
    vertex 313.5 0.0 -2.637467646121768
    vertex 313.017638090205 0.0 -2.8372684911310224
  endloop
endfacet
facet normal 1.0173135836389662e-17 -1.0 -1.912823530450875e-17
  outer loop
    vertex 312.5 0.0 -20.71625051565867
    vertex 313.017638090205 0.0 -2.8372684911310224
    vertex 300.0 0.0 -4.9999999999999964
  endloop
endfacet
facet normal 1.0173135836389662e-17 -1.0 -1.912823530450875e-17
  outer loop
    vertex 300.0 0.0 -4.9999999999999964
    vertex 313.017638090205 0.0 -2.8372684911310224
    vertex 312.5 0.0 -2.905416838552886
  endloop
endfacet
facet normal 1.0173135836389662e-17 -1.0 -1.912823530450875e-17
  outer loop
    vertex 300.0 0.0 -4.9999999999999964
    vertex 312.5 0.0 -2.905416838552886
    vertex 286.0 0.0 -4.9999999999999964
  endloop
endfacet
facet normal 1.0173135836389662e-17 -1.0 -1.912823530450875e-17
  outer loop
    vertex 314.23205080756884 0.0 -1.9054168385528878
    vertex 320.0 0.0 9.999999999999998
    vertex 314.43185165257813 0.0 -1.4230549287579295
  endloop
endfacet
facet normal 1.0173135836389662e-17 -1.0 -1.912823530450875e-17
  outer loop
    vertex 314.43185165257813 0.0 -1.4230549287579295
    vertex 320.0 0.0 9.999999999999998
    vertex 314.5 0.0 -0.9054168385528896
  endloop
endfacet
facet normal 1.0173135836389662e-17 -1.0 -1.912823530450875e-17
  outer loop
    vertex 314.5 0.0 -0.9054168385528896
    vertex 320.0 0.0 9.999999999999998
    vertex 314.43185165257813 0.0 -0.38777874834784964
  endloop
endfacet
facet normal 1.0173135836389662e-17 -1.0 -1.912823530450875e-17
  outer loop
    vertex 314.43185165257813 0.0 -0.38777874834784964
    vertex 320.0 0.0 9.999999999999998
    vertex 314.23205080756884 0.0 0.0945831614471086
  endloop
endfacet
facet normal 1.0173135836389662e-17 -1.0 -1.912823530450875e-17
  outer loop
    vertex 314.23205080756884 0.0 0.0945831614471086
    vertex 320.0 0.0 9.999999999999998
    vertex 313.9142135623731 0.0 0.5087967238202034
  endloop
endfacet
facet normal 1.0173135836389662e-17 -1.0 -1.912823530450875e-17
  outer loop
    vertex 313.9142135623731 0.0 0.5087967238202034
    vertex 320.0 0.0 9.999999999999998
    vertex 313.5 0.0 0.8266339690159887
  endloop
endfacet
facet normal 1.0173135836389662e-17 -1.0 -1.912823530450875e-17
  outer loop
    vertex 313.5 0.0 0.8266339690159887
    vertex 320.0 0.0 9.999999999999998
    vertex 313.017638090205 0.0 1.0264348140252488
  endloop
endfacet
facet normal 1.0173135836389662e-17 -1.0 -1.912823530450875e-17
  outer loop
    vertex 313.017638090205 0.0 1.0264348140252488
    vertex 320.0 0.0 9.999999999999998
    vertex 312.5 0.0 1.0945831614471124
  endloop
endfacet
facet normal 1.0173135836389662e-17 -1.0 -1.912823530450875e-17
  outer loop
    vertex 310.7679491924311 0.0 0.0945831614471086
    vertex 300.0 0.0 0.0
    vertex 310.56814834742187 0.0 -0.38777874834784404
  endloop
endfacet
facet normal 1.0173135836389662e-17 -1.0 -1.912823530450875e-17
  outer loop
    vertex 300.0 0.0 0.0
    vertex 310.7679491924311 0.0 0.0945831614471086
    vertex 300.0 0.0 9.999999999999998
  endloop
endfacet
facet normal 1.0173135836389662e-17 -1.0 -1.912823530450875e-17
  outer loop
    vertex 300.0 0.0 9.999999999999998
    vertex 310.7679491924311 0.0 0.0945831614471086
    vertex 311.0857864376269 0.0 0.508796723820209
  endloop
endfacet
facet normal 1.0173135836389662e-17 -1.0 -1.912823530450875e-17
  outer loop
    vertex 300.0 0.0 9.999999999999998
    vertex 311.0857864376269 0.0 0.508796723820209
    vertex 311.5 0.0 0.8266339690159887
  endloop
endfacet
facet normal 1.0173135836389662e-17 -1.0 -1.912823530450875e-17
  outer loop
    vertex 300.0 0.0 9.999999999999998
    vertex 311.5 0.0 0.8266339690159887
    vertex 311.982361909795 0.0 1.0264348140252488
  endloop
endfacet
facet normal 1.0173135836389662e-17 -1.0 -1.912823530450875e-17
  outer loop
    vertex 300.0 0.0 9.999999999999998
    vertex 311.982361909795 0.0 1.0264348140252488
    vertex 312.5 0.0 1.0945831614471124
  endloop
endfacet
facet normal 1.0173135836389662e-17 -1.0 -1.912823530450875e-17
  outer loop
    vertex 300.0 0.0 9.999999999999998
    vertex 312.5 0.0 1.0945831614471124
    vertex 320.0 0.0 9.999999999999998
  endloop
endfacet
facet normal 1.0173135836389662e-17 -1.0 -1.912823530450875e-17
  outer loop
    vertex 312.5 0.0 -2.905416838552886
    vertex 286.0 0.0 0.0
    vertex 286.0 0.0 -4.9999999999999964
  endloop
endfacet
facet normal 1.0173135836389662e-17 -1.0 -1.912823530450875e-17
  outer loop
    vertex 286.0 0.0 0.0
    vertex 312.5 0.0 -2.905416838552886
    vertex 311.982361909795 0.0 -2.8372684911310224
  endloop
endfacet
facet normal 1.0173135836389662e-17 -1.0 -1.912823530450875e-17
  outer loop
    vertex 286.0 0.0 0.0
    vertex 311.982361909795 0.0 -2.8372684911310224
    vertex 311.5 0.0 -2.637467646121768
  endloop
endfacet
facet normal 1.0173135836389662e-17 -1.0 -1.912823530450875e-17
  outer loop
    vertex 286.0 0.0 0.0
    vertex 311.5 0.0 -2.637467646121768
    vertex 311.0857864376269 0.0 -2.3196304009259827
  endloop
endfacet
facet normal 1.0173135836389662e-17 -1.0 -1.912823530450875e-17
  outer loop
    vertex 286.0 0.0 0.0
    vertex 311.0857864376269 0.0 -2.3196304009259827
    vertex 310.7679491924311 0.0 -1.9054168385528878
  endloop
endfacet
facet normal 1.0173135836389662e-17 -1.0 -1.912823530450875e-17
  outer loop
    vertex 286.0 0.0 0.0
    vertex 310.7679491924311 0.0 -1.9054168385528878
    vertex 310.56814834742187 0.0 -1.4230549287579295
  endloop
endfacet
facet normal 1.0173135836389662e-17 -1.0 -1.912823530450875e-17
  outer loop
    vertex 286.0 0.0 0.0
    vertex 310.56814834742187 0.0 -1.4230549287579295
    vertex 310.5 0.0 -0.9054168385528896
  endloop
endfacet
facet normal 1.0173135836389662e-17 -1.0 -1.912823530450875e-17
  outer loop
    vertex 286.0 0.0 0.0
    vertex 310.5 0.0 -0.9054168385528896
    vertex 310.56814834742187 0.0 -0.38777874834784404
  endloop
endfacet
facet normal 1.0173135836389662e-17 -1.0 -1.912823530450875e-17
  outer loop
    vertex 286.0 0.0 0.0
    vertex 310.56814834742187 0.0 -0.38777874834784404
    vertex 300.0 0.0 0.0
  endloop
endfacet
facet normal 0.9914448613738077 0.0 -0.1305261922200727
  outer loop
    vertex 310.5 4.999999999999991 -22.716250515658665
    vertex 310.56814834742187 0.0 -22.19861242545362
    vertex 310.5 0.0 -22.716250515658665
  endloop
endfacet
facet normal 0.9914448613738077 0.0 -0.1305261922200727
  outer loop
    vertex 310.56814834742187 0.0 -22.19861242545362
    vertex 310.5 4.999999999999991 -22.716250515658665
    vertex 310.56814834742187 4.999999999999991 -22.19861242545362
  endloop
endfacet
facet normal 0.9914448613738077 0.0 0.13052619222007342
  outer loop
    vertex 310.56814834742187 4.999999999999991 -23.233888605863704
    vertex 310.5 0.0 -22.716250515658665
    vertex 310.56814834742187 0.0 -23.233888605863704
  endloop
endfacet
facet normal 0.9914448613738077 0.0 0.13052619222007342
  outer loop
    vertex 310.5 0.0 -22.716250515658665
    vertex 310.56814834742187 4.999999999999991 -23.233888605863704
    vertex 310.5 4.999999999999991 -22.716250515658665
  endloop
endfacet
facet normal 0.92387953251129 0.0 0.38268343236508207
  outer loop
    vertex 310.7679491924311 4.999999999999991 -23.716250515658665
    vertex 310.56814834742187 0.0 -23.233888605863704
    vertex 310.7679491924311 0.0 -23.716250515658665
  endloop
endfacet
facet normal 0.92387953251129 0.0 0.38268343236508207
  outer loop
    vertex 310.56814834742187 0.0 -23.233888605863704
    vertex 310.7679491924311 4.999999999999991 -23.716250515658665
    vertex 310.56814834742187 4.999999999999991 -23.233888605863704
  endloop
endfacet
facet normal 0.7933533402912477 0.0 0.6087614290087043
  outer loop
    vertex 311.0857864376269 4.999999999999991 -24.13046407803176
    vertex 310.7679491924311 0.0 -23.716250515658665
    vertex 311.0857864376269 0.0 -24.13046407803176
  endloop
endfacet
facet normal 0.7933533402912477 0.0 0.6087614290087043
  outer loop
    vertex 310.7679491924311 0.0 -23.716250515658665
    vertex 311.0857864376269 4.999999999999991 -24.13046407803176
    vertex 310.7679491924311 4.999999999999991 -23.716250515658665
  endloop
endfacet
facet normal 0.0 0.0 -1.0
  outer loop
    vertex 320.0 4.999999999999991 -38.62166735421155
    vertex 305.0 4.999999999999991 -38.62166735421155
    vertex 305.0 30.000000000000014 -38.62166735421155
  endloop
endfacet
facet normal -1.0 -1.0173135836389662e-17 -2.676091462647843e-34
  outer loop
    vertex 300.0 30.000000000000014 -4.9999999999999964
    vertex 300.0 0.0 -38.50023541964519
    vertex 300.0 0.0 -4.9999999999999964
  endloop
endfacet
facet normal -1.0 -1.0173135836389662e-17 -2.676091462647843e-34
  outer loop
    vertex 300.0 0.0 -38.50023541964519
    vertex 300.0 30.000000000000014 -4.9999999999999964
    vertex 300.0 30.000000000000014 -38.50023541964519
  endloop
endfacet
facet normal 0.0 1.0 0.0
  outer loop
    vertex 286.0 30.000000000000014 0.0
    vertex 300.0 30.000000000000014 -4.9999999999999964
    vertex 286.0 30.000000000000014 -4.9999999999999964
  endloop
endfacet
facet normal 0.0 1.0 0.0
  outer loop
    vertex 300.0 30.000000000000014 -38.50023541964519
    vertex 305.0 30.000000000000014 -33.62166735421155
    vertex 305.0 30.000000000000014 -38.62166735421155
  endloop
endfacet
facet normal 0.0 1.0 0.0
  outer loop
    vertex 305.0 30.000000000000014 -33.62166735421155
    vertex 300.0 30.000000000000014 -38.50023541964519
    vertex 300.0 30.000000000000014 -4.9999999999999964
  endloop
endfacet
facet normal 0.0 1.0 0.0
  outer loop
    vertex 305.0 30.000000000000014 -33.62166735421155
    vertex 300.0 30.000000000000014 -4.9999999999999964
    vertex 305.0 30.000000000000014 9.999999999999998
  endloop
endfacet
facet normal 0.0 1.0 0.0
  outer loop
    vertex 305.0 30.000000000000014 9.999999999999998
    vertex 300.0 30.000000000000014 -4.9999999999999964
    vertex 300.0 30.000000000000014 0.0
  endloop
endfacet
facet normal 0.0 1.0 0.0
  outer loop
    vertex 300.0 30.000000000000014 0.0
    vertex 300.0 30.000000000000014 -4.9999999999999964
    vertex 286.0 30.000000000000014 0.0
  endloop
endfacet
facet normal 0.0 1.0 0.0
  outer loop
    vertex 305.0 30.000000000000014 9.999999999999998
    vertex 300.0 30.000000000000014 0.0
    vertex 300.0 30.000000000000014 9.999999999999998
  endloop
endfacet
facet normal 0.6087614290087161 0.0 0.7933533402912386
  outer loop
    vertex 311.5 0.0 -24.44830132322754
    vertex 311.0857864376269 4.999999999999991 -24.13046407803176
    vertex 311.0857864376269 0.0 -24.13046407803176
  endloop
endfacet
facet normal 0.6087614290087161 0.0 0.7933533402912386
  outer loop
    vertex 311.0857864376269 4.999999999999991 -24.13046407803176
    vertex 311.5 0.0 -24.44830132322754
    vertex 311.5 4.999999999999991 -24.44830132322754
  endloop
endfacet
facet normal 0.38268343236507985 0.0 0.923879532511291
  outer loop
    vertex 311.982361909795 0.0 -24.6481021682368
    vertex 311.5 4.999999999999991 -24.44830132322754
    vertex 311.5 0.0 -24.44830132322754
  endloop
endfacet
facet normal 0.38268343236507985 0.0 0.923879532511291
  outer loop
    vertex 311.5 4.999999999999991 -24.44830132322754
    vertex 311.982361909795 0.0 -24.6481021682368
    vertex 311.982361909795 4.999999999999991 -24.6481021682368
  endloop
endfacet
facet normal 0.13052619222005635 0.0 0.9914448613738099
  outer loop
    vertex 312.5 0.0 -24.716250515658665
    vertex 311.982361909795 4.999999999999991 -24.6481021682368
    vertex 311.982361909795 0.0 -24.6481021682368
  endloop
endfacet
facet normal 0.13052619222005635 0.0 0.9914448613738099
  outer loop
    vertex 311.982361909795 4.999999999999991 -24.6481021682368
    vertex 312.5 0.0 -24.716250515658665
    vertex 312.5 4.999999999999991 -24.716250515658665
  endloop
endfacet
facet normal -0.13052619222005635 0.0 0.9914448613738099
  outer loop
    vertex 313.017638090205 0.0 -24.6481021682368
    vertex 312.5 4.999999999999991 -24.716250515658665
    vertex 312.5 0.0 -24.716250515658665
  endloop
endfacet
facet normal -0.13052619222005635 0.0 0.9914448613738099
  outer loop
    vertex 312.5 4.999999999999991 -24.716250515658665
    vertex 313.017638090205 0.0 -24.6481021682368
    vertex 313.017638090205 4.999999999999991 -24.6481021682368
  endloop
endfacet
facet normal -0.38268343236507524 0.0 0.9238795325112928
  outer loop
    vertex 313.5 0.0 -24.448301323227543
    vertex 313.017638090205 4.999999999999991 -24.6481021682368
    vertex 313.017638090205 0.0 -24.6481021682368
  endloop
endfacet
facet normal -0.38268343236507524 0.0 0.9238795325112928
  outer loop
    vertex 313.017638090205 4.999999999999991 -24.6481021682368
    vertex 313.5 0.0 -24.448301323227543
    vertex 313.5 4.999999999999991 -24.448301323227543
  endloop
endfacet
facet normal -0.6087614290087161 0.0 0.7933533402912386
  outer loop
    vertex 313.9142135623731 0.0 -24.13046407803176
    vertex 313.5 4.999999999999991 -24.448301323227543
    vertex 313.5 0.0 -24.448301323227543
  endloop
endfacet
facet normal -0.6087614290087161 0.0 0.7933533402912386
  outer loop
    vertex 313.5 4.999999999999991 -24.448301323227543
    vertex 313.9142135623731 0.0 -24.13046407803176
    vertex 313.9142135623731 4.999999999999991 -24.13046407803176
  endloop
endfacet
facet normal 0.0 0.0 1.0
  outer loop
    vertex 320.0 4.999999999999991 -33.62166735421155
    vertex 305.0 30.000000000000014 -33.62166735421155
    vertex 305.0 4.999999999999991 -33.62166735421155
  endloop
endfacet
facet normal -0.7933533402912477 0.0 0.6087614290087043
  outer loop
    vertex 314.23205080756884 4.999999999999991 -23.71625051565867
    vertex 313.9142135623731 0.0 -24.13046407803176
    vertex 314.23205080756884 0.0 -23.71625051565867
  endloop
endfacet
facet normal -0.7933533402912477 0.0 0.6087614290087043
  outer loop
    vertex 313.9142135623731 0.0 -24.13046407803176
    vertex 314.23205080756884 4.999999999999991 -23.71625051565867
    vertex 313.9142135623731 4.999999999999991 -24.13046407803176
  endloop
endfacet
facet normal 0.7933533402912482 0.0 0.6087614290087037
  outer loop
    vertex 311.0857864376269 4.999999999999991 -2.3196304009259827
    vertex 310.7679491924311 0.0 -1.9054168385528878
    vertex 311.0857864376269 0.0 -2.3196304009259827
  endloop
endfacet
facet normal 0.7933533402912482 0.0 0.6087614290087037
  outer loop
    vertex 310.7679491924311 0.0 -1.9054168385528878
    vertex 311.0857864376269 4.999999999999991 -2.3196304009259827
    vertex 310.7679491924311 4.999999999999991 -1.9054168385528878
  endloop
endfacet
facet normal -0.92387953251129 0.0 0.38268343236508207
  outer loop
    vertex 314.43185165257813 4.999999999999991 -23.233888605863708
    vertex 314.23205080756884 0.0 -23.71625051565867
    vertex 314.43185165257813 0.0 -23.233888605863708
  endloop
endfacet
facet normal -0.92387953251129 0.0 0.38268343236508207
  outer loop
    vertex 314.23205080756884 0.0 -23.71625051565867
    vertex 314.43185165257813 4.999999999999991 -23.233888605863708
    vertex 314.23205080756884 4.999999999999991 -23.71625051565867
  endloop
endfacet
facet normal 0.6087614290087153 0.0 0.7933533402912394
  outer loop
    vertex 311.5 0.0 -2.637467646121768
    vertex 311.0857864376269 4.999999999999991 -2.3196304009259827
    vertex 311.0857864376269 0.0 -2.3196304009259827
  endloop
endfacet
facet normal 0.6087614290087153 0.0 0.7933533402912394
  outer loop
    vertex 311.0857864376269 4.999999999999991 -2.3196304009259827
    vertex 311.5 0.0 -2.637467646121768
    vertex 311.5 4.999999999999991 -2.637467646121768
  endloop
endfacet
facet normal -0.9914448613738077 0.0 0.1305261922200727
  outer loop
    vertex 314.5 4.999999999999991 -22.716250515658665
    vertex 314.43185165257813 0.0 -23.233888605863708
    vertex 314.5 0.0 -22.716250515658665
  endloop
endfacet
facet normal -0.9914448613738077 0.0 0.1305261922200727
  outer loop
    vertex 314.43185165257813 0.0 -23.233888605863708
    vertex 314.5 4.999999999999991 -22.716250515658665
    vertex 314.43185165257813 4.999999999999991 -23.233888605863708
  endloop
endfacet
facet normal -0.9914448613738077 -0.0 -0.13052619222007342
  outer loop
    vertex 314.43185165257813 4.999999999999991 -22.198612425453625
    vertex 314.5 0.0 -22.716250515658665
    vertex 314.43185165257813 0.0 -22.198612425453625
  endloop
endfacet
facet normal -0.9914448613738077 -0.0 -0.13052619222007342
  outer loop
    vertex 314.5 0.0 -22.716250515658665
    vertex 314.43185165257813 4.999999999999991 -22.198612425453625
    vertex 314.5 4.999999999999991 -22.716250515658665
  endloop
endfacet
facet normal 0.3826834323650787 0.0 0.9238795325112913
  outer loop
    vertex 311.982361909795 0.0 -2.8372684911310224
    vertex 311.5 4.999999999999991 -2.637467646121768
    vertex 311.5 0.0 -2.637467646121768
  endloop
endfacet
facet normal 0.3826834323650787 0.0 0.9238795325112913
  outer loop
    vertex 311.5 4.999999999999991 -2.637467646121768
    vertex 311.982361909795 0.0 -2.8372684911310224
    vertex 311.982361909795 4.999999999999991 -2.8372684911310224
  endloop
endfacet
facet normal -0.92387953251129 -0.0 -0.38268343236508207
  outer loop
    vertex 314.23205080756884 4.999999999999991 -21.71625051565867
    vertex 314.43185165257813 0.0 -22.198612425453625
    vertex 314.23205080756884 0.0 -21.71625051565867
  endloop
endfacet
facet normal -0.92387953251129 -0.0 -0.38268343236508207
  outer loop
    vertex 314.43185165257813 0.0 -22.198612425453625
    vertex 314.23205080756884 4.999999999999991 -21.71625051565867
    vertex 314.43185165257813 4.999999999999991 -22.198612425453625
  endloop
endfacet
facet normal -0.7933533402912477 -0.0 -0.6087614290087043
  outer loop
    vertex 313.9142135623731 4.999999999999991 -21.302036953285572
    vertex 314.23205080756884 0.0 -21.71625051565867
    vertex 313.9142135623731 0.0 -21.302036953285572
  endloop
endfacet
facet normal -0.7933533402912477 -0.0 -0.6087614290087043
  outer loop
    vertex 314.23205080756884 0.0 -21.71625051565867
    vertex 313.9142135623731 4.999999999999991 -21.302036953285572
    vertex 314.23205080756884 4.999999999999991 -21.71625051565867
  endloop
endfacet
facet normal 0.13052619222005635 0.0 0.9914448613738099
  outer loop
    vertex 312.5 0.0 -2.905416838552886
    vertex 311.982361909795 4.999999999999991 -2.8372684911310224
    vertex 311.982361909795 0.0 -2.8372684911310224
  endloop
endfacet
facet normal 0.13052619222005635 0.0 0.9914448613738099
  outer loop
    vertex 311.982361909795 4.999999999999991 -2.8372684911310224
    vertex 312.5 0.0 -2.905416838552886
    vertex 312.5 4.999999999999991 -2.905416838552886
  endloop
endfacet
facet normal -0.6087614290087161 -0.0 -0.7933533402912386
  outer loop
    vertex 313.9142135623731 4.999999999999991 -21.302036953285572
    vertex 313.5 0.0 -20.98419970808979
    vertex 313.5 4.999999999999991 -20.98419970808979
  endloop
endfacet
facet normal -0.6087614290087161 -0.0 -0.7933533402912386
  outer loop
    vertex 313.5 0.0 -20.98419970808979
    vertex 313.9142135623731 4.999999999999991 -21.302036953285572
    vertex 313.9142135623731 0.0 -21.302036953285572
  endloop
endfacet
facet normal -0.38268343236507985 -0.0 -0.923879532511291
  outer loop
    vertex 313.5 4.999999999999991 -20.98419970808979
    vertex 313.017638090205 0.0 -20.78439886308053
    vertex 313.017638090205 4.999999999999991 -20.78439886308053
  endloop
endfacet
facet normal -0.38268343236507985 -0.0 -0.923879532511291
  outer loop
    vertex 313.017638090205 0.0 -20.78439886308053
    vertex 313.5 4.999999999999991 -20.98419970808979
    vertex 313.5 0.0 -20.98419970808979
  endloop
endfacet
facet normal -0.13052619222005568 0.0 0.9914448613738098
  outer loop
    vertex 313.017638090205 0.0 -2.8372684911310224
    vertex 312.5 4.999999999999991 -2.905416838552886
    vertex 312.5 0.0 -2.905416838552886
  endloop
endfacet
facet normal -0.13052619222005568 0.0 0.9914448613738098
  outer loop
    vertex 312.5 4.999999999999991 -2.905416838552886
    vertex 313.017638090205 0.0 -2.8372684911310224
    vertex 313.017638090205 4.999999999999991 -2.8372684911310224
  endloop
endfacet
facet normal -0.3826834323650781 0.0 0.9238795325112916
  outer loop
    vertex 313.5 0.0 -2.637467646121768
    vertex 313.017638090205 4.999999999999991 -2.8372684911310224
    vertex 313.017638090205 0.0 -2.8372684911310224
  endloop
endfacet
facet normal -0.3826834323650781 0.0 0.9238795325112916
  outer loop
    vertex 313.017638090205 4.999999999999991 -2.8372684911310224
    vertex 313.5 0.0 -2.637467646121768
    vertex 313.5 4.999999999999991 -2.637467646121768
  endloop
endfacet
facet normal -0.6087614290087153 0.0 0.7933533402912394
  outer loop
    vertex 313.9142135623731 0.0 -2.3196304009259827
    vertex 313.5 4.999999999999991 -2.637467646121768
    vertex 313.5 0.0 -2.637467646121768
  endloop
endfacet
facet normal -0.6087614290087153 0.0 0.7933533402912394
  outer loop
    vertex 313.5 4.999999999999991 -2.637467646121768
    vertex 313.9142135623731 0.0 -2.3196304009259827
    vertex 313.9142135623731 4.999999999999991 -2.3196304009259827
  endloop
endfacet
facet normal -0.7933533402912477 0.0 0.6087614290087043
  outer loop
    vertex 314.23205080756884 4.999999999999991 -1.9054168385528878
    vertex 313.9142135623731 0.0 -2.3196304009259827
    vertex 314.23205080756884 0.0 -1.9054168385528878
  endloop
endfacet
facet normal -0.7933533402912477 0.0 0.6087614290087043
  outer loop
    vertex 313.9142135623731 0.0 -2.3196304009259827
    vertex 314.23205080756884 4.999999999999991 -1.9054168385528878
    vertex 313.9142135623731 4.999999999999991 -2.3196304009259827
  endloop
endfacet
facet normal -0.9238795325112897 0.0 0.3826834323650824
  outer loop
    vertex 314.43185165257813 4.999999999999991 -1.4230549287579295
    vertex 314.23205080756884 0.0 -1.9054168385528878
    vertex 314.43185165257813 0.0 -1.4230549287579295
  endloop
endfacet
facet normal -0.9238795325112897 0.0 0.3826834323650824
  outer loop
    vertex 314.23205080756884 0.0 -1.9054168385528878
    vertex 314.43185165257813 4.999999999999991 -1.4230549287579295
    vertex 314.23205080756884 4.999999999999991 -1.9054168385528878
  endloop
endfacet
facet normal -0.13052619222005635 -0.0 -0.9914448613738099
  outer loop
    vertex 313.017638090205 4.999999999999991 -20.78439886308053
    vertex 312.5 0.0 -20.71625051565867
    vertex 312.5 4.999999999999991 -20.71625051565867
  endloop
endfacet
facet normal -0.13052619222005635 -0.0 -0.9914448613738099
  outer loop
    vertex 312.5 0.0 -20.71625051565867
    vertex 313.017638090205 4.999999999999991 -20.78439886308053
    vertex 313.017638090205 0.0 -20.78439886308053
  endloop
endfacet
facet normal -0.9914448613738077 0.0 0.13052619222007272
  outer loop
    vertex 314.5 4.999999999999991 -0.9054168385528896
    vertex 314.43185165257813 0.0 -1.4230549287579295
    vertex 314.5 0.0 -0.9054168385528896
  endloop
endfacet
facet normal -0.9914448613738077 0.0 0.13052619222007272
  outer loop
    vertex 314.43185165257813 0.0 -1.4230549287579295
    vertex 314.5 4.999999999999991 -0.9054168385528896
    vertex 314.43185165257813 4.999999999999991 -1.4230549287579295
  endloop
endfacet
facet normal -0.9914448613738077 -0.0 -0.13052619222007317
  outer loop
    vertex 314.43185165257813 4.999999999999991 -0.38777874834784964
    vertex 314.5 0.0 -0.9054168385528896
    vertex 314.43185165257813 0.0 -0.38777874834784964
  endloop
endfacet
facet normal -0.9914448613738077 -0.0 -0.13052619222007317
  outer loop
    vertex 314.5 0.0 -0.9054168385528896
    vertex 314.43185165257813 4.999999999999991 -0.38777874834784964
    vertex 314.5 4.999999999999991 -0.9054168385528896
  endloop
endfacet
facet normal -0.9238795325112898 -0.0 -0.3826834323650823
  outer loop
    vertex 314.23205080756884 4.999999999999991 0.0945831614471086
    vertex 314.43185165257813 0.0 -0.38777874834784964
    vertex 314.23205080756884 0.0 0.0945831614471086
  endloop
endfacet
facet normal -0.9238795325112898 -0.0 -0.3826834323650823
  outer loop
    vertex 314.43185165257813 0.0 -0.38777874834784964
    vertex 314.23205080756884 4.999999999999991 0.0945831614471086
    vertex 314.43185165257813 4.999999999999991 -0.38777874834784964
  endloop
endfacet
facet normal -0.7933533402912485 -0.0 -0.6087614290087031
  outer loop
    vertex 313.9142135623731 4.999999999999991 0.5087967238202034
    vertex 314.23205080756884 0.0 0.0945831614471086
    vertex 313.9142135623731 0.0 0.5087967238202034
  endloop
endfacet
facet normal -0.7933533402912485 -0.0 -0.6087614290087031
  outer loop
    vertex 314.23205080756884 0.0 0.0945831614471086
    vertex 313.9142135623731 4.999999999999991 0.5087967238202034
    vertex 314.23205080756884 4.999999999999991 0.0945831614471086
  endloop
endfacet
facet normal -0.6087614290087153 -0.0 -0.7933533402912394
  outer loop
    vertex 313.9142135623731 4.999999999999991 0.5087967238202034
    vertex 313.5 0.0 0.8266339690159887
    vertex 313.5 4.999999999999991 0.8266339690159887
  endloop
endfacet
facet normal -0.6087614290087153 -0.0 -0.7933533402912394
  outer loop
    vertex 313.5 0.0 0.8266339690159887
    vertex 313.9142135623731 4.999999999999991 0.5087967238202034
    vertex 313.9142135623731 0.0 0.5087967238202034
  endloop
endfacet
facet normal -0.3826834323650787 -0.0 -0.9238795325112913
  outer loop
    vertex 313.5 4.999999999999991 0.8266339690159887
    vertex 313.017638090205 0.0 1.0264348140252488
    vertex 313.017638090205 4.999999999999991 1.0264348140252488
  endloop
endfacet
facet normal -0.3826834323650787 -0.0 -0.9238795325112913
  outer loop
    vertex 313.017638090205 0.0 1.0264348140252488
    vertex 313.5 4.999999999999991 0.8266339690159887
    vertex 313.5 0.0 0.8266339690159887
  endloop
endfacet
facet normal -0.130526192220057 -0.0 -0.9914448613738097
  outer loop
    vertex 313.017638090205 4.999999999999991 1.0264348140252488
    vertex 312.5 0.0 1.0945831614471124
    vertex 312.5 4.999999999999991 1.0945831614471124
  endloop
endfacet
facet normal -0.130526192220057 -0.0 -0.9914448613738097
  outer loop
    vertex 312.5 0.0 1.0945831614471124
    vertex 313.017638090205 4.999999999999991 1.0264348140252488
    vertex 313.017638090205 0.0 1.0264348140252488
  endloop
endfacet
facet normal 0.13052619222005635 0.0 -0.9914448613738099
  outer loop
    vertex 312.5 4.999999999999991 1.0945831614471124
    vertex 311.982361909795 0.0 1.0264348140252488
    vertex 311.982361909795 4.999999999999991 1.0264348140252488
  endloop
endfacet
facet normal 0.13052619222005635 0.0 -0.9914448613738099
  outer loop
    vertex 311.982361909795 0.0 1.0264348140252488
    vertex 312.5 4.999999999999991 1.0945831614471124
    vertex 312.5 0.0 1.0945831614471124
  endloop
endfacet
facet normal 0.13052619222005635 0.0 -0.9914448613738099
  outer loop
    vertex 312.5 4.999999999999991 -20.71625051565867
    vertex 311.982361909795 0.0 -20.78439886308053
    vertex 311.982361909795 4.999999999999991 -20.78439886308053
  endloop
endfacet
facet normal 0.13052619222005635 0.0 -0.9914448613738099
  outer loop
    vertex 311.982361909795 0.0 -20.78439886308053
    vertex 312.5 4.999999999999991 -20.71625051565867
    vertex 312.5 0.0 -20.71625051565867
  endloop
endfacet
endsolid faience_pusherv2_002
