solid faience_pusherv2_002
facet normal -0.7071067811865476 -4.06439781468352e-17 0.7071067811865476
  outer loop
    vertex 394.350288425444 5.0 164.3502884254441
    vertex 379.86707142431095 10.56814834742186 149.86707142431104
    vertex 379.5010460205265 10.499999999999995 149.5010460205266
  endloop
endfacet
facet normal -0.7071067811865476 -4.06439781468352e-17 0.7071067811865476
  outer loop
    vertex 379.86707142431095 10.56814834742186 149.86707142431104
    vertex 394.350288425444 5.0 164.3502884254441
    vertex 380.208152801713 10.767949192431118 150.20815280171314
  endloop
endfacet
facet normal -0.7071067811865476 -4.06439781468352e-17 0.7071067811865476
  outer loop
    vertex 380.208152801713 10.767949192431118 150.20815280171314
    vertex 394.350288425444 5.0 164.3502884254441
    vertex 394.350288425444 20.0 164.3502884254441
  endloop
endfacet
facet normal -0.7071067811865476 -4.06439781468352e-17 0.7071067811865476
  outer loop
    vertex 380.208152801713 10.767949192431118 150.20815280171314
    vertex 394.350288425444 20.0 164.3502884254441
    vertex 380.5010460205265 11.0857864376269 150.5010460205266
  endloop
endfacet
facet normal -0.7071067811865476 -4.06439781468352e-17 0.7071067811865476
  outer loop
    vertex 380.5010460205265 11.0857864376269 150.5010460205266
    vertex 394.350288425444 20.0 164.3502884254441
    vertex 380.72579089191805 11.499999999999996 150.7257908919182
  endloop
endfacet
facet normal -0.7071067811865476 -4.06439781468352e-17 0.7071067811865476
  outer loop
    vertex 380.72579089191805 11.499999999999996 150.7257908919182
    vertex 394.350288425444 20.0 164.3502884254441
    vertex 380.86707142431095 11.982361909794957 150.86707142431104
  endloop
endfacet
facet normal -0.7071067811865476 -4.06439781468352e-17 0.7071067811865476
  outer loop
    vertex 380.86707142431095 11.982361909794957 150.86707142431104
    vertex 394.350288425444 20.0 164.3502884254441
    vertex 380.9152595828996 12.5 150.9152595828997
  endloop
endfacet
facet normal -0.7071067811865476 -4.06439781468352e-17 0.7071067811865476
  outer loop
    vertex 380.9152595828996 12.5 150.9152595828997
    vertex 394.350288425444 20.0 164.3502884254441
    vertex 380.86707142431095 13.017638090205045 150.86707142431104
  endloop
endfacet
facet normal -0.7071067811865476 -4.06439781468352e-17 0.7071067811865476
  outer loop
    vertex 380.86707142431095 13.017638090205045 150.86707142431104
    vertex 394.350288425444 20.0 164.3502884254441
    vertex 380.72579089191805 13.500000000000004 150.7257908919182
  endloop
endfacet
facet normal -0.7071067811865476 -4.06439781468352e-17 0.7071067811865476
  outer loop
    vertex 380.72579089191805 13.500000000000004 150.7257908919182
    vertex 394.350288425444 20.0 164.3502884254441
    vertex 380.5010460205265 13.914213562373098 150.5010460205266
  endloop
endfacet
facet normal -0.7071067811865476 -4.06439781468352e-17 0.7071067811865476
  outer loop
    vertex 380.5010460205265 13.914213562373098 150.5010460205266
    vertex 394.350288425444 20.0 164.3502884254441
    vertex 380.208152801713 14.23205080756888 150.20815280171314
  endloop
endfacet
facet normal -0.7071067811865476 -4.06439781468352e-17 0.7071067811865476
  outer loop
    vertex 380.208152801713 14.23205080756888 150.20815280171314
    vertex 394.350288425444 20.0 164.3502884254441
    vertex 379.86707142431095 14.43185165257814 149.86707142431104
  endloop
endfacet
facet normal -0.7071067811865476 -4.06439781468352e-17 0.7071067811865476
  outer loop
    vertex 379.86707142431095 14.43185165257814 149.86707142431104
    vertex 394.350288425444 20.0 164.3502884254441
    vertex 379.5010460205265 14.500000000000005 149.5010460205266
  endloop
endfacet
facet normal -0.7071067811865476 -4.06439781468352e-17 0.7071067811865476
  outer loop
    vertex 394.350288425444 5.0 164.3502884254441
    vertex 364.651803615609 0.0 134.6518036156091
    vertex 394.350288425444 0.0 164.3502884254441
  endloop
endfacet
facet normal -0.7071067811865476 -4.06439781468352e-17 0.7071067811865476
  outer loop
    vertex 364.651803615609 0.0 134.6518036156091
    vertex 394.350288425444 5.0 164.3502884254441
    vertex 379.13502061674205 10.56814834742186 149.13502061674217
  endloop
endfacet
facet normal -0.7071067811865476 -4.06439781468352e-17 0.7071067811865476
  outer loop
    vertex 364.651803615609 0.0 134.6518036156091
    vertex 379.13502061674205 10.56814834742186 149.13502061674217
    vertex 378.7939392393399 10.767949192431118 148.79393923934003
  endloop
endfacet
facet normal -0.7071067811865476 -4.06439781468352e-17 0.7071067811865476
  outer loop
    vertex 364.651803615609 0.0 134.6518036156091
    vertex 378.7939392393399 10.767949192431118 148.79393923934003
    vertex 364.651803615609 20.0 134.6518036156091
  endloop
endfacet
facet normal -0.7071067811865476 -4.06439781468352e-17 0.7071067811865476
  outer loop
    vertex 379.13502061674205 10.56814834742186 149.13502061674217
    vertex 394.350288425444 5.0 164.3502884254441
    vertex 379.5010460205265 10.499999999999995 149.5010460205266
  endloop
endfacet
facet normal -0.7071067811865476 -4.06439781468352e-17 0.7071067811865476
  outer loop
    vertex 364.651803615609 20.0 134.6518036156091
    vertex 378.7939392393399 10.767949192431118 148.79393923934003
    vertex 378.5010460205265 11.0857864376269 148.5010460205266
  endloop
endfacet
facet normal -0.7071067811865476 -4.06439781468352e-17 0.7071067811865476
  outer loop
    vertex 364.651803615609 20.0 134.6518036156091
    vertex 378.5010460205265 11.0857864376269 148.5010460205266
    vertex 378.2763011491349 11.499999999999996 148.276301149135
  endloop
endfacet
facet normal -0.7071067811865476 -4.06439781468352e-17 0.7071067811865476
  outer loop
    vertex 364.651803615609 20.0 134.6518036156091
    vertex 378.2763011491349 11.499999999999996 148.276301149135
    vertex 378.13502061674205 11.982361909794957 148.13502061674217
  endloop
endfacet
facet normal -0.7071067811865476 -4.06439781468352e-17 0.7071067811865476
  outer loop
    vertex 364.651803615609 20.0 134.6518036156091
    vertex 378.13502061674205 11.982361909794957 148.13502061674217
    vertex 378.08683245815337 12.5 148.0868324581535
  endloop
endfacet
facet normal -0.7071067811865476 -4.06439781468352e-17 0.7071067811865476
  outer loop
    vertex 364.651803615609 20.0 134.6518036156091
    vertex 378.08683245815337 12.5 148.0868324581535
    vertex 378.13502061674205 13.017638090205043 148.13502061674217
  endloop
endfacet
facet normal -0.7071067811865476 -4.06439781468352e-17 0.7071067811865476
  outer loop
    vertex 364.651803615609 20.0 134.6518036156091
    vertex 378.13502061674205 13.017638090205043 148.13502061674217
    vertex 378.2763011491349 13.5 148.276301149135
  endloop
endfacet
facet normal -0.7071067811865476 -4.06439781468352e-17 0.7071067811865476
  outer loop
    vertex 364.651803615609 20.0 134.6518036156091
    vertex 378.2763011491349 13.5 148.276301149135
    vertex 378.5010460205265 13.914213562373098 148.5010460205266
  endloop
endfacet
facet normal -0.7071067811865476 -4.06439781468352e-17 0.7071067811865476
  outer loop
    vertex 364.651803615609 20.0 134.6518036156091
    vertex 378.5010460205265 13.914213562373098 148.5010460205266
    vertex 378.7939392393399 14.23205080756888 148.79393923934003
  endloop
endfacet
facet normal -0.7071067811865476 -4.06439781468352e-17 0.7071067811865476
  outer loop
    vertex 364.651803615609 20.0 134.6518036156091
    vertex 378.7939392393399 14.23205080756888 148.79393923934003
    vertex 379.13502061674205 14.43185165257814 149.13502061674217
  endloop
endfacet
facet normal -0.7071067811865476 -4.06439781468352e-17 0.7071067811865476
  outer loop
    vertex 364.651803615609 20.0 134.6518036156091
    vertex 379.13502061674205 14.43185165257814 149.13502061674217
    vertex 379.5010460205265 14.500000000000005 149.5010460205266
  endloop
endfacet
facet normal -0.7071067811865476 -4.06439781468352e-17 0.7071067811865476
  outer loop
    vertex 364.651803615609 20.0 134.6518036156091
    vertex 379.5010460205265 14.500000000000005 149.5010460205266
    vertex 394.350288425444 20.0 164.3502884254441
  endloop
endfacet
facet normal 1.0 0.0 0.0
  outer loop
    vertex 421.35028842544426 5.0 129.6518036156091
    vertex 421.35028842544426 -10.0 164.3502884254441
    vertex 421.35028842544426 -10.0 129.6518036156091
  endloop
endfacet
facet normal 1.0 0.0 0.0
  outer loop
    vertex 421.35028842544426 -10.0 164.3502884254441
    vertex 421.35028842544426 5.0 129.6518036156091
    vertex 421.35028842544426 5.0 164.3502884254441
  endloop
endfacet
facet normal 1.4383457274155445e-17 1.0 2.7458573864585875e-18
  outer loop
    vertex 399.350288425444 5.0 159.3502884254441
    vertex 421.35028842544426 5.0 129.6518036156091
    vertex 369.65180361560897 5.000000000000001 129.6518036156091
  endloop
endfacet
facet normal 1.4383457274155445e-17 1.0 2.7458573864585875e-18
  outer loop
    vertex 421.35028842544426 5.0 129.6518036156091
    vertex 399.350288425444 5.0 159.3502884254441
    vertex 408.93607486307104 5.0 148.0868324581535
  endloop
endfacet
facet normal 1.4383457274155445e-17 1.0 2.7458573864585875e-18
  outer loop
    vertex 421.35028842544426 5.0 129.6518036156091
    vertex 408.93607486307104 5.0 148.0868324581535
    vertex 409.3502884254441 5.0 147.76899521295772
  endloop
endfacet
facet normal 1.4383457274155445e-17 1.0 2.7458573864585875e-18
  outer loop
    vertex 421.35028842544426 5.0 129.6518036156091
    vertex 409.3502884254441 5.0 147.76899521295772
    vertex 409.83265033523907 5.0 147.56919436794848
  endloop
endfacet
facet normal 1.4383457274155445e-17 1.0 2.7458573864585875e-18
  outer loop
    vertex 421.35028842544426 5.0 129.6518036156091
    vertex 409.83265033523907 5.0 147.56919436794848
    vertex 410.35028842544415 5.0 147.5010460205266
  endloop
endfacet
facet normal 1.4383457274155445e-17 1.0 2.7458573864585875e-18
  outer loop
    vertex 408.93607486307104 5.0 148.0868324581535
    vertex 399.350288425444 5.0 159.3502884254441
    vertex 408.61823761787525 5.0 148.5010460205266
  endloop
endfacet
facet normal 1.4383457274155445e-17 1.0 2.7458573864585875e-18
  outer loop
    vertex 408.61823761787525 5.0 148.5010460205266
    vertex 399.350288425444 5.0 159.3502884254441
    vertex 408.41843677286596 5.0 148.98340793032156
  endloop
endfacet
facet normal 1.4383457274155445e-17 1.0 2.7458573864585875e-18
  outer loop
    vertex 408.41843677286596 5.0 148.98340793032156
    vertex 399.350288425444 5.0 159.3502884254441
    vertex 408.35028842544415 5.0 149.5010460205266
  endloop
endfacet
facet normal 1.4383457274155445e-17 1.0 2.7458573864585875e-18
  outer loop
    vertex 408.35028842544415 5.0 149.5010460205266
    vertex 399.350288425444 5.0 159.3502884254441
    vertex 408.41843677286596 5.0 150.01868411073164
  endloop
endfacet
facet normal 1.4383457274155445e-17 1.0 2.7458573864585875e-18
  outer loop
    vertex 408.41843677286596 5.0 150.01868411073164
    vertex 399.350288425444 5.0 159.3502884254441
    vertex 408.61823761787525 5.0 150.5010460205266
  endloop
endfacet
facet normal 1.4383457274155445e-17 1.0 2.7458573864585875e-18
  outer loop
    vertex 408.61823761787525 5.0 150.5010460205266
    vertex 399.350288425444 5.0 159.3502884254441
    vertex 408.93607486307104 5.0 150.9152595828997
  endloop
endfacet
facet normal 1.4383457274155445e-17 1.0 2.7458573864585875e-18
  outer loop
    vertex 408.93607486307104 5.0 150.9152595828997
    vertex 399.350288425444 5.0 159.3502884254441
    vertex 409.35028842544415 5.0 151.23309682809546
  endloop
endfacet
facet normal 1.4383457274155445e-17 1.0 2.7458573864585875e-18
  outer loop
    vertex 409.35028842544415 5.0 151.23309682809546
    vertex 399.350288425444 5.0 159.3502884254441
    vertex 409.83265033523907 5.0 151.43289767310475
  endloop
endfacet
facet normal 1.4383457274155445e-17 1.0 2.7458573864585875e-18
  outer loop
    vertex 409.83265033523907 5.0 151.43289767310475
    vertex 399.350288425444 5.0 159.3502884254441
    vertex 410.35028842544415 5.0 151.5010460205266
  endloop
endfacet
facet normal 1.4383457274155445e-17 1.0 2.7458573864585875e-18
  outer loop
    vertex 421.35028842544426 5.0 129.6518036156091
    vertex 412.082339233013 5.0 148.5010460205266
    vertex 421.35028842544426 5.0 164.3502884254441
  endloop
endfacet
facet normal 1.4383457274155445e-17 1.0 2.7458573864585875e-18
  outer loop
    vertex 412.082339233013 5.0 148.5010460205266
    vertex 421.35028842544426 5.0 129.6518036156091
    vertex 411.76450198781725 5.0 148.0868324581535
  endloop
endfacet
facet normal 1.4383457274155445e-17 1.0 2.7458573864585875e-18
  outer loop
    vertex 411.76450198781725 5.0 148.0868324581535
    vertex 421.35028842544426 5.0 129.6518036156091
    vertex 411.3502884254441 5.0 147.76899521295772
  endloop
endfacet
facet normal 1.4383457274155445e-17 1.0 2.7458573864585875e-18
  outer loop
    vertex 411.3502884254441 5.0 147.76899521295772
    vertex 421.35028842544426 5.0 129.6518036156091
    vertex 410.8679265156492 5.0 147.56919436794846
  endloop
endfacet
facet normal 1.4383457274155445e-17 1.0 2.7458573864585875e-18
  outer loop
    vertex 410.8679265156492 5.0 147.56919436794846
    vertex 421.35028842544426 5.0 129.6518036156091
    vertex 410.35028842544415 5.0 147.5010460205266
  endloop
endfacet
facet normal 1.4383457274155445e-17 1.0 2.7458573864585875e-18
  outer loop
    vertex 421.35028842544426 5.0 164.3502884254441
    vertex 412.082339233013 5.0 148.5010460205266
    vertex 412.2821400780223 5.0 148.98340793032156
  endloop
endfacet
facet normal 1.4383457274155445e-17 1.0 2.7458573864585875e-18
  outer loop
    vertex 421.35028842544426 5.0 164.3502884254441
    vertex 412.2821400780223 5.0 148.98340793032156
    vertex 412.35028842544415 5.0 149.5010460205266
  endloop
endfacet
facet normal 1.4383457274155445e-17 1.0 2.7458573864585875e-18
  outer loop
    vertex 421.35028842544426 5.0 164.3502884254441
    vertex 412.35028842544415 5.0 149.5010460205266
    vertex 412.2821400780223 5.0 150.01868411073164
  endloop
endfacet
facet normal 1.4383457274155445e-17 1.0 2.7458573864585875e-18
  outer loop
    vertex 421.35028842544426 5.0 164.3502884254441
    vertex 412.2821400780223 5.0 150.01868411073164
    vertex 412.082339233013 5.0 150.5010460205266
  endloop
endfacet
facet normal 1.4383457274155445e-17 1.0 2.7458573864585875e-18
  outer loop
    vertex 421.35028842544426 5.0 164.3502884254441
    vertex 412.082339233013 5.0 150.5010460205266
    vertex 411.76450198781725 5.0 150.9152595828997
  endloop
endfacet
facet normal 1.4383457274155445e-17 1.0 2.7458573864585875e-18
  outer loop
    vertex 421.35028842544426 5.0 164.3502884254441
    vertex 411.76450198781725 5.0 150.9152595828997
    vertex 411.35028842544415 5.0 151.23309682809546
  endloop
endfacet
facet normal 1.4383457274155445e-17 1.0 2.7458573864585875e-18
  outer loop
    vertex 421.35028842544426 5.0 164.3502884254441
    vertex 411.35028842544415 5.0 151.23309682809546
    vertex 410.8679265156492 5.0 151.43289767310472
  endloop
endfacet
facet normal 1.4383457274155445e-17 1.0 2.7458573864585875e-18
  outer loop
    vertex 421.35028842544426 5.0 164.3502884254441
    vertex 410.8679265156492 5.0 151.43289767310472
    vertex 410.35028842544415 5.0 151.5010460205266
  endloop
endfacet
facet normal 1.4383457274155445e-17 1.0 2.7458573864585875e-18
  outer loop
    vertex 421.35028842544426 5.0 164.3502884254441
    vertex 410.35028842544415 5.0 151.5010460205266
    vertex 399.350288425444 5.0 159.3502884254441
  endloop
endfacet
facet normal 1.4383457274155445e-17 1.0 2.7458573864585875e-18
  outer loop
    vertex 421.35028842544426 5.0 164.3502884254441
    vertex 399.350288425444 5.0 159.3502884254441
    vertex 399.350288425444 5.0 164.3502884254441
  endloop
endfacet
facet normal 0.0 0.0 1.0
  outer loop
    vertex 421.35028842544426 -10.0 164.3502884254441
    vertex 416.28982405602807 0.0 164.3502884254441
    vertex 416.28982405602807 -10.0 164.3502884254441
  endloop
endfacet
facet normal 0.0 0.0 1.0
  outer loop
    vertex 416.28982405602807 0.0 164.3502884254441
    vertex 394.350288425444 5.0 164.3502884254441
    vertex 394.350288425444 0.0 164.3502884254441
  endloop
endfacet
facet normal 0.0 0.0 1.0
  outer loop
    vertex 394.350288425444 5.0 164.3502884254441
    vertex 416.28982405602807 0.0 164.3502884254441
    vertex 399.350288425444 5.0 164.3502884254441
  endloop
endfacet
facet normal 0.0 0.0 1.0
  outer loop
    vertex 399.350288425444 5.0 164.3502884254441
    vertex 416.28982405602807 0.0 164.3502884254441
    vertex 421.35028842544426 5.0 164.3502884254441
  endloop
endfacet
facet normal 0.0 0.0 1.0
  outer loop
    vertex 421.35028842544426 5.0 164.3502884254441
    vertex 416.28982405602807 0.0 164.3502884254441
    vertex 421.35028842544426 -10.0 164.3502884254441
  endloop
endfacet
facet normal 0.0 -1.0 0.0
  outer loop
    vertex 416.28982405602807 0.0 129.6518036156091
    vertex 410.8679265156492 0.0 147.56919436794846
    vertex 364.651803615609 0.0 129.6518036156091
  endloop
endfacet
facet normal 0.0 -1.0 0.0
  outer loop
    vertex 410.8679265156492 0.0 147.56919436794846
    vertex 416.28982405602807 0.0 129.6518036156091
    vertex 411.3502884254441 0.0 147.76899521295772
  endloop
endfacet
facet normal 0.0 -1.0 0.0
  outer loop
    vertex 411.3502884254441 0.0 147.76899521295772
    vertex 416.28982405602807 0.0 129.6518036156091
    vertex 411.76450198781725 0.0 148.0868324581535
  endloop
endfacet
facet normal 0.0 -1.0 0.0
  outer loop
    vertex 411.76450198781725 0.0 148.0868324581535
    vertex 416.28982405602807 0.0 129.6518036156091
    vertex 412.082339233013 0.0 148.5010460205266
  endloop
endfacet
facet normal 0.0 -1.0 0.0
  outer loop
    vertex 412.082339233013 0.0 148.5010460205266
    vertex 416.28982405602807 0.0 129.6518036156091
    vertex 412.2821400780223 0.0 148.98340793032156
  endloop
endfacet
facet normal 0.0 -1.0 0.0
  outer loop
    vertex 412.2821400780223 0.0 148.98340793032156
    vertex 416.28982405602807 0.0 129.6518036156091
    vertex 416.28982405602807 0.0 164.3502884254441
  endloop
endfacet
facet normal 0.0 -1.0 0.0
  outer loop
    vertex 364.651803615609 0.0 129.6518036156091
    vertex 410.8679265156492 0.0 147.56919436794846
    vertex 364.651803615609 0.0 134.6518036156091
  endloop
endfacet
facet normal 0.0 -1.0 0.0
  outer loop
    vertex 364.651803615609 0.0 134.6518036156091
    vertex 410.8679265156492 0.0 147.56919436794846
    vertex 410.35028842544415 0.0 147.5010460205266
  endloop
endfacet
facet normal 0.0 -1.0 0.0
  outer loop
    vertex 412.2821400780223 0.0 148.98340793032156
    vertex 416.28982405602807 0.0 164.3502884254441
    vertex 412.35028842544415 0.0 149.5010460205266
  endloop
endfacet
facet normal 0.0 -1.0 0.0
  outer loop
    vertex 412.35028842544415 0.0 149.5010460205266
    vertex 416.28982405602807 0.0 164.3502884254441
    vertex 412.2821400780223 0.0 150.01868411073164
  endloop
endfacet
facet normal 0.0 -1.0 0.0
  outer loop
    vertex 412.2821400780223 0.0 150.01868411073164
    vertex 416.28982405602807 0.0 164.3502884254441
    vertex 412.082339233013 0.0 150.5010460205266
  endloop
endfacet
facet normal 0.0 -1.0 0.0
  outer loop
    vertex 412.082339233013 0.0 150.5010460205266
    vertex 416.28982405602807 0.0 164.3502884254441
    vertex 411.76450198781725 0.0 150.9152595828997
  endloop
endfacet
facet normal 0.0 -1.0 0.0
  outer loop
    vertex 411.76450198781725 0.0 150.9152595828997
    vertex 416.28982405602807 0.0 164.3502884254441
    vertex 411.35028842544415 0.0 151.23309682809546
  endloop
endfacet
facet normal 0.0 -1.0 0.0
  outer loop
    vertex 411.35028842544415 0.0 151.23309682809546
    vertex 416.28982405602807 0.0 164.3502884254441
    vertex 410.8679265156492 0.0 151.43289767310472
  endloop
endfacet
facet normal 0.0 -1.0 0.0
  outer loop
    vertex 410.8679265156492 0.0 151.43289767310472
    vertex 416.28982405602807 0.0 164.3502884254441
    vertex 410.35028842544415 0.0 151.5010460205266
  endloop
endfacet
facet normal 0.0 -1.0 0.0
  outer loop
    vertex 364.651803615609 0.0 134.6518036156091
    vertex 408.93607486307104 0.0 148.0868324581535
    vertex 394.350288425444 0.0 164.3502884254441
  endloop
endfacet
facet normal 0.0 -1.0 0.0
  outer loop
    vertex 408.93607486307104 0.0 148.0868324581535
    vertex 364.651803615609 0.0 134.6518036156091
    vertex 409.3502884254441 0.0 147.76899521295772
  endloop
endfacet
facet normal 0.0 -1.0 0.0
  outer loop
    vertex 409.3502884254441 0.0 147.76899521295772
    vertex 364.651803615609 0.0 134.6518036156091
    vertex 409.83265033523907 0.0 147.56919436794848
  endloop
endfacet
facet normal 0.0 -1.0 0.0
  outer loop
    vertex 409.83265033523907 0.0 147.56919436794848
    vertex 364.651803615609 0.0 134.6518036156091
    vertex 410.35028842544415 0.0 147.5010460205266
  endloop
endfacet
facet normal 0.0 -1.0 0.0
  outer loop
    vertex 394.350288425444 0.0 164.3502884254441
    vertex 408.93607486307104 0.0 148.0868324581535
    vertex 408.61823761787525 0.0 148.5010460205266
  endloop
endfacet
facet normal 0.0 -1.0 0.0
  outer loop
    vertex 394.350288425444 0.0 164.3502884254441
    vertex 408.61823761787525 0.0 148.5010460205266
    vertex 408.41843677286596 0.0 148.98340793032156
  endloop
endfacet
facet normal 0.0 -1.0 0.0
  outer loop
    vertex 394.350288425444 0.0 164.3502884254441
    vertex 408.41843677286596 0.0 148.98340793032156
    vertex 408.35028842544415 0.0 149.5010460205266
  endloop
endfacet
facet normal 0.0 -1.0 0.0
  outer loop
    vertex 394.350288425444 0.0 164.3502884254441
    vertex 408.35028842544415 0.0 149.5010460205266
    vertex 408.41843677286596 0.0 150.01868411073164
  endloop
endfacet
facet normal 0.0 -1.0 0.0
  outer loop
    vertex 394.350288425444 0.0 164.3502884254441
    vertex 408.41843677286596 0.0 150.01868411073164
    vertex 408.61823761787525 0.0 150.5010460205266
  endloop
endfacet
facet normal 0.0 -1.0 0.0
  outer loop
    vertex 394.350288425444 0.0 164.3502884254441
    vertex 408.61823761787525 0.0 150.5010460205266
    vertex 408.93607486307104 0.0 150.9152595828997
  endloop
endfacet
facet normal 0.0 -1.0 0.0
  outer loop
    vertex 394.350288425444 0.0 164.3502884254441
    vertex 408.93607486307104 0.0 150.9152595828997
    vertex 409.35028842544415 0.0 151.23309682809546
  endloop
endfacet
facet normal 0.0 -1.0 0.0
  outer loop
    vertex 394.350288425444 0.0 164.3502884254441
    vertex 409.35028842544415 0.0 151.23309682809546
    vertex 409.83265033523907 0.0 151.43289767310475
  endloop
endfacet
facet normal 0.0 -1.0 0.0
  outer loop
    vertex 394.350288425444 0.0 164.3502884254441
    vertex 409.83265033523907 0.0 151.43289767310475
    vertex 410.35028842544415 0.0 151.5010460205266
  endloop
endfacet
facet normal 0.0 -1.0 0.0
  outer loop
    vertex 394.350288425444 0.0 164.3502884254441
    vertex 410.35028842544415 0.0 151.5010460205266
    vertex 416.28982405602807 0.0 164.3502884254441
  endloop
endfacet
facet normal 0.0 -1.0 0.0
  outer loop
    vertex 421.35028842544426 -10.0 164.3502884254441
    vertex 416.28982405602807 -10.0 129.6518036156091
    vertex 421.35028842544426 -10.0 129.6518036156091
  endloop
endfacet
facet normal 0.0 -1.0 0.0
  outer loop
    vertex 416.28982405602807 -10.0 129.6518036156091
    vertex 421.35028842544426 -10.0 164.3502884254441
    vertex 416.28982405602807 -10.0 164.3502884254441
  endloop
endfacet
facet normal -1.0 -0.0 -0.0
  outer loop
    vertex 416.28982405602807 0.0 164.3502884254441
    vertex 416.28982405602807 -10.0 129.6518036156091
    vertex 416.28982405602807 -10.0 164.3502884254441
  endloop
endfacet
facet normal -1.0 -0.0 -0.0
  outer loop
    vertex 416.28982405602807 -10.0 129.6518036156091
    vertex 416.28982405602807 0.0 164.3502884254441
    vertex 416.28982405602807 0.0 129.6518036156091
  endloop
endfacet
facet normal 0.0 0.0 1.0
  outer loop
    vertex 399.350288425444 5.0 164.3502884254441
    vertex 394.350288425444 20.0 164.3502884254441
    vertex 394.350288425444 5.0 164.3502884254441
  endloop
endfacet
facet normal 0.0 0.0 1.0
  outer loop
    vertex 394.350288425444 20.0 164.3502884254441
    vertex 399.350288425444 5.0 164.3502884254441
    vertex 399.350288425444 20.0 164.3502884254441
  endloop
endfacet
facet normal -0.13052619222002393 0.0 0.9914448613738142
  outer loop
    vertex 410.8679265156492 0.0 147.56919436794846
    vertex 410.35028842544415 5.0 147.5010460205266
    vertex 410.35028842544415 0.0 147.5010460205266
  endloop
endfacet
facet normal -0.13052619222002393 0.0 0.9914448613738142
  outer loop
    vertex 410.35028842544415 5.0 147.5010460205266
    vertex 410.8679265156492 0.0 147.56919436794846
    vertex 410.8679265156492 5.0 147.56919436794846
  endloop
endfacet
facet normal 0.1305261922200664 0.0 0.9914448613738085
  outer loop
    vertex 410.35028842544415 0.0 147.5010460205266
    vertex 409.83265033523907 5.0 147.56919436794848
    vertex 409.83265033523907 0.0 147.56919436794848
  endloop
endfacet
facet normal 0.1305261922200664 0.0 0.9914448613738085
  outer loop
    vertex 409.83265033523907 5.0 147.56919436794848
    vertex 410.35028842544415 0.0 147.5010460205266
    vertex 410.35028842544415 5.0 147.5010460205266
  endloop
endfacet
facet normal 0.38268343236507063 0.0 0.9238795325112947
  outer loop
    vertex 409.83265033523907 0.0 147.56919436794848
    vertex 409.3502884254441 5.0 147.76899521295772
    vertex 409.3502884254441 0.0 147.76899521295772
  endloop
endfacet
facet normal 0.38268343236507063 0.0 0.9238795325112947
  outer loop
    vertex 409.3502884254441 5.0 147.76899521295772
    vertex 409.83265033523907 0.0 147.56919436794848
    vertex 409.83265033523907 5.0 147.56919436794848
  endloop
endfacet
facet normal 0.6087614290087409 0.0 0.7933533402912196
  outer loop
    vertex 409.3502884254441 0.0 147.76899521295772
    vertex 408.93607486307104 5.0 148.0868324581535
    vertex 408.93607486307104 0.0 148.0868324581535
  endloop
endfacet
facet normal 0.6087614290087409 0.0 0.7933533402912196
  outer loop
    vertex 408.93607486307104 5.0 148.0868324581535
    vertex 409.3502884254441 0.0 147.76899521295772
    vertex 409.3502884254441 5.0 147.76899521295772
  endloop
endfacet
facet normal 0.7933533402912518 0.0 0.6087614290086991
  outer loop
    vertex 408.93607486307104 5.0 148.0868324581535
    vertex 408.61823761787525 0.0 148.5010460205266
    vertex 408.93607486307104 0.0 148.0868324581535
  endloop
endfacet
facet normal 0.7933533402912518 0.0 0.6087614290086991
  outer loop
    vertex 408.61823761787525 0.0 148.5010460205266
    vertex 408.93607486307104 5.0 148.0868324581535
    vertex 408.61823761787525 5.0 148.5010460205266
  endloop
endfacet
facet normal 0.9238795325112579 0.0 0.38268343236515967
  outer loop
    vertex 408.61823761787525 5.0 148.5010460205266
    vertex 408.41843677286596 0.0 148.98340793032156
    vertex 408.61823761787525 0.0 148.5010460205266
  endloop
endfacet
facet normal 0.9238795325112579 0.0 0.38268343236515967
  outer loop
    vertex 408.41843677286596 0.0 148.98340793032156
    vertex 408.61823761787525 5.0 148.5010460205266
    vertex 408.41843677286596 5.0 148.98340793032156
  endloop
endfacet
facet normal 0.991444861373819 0.0 0.13052619221998704
  outer loop
    vertex 408.41843677286596 5.0 148.98340793032156
    vertex 408.35028842544415 0.0 149.5010460205266
    vertex 408.41843677286596 0.0 148.98340793032156
  endloop
endfacet
facet normal 0.991444861373819 0.0 0.13052619221998704
  outer loop
    vertex 408.35028842544415 0.0 149.5010460205266
    vertex 408.41843677286596 5.0 148.98340793032156
    vertex 408.35028842544415 5.0 149.5010460205266
  endloop
endfacet
facet normal 0.991444861373819 0.0 -0.13052619221998704
  outer loop
    vertex 408.35028842544415 5.0 149.5010460205266
    vertex 408.41843677286596 0.0 150.01868411073164
    vertex 408.35028842544415 0.0 149.5010460205266
  endloop
endfacet
facet normal 0.991444861373819 0.0 -0.13052619221998704
  outer loop
    vertex 408.41843677286596 0.0 150.01868411073164
    vertex 408.35028842544415 5.0 149.5010460205266
    vertex 408.41843677286596 5.0 150.01868411073164
  endloop
endfacet
facet normal 0.9238795325112579 0.0 -0.38268343236515967
  outer loop
    vertex 408.41843677286596 5.0 150.01868411073164
    vertex 408.61823761787525 0.0 150.5010460205266
    vertex 408.41843677286596 0.0 150.01868411073164
  endloop
endfacet
facet normal 0.9238795325112579 0.0 -0.38268343236515967
  outer loop
    vertex 408.61823761787525 0.0 150.5010460205266
    vertex 408.41843677286596 5.0 150.01868411073164
    vertex 408.61823761787525 5.0 150.5010460205266
  endloop
endfacet
facet normal 0.7933533402912518 0.0 -0.6087614290086991
  outer loop
    vertex 408.61823761787525 5.0 150.5010460205266
    vertex 408.93607486307104 0.0 150.9152595828997
    vertex 408.61823761787525 0.0 150.5010460205266
  endloop
endfacet
facet normal 0.7933533402912518 0.0 -0.6087614290086991
  outer loop
    vertex 408.93607486307104 0.0 150.9152595828997
    vertex 408.61823761787525 5.0 150.5010460205266
    vertex 408.93607486307104 5.0 150.9152595828997
  endloop
endfacet
facet normal 0.6087614290086574 0.0 -0.7933533402912837
  outer loop
    vertex 409.35028842544415 5.0 151.23309682809546
    vertex 408.93607486307104 0.0 150.9152595828997
    vertex 408.93607486307104 5.0 150.9152595828997
  endloop
endfacet
facet normal 0.6087614290086574 0.0 -0.7933533402912837
  outer loop
    vertex 408.93607486307104 0.0 150.9152595828997
    vertex 409.35028842544415 5.0 151.23309682809546
    vertex 409.35028842544415 0.0 151.23309682809546
  endloop
endfacet
facet normal 0.3826834323651686 0.0 -0.9238795325112541
  outer loop
    vertex 409.83265033523907 5.0 151.43289767310475
    vertex 409.35028842544415 0.0 151.23309682809546
    vertex 409.35028842544415 5.0 151.23309682809546
  endloop
endfacet
facet normal 0.3826834323651686 0.0 -0.9238795325112541
  outer loop
    vertex 409.35028842544415 0.0 151.23309682809546
    vertex 409.83265033523907 5.0 151.43289767310475
    vertex 409.83265033523907 0.0 151.43289767310475
  endloop
endfacet
facet normal 0.13052619222002393 0.0 -0.9914448613738142
  outer loop
    vertex 410.35028842544415 5.0 151.5010460205266
    vertex 409.83265033523907 0.0 151.43289767310475
    vertex 409.83265033523907 5.0 151.43289767310475
  endloop
endfacet
facet normal 0.13052619222002393 0.0 -0.9914448613738142
  outer loop
    vertex 409.83265033523907 0.0 151.43289767310475
    vertex 410.35028842544415 5.0 151.5010460205266
    vertex 410.35028842544415 0.0 151.5010460205266
  endloop
endfacet
facet normal -0.1305261922200664 -0.0 -0.9914448613738085
  outer loop
    vertex 410.8679265156492 5.0 151.43289767310472
    vertex 410.35028842544415 0.0 151.5010460205266
    vertex 410.35028842544415 5.0 151.5010460205266
  endloop
endfacet
facet normal -0.1305261922200664 -0.0 -0.9914448613738085
  outer loop
    vertex 410.35028842544415 0.0 151.5010460205266
    vertex 410.8679265156492 5.0 151.43289767310472
    vertex 410.8679265156492 0.0 151.43289767310472
  endloop
endfacet
facet normal -0.38268343236507063 -0.0 -0.9238795325112947
  outer loop
    vertex 411.35028842544415 5.0 151.23309682809546
    vertex 410.8679265156492 0.0 151.43289767310472
    vertex 410.8679265156492 5.0 151.43289767310472
  endloop
endfacet
facet normal -0.38268343236507063 -0.0 -0.9238795325112947
  outer loop
    vertex 410.8679265156492 0.0 151.43289767310472
    vertex 411.35028842544415 5.0 151.23309682809546
    vertex 411.35028842544415 0.0 151.23309682809546
  endloop
endfacet
facet normal -0.6087614290087409 -0.0 -0.7933533402912196
  outer loop
    vertex 411.76450198781725 5.0 150.9152595828997
    vertex 411.35028842544415 0.0 151.23309682809546
    vertex 411.35028842544415 5.0 151.23309682809546
  endloop
endfacet
facet normal -0.6087614290087409 -0.0 -0.7933533402912196
  outer loop
    vertex 411.35028842544415 0.0 151.23309682809546
    vertex 411.76450198781725 5.0 150.9152595828997
    vertex 411.76450198781725 0.0 150.9152595828997
  endloop
endfacet
facet normal -0.7933533402912518 -0.0 -0.6087614290086991
  outer loop
    vertex 411.76450198781725 5.0 150.9152595828997
    vertex 412.082339233013 0.0 150.5010460205266
    vertex 411.76450198781725 0.0 150.9152595828997
  endloop
endfacet
facet normal -0.7933533402912518 -0.0 -0.6087614290086991
  outer loop
    vertex 412.082339233013 0.0 150.5010460205266
    vertex 411.76450198781725 5.0 150.9152595828997
    vertex 412.082339233013 5.0 150.5010460205266
  endloop
endfacet
facet normal -0.9238795325112579 -0.0 -0.38268343236515967
  outer loop
    vertex 412.082339233013 5.0 150.5010460205266
    vertex 412.2821400780223 0.0 150.01868411073164
    vertex 412.082339233013 0.0 150.5010460205266
  endloop
endfacet
facet normal -0.9238795325112579 -0.0 -0.38268343236515967
  outer loop
    vertex 412.2821400780223 0.0 150.01868411073164
    vertex 412.082339233013 5.0 150.5010460205266
    vertex 412.2821400780223 5.0 150.01868411073164
  endloop
endfacet
facet normal -0.991444861373819 -0.0 -0.13052619221998704
  outer loop
    vertex 412.2821400780223 5.0 150.01868411073164
    vertex 412.35028842544415 0.0 149.5010460205266
    vertex 412.2821400780223 0.0 150.01868411073164
  endloop
endfacet
facet normal -0.991444861373819 -0.0 -0.13052619221998704
  outer loop
    vertex 412.35028842544415 0.0 149.5010460205266
    vertex 412.2821400780223 5.0 150.01868411073164
    vertex 412.35028842544415 5.0 149.5010460205266
  endloop
endfacet
facet normal -0.991444861373819 0.0 0.13052619221998704
  outer loop
    vertex 412.35028842544415 5.0 149.5010460205266
    vertex 412.2821400780223 0.0 148.98340793032156
    vertex 412.35028842544415 0.0 149.5010460205266
  endloop
endfacet
facet normal -0.991444861373819 0.0 0.13052619221998704
  outer loop
    vertex 412.2821400780223 0.0 148.98340793032156
    vertex 412.35028842544415 5.0 149.5010460205266
    vertex 412.2821400780223 5.0 148.98340793032156
  endloop
endfacet
facet normal -0.9238795325112579 0.0 0.38268343236515967
  outer loop
    vertex 412.2821400780223 5.0 148.98340793032156
    vertex 412.082339233013 0.0 148.5010460205266
    vertex 412.2821400780223 0.0 148.98340793032156
  endloop
endfacet
facet normal -0.9238795325112579 0.0 0.38268343236515967
  outer loop
    vertex 412.082339233013 0.0 148.5010460205266
    vertex 412.2821400780223 5.0 148.98340793032156
    vertex 412.082339233013 5.0 148.5010460205266
  endloop
endfacet
facet normal -0.7933533402912518 0.0 0.6087614290086991
  outer loop
    vertex 412.082339233013 5.0 148.5010460205266
    vertex 411.76450198781725 0.0 148.0868324581535
    vertex 412.082339233013 0.0 148.5010460205266
  endloop
endfacet
facet normal -0.7933533402912518 0.0 0.6087614290086991
  outer loop
    vertex 411.76450198781725 0.0 148.0868324581535
    vertex 412.082339233013 5.0 148.5010460205266
    vertex 411.76450198781725 5.0 148.0868324581535
  endloop
endfacet
facet normal -0.6087614290086574 0.0 0.7933533402912837
  outer loop
    vertex 411.76450198781725 0.0 148.0868324581535
    vertex 411.3502884254441 5.0 147.76899521295772
    vertex 411.3502884254441 0.0 147.76899521295772
  endloop
endfacet
facet normal -0.6087614290086574 0.0 0.7933533402912837
  outer loop
    vertex 411.3502884254441 5.0 147.76899521295772
    vertex 411.76450198781725 0.0 148.0868324581535
    vertex 411.76450198781725 5.0 148.0868324581535
  endloop
endfacet
facet normal -0.3826834323651686 0.0 0.9238795325112541
  outer loop
    vertex 411.3502884254441 0.0 147.76899521295772
    vertex 410.8679265156492 5.0 147.56919436794846
    vertex 410.8679265156492 0.0 147.56919436794846
  endloop
endfacet
facet normal -0.3826834323651686 0.0 0.9238795325112541
  outer loop
    vertex 410.8679265156492 5.0 147.56919436794846
    vertex 411.3502884254441 0.0 147.76899521295772
    vertex 411.3502884254441 5.0 147.76899521295772
  endloop
endfacet
facet normal 0.0 0.0 -1.0
  outer loop
    vertex 369.65180361560897 20.0 129.6518036156091
    vertex 364.651803615609 0.0 129.6518036156091
    vertex 364.651803615609 20.0 129.6518036156091
  endloop
endfacet
facet normal 0.0 0.0 -1.0
  outer loop
    vertex 364.651803615609 0.0 129.6518036156091
    vertex 369.65180361560897 20.0 129.6518036156091
    vertex 369.65180361560897 5.000000000000001 129.6518036156091
  endloop
endfacet
facet normal 0.0 0.0 -1.0
  outer loop
    vertex 364.651803615609 0.0 129.6518036156091
    vertex 369.65180361560897 5.000000000000001 129.6518036156091
    vertex 416.28982405602807 0.0 129.6518036156091
  endloop
endfacet
facet normal 0.0 0.0 -1.0
  outer loop
    vertex 416.28982405602807 0.0 129.6518036156091
    vertex 369.65180361560897 5.000000000000001 129.6518036156091
    vertex 421.35028842544426 5.0 129.6518036156091
  endloop
endfacet
facet normal 0.0 0.0 -1.0
  outer loop
    vertex 416.28982405602807 0.0 129.6518036156091
    vertex 421.35028842544426 5.0 129.6518036156091
    vertex 416.28982405602807 -10.0 129.6518036156091
  endloop
endfacet
facet normal 0.0 0.0 -1.0
  outer loop
    vertex 416.28982405602807 -10.0 129.6518036156091
    vertex 421.35028842544426 5.0 129.6518036156091
    vertex 421.35028842544426 -10.0 129.6518036156091
  endloop
endfacet
facet normal -1.0 0.0 0.0
  outer loop
    vertex 364.651803615609 20.0 134.6518036156091
    vertex 364.651803615609 0.0 129.6518036156091
    vertex 364.651803615609 0.0 134.6518036156091
  endloop
endfacet
facet normal -1.0 0.0 0.0
  outer loop
    vertex 364.651803615609 0.0 129.6518036156091
    vertex 364.651803615609 20.0 134.6518036156091
    vertex 364.651803615609 20.0 129.6518036156091
  endloop
endfacet
facet normal 1.0 0.0 0.0
  outer loop
    vertex 399.350288425444 20.0 159.3502884254441
    vertex 399.350288425444 5.0 164.3502884254441
    vertex 399.350288425444 5.0 159.3502884254441
  endloop
endfacet
facet normal 1.0 0.0 0.0
  outer loop
    vertex 399.350288425444 5.0 164.3502884254441
    vertex 399.350288425444 20.0 159.3502884254441
    vertex 399.350288425444 20.0 164.3502884254441
  endloop
endfacet
facet normal 0.0 1.0 0.0
  outer loop
    vertex 364.651803615609 20.0 134.6518036156091
    vertex 369.65180361560897 20.0 129.6518036156091
    vertex 364.651803615609 20.0 129.6518036156091
  endloop
endfacet
facet normal 0.0 1.0 0.0
  outer loop
    vertex 369.65180361560897 20.0 129.6518036156091
    vertex 364.651803615609 20.0 134.6518036156091
    vertex 399.350288425444 20.0 159.3502884254441
  endloop
endfacet
facet normal 0.0 1.0 0.0
  outer loop
    vertex 399.350288425444 20.0 159.3502884254441
    vertex 364.651803615609 20.0 134.6518036156091
    vertex 394.350288425444 20.0 164.3502884254441
  endloop
endfacet
facet normal 0.0 1.0 0.0
  outer loop
    vertex 399.350288425444 20.0 159.3502884254441
    vertex 394.350288425444 20.0 164.3502884254441
    vertex 399.350288425444 20.0 164.3502884254441
  endloop
endfacet
facet normal 0.7071067811865475 2.037872358928463e-16 -0.7071067811865476
  outer loop
    vertex 369.65180361560897 20.0 129.6518036156091
    vertex 383.7939392393399 14.232050807568866 143.79393923934006
    vertex 369.65180361560897 5.000000000000001 129.6518036156091
  endloop
endfacet
facet normal 0.7071067811865475 2.037872358928463e-16 -0.7071067811865476
  outer loop
    vertex 383.7939392393399 14.232050807568866 143.79393923934006
    vertex 369.65180361560897 20.0 129.6518036156091
    vertex 384.135020616742 14.431851652578127 144.13502061674217
  endloop
endfacet
facet normal 0.7071067811865475 2.037872358928463e-16 -0.7071067811865476
  outer loop
    vertex 384.135020616742 14.431851652578127 144.13502061674217
    vertex 369.65180361560897 20.0 129.6518036156091
    vertex 399.350288425444 20.0 159.3502884254441
  endloop
endfacet
facet normal 0.7071067811865475 2.037872358928463e-16 -0.7071067811865476
  outer loop
    vertex 369.65180361560897 5.000000000000001 129.6518036156091
    vertex 383.7939392393399 14.232050807568866 143.79393923934006
    vertex 383.5010460205265 13.914213562373087 143.50104602052662
  endloop
endfacet
facet normal 0.7071067811865475 2.037872358928463e-16 -0.7071067811865476
  outer loop
    vertex 369.65180361560897 5.000000000000001 129.6518036156091
    vertex 383.5010460205265 13.914213562373087 143.50104602052662
    vertex 383.2763011491349 13.499999999999995 143.27630114913504
  endloop
endfacet
facet normal 0.7071067811865475 2.037872358928463e-16 -0.7071067811865476
  outer loop
    vertex 369.65180361560897 5.000000000000001 129.6518036156091
    vertex 383.2763011491349 13.499999999999995 143.27630114913504
    vertex 383.135020616742 13.01763809020504 143.1350206167422
  endloop
endfacet
facet normal 0.7071067811865475 2.037872358928463e-16 -0.7071067811865476
  outer loop
    vertex 369.65180361560897 5.000000000000001 129.6518036156091
    vertex 383.135020616742 13.01763809020504 143.1350206167422
    vertex 383.08683245815337 12.5 143.08683245815354
  endloop
endfacet
facet normal 0.7071067811865475 2.037872358928463e-16 -0.7071067811865476
  outer loop
    vertex 384.135020616742 14.431851652578127 144.13502061674217
    vertex 399.350288425444 20.0 159.3502884254441
    vertex 384.5010460205265 14.499999999999988 144.50104602052662
  endloop
endfacet
facet normal 0.7071067811865475 2.037872358928463e-16 -0.7071067811865476
  outer loop
    vertex 384.5010460205265 14.499999999999988 144.50104602052662
    vertex 399.350288425444 20.0 159.3502884254441
    vertex 384.86707142431095 14.431851652578127 144.86707142431104
  endloop
endfacet
facet normal 0.7071067811865475 2.037872358928463e-16 -0.7071067811865476
  outer loop
    vertex 384.86707142431095 14.431851652578127 144.86707142431104
    vertex 399.350288425444 20.0 159.3502884254441
    vertex 385.208152801713 14.232050807568866 145.20815280171314
  endloop
endfacet
facet normal 0.7071067811865475 2.037872358928463e-16 -0.7071067811865476
  outer loop
    vertex 385.208152801713 14.232050807568866 145.20815280171314
    vertex 399.350288425444 20.0 159.3502884254441
    vertex 385.5010460205265 13.914213562373087 145.5010460205266
  endloop
endfacet
facet normal 0.7071067811865475 2.037872358928463e-16 -0.7071067811865476
  outer loop
    vertex 385.5010460205265 13.914213562373087 145.5010460205266
    vertex 399.350288425444 20.0 159.3502884254441
    vertex 385.72579089191805 13.499999999999995 145.72579089191817
  endloop
endfacet
facet normal 0.7071067811865475 2.037872358928463e-16 -0.7071067811865476
  outer loop
    vertex 385.72579089191805 13.499999999999995 145.72579089191817
    vertex 399.350288425444 20.0 159.3502884254441
    vertex 385.86707142431095 13.01763809020504 145.867071424311
  endloop
endfacet
facet normal 0.7071067811865475 2.037872358928463e-16 -0.7071067811865476
  outer loop
    vertex 385.86707142431095 13.01763809020504 145.867071424311
    vertex 399.350288425444 20.0 159.3502884254441
    vertex 385.9152595828996 12.5 145.91525958289967
  endloop
endfacet
facet normal 0.7071067811865475 2.037872358928463e-16 -0.7071067811865476
  outer loop
    vertex 369.65180361560897 5.000000000000001 129.6518036156091
    vertex 384.135020616742 10.568148347421873 144.13502061674217
    vertex 399.350288425444 5.0 159.3502884254441
  endloop
endfacet
facet normal 0.7071067811865475 2.037872358928463e-16 -0.7071067811865476
  outer loop
    vertex 384.135020616742 10.568148347421873 144.13502061674217
    vertex 369.65180361560897 5.000000000000001 129.6518036156091
    vertex 383.7939392393399 10.767949192431132 143.79393923934006
  endloop
endfacet
facet normal 0.7071067811865475 2.037872358928463e-16 -0.7071067811865476
  outer loop
    vertex 383.7939392393399 10.767949192431132 143.79393923934006
    vertex 369.65180361560897 5.000000000000001 129.6518036156091
    vertex 383.5010460205265 11.085786437626913 143.50104602052662
  endloop
endfacet
facet normal 0.7071067811865475 2.037872358928463e-16 -0.7071067811865476
  outer loop
    vertex 383.5010460205265 11.085786437626913 143.50104602052662
    vertex 369.65180361560897 5.000000000000001 129.6518036156091
    vertex 383.2763011491349 11.500000000000005 143.27630114913504
  endloop
endfacet
facet normal 0.7071067811865475 2.037872358928463e-16 -0.7071067811865476
  outer loop
    vertex 383.2763011491349 11.500000000000005 143.27630114913504
    vertex 369.65180361560897 5.000000000000001 129.6518036156091
    vertex 383.135020616742 11.98236190979496 143.1350206167422
  endloop
endfacet
facet normal 0.7071067811865475 2.037872358928463e-16 -0.7071067811865476
  outer loop
    vertex 383.135020616742 11.98236190979496 143.1350206167422
    vertex 369.65180361560897 5.000000000000001 129.6518036156091
    vertex 383.08683245815337 12.5 143.08683245815354
  endloop
endfacet
facet normal 0.7071067811865475 2.037872358928463e-16 -0.7071067811865476
  outer loop
    vertex 399.350288425444 5.0 159.3502884254441
    vertex 384.135020616742 10.568148347421873 144.13502061674217
    vertex 384.5010460205265 10.50000000000001 144.50104602052662
  endloop
endfacet
facet normal 0.7071067811865475 2.037872358928463e-16 -0.7071067811865476
  outer loop
    vertex 399.350288425444 5.0 159.3502884254441
    vertex 384.5010460205265 10.50000000000001 144.50104602052662
    vertex 384.86707142431095 10.568148347421873 144.86707142431104
  endloop
endfacet
facet normal 0.7071067811865475 2.037872358928463e-16 -0.7071067811865476
  outer loop
    vertex 399.350288425444 5.0 159.3502884254441
    vertex 384.86707142431095 10.568148347421873 144.86707142431104
    vertex 385.208152801713 10.76794919243113 145.20815280171314
  endloop
endfacet
facet normal 0.7071067811865475 2.037872358928463e-16 -0.7071067811865476
  outer loop
    vertex 399.350288425444 5.0 159.3502884254441
    vertex 385.208152801713 10.76794919243113 145.20815280171314
    vertex 385.5010460205265 11.085786437626913 145.5010460205266
  endloop
endfacet
facet normal 0.7071067811865475 2.037872358928463e-16 -0.7071067811865476
  outer loop
    vertex 399.350288425444 5.0 159.3502884254441
    vertex 385.5010460205265 11.085786437626913 145.5010460205266
    vertex 385.72579089191805 11.500000000000004 145.72579089191817
  endloop
endfacet
facet normal 0.7071067811865475 2.037872358928463e-16 -0.7071067811865476
  outer loop
    vertex 399.350288425444 5.0 159.3502884254441
    vertex 385.72579089191805 11.500000000000004 145.72579089191817
    vertex 385.86707142431095 11.98236190979496 145.867071424311
  endloop
endfacet
facet normal 0.7071067811865475 2.037872358928463e-16 -0.7071067811865476
  outer loop
    vertex 399.350288425444 5.0 159.3502884254441
    vertex 385.86707142431095 11.98236190979496 145.867071424311
    vertex 385.9152595828996 12.5 145.91525958289967
  endloop
endfacet
facet normal 0.7071067811865475 2.037872358928463e-16 -0.7071067811865476
  outer loop
    vertex 399.350288425444 5.0 159.3502884254441
    vertex 385.9152595828996 12.5 145.91525958289967
    vertex 399.350288425444 20.0 159.3502884254441
  endloop
endfacet
facet normal -0.7010573846499775 0.13052619222004716 -0.7010573846499791
  outer loop
    vertex 380.9152595828996 12.5 150.9152595828997
    vertex 385.86707142431095 11.98236190979496 145.867071424311
    vertex 380.86707142431095 11.982361909794957 150.86707142431104
  endloop
endfacet
facet normal -0.7010573846499775 0.13052619222004716 -0.7010573846499791
  outer loop
    vertex 385.86707142431095 11.98236190979496 145.867071424311
    vertex 380.9152595828996 12.5 150.9152595828997
    vertex 385.9152595828996 12.5 145.91525958289967
  endloop
endfacet
facet normal -0.7010573846499776 -0.13052619222004697 -0.7010573846499792
  outer loop
    vertex 385.86707142431095 13.01763809020504 145.867071424311
    vertex 380.9152595828996 12.5 150.9152595828997
    vertex 380.86707142431095 13.017638090205045 150.86707142431104
  endloop
endfacet
facet normal -0.7010573846499776 -0.13052619222004697 -0.7010573846499792
  outer loop
    vertex 380.9152595828996 12.5 150.9152595828997
    vertex 385.86707142431095 13.01763809020504 145.867071424311
    vertex 385.9152595828996 12.5 145.91525958289967
  endloop
endfacet
facet normal -0.6532814824381801 -0.3826834323651153 -0.6532814824381816
  outer loop
    vertex 385.72579089191805 13.499999999999995 145.72579089191817
    vertex 380.86707142431095 13.017638090205045 150.86707142431104
    vertex 380.72579089191805 13.500000000000004 150.7257908919182
  endloop
endfacet
facet normal -0.6532814824381801 -0.3826834323651153 -0.6532814824381816
  outer loop
    vertex 380.86707142431095 13.017638090205045 150.86707142431104
    vertex 385.72579089191805 13.499999999999995 145.72579089191817
    vertex 385.86707142431095 13.01763809020504 145.867071424311
  endloop
endfacet
facet normal -0.5609855267969279 -0.6087614290087255 -0.5609855267969289
  outer loop
    vertex 385.72579089191805 13.499999999999995 145.72579089191817
    vertex 380.5010460205265 13.914213562373098 150.5010460205266
    vertex 385.5010460205265 13.914213562373087 145.5010460205266
  endloop
endfacet
facet normal -0.5609855267969279 -0.6087614290087255 -0.5609855267969289
  outer loop
    vertex 380.5010460205265 13.914213562373098 150.5010460205266
    vertex 385.72579089191805 13.499999999999995 145.72579089191817
    vertex 380.72579089191805 13.500000000000004 150.7257908919182
  endloop
endfacet
facet normal -0.43045933457688507 -0.7933533402912287 -0.4304593345768858
  outer loop
    vertex 385.5010460205265 13.914213562373087 145.5010460205266
    vertex 380.208152801713 14.23205080756888 150.20815280171314
    vertex 385.208152801713 14.232050807568866 145.20815280171314
  endloop
endfacet
facet normal -0.43045933457688507 -0.7933533402912287 -0.4304593345768858
  outer loop
    vertex 380.208152801713 14.23205080756888 150.20815280171314
    vertex 385.5010460205265 13.914213562373087 145.5010460205266
    vertex 380.5010460205265 13.914213562373098 150.5010460205266
  endloop
endfacet
facet normal -0.27059805007310417 -0.9238795325112835 -0.2705980500731043
  outer loop
    vertex 385.208152801713 14.232050807568866 145.20815280171314
    vertex 379.86707142431095 14.43185165257814 149.86707142431104
    vertex 384.86707142431095 14.431851652578127 144.86707142431104
  endloop
endfacet
facet normal -0.27059805007310417 -0.9238795325112835 -0.2705980500731043
  outer loop
    vertex 379.86707142431095 14.43185165257814 149.86707142431104
    vertex 385.208152801713 14.232050807568866 145.20815280171314
    vertex 380.208152801713 14.23205080756888 150.20815280171314
  endloop
endfacet
facet normal -0.09229595564125383 -0.9914448613738112 -0.0922959556412529
  outer loop
    vertex 384.86707142431095 14.431851652578127 144.86707142431104
    vertex 379.5010460205265 14.500000000000005 149.5010460205266
    vertex 384.5010460205265 14.499999999999988 144.50104602052662
  endloop
endfacet
facet normal -0.09229595564125383 -0.9914448613738112 -0.0922959556412529
  outer loop
    vertex 379.5010460205265 14.500000000000005 149.5010460205266
    vertex 384.86707142431095 14.431851652578127 144.86707142431104
    vertex 379.86707142431095 14.43185165257814 149.86707142431104
  endloop
endfacet
facet normal 0.09229595564125188 -0.9914448613738114 0.0922959556412537
  outer loop
    vertex 384.5010460205265 14.499999999999988 144.50104602052662
    vertex 379.13502061674205 14.43185165257814 149.13502061674217
    vertex 384.135020616742 14.431851652578127 144.13502061674217
  endloop
endfacet
facet normal 0.09229595564125188 -0.9914448613738114 0.0922959556412537
  outer loop
    vertex 379.13502061674205 14.43185165257814 149.13502061674217
    vertex 384.5010460205265 14.499999999999988 144.50104602052662
    vertex 379.5010460205265 14.500000000000005 149.5010460205266
  endloop
endfacet
facet normal 0.2705980500731052 -0.9238795325112822 0.27059805007310794
  outer loop
    vertex 384.135020616742 14.431851652578127 144.13502061674217
    vertex 378.7939392393399 14.23205080756888 148.79393923934003
    vertex 383.7939392393399 14.232050807568866 143.79393923934006
  endloop
endfacet
facet normal 0.2705980500731052 -0.9238795325112822 0.27059805007310794
  outer loop
    vertex 378.7939392393399 14.23205080756888 148.79393923934003
    vertex 384.135020616742 14.431851652578127 144.13502061674217
    vertex 379.13502061674205 14.43185165257814 149.13502061674217
  endloop
endfacet
facet normal 0.4304593345768838 -0.7933533402912286 0.43045933457688756
  outer loop
    vertex 383.7939392393399 14.232050807568866 143.79393923934006
    vertex 378.5010460205265 13.914213562373098 148.5010460205266
    vertex 383.5010460205265 13.914213562373087 143.50104602052662
  endloop
endfacet
facet normal 0.4304593345768838 -0.7933533402912286 0.43045933457688756
  outer loop
    vertex 378.5010460205265 13.914213562373098 148.5010460205266
    vertex 383.7939392393399 14.232050807568866 143.79393923934006
    vertex 378.7939392393399 14.23205080756888 148.79393923934003
  endloop
endfacet
facet normal 0.5609855267969299 -0.608761429008719 0.5609855267969341
  outer loop
    vertex 383.5010460205265 13.914213562373087 143.50104602052662
    vertex 378.2763011491349 13.5 148.276301149135
    vertex 383.2763011491349 13.499999999999995 143.27630114913504
  endloop
endfacet
facet normal 0.5609855267969299 -0.608761429008719 0.5609855267969341
  outer loop
    vertex 378.2763011491349 13.5 148.276301149135
    vertex 383.5010460205265 13.914213562373087 143.50104602052662
    vertex 378.5010460205265 13.914213562373098 148.5010460205266
  endloop
endfacet
facet normal 0.6532814824381783 -0.3826834323651157 0.6532814824381831
  outer loop
    vertex 383.135020616742 13.01763809020504 143.1350206167422
    vertex 378.2763011491349 13.5 148.276301149135
    vertex 378.13502061674205 13.017638090205043 148.13502061674217
  endloop
endfacet
facet normal 0.6532814824381783 -0.3826834323651157 0.6532814824381831
  outer loop
    vertex 378.2763011491349 13.5 148.276301149135
    vertex 383.135020616742 13.01763809020504 143.1350206167422
    vertex 383.2763011491349 13.499999999999995 143.27630114913504
  endloop
endfacet
facet normal 0.7010573846499759 -0.1305261922200473 0.7010573846499807
  outer loop
    vertex 383.08683245815337 12.5 143.08683245815354
    vertex 378.13502061674205 13.017638090205043 148.13502061674217
    vertex 378.08683245815337 12.5 148.0868324581535
  endloop
endfacet
facet normal 0.7010573846499759 -0.1305261922200473 0.7010573846499807
  outer loop
    vertex 378.13502061674205 13.017638090205043 148.13502061674217
    vertex 383.08683245815337 12.5 143.08683245815354
    vertex 383.135020616742 13.01763809020504 143.1350206167422
  endloop
endfacet
facet normal 0.7010573846499759 0.1305261922200475 0.7010573846499807
  outer loop
    vertex 378.13502061674205 11.982361909794957 148.13502061674217
    vertex 383.08683245815337 12.5 143.08683245815354
    vertex 378.08683245815337 12.5 148.0868324581535
  endloop
endfacet
facet normal 0.7010573846499759 0.1305261922200475 0.7010573846499807
  outer loop
    vertex 383.08683245815337 12.5 143.08683245815354
    vertex 378.13502061674205 11.982361909794957 148.13502061674217
    vertex 383.135020616742 11.98236190979496 143.1350206167422
  endloop
endfacet
facet normal 0.6532814824381789 0.3826834323651141 0.6532814824381835
  outer loop
    vertex 378.2763011491349 11.499999999999996 148.276301149135
    vertex 383.135020616742 11.98236190979496 143.1350206167422
    vertex 378.13502061674205 11.982361909794957 148.13502061674217
  endloop
endfacet
facet normal 0.6532814824381789 0.3826834323651141 0.6532814824381835
  outer loop
    vertex 383.135020616742 11.98236190979496 143.1350206167422
    vertex 378.2763011491349 11.499999999999996 148.276301149135
    vertex 383.2763011491349 11.500000000000005 143.27630114913504
  endloop
endfacet
facet normal 0.56098552679694 0.6087614290087006 0.5609855267969439
  outer loop
    vertex 378.2763011491349 11.499999999999996 148.276301149135
    vertex 383.5010460205265 11.085786437626913 143.50104602052662
    vertex 383.2763011491349 11.500000000000005 143.27630114913504
  endloop
endfacet
facet normal 0.56098552679694 0.6087614290087006 0.5609855267969439
  outer loop
    vertex 383.5010460205265 11.085786437626913 143.50104602052662
    vertex 378.2763011491349 11.499999999999996 148.276301149135
    vertex 378.5010460205265 11.0857864376269 148.5010460205266
  endloop
endfacet
facet normal 0.43045933457687685 0.7933533402912364 0.4304593345768798
  outer loop
    vertex 378.5010460205265 11.0857864376269 148.5010460205266
    vertex 383.7939392393399 10.767949192431132 143.79393923934006
    vertex 383.5010460205265 11.085786437626913 143.50104602052662
  endloop
endfacet
facet normal 0.43045933457687685 0.7933533402912364 0.4304593345768798
  outer loop
    vertex 383.7939392393399 10.767949192431132 143.79393923934006
    vertex 378.5010460205265 11.0857864376269 148.5010460205266
    vertex 378.7939392393399 10.767949192431118 148.79393923934003
  endloop
endfacet
facet normal 0.27059805007310583 0.923879532511282 0.2705980500731083
  outer loop
    vertex 378.7939392393399 10.767949192431118 148.79393923934003
    vertex 384.135020616742 10.568148347421873 144.13502061674217
    vertex 383.7939392393399 10.767949192431132 143.79393923934006
  endloop
endfacet
facet normal 0.27059805007310583 0.923879532511282 0.2705980500731083
  outer loop
    vertex 384.135020616742 10.568148347421873 144.13502061674217
    vertex 378.7939392393399 10.767949192431118 148.79393923934003
    vertex 379.13502061674205 10.56814834742186 149.13502061674217
  endloop
endfacet
facet normal 0.09229595564125309 0.9914448613738112 0.09229595564125492
  outer loop
    vertex 379.13502061674205 10.56814834742186 149.13502061674217
    vertex 384.5010460205265 10.50000000000001 144.50104602052662
    vertex 384.135020616742 10.568148347421873 144.13502061674217
  endloop
endfacet
facet normal 0.09229595564125309 0.9914448613738112 0.09229595564125492
  outer loop
    vertex 384.5010460205265 10.50000000000001 144.50104602052662
    vertex 379.13502061674205 10.56814834742186 149.13502061674217
    vertex 379.5010460205265 10.499999999999995 149.5010460205266
  endloop
endfacet
facet normal -0.09229595564125452 0.9914448613738112 -0.09229595564125355
  outer loop
    vertex 379.5010460205265 10.499999999999995 149.5010460205266
    vertex 384.86707142431095 10.568148347421873 144.86707142431104
    vertex 384.5010460205265 10.50000000000001 144.50104602052662
  endloop
endfacet
facet normal -0.09229595564125452 0.9914448613738112 -0.09229595564125355
  outer loop
    vertex 384.86707142431095 10.568148347421873 144.86707142431104
    vertex 379.5010460205265 10.499999999999995 149.5010460205266
    vertex 379.86707142431095 10.56814834742186 149.86707142431104
  endloop
endfacet
facet normal -0.27059805007310944 0.9238795325112804 -0.2705980500731092
  outer loop
    vertex 379.86707142431095 10.56814834742186 149.86707142431104
    vertex 385.208152801713 10.76794919243113 145.20815280171314
    vertex 384.86707142431095 10.568148347421873 144.86707142431104
  endloop
endfacet
facet normal -0.27059805007310944 0.9238795325112804 -0.2705980500731092
  outer loop
    vertex 385.208152801713 10.76794919243113 145.20815280171314
    vertex 379.86707142431095 10.56814834742186 149.86707142431104
    vertex 380.208152801713 10.767949192431118 150.20815280171314
  endloop
endfacet
facet normal -0.43045933457688695 0.7933533402912271 -0.4304593345768873
  outer loop
    vertex 380.208152801713 10.767949192431118 150.20815280171314
    vertex 385.5010460205265 11.085786437626913 145.5010460205266
    vertex 385.208152801713 10.76794919243113 145.20815280171314
  endloop
endfacet
facet normal -0.43045933457688695 0.7933533402912271 -0.4304593345768873
  outer loop
    vertex 385.5010460205265 11.085786437626913 145.5010460205266
    vertex 380.208152801713 10.767949192431118 150.20815280171314
    vertex 380.5010460205265 11.0857864376269 150.5010460205266
  endloop
endfacet
facet normal -0.5609855267969281 0.6087614290087249 -0.5609855267969294
  outer loop
    vertex 380.5010460205265 11.0857864376269 150.5010460205266
    vertex 385.72579089191805 11.500000000000004 145.72579089191817
    vertex 385.5010460205265 11.085786437626913 145.5010460205266
  endloop
endfacet
facet normal -0.5609855267969281 0.6087614290087249 -0.5609855267969294
  outer loop
    vertex 385.72579089191805 11.500000000000004 145.72579089191817
    vertex 380.5010460205265 11.0857864376269 150.5010460205266
    vertex 380.72579089191805 11.499999999999996 150.7257908919182
  endloop
endfacet
facet normal -0.6532814824381803 0.3826834323651147 -0.6532814824381818
  outer loop
    vertex 380.86707142431095 11.982361909794957 150.86707142431104
    vertex 385.72579089191805 11.500000000000004 145.72579089191817
    vertex 380.72579089191805 11.499999999999996 150.7257908919182
  endloop
endfacet
facet normal -0.6532814824381803 0.3826834323651147 -0.6532814824381818
  outer loop
    vertex 385.72579089191805 11.500000000000004 145.72579089191817
    vertex 380.86707142431095 11.982361909794957 150.86707142431104
    vertex 385.86707142431095 11.98236190979496 145.867071424311
  endloop
endfacet
endsolid faience_pusherv2_002
