solid faience_pusherv2_002
facet normal 0.7071067811865478 5.4770548508931664e-17 -0.7071067811865472
  outer loop
    vertex 264.99999999999994 30.0 30.0
    vertex 269.99999999999994 0.0 35.0
    vertex 264.99999999999994 0.0 30.0
  endloop
endfacet
facet normal 0.7071067811865478 5.4770548508931664e-17 -0.7071067811865472
  outer loop
    vertex 269.99999999999994 0.0 35.0
    vertex 264.99999999999994 30.0 30.0
    vertex 269.99999999999994 5.0 35.0
  endloop
endfacet
facet normal 0.7071067811865478 5.4770548508931664e-17 -0.7071067811865472
  outer loop
    vertex 269.99999999999994 5.0 35.0
    vertex 264.99999999999994 30.0 30.0
    vertex 271.55342972166045 16.50000000000001 36.55342972166046
  endloop
endfacet
facet normal 0.7071067811865478 5.4770548508931664e-17 -0.7071067811865472
  outer loop
    vertex 269.99999999999994 5.0 35.0
    vertex 271.55342972166045 16.50000000000001 36.55342972166046
    vertex 271.77817459305203 16.085786437626915 36.77817459305204
  endloop
endfacet
facet normal 0.7071067811865478 5.4770548508931664e-17 -0.7071067811865472
  outer loop
    vertex 269.99999999999994 5.0 35.0
    vertex 271.77817459305203 16.085786437626915 36.77817459305204
    vertex 272.0710678118655 15.767949192431134 37.07106781186549
  endloop
endfacet
facet normal 0.7071067811865478 5.4770548508931664e-17 -0.7071067811865472
  outer loop
    vertex 269.99999999999994 5.0 35.0
    vertex 272.0710678118655 15.767949192431134 37.07106781186549
    vertex 272.41214918926755 15.568148347421877 37.412149189267595
  endloop
endfacet
facet normal 0.7071067811865478 5.4770548508931664e-17 -0.7071067811865472
  outer loop
    vertex 269.99999999999994 5.0 35.0
    vertex 272.41214918926755 15.568148347421877 37.412149189267595
    vertex 296.11269837220806 5.0 61.1126983722081
  endloop
endfacet
facet normal 0.7071067811865478 5.4770548508931664e-17 -0.7071067811865472
  outer loop
    vertex 296.11269837220806 5.0 61.1126983722081
    vertex 272.41214918926755 15.568148347421877 37.412149189267595
    vertex 272.77817459305203 15.500000000000014 37.77817459305203
  endloop
endfacet
facet normal 0.7071067811865478 5.4770548508931664e-17 -0.7071067811865472
  outer loop
    vertex 296.11269837220806 5.0 61.1126983722081
    vertex 272.77817459305203 15.500000000000014 37.77817459305203
    vertex 288.33452377915603 15.499999999999996 53.33452377915607
  endloop
endfacet
facet normal 0.7071067811865478 5.4770548508931664e-17 -0.7071067811865472
  outer loop
    vertex 271.55342972166045 16.50000000000001 36.55342972166046
    vertex 264.99999999999994 30.0 30.0
    vertex 271.41214918926755 16.982361909794964 36.4121491892676
  endloop
endfacet
facet normal 0.7071067811865478 5.4770548508931664e-17 -0.7071067811865472
  outer loop
    vertex 271.41214918926755 16.982361909794964 36.4121491892676
    vertex 264.99999999999994 30.0 30.0
    vertex 271.3639610306789 17.5 36.36396103067895
  endloop
endfacet
facet normal 0.7071067811865478 5.4770548508931664e-17 -0.7071067811865472
  outer loop
    vertex 271.3639610306789 17.5 36.36396103067895
    vertex 264.99999999999994 30.0 30.0
    vertex 271.41214918926755 18.017638090205043 36.4121491892676
  endloop
endfacet
facet normal 0.7071067811865478 5.4770548508931664e-17 -0.7071067811865472
  outer loop
    vertex 271.41214918926755 18.017638090205043 36.4121491892676
    vertex 264.99999999999994 30.0 30.0
    vertex 271.55342972166045 18.499999999999996 36.55342972166046
  endloop
endfacet
facet normal 0.7071067811865478 5.4770548508931664e-17 -0.7071067811865472
  outer loop
    vertex 271.55342972166045 18.499999999999996 36.55342972166046
    vertex 264.99999999999994 30.0 30.0
    vertex 271.77817459305203 18.91421356237309 36.77817459305204
  endloop
endfacet
facet normal 0.7071067811865478 5.4770548508931664e-17 -0.7071067811865472
  outer loop
    vertex 271.77817459305203 18.91421356237309 36.77817459305204
    vertex 264.99999999999994 30.0 30.0
    vertex 272.0710678118655 19.232050807568868 37.07106781186549
  endloop
endfacet
facet normal 0.7071067811865478 5.4770548508931664e-17 -0.7071067811865472
  outer loop
    vertex 272.0710678118655 19.232050807568868 37.07106781186549
    vertex 264.99999999999994 30.0 30.0
    vertex 272.41214918926755 19.43185165257813 37.412149189267595
  endloop
endfacet
facet normal 0.7071067811865478 5.4770548508931664e-17 -0.7071067811865472
  outer loop
    vertex 272.41214918926755 19.43185165257813 37.412149189267595
    vertex 264.99999999999994 30.0 30.0
    vertex 272.77817459305203 19.49999999999999 37.77817459305203
  endloop
endfacet
facet normal 0.7071067811865478 5.4770548508931664e-17 -0.7071067811865472
  outer loop
    vertex 272.77817459305203 19.49999999999999 37.77817459305203
    vertex 264.99999999999994 30.0 30.0
    vertex 288.33452377915603 19.500000000000007 53.33452377915607
  endloop
endfacet
facet normal 0.7071067811865478 5.4770548508931664e-17 -0.7071067811865472
  outer loop
    vertex 296.11269837220806 5.0 61.1126983722081
    vertex 289.55926865054755 16.499999999999996 54.559268650547665
    vertex 296.11269837220806 30.0 61.1126983722081
  endloop
endfacet
facet normal 0.7071067811865478 5.4770548508931664e-17 -0.7071067811865472
  outer loop
    vertex 289.55926865054755 16.499999999999996 54.559268650547665
    vertex 296.11269837220806 5.0 61.1126983722081
    vertex 289.334523779156 16.085786437626904 54.33452377915607
  endloop
endfacet
facet normal 0.7071067811865478 5.4770548508931664e-17 -0.7071067811865472
  outer loop
    vertex 289.334523779156 16.085786437626904 54.33452377915607
    vertex 296.11269837220806 5.0 61.1126983722081
    vertex 289.0416305603425 15.767949192431121 54.04163056034262
  endloop
endfacet
facet normal 0.7071067811865478 5.4770548508931664e-17 -0.7071067811865472
  outer loop
    vertex 289.0416305603425 15.767949192431121 54.04163056034262
    vertex 296.11269837220806 5.0 61.1126983722081
    vertex 288.70054918294045 15.568148347421861 53.700549182940506
  endloop
endfacet
facet normal 0.7071067811865478 5.4770548508931664e-17 -0.7071067811865472
  outer loop
    vertex 288.70054918294045 15.568148347421861 53.700549182940506
    vertex 296.11269837220806 5.0 61.1126983722081
    vertex 288.33452377915603 15.499999999999996 53.33452377915607
  endloop
endfacet
facet normal 0.7071067811865478 5.4770548508931664e-17 -0.7071067811865472
  outer loop
    vertex 296.11269837220806 30.0 61.1126983722081
    vertex 289.55926865054755 16.499999999999996 54.559268650547665
    vertex 289.70054918294045 16.982361909794957 54.70054918294051
  endloop
endfacet
facet normal 0.7071067811865478 5.4770548508931664e-17 -0.7071067811865472
  outer loop
    vertex 296.11269837220806 30.0 61.1126983722081
    vertex 289.70054918294045 16.982361909794957 54.70054918294051
    vertex 289.7487373415291 17.5 54.74873734152917
  endloop
endfacet
facet normal 0.7071067811865478 5.4770548508931664e-17 -0.7071067811865472
  outer loop
    vertex 296.11269837220806 30.0 61.1126983722081
    vertex 289.7487373415291 17.5 54.74873734152917
    vertex 289.70054918294045 18.017638090205043 54.70054918294051
  endloop
endfacet
facet normal 0.7071067811865478 5.4770548508931664e-17 -0.7071067811865472
  outer loop
    vertex 296.11269837220806 30.0 61.1126983722081
    vertex 289.70054918294045 18.017638090205043 54.70054918294051
    vertex 289.55926865054755 18.500000000000004 54.559268650547665
  endloop
endfacet
facet normal 0.7071067811865478 5.4770548508931664e-17 -0.7071067811865472
  outer loop
    vertex 296.11269837220806 30.0 61.1126983722081
    vertex 289.55926865054755 18.500000000000004 54.559268650547665
    vertex 289.334523779156 18.9142135623731 54.33452377915607
  endloop
endfacet
facet normal 0.7071067811865478 5.4770548508931664e-17 -0.7071067811865472
  outer loop
    vertex 296.11269837220806 30.0 61.1126983722081
    vertex 289.334523779156 18.9142135623731 54.33452377915607
    vertex 289.0416305603425 19.232050807568882 54.04163056034262
  endloop
endfacet
facet normal 0.7071067811865478 5.4770548508931664e-17 -0.7071067811865472
  outer loop
    vertex 296.11269837220806 30.0 61.1126983722081
    vertex 289.0416305603425 19.232050807568882 54.04163056034262
    vertex 288.70054918294045 19.431851652578143 53.700549182940506
  endloop
endfacet
facet normal 0.7071067811865478 5.4770548508931664e-17 -0.7071067811865472
  outer loop
    vertex 296.11269837220806 30.0 61.1126983722081
    vertex 288.70054918294045 19.431851652578143 53.700549182940506
    vertex 288.33452377915603 19.500000000000007 53.33452377915607
  endloop
endfacet
facet normal 0.7071067811865478 5.4770548508931664e-17 -0.7071067811865472
  outer loop
    vertex 296.11269837220806 30.0 61.1126983722081
    vertex 288.33452377915603 19.500000000000007 53.33452377915607
    vertex 264.99999999999994 30.0 30.0
  endloop
endfacet
facet normal 0.7071067811865478 5.4770548508931664e-17 -0.7071067811865472
  outer loop
    vertex 272.77817459305203 15.500000000000014 37.77817459305203
    vertex 287.96849837537155 15.568148347421861 52.968498375371624
    vertex 288.33452377915603 15.499999999999996 53.33452377915607
  endloop
endfacet
facet normal 0.7071067811865478 5.4770548508931664e-17 -0.7071067811865472
  outer loop
    vertex 287.96849837537155 15.568148347421861 52.968498375371624
    vertex 272.77817459305203 15.500000000000014 37.77817459305203
    vertex 273.14419999683645 15.568148347421875 38.14419999683646
  endloop
endfacet
facet normal 0.7071067811865478 5.4770548508931664e-17 -0.7071067811865472
  outer loop
    vertex 287.96849837537155 15.568148347421861 52.968498375371624
    vertex 273.14419999683645 15.568148347421875 38.14419999683646
    vertex 287.6274169979695 15.767949192431121 52.62741699796952
  endloop
endfacet
facet normal 0.7071067811865478 5.4770548508931664e-17 -0.7071067811865472
  outer loop
    vertex 287.6274169979695 15.767949192431121 52.62741699796952
    vertex 273.14419999683645 15.568148347421875 38.14419999683646
    vertex 273.4852813742386 15.767949192431134 38.48528137423857
  endloop
endfacet
facet normal 0.7071067811865478 5.4770548508931664e-17 -0.7071067811865472
  outer loop
    vertex 287.6274169979695 15.767949192431121 52.62741699796952
    vertex 273.4852813742386 15.767949192431134 38.48528137423857
    vertex 287.33452377915603 16.085786437626904 52.33452377915607
  endloop
endfacet
facet normal 0.7071067811865478 5.4770548508931664e-17 -0.7071067811865472
  outer loop
    vertex 287.33452377915603 16.085786437626904 52.33452377915607
    vertex 273.4852813742386 15.767949192431134 38.48528137423857
    vertex 273.77817459305203 16.085786437626915 38.778174593052015
  endloop
endfacet
facet normal 0.7071067811865478 5.4770548508931664e-17 -0.7071067811865472
  outer loop
    vertex 287.33452377915603 16.085786437626904 52.33452377915607
    vertex 273.77817459305203 16.085786437626915 38.778174593052015
    vertex 287.10977890776445 16.5 52.10977890776448
  endloop
endfacet
facet normal 0.7071067811865478 5.4770548508931664e-17 -0.7071067811865472
  outer loop
    vertex 287.10977890776445 16.5 52.10977890776448
    vertex 273.77817459305203 16.085786437626915 38.778174593052015
    vertex 274.0029194644436 16.500000000000007 39.0029194644436
  endloop
endfacet
facet normal 0.7071067811865478 5.4770548508931664e-17 -0.7071067811865472
  outer loop
    vertex 287.10977890776445 16.5 52.10977890776448
    vertex 274.0029194644436 16.500000000000007 39.0029194644436
    vertex 286.96849837537155 16.98236190979496 51.96849837537163
  endloop
endfacet
facet normal 0.7071067811865478 5.4770548508931664e-17 -0.7071067811865472
  outer loop
    vertex 286.96849837537155 16.98236190979496 51.96849837537163
    vertex 274.0029194644436 16.500000000000007 39.0029194644436
    vertex 274.14419999683645 16.98236190979496 39.14419999683645
  endloop
endfacet
facet normal 0.7071067811865478 5.4770548508931664e-17 -0.7071067811865472
  outer loop
    vertex 286.96849837537155 16.98236190979496 51.96849837537163
    vertex 274.14419999683645 16.98236190979496 39.14419999683645
    vertex 286.9203102167829 17.5 51.92031021678297
  endloop
endfacet
facet normal 0.7071067811865478 5.4770548508931664e-17 -0.7071067811865472
  outer loop
    vertex 286.9203102167829 17.5 51.92031021678297
    vertex 274.14419999683645 16.98236190979496 39.14419999683645
    vertex 274.1923881554251 17.5 39.1923881554251
  endloop
endfacet
facet normal 0.7071067811865478 5.4770548508931664e-17 -0.7071067811865472
  outer loop
    vertex 286.9203102167829 17.5 51.92031021678297
    vertex 274.1923881554251 17.5 39.1923881554251
    vertex 274.14419999683645 18.017638090205043 39.14419999683645
  endloop
endfacet
facet normal 0.7071067811865478 5.4770548508931664e-17 -0.7071067811865472
  outer loop
    vertex 286.9203102167829 17.5 51.92031021678297
    vertex 274.14419999683645 18.017638090205043 39.14419999683645
    vertex 286.96849837537155 18.017638090205043 51.96849837537163
  endloop
endfacet
facet normal 0.7071067811865478 5.4770548508931664e-17 -0.7071067811865472
  outer loop
    vertex 286.96849837537155 18.017638090205043 51.96849837537163
    vertex 274.14419999683645 18.017638090205043 39.14419999683645
    vertex 274.0029194644436 18.499999999999996 39.0029194644436
  endloop
endfacet
facet normal 0.7071067811865478 5.4770548508931664e-17 -0.7071067811865472
  outer loop
    vertex 286.96849837537155 18.017638090205043 51.96849837537163
    vertex 274.0029194644436 18.499999999999996 39.0029194644436
    vertex 287.10977890776445 18.500000000000007 52.10977890776448
  endloop
endfacet
facet normal 0.7071067811865478 5.4770548508931664e-17 -0.7071067811865472
  outer loop
    vertex 287.10977890776445 18.500000000000007 52.10977890776448
    vertex 274.0029194644436 18.499999999999996 39.0029194644436
    vertex 273.77817459305203 18.91421356237309 38.778174593052015
  endloop
endfacet
facet normal 0.7071067811865478 5.4770548508931664e-17 -0.7071067811865472
  outer loop
    vertex 287.10977890776445 18.500000000000007 52.10977890776448
    vertex 273.77817459305203 18.91421356237309 38.778174593052015
    vertex 287.33452377915603 18.9142135623731 52.33452377915607
  endloop
endfacet
facet normal 0.7071067811865478 5.4770548508931664e-17 -0.7071067811865472
  outer loop
    vertex 287.33452377915603 18.9142135623731 52.33452377915607
    vertex 273.77817459305203 18.91421356237309 38.778174593052015
    vertex 273.4852813742386 19.232050807568868 38.48528137423857
  endloop
endfacet
facet normal 0.7071067811865478 5.4770548508931664e-17 -0.7071067811865472
  outer loop
    vertex 287.33452377915603 18.9142135623731 52.33452377915607
    vertex 273.4852813742386 19.232050807568868 38.48528137423857
    vertex 287.6274169979695 19.232050807568882 52.62741699796952
  endloop
endfacet
facet normal 0.7071067811865478 5.4770548508931664e-17 -0.7071067811865472
  outer loop
    vertex 287.6274169979695 19.232050807568882 52.62741699796952
    vertex 273.4852813742386 19.232050807568868 38.48528137423857
    vertex 273.14419999683645 19.43185165257813 38.14419999683646
  endloop
endfacet
facet normal 0.7071067811865478 5.4770548508931664e-17 -0.7071067811865472
  outer loop
    vertex 287.6274169979695 19.232050807568882 52.62741699796952
    vertex 273.14419999683645 19.43185165257813 38.14419999683646
    vertex 287.96849837537155 19.431851652578143 52.96849837537164
  endloop
endfacet
facet normal 0.7071067811865478 5.4770548508931664e-17 -0.7071067811865472
  outer loop
    vertex 287.96849837537155 19.431851652578143 52.96849837537164
    vertex 273.14419999683645 19.43185165257813 38.14419999683646
    vertex 272.77817459305203 19.49999999999999 37.77817459305203
  endloop
endfacet
facet normal 0.7071067811865478 5.4770548508931664e-17 -0.7071067811865472
  outer loop
    vertex 287.96849837537155 19.431851652578143 52.96849837537164
    vertex 272.77817459305203 19.49999999999999 37.77817459305203
    vertex 288.33452377915603 19.500000000000007 53.33452377915607
  endloop
endfacet
facet normal 0.0 -1.0 0.0
  outer loop
    vertex 269.99999999999994 0.0 35.0
    vertex 260.0 0.0 30.0
    vertex 264.99999999999994 0.0 30.0
  endloop
endfacet
facet normal 0.0 -1.0 0.0
  outer loop
    vertex 260.0 0.0 30.0
    vertex 269.99999999999994 0.0 35.0
    vertex 264.99999999999994 0.0 35.0
  endloop
endfacet
facet normal 0.0 0.0 -1.0
  outer loop
    vertex 304.112698372208 5.0 35.0
    vertex 269.99999999999994 0.0 35.0
    vertex 269.99999999999994 5.0 35.0
  endloop
endfacet
facet normal 0.0 0.0 -1.0
  outer loop
    vertex 269.99999999999994 0.0 35.0
    vertex 304.112698372208 5.0 35.0
    vertex 304.112698372208 0.0 35.0
  endloop
endfacet
facet normal 0.7071067811865477 0.0 -0.7071067811865474
  outer loop
    vertex 269.99999999999994 5.0 35.0
    vertex 296.11269837220806 0.0 61.1126983722081
    vertex 269.99999999999994 0.0 35.0
  endloop
endfacet
facet normal 0.7071067811865477 0.0 -0.7071067811865474
  outer loop
    vertex 296.11269837220806 0.0 61.1126983722081
    vertex 269.99999999999994 5.0 35.0
    vertex 296.11269837220806 5.0 61.1126983722081
  endloop
endfacet
facet normal 0.0 0.0 1.0
  outer loop
    vertex 304.112698372208 0.0 61.1126983722081
    vertex 296.11269837220806 5.0 61.1126983722081
    vertex 296.11269837220806 0.0 61.1126983722081
  endloop
endfacet
facet normal 0.0 0.0 1.0
  outer loop
    vertex 296.11269837220806 5.0 61.1126983722081
    vertex 304.112698372208 0.0 61.1126983722081
    vertex 304.112698372208 5.0 61.1126983722081
  endloop
endfacet
facet normal 1.0 0.0 0.0
  outer loop
    vertex 304.112698372208 5.0 35.0
    vertex 304.112698372208 0.0 61.1126983722081
    vertex 304.112698372208 0.0 35.0
  endloop
endfacet
facet normal 1.0 0.0 0.0
  outer loop
    vertex 304.112698372208 0.0 61.1126983722081
    vertex 304.112698372208 5.0 35.0
    vertex 304.112698372208 5.0 61.1126983722081
  endloop
endfacet
facet normal 0.0 1.0 0.0
  outer loop
    vertex 269.99999999999994 5.0 35.0
    vertex 292.3541044081444 5.0 43.110685507988975
    vertex 304.112698372208 5.0 35.0
  endloop
endfacet
facet normal 0.0 1.0 0.0
  outer loop
    vertex 292.3541044081444 5.0 43.110685507988975
    vertex 269.99999999999994 5.0 35.0
    vertex 291.95799290011576 5.0 43.45081645761677
  endloop
endfacet
facet normal 0.0 1.0 0.0
  outer loop
    vertex 291.95799290011576 5.0 43.45081645761677
    vertex 269.99999999999994 5.0 35.0
    vertex 291.663410932013 5.0 43.88187892844457
  endloop
endfacet
facet normal 0.0 1.0 0.0
  outer loop
    vertex 291.663410932013 5.0 43.88187892844457
    vertex 269.99999999999994 5.0 35.0
    vertex 291.4904337781427 5.0 44.374496725449895
  endloop
endfacet
facet normal 0.0 1.0 0.0
  outer loop
    vertex 291.4904337781427 5.0 44.374496725449895
    vertex 269.99999999999994 5.0 35.0
    vertex 291.45084954568284 5.0 44.89509875985623
  endloop
endfacet
facet normal 0.0 1.0 0.0
  outer loop
    vertex 291.45084954568284 5.0 44.89509875985623
    vertex 269.99999999999994 5.0 35.0
    vertex 291.54735583465947 5.0 45.40820686335433
  endloop
endfacet
facet normal 0.0 1.0 0.0
  outer loop
    vertex 291.54735583465947 5.0 45.40820686335433
    vertex 269.99999999999994 5.0 35.0
    vertex 296.11269837220806 5.0 61.1126983722081
  endloop
endfacet
facet normal 0.0 1.0 0.0
  outer loop
    vertex 304.112698372208 5.0 35.0
    vertex 292.3541044081444 5.0 43.110685507988975
    vertex 292.8247511114321 5.0 42.88466544168538
  endloop
endfacet
facet normal 0.0 1.0 0.0
  outer loop
    vertex 304.112698372208 5.0 35.0
    vertex 292.8247511114321 5.0 42.88466544168538
    vertex 293.3378592149302 5.0 42.78815915270873
  endloop
endfacet
facet normal 0.0 1.0 0.0
  outer loop
    vertex 291.54735583465947 5.0 45.40820686335433
    vertex 296.11269837220806 5.0 61.1126983722081
    vertex 291.77337590096306 5.0 45.878853566642015
  endloop
endfacet
facet normal 0.0 1.0 0.0
  outer loop
    vertex 291.77337590096306 5.0 45.878853566642015
    vertex 296.11269837220806 5.0 61.1126983722081
    vertex 292.11350685059085 5.0 46.274965074670696
  endloop
endfacet
facet normal 0.0 1.0 0.0
  outer loop
    vertex 292.11350685059085 5.0 46.274965074670696
    vertex 296.11269837220806 5.0 61.1126983722081
    vertex 292.54456932141863 5.0 46.56954704277343
  endloop
endfacet
facet normal 0.0 1.0 0.0
  outer loop
    vertex 292.54456932141863 5.0 46.56954704277343
    vertex 296.11269837220806 5.0 61.1126983722081
    vertex 293.03718711842396 5.0 46.74252419664374
  endloop
endfacet
facet normal 0.0 1.0 0.0
  outer loop
    vertex 293.03718711842396 5.0 46.74252419664374
    vertex 296.11269837220806 5.0 61.1126983722081
    vertex 293.5577891528303 5.0 46.78210842910363
  endloop
endfacet
facet normal 0.0 1.0 0.0
  outer loop
    vertex 304.112698372208 5.0 35.0
    vertex 295.1222724667974 5.0 43.69141401517034
    vertex 304.112698372208 5.0 61.1126983722081
  endloop
endfacet
facet normal 0.0 1.0 0.0
  outer loop
    vertex 295.1222724667974 5.0 43.69141401517034
    vertex 304.112698372208 5.0 35.0
    vertex 294.78214151716963 5.0 43.295302507141656
  endloop
endfacet
facet normal 0.0 1.0 0.0
  outer loop
    vertex 294.78214151716963 5.0 43.295302507141656
    vertex 304.112698372208 5.0 35.0
    vertex 294.35107904634185 5.0 43.00072053903892
  endloop
endfacet
facet normal 0.0 1.0 0.0
  outer loop
    vertex 294.35107904634185 5.0 43.00072053903892
    vertex 304.112698372208 5.0 35.0
    vertex 293.85846124933653 5.0 42.82774338516862
  endloop
endfacet
facet normal 0.0 1.0 0.0
  outer loop
    vertex 293.85846124933653 5.0 42.82774338516862
    vertex 304.112698372208 5.0 35.0
    vertex 293.3378592149302 5.0 42.78815915270873
  endloop
endfacet
facet normal 0.0 1.0 0.0
  outer loop
    vertex 304.112698372208 5.0 61.1126983722081
    vertex 295.1222724667974 5.0 43.69141401517034
    vertex 295.3482925331011 5.0 44.16206071845803
  endloop
endfacet
facet normal 0.0 1.0 0.0
  outer loop
    vertex 304.112698372208 5.0 61.1126983722081
    vertex 295.3482925331011 5.0 44.16206071845803
    vertex 295.4447988220777 5.0 44.67516882195612
  endloop
endfacet
facet normal 0.0 1.0 0.0
  outer loop
    vertex 304.112698372208 5.0 61.1126983722081
    vertex 295.4447988220777 5.0 44.67516882195612
    vertex 295.4052145896178 5.0 45.19577085636246
  endloop
endfacet
facet normal 0.0 1.0 0.0
  outer loop
    vertex 304.112698372208 5.0 61.1126983722081
    vertex 295.4052145896178 5.0 45.19577085636246
    vertex 295.2322374357475 5.0 45.68838865336779
  endloop
endfacet
facet normal 0.0 1.0 0.0
  outer loop
    vertex 304.112698372208 5.0 61.1126983722081
    vertex 295.2322374357475 5.0 45.68838865336779
    vertex 294.9376554676448 5.0 46.11945112419559
  endloop
endfacet
facet normal 0.0 1.0 0.0
  outer loop
    vertex 304.112698372208 5.0 61.1126983722081
    vertex 294.9376554676448 5.0 46.11945112419559
    vertex 294.5415439596161 5.0 46.45958207382338
  endloop
endfacet
facet normal 0.0 1.0 0.0
  outer loop
    vertex 304.112698372208 5.0 61.1126983722081
    vertex 294.5415439596161 5.0 46.45958207382338
    vertex 294.0708972563284 5.0 46.68560214012698
  endloop
endfacet
facet normal 0.0 1.0 0.0
  outer loop
    vertex 304.112698372208 5.0 61.1126983722081
    vertex 294.0708972563284 5.0 46.68560214012698
    vertex 293.5577891528303 5.0 46.78210842910363
  endloop
endfacet
facet normal 0.0 1.0 0.0
  outer loop
    vertex 304.112698372208 5.0 61.1126983722081
    vertex 293.5577891528303 5.0 46.78210842910363
    vertex 296.11269837220806 5.0 61.1126983722081
  endloop
endfacet
facet normal 0.0 -1.0 0.0
  outer loop
    vertex 296.11269837220806 0.0 61.1126983722081
    vertex 264.99999999999994 0.0 35.0
    vertex 269.99999999999994 0.0 35.0
  endloop
endfacet
facet normal 0.0 -1.0 0.0
  outer loop
    vertex 264.99999999999994 0.0 35.0
    vertex 296.11269837220806 0.0 61.1126983722081
    vertex 279.7989898732233 0.0 49.798989873223334
  endloop
endfacet
facet normal 0.0 -1.0 0.0
  outer loop
    vertex 279.7989898732233 0.0 49.798989873223334
    vertex 296.11269837220806 0.0 61.1126983722081
    vertex 291.11269837220806 0.0 61.1126983722081
  endloop
endfacet
facet normal 0.4304593345768838 0.7933533402912338 0.4304593345768773
  outer loop
    vertex 268.9497474683059 16.085786437626915 39.606601717798256
    vertex 272.0710678118655 15.767949192431134 37.07106781186549
    vertex 271.77817459305203 16.085786437626915 36.77817459305204
  endloop
endfacet
facet normal 0.4304593345768838 0.7933533402912338 0.4304593345768773
  outer loop
    vertex 272.0710678118655 15.767949192431134 37.07106781186549
    vertex 268.9497474683059 16.085786437626915 39.606601717798256
    vertex 269.2426406871193 15.767949192431134 39.8994949366117
  endloop
endfacet
facet normal 0.2705980500731057 0.9238795325112839 0.2705980500731016
  outer loop
    vertex 269.2426406871193 15.767949192431134 39.8994949366117
    vertex 272.41214918926755 15.568148347421877 37.412149189267595
    vertex 272.0710678118655 15.767949192431134 37.07106781186549
  endloop
endfacet
facet normal 0.2705980500731057 0.9238795325112839 0.2705980500731016
  outer loop
    vertex 272.41214918926755 15.568148347421877 37.412149189267595
    vertex 269.2426406871193 15.767949192431134 39.8994949366117
    vertex 269.5837220645214 15.568148347421877 40.24057631401381
  endloop
endfacet
facet normal 0.0922959556412563 0.9914448613738107 0.09229595564125492
  outer loop
    vertex 269.5837220645214 15.568148347421877 40.24057631401381
    vertex 272.77817459305203 15.500000000000014 37.77817459305203
    vertex 272.41214918926755 15.568148347421877 37.412149189267595
  endloop
endfacet
facet normal 0.0922959556412563 0.9914448613738107 0.09229595564125492
  outer loop
    vertex 272.77817459305203 15.500000000000014 37.77817459305203
    vertex 269.5837220645214 15.568148347421877 40.24057631401381
    vertex 269.9497474683059 15.500000000000014 40.60660171779824
  endloop
endfacet
facet normal -0.09229595564125256 0.9914448613738114 -0.09229595564125115
  outer loop
    vertex 269.9497474683059 15.500000000000014 40.60660171779824
    vertex 273.14419999683645 15.568148347421875 38.14419999683646
    vertex 272.77817459305203 15.500000000000014 37.77817459305203
  endloop
endfacet
facet normal -0.09229595564125256 0.9914448613738114 -0.09229595564125115
  outer loop
    vertex 273.14419999683645 15.568148347421875 38.14419999683646
    vertex 269.9497474683059 15.500000000000014 40.60660171779824
    vertex 270.3157728720903 15.568148347421875 40.972627121582676
  endloop
endfacet
facet normal 0.09229595564125256 -0.9914448613738114 0.09229595564125115
  outer loop
    vertex 272.77817459305203 19.49999999999999 37.77817459305203
    vertex 269.5837220645214 19.43185165257813 40.24057631401381
    vertex 272.41214918926755 19.43185165257813 37.412149189267595
  endloop
endfacet
facet normal 0.09229595564125256 -0.9914448613738114 0.09229595564125115
  outer loop
    vertex 269.5837220645214 19.43185165257813 40.24057631401381
    vertex 272.77817459305203 19.49999999999999 37.77817459305203
    vertex 269.9497474683059 19.49999999999999 40.60660171779824
  endloop
endfacet
facet normal -0.270598050073109 0.9238795325112819 -0.27059805007310483
  outer loop
    vertex 270.3157728720903 15.568148347421875 40.972627121582676
    vertex 273.4852813742386 15.767949192431134 38.48528137423857
    vertex 273.14419999683645 15.568148347421875 38.14419999683646
  endloop
endfacet
facet normal -0.270598050073109 0.9238795325112819 -0.27059805007310483
  outer loop
    vertex 273.4852813742386 15.767949192431134 38.48528137423857
    vertex 270.3157728720903 15.568148347421875 40.972627121582676
    vertex 270.6568542494924 15.767949192431134 41.31370849898478
  endloop
endfacet
facet normal -0.6532814824381769 -0.3826834323651278 -0.6532814824381775
  outer loop
    vertex 289.55926865054755 18.500000000000004 54.559268650547665
    vertex 286.87212205819424 18.017638090205043 57.528976307686705
    vertex 286.7308415258014 18.500000000000004 57.38769577529385
  endloop
endfacet
facet normal -0.6532814824381769 -0.3826834323651278 -0.6532814824381775
  outer loop
    vertex 286.87212205819424 18.017638090205043 57.528976307686705
    vertex 289.55926865054755 18.500000000000004 54.559268650547665
    vertex 289.70054918294045 18.017638090205043 54.70054918294051
  endloop
endfacet
facet normal 0.0 0.0 -1.0
  outer loop
    vertex 264.99999999999994 30.0 30.0
    vertex 260.0 0.0 30.0
    vertex 260.0 30.0 30.0
  endloop
endfacet
facet normal 0.0 0.0 -1.0
  outer loop
    vertex 260.0 0.0 30.0
    vertex 264.99999999999994 30.0 30.0
    vertex 264.99999999999994 0.0 30.0
  endloop
endfacet
facet normal -0.5609855267969353 -0.608761429008712 -0.5609855267969361
  outer loop
    vertex 289.55926865054755 18.500000000000004 54.559268650547665
    vertex 286.5060966544098 18.9142135623731 57.16295090390226
    vertex 289.334523779156 18.9142135623731 54.33452377915607
  endloop
endfacet
facet normal -0.5609855267969353 -0.608761429008712 -0.5609855267969361
  outer loop
    vertex 286.5060966544098 18.9142135623731 57.16295090390226
    vertex 289.55926865054755 18.500000000000004 54.559268650547665
    vertex 286.7308415258014 18.500000000000004 57.38769577529385
  endloop
endfacet
facet normal -0.4304593345768827 -0.7933533402912313 -0.43045933457688346
  outer loop
    vertex 289.334523779156 18.9142135623731 54.33452377915607
    vertex 286.21320343559637 19.232050807568882 56.87005768508881
    vertex 289.0416305603425 19.232050807568882 54.04163056034262
  endloop
endfacet
facet normal -0.4304593345768827 -0.7933533402912313 -0.43045933457688346
  outer loop
    vertex 286.21320343559637 19.232050807568882 56.87005768508881
    vertex 289.334523779156 18.9142135623731 54.33452377915607
    vertex 286.5060966544098 18.9142135623731 57.16295090390226
  endloop
endfacet
facet normal -0.7071067811865474 0.0 0.7071067811865478
  outer loop
    vertex 279.7989898732233 0.0 49.798989873223334
    vertex 264.99999999999994 30.0 35.0
    vertex 264.99999999999994 0.0 35.0
  endloop
endfacet
facet normal -0.7071067811865474 0.0 0.7071067811865478
  outer loop
    vertex 264.99999999999994 30.0 35.0
    vertex 279.7989898732233 0.0 49.798989873223334
    vertex 279.7989898732233 30.0 49.798989873223334
  endloop
endfacet
facet normal -0.2705980500731028 -0.9238795325112842 -0.27059805007310345
  outer loop
    vertex 289.0416305603425 19.232050807568882 54.04163056034262
    vertex 285.87212205819424 19.431851652578143 56.52897630768669
    vertex 288.70054918294045 19.431851652578143 53.700549182940506
  endloop
endfacet
facet normal -0.2705980500731028 -0.9238795325112842 -0.27059805007310345
  outer loop
    vertex 285.87212205819424 19.431851652578143 56.52897630768669
    vertex 289.0416305603425 19.232050807568882 54.04163056034262
    vertex 286.21320343559637 19.232050807568882 56.87005768508881
  endloop
endfacet
facet normal -0.09229595564125534 -0.9914448613738107 -0.09229595564125587
  outer loop
    vertex 288.70054918294045 19.431851652578143 53.700549182940506
    vertex 285.5060966544098 19.500000000000007 56.16295090390226
    vertex 288.33452377915603 19.500000000000007 53.33452377915607
  endloop
endfacet
facet normal -0.09229595564125534 -0.9914448613738107 -0.09229595564125587
  outer loop
    vertex 285.5060966544098 19.500000000000007 56.16295090390226
    vertex 288.70054918294045 19.431851652578143 53.700549182940506
    vertex 285.87212205819424 19.431851652578143 56.52897630768669
  endloop
endfacet
facet normal -0.7071067811865483 0.0 0.7071067811865468
  outer loop
    vertex 264.99999999999994 30.0 35.0
    vertex 260.0 0.0 30.0
    vertex 264.99999999999994 0.0 35.0
  endloop
endfacet
facet normal -0.7071067811865483 0.0 0.7071067811865468
  outer loop
    vertex 260.0 0.0 30.0
    vertex 264.99999999999994 30.0 35.0
    vertex 260.0 30.0 30.0
  endloop
endfacet
facet normal 0.09229595564125578 -0.9914448613738107 0.09229595564125542
  outer loop
    vertex 288.33452377915603 19.500000000000007 53.33452377915607
    vertex 285.14007125062534 19.431851652578143 55.79692550011782
    vertex 287.96849837537155 19.431851652578143 52.96849837537164
  endloop
endfacet
facet normal 0.09229595564125578 -0.9914448613738107 0.09229595564125542
  outer loop
    vertex 285.14007125062534 19.431851652578143 55.79692550011782
    vertex 288.33452377915603 19.500000000000007 53.33452377915607
    vertex 285.5060966544098 19.500000000000007 56.16295090390226
  endloop
endfacet
facet normal -0.09229595564125255 -0.9914448613738114 -0.09229595564125116
  outer loop
    vertex 273.14419999683645 19.43185165257813 38.14419999683646
    vertex 269.9497474683059 19.49999999999999 40.60660171779824
    vertex 272.77817459305203 19.49999999999999 37.77817459305203
  endloop
endfacet
facet normal -0.09229595564125255 -0.9914448613738114 -0.09229595564125116
  outer loop
    vertex 269.9497474683059 19.49999999999999 40.60660171779824
    vertex 273.14419999683645 19.43185165257813 38.14419999683646
    vertex 270.3157728720903 19.43185165257813 40.972627121582676
  endloop
endfacet
facet normal 0.2705980500731032 -0.9238795325112842 0.27059805007310306
  outer loop
    vertex 287.96849837537155 19.431851652578143 52.96849837537164
    vertex 284.79898987322326 19.232050807568882 55.45584412271571
    vertex 287.6274169979695 19.232050807568882 52.62741699796952
  endloop
endfacet
facet normal 0.2705980500731032 -0.9238795325112842 0.27059805007310306
  outer loop
    vertex 284.79898987322326 19.232050807568882 55.45584412271571
    vertex 287.96849837537155 19.431851652578143 52.96849837537164
    vertex 285.14007125062534 19.431851652578143 55.79692550011782
  endloop
endfacet
facet normal -0.7071067811865482 0.0 0.7071067811865469
  outer loop
    vertex 291.11269837220806 30.0 61.1126983722081
    vertex 279.7989898732233 0.0 49.798989873223334
    vertex 291.11269837220806 0.0 61.1126983722081
  endloop
endfacet
facet normal -0.7071067811865482 0.0 0.7071067811865469
  outer loop
    vertex 279.7989898732233 0.0 49.798989873223334
    vertex 291.11269837220806 30.0 61.1126983722081
    vertex 279.7989898732233 30.0 49.798989873223334
  endloop
endfacet
facet normal 0.430459334576883 -0.7933533402912313 0.4304593345768831
  outer loop
    vertex 287.6274169979695 19.232050807568882 52.62741699796952
    vertex 284.5060966544098 18.9142135623731 55.16295090390226
    vertex 287.33452377915603 18.9142135623731 52.33452377915607
  endloop
endfacet
facet normal 0.430459334576883 -0.7933533402912313 0.4304593345768831
  outer loop
    vertex 284.5060966544098 18.9142135623731 55.16295090390226
    vertex 287.6274169979695 19.232050807568882 52.62741699796952
    vertex 284.79898987322326 19.232050807568882 55.45584412271571
  endloop
endfacet
facet normal 0.5609855267969341 -0.6087614290087147 0.5609855267969345
  outer loop
    vertex 287.33452377915603 18.9142135623731 52.33452377915607
    vertex 284.28135178301824 18.500000000000007 54.938206032510664
    vertex 287.10977890776445 18.500000000000007 52.10977890776448
  endloop
endfacet
facet normal 0.5609855267969341 -0.6087614290087147 0.5609855267969345
  outer loop
    vertex 284.28135178301824 18.500000000000007 54.938206032510664
    vertex 287.33452377915603 18.9142135623731 52.33452377915607
    vertex 284.5060966544098 18.9142135623731 55.16295090390226
  endloop
endfacet
facet normal 0.0 0.0 1.0
  outer loop
    vertex 296.11269837220806 0.0 61.1126983722081
    vertex 291.11269837220806 30.0 61.1126983722081
    vertex 291.11269837220806 0.0 61.1126983722081
  endloop
endfacet
facet normal 0.0 0.0 1.0
  outer loop
    vertex 291.11269837220806 30.0 61.1126983722081
    vertex 296.11269837220806 0.0 61.1126983722081
    vertex 296.11269837220806 30.0 61.1126983722081
  endloop
endfacet
facet normal 0.0 0.0 1.0
  outer loop
    vertex 296.11269837220806 30.0 61.1126983722081
    vertex 296.11269837220806 0.0 61.1126983722081
    vertex 296.11269837220806 5.0 61.1126983722081
  endloop
endfacet
facet normal -0.4304593345768838 0.7933533402912338 -0.4304593345768773
  outer loop
    vertex 270.6568542494924 15.767949192431134 41.31370849898478
    vertex 273.77817459305203 16.085786437626915 38.778174593052015
    vertex 273.4852813742386 15.767949192431134 38.48528137423857
  endloop
endfacet
facet normal -0.4304593345768838 0.7933533402912338 -0.4304593345768773
  outer loop
    vertex 273.77817459305203 16.085786437626915 38.778174593052015
    vertex 270.6568542494924 15.767949192431134 41.31370849898478
    vertex 270.9497474683059 16.085786437626915 41.60660171779823
  endloop
endfacet
facet normal 0.6532814824381774 -0.38268343236512586 0.653281482438178
  outer loop
    vertex 286.96849837537155 18.017638090205043 51.96849837537163
    vertex 284.28135178301824 18.500000000000007 54.938206032510664
    vertex 284.14007125062534 18.017638090205043 54.796925500117815
  endloop
endfacet
facet normal 0.6532814824381774 -0.38268343236512586 0.653281482438178
  outer loop
    vertex 284.28135178301824 18.500000000000007 54.938206032510664
    vertex 286.96849837537155 18.017638090205043 51.96849837537163
    vertex 287.10977890776445 18.500000000000007 52.10977890776448
  endloop
endfacet
facet normal 0.270598050073109 -0.9238795325112819 0.27059805007310483
  outer loop
    vertex 272.41214918926755 19.43185165257813 37.412149189267595
    vertex 269.2426406871193 19.232050807568868 39.8994949366117
    vertex 272.0710678118655 19.232050807568868 37.07106781186549
  endloop
endfacet
facet normal 0.270598050073109 -0.9238795325112819 0.27059805007310483
  outer loop
    vertex 269.2426406871193 19.232050807568868 39.8994949366117
    vertex 272.41214918926755 19.43185165257813 37.412149189267595
    vertex 269.5837220645214 19.43185165257813 40.24057631401381
  endloop
endfacet
facet normal 0.7010573846499795 -0.1305261922200317 0.7010573846499801
  outer loop
    vertex 286.9203102167829 17.5 51.92031021678297
    vertex 284.14007125062534 18.017638090205043 54.796925500117815
    vertex 284.0918830920367 17.5 54.74873734152916
  endloop
endfacet
facet normal 0.7010573846499795 -0.1305261922200317 0.7010573846499801
  outer loop
    vertex 284.14007125062534 18.017638090205043 54.796925500117815
    vertex 286.9203102167829 17.5 51.92031021678297
    vertex 286.96849837537155 18.017638090205043 51.96849837537163
  endloop
endfacet
facet normal 0.7010573846499795 0.1305261922200317 0.7010573846499801
  outer loop
    vertex 284.14007125062534 16.98236190979496 54.796925500117815
    vertex 286.9203102167829 17.5 51.92031021678297
    vertex 284.0918830920367 17.5 54.74873734152916
  endloop
endfacet
facet normal 0.7010573846499795 0.1305261922200317 0.7010573846499801
  outer loop
    vertex 286.9203102167829 17.5 51.92031021678297
    vertex 284.14007125062534 16.98236190979496 54.796925500117815
    vertex 286.96849837537155 16.98236190979496 51.96849837537163
  endloop
endfacet
facet normal -0.270598050073109 -0.9238795325112819 -0.27059805007310483
  outer loop
    vertex 273.4852813742386 19.232050807568868 38.48528137423857
    vertex 270.3157728720903 19.43185165257813 40.972627121582676
    vertex 273.14419999683645 19.43185165257813 38.14419999683646
  endloop
endfacet
facet normal -0.270598050073109 -0.9238795325112819 -0.27059805007310483
  outer loop
    vertex 270.3157728720903 19.43185165257813 40.972627121582676
    vertex 273.4852813742386 19.232050807568868 38.48528137423857
    vertex 270.6568542494924 19.232050807568868 41.31370849898478
  endloop
endfacet
facet normal 0.6532814824381769 0.3826834323651278 0.6532814824381775
  outer loop
    vertex 284.28135178301824 16.5 54.938206032510664
    vertex 286.96849837537155 16.98236190979496 51.96849837537163
    vertex 284.14007125062534 16.98236190979496 54.796925500117815
  endloop
endfacet
facet normal 0.6532814824381769 0.3826834323651278 0.6532814824381775
  outer loop
    vertex 286.96849837537155 16.98236190979496 51.96849837537163
    vertex 284.28135178301824 16.5 54.938206032510664
    vertex 287.10977890776445 16.5 52.10977890776448
  endloop
endfacet
facet normal -0.5609855267969424 0.6087614290087076 -0.5609855267969338
  outer loop
    vertex 270.9497474683059 16.085786437626915 41.60660171779823
    vertex 274.0029194644436 16.500000000000007 39.0029194644436
    vertex 273.77817459305203 16.085786437626915 38.778174593052015
  endloop
endfacet
facet normal -0.5609855267969424 0.6087614290087076 -0.5609855267969338
  outer loop
    vertex 274.0029194644436 16.500000000000007 39.0029194644436
    vertex 270.9497474683059 16.085786437626915 41.60660171779823
    vertex 271.17449233969745 16.500000000000007 41.83134658918981
  endloop
endfacet
facet normal 0.5609855267969353 0.608761429008712 0.5609855267969361
  outer loop
    vertex 284.28135178301824 16.5 54.938206032510664
    vertex 287.33452377915603 16.085786437626904 52.33452377915607
    vertex 287.10977890776445 16.5 52.10977890776448
  endloop
endfacet
facet normal 0.5609855267969353 0.608761429008712 0.5609855267969361
  outer loop
    vertex 287.33452377915603 16.085786437626904 52.33452377915607
    vertex 284.28135178301824 16.5 54.938206032510664
    vertex 284.5060966544098 16.085786437626904 55.16295090390226
  endloop
endfacet
facet normal 0.5609855267969424 -0.6087614290087076 0.5609855267969338
  outer loop
    vertex 271.77817459305203 18.91421356237309 36.77817459305204
    vertex 268.7250025969143 18.499999999999996 39.38185684640667
    vertex 271.55342972166045 18.499999999999996 36.55342972166046
  endloop
endfacet
facet normal 0.5609855267969424 -0.6087614290087076 0.5609855267969338
  outer loop
    vertex 268.7250025969143 18.499999999999996 39.38185684640667
    vertex 271.77817459305203 18.91421356237309 36.77817459305204
    vertex 268.9497474683059 18.91421356237309 39.606601717798256
  endloop
endfacet
facet normal 0.6532814824381815 0.38268343236512964 0.6532814824381716
  outer loop
    vertex 271.41214918926755 16.982361909794964 36.4121491892676
    vertex 268.7250025969143 16.50000000000001 39.38185684640667
    vertex 271.55342972166045 16.50000000000001 36.55342972166046
  endloop
endfacet
facet normal 0.6532814824381815 0.38268343236512964 0.6532814824381716
  outer loop
    vertex 268.7250025969143 16.50000000000001 39.38185684640667
    vertex 271.41214918926755 16.982361909794964 36.4121491892676
    vertex 268.5837220645214 16.982361909794964 39.24057631401382
  endloop
endfacet
facet normal 0.701057384649985 0.13052619222003312 0.7010573846499744
  outer loop
    vertex 271.3639610306789 17.5 36.36396103067895
    vertex 268.5837220645214 16.982361909794964 39.24057631401382
    vertex 271.41214918926755 16.982361909794964 36.4121491892676
  endloop
endfacet
facet normal 0.701057384649985 0.13052619222003312 0.7010573846499744
  outer loop
    vertex 268.5837220645214 16.982361909794964 39.24057631401382
    vertex 271.3639610306789 17.5 36.36396103067895
    vertex 268.53553390593277 17.5 39.192388155425164
  endloop
endfacet
facet normal 0.4304593345768827 0.7933533402912313 0.43045933457688346
  outer loop
    vertex 284.5060966544098 16.085786437626904 55.16295090390226
    vertex 287.6274169979695 15.767949192431121 52.62741699796952
    vertex 287.33452377915603 16.085786437626904 52.33452377915607
  endloop
endfacet
facet normal 0.4304593345768827 0.7933533402912313 0.43045933457688346
  outer loop
    vertex 287.6274169979695 15.767949192431121 52.62741699796952
    vertex 284.5060966544098 16.085786437626904 55.16295090390226
    vertex 284.79898987322326 15.767949192431121 55.45584412271571
  endloop
endfacet
facet normal 0.5609855267969438 0.608761429008705 0.5609855267969353
  outer loop
    vertex 268.7250025969143 16.50000000000001 39.38185684640667
    vertex 271.77817459305203 16.085786437626915 36.77817459305204
    vertex 271.55342972166045 16.50000000000001 36.55342972166046
  endloop
endfacet
facet normal 0.5609855267969438 0.608761429008705 0.5609855267969353
  outer loop
    vertex 271.77817459305203 16.085786437626915 36.77817459305204
    vertex 268.7250025969143 16.50000000000001 39.38185684640667
    vertex 268.9497474683059 16.085786437626915 39.606601717798256
  endloop
endfacet
facet normal 0.2705980500731066 0.9238795325112819 0.2705980500731073
  outer loop
    vertex 284.79898987322326 15.767949192431121 55.45584412271571
    vertex 287.96849837537155 15.568148347421861 52.968498375371624
    vertex 287.6274169979695 15.767949192431121 52.62741699796952
  endloop
endfacet
facet normal 0.2705980500731066 0.9238795325112819 0.2705980500731073
  outer loop
    vertex 287.96849837537155 15.568148347421861 52.968498375371624
    vertex 284.79898987322326 15.767949192431121 55.45584412271571
    vertex 285.14007125062534 15.568148347421861 55.79692550011781
  endloop
endfacet
facet normal 0.4304593345768838 -0.7933533402912338 0.4304593345768773
  outer loop
    vertex 272.0710678118655 19.232050807568868 37.07106781186549
    vertex 268.9497474683059 18.91421356237309 39.606601717798256
    vertex 271.77817459305203 18.91421356237309 36.77817459305204
  endloop
endfacet
facet normal 0.4304593345768838 -0.7933533402912338 0.4304593345768773
  outer loop
    vertex 268.9497474683059 18.91421356237309 39.606601717798256
    vertex 272.0710678118655 19.232050807568868 37.07106781186549
    vertex 269.2426406871193 19.232050807568868 39.8994949366117
  endloop
endfacet
facet normal 0.09229595564125395 0.9914448613738109 0.09229595564125448
  outer loop
    vertex 285.14007125062534 15.568148347421861 55.79692550011781
    vertex 288.33452377915603 15.499999999999996 53.33452377915607
    vertex 287.96849837537155 15.568148347421861 52.968498375371624
  endloop
endfacet
facet normal 0.09229595564125395 0.9914448613738109 0.09229595564125448
  outer loop
    vertex 288.33452377915603 15.499999999999996 53.33452377915607
    vertex 285.14007125062534 15.568148347421861 55.79692550011781
    vertex 285.5060966544098 15.499999999999996 56.16295090390226
  endloop
endfacet
facet normal 0.0 1.0 0.0
  outer loop
    vertex 264.99999999999994 30.0 35.0
    vertex 264.99999999999994 30.0 30.0
    vertex 260.0 30.0 30.0
  endloop
endfacet
facet normal 0.0 1.0 0.0
  outer loop
    vertex 264.99999999999994 30.0 30.0
    vertex 264.99999999999994 30.0 35.0
    vertex 296.11269837220806 30.0 61.1126983722081
  endloop
endfacet
facet normal 0.0 1.0 0.0
  outer loop
    vertex 296.11269837220806 30.0 61.1126983722081
    vertex 264.99999999999994 30.0 35.0
    vertex 279.7989898732233 30.0 49.798989873223334
  endloop
endfacet
facet normal 0.0 1.0 0.0
  outer loop
    vertex 296.11269837220806 30.0 61.1126983722081
    vertex 279.7989898732233 30.0 49.798989873223334
    vertex 291.11269837220806 30.0 61.1126983722081
  endloop
endfacet
facet normal -0.09229595564125578 0.9914448613738107 -0.09229595564125542
  outer loop
    vertex 285.5060966544098 15.499999999999996 56.16295090390226
    vertex 288.70054918294045 15.568148347421861 53.700549182940506
    vertex 288.33452377915603 15.499999999999996 53.33452377915607
  endloop
endfacet
facet normal -0.09229595564125578 0.9914448613738107 -0.09229595564125542
  outer loop
    vertex 288.70054918294045 15.568148347421861 53.700549182940506
    vertex 285.5060966544098 15.499999999999996 56.16295090390226
    vertex 285.87212205819424 15.568148347421861 56.52897630768669
  endloop
endfacet
facet normal -0.4304593345768838 -0.7933533402912338 -0.4304593345768773
  outer loop
    vertex 273.77817459305203 18.91421356237309 38.778174593052015
    vertex 270.6568542494924 19.232050807568868 41.31370849898478
    vertex 273.4852813742386 19.232050807568868 38.48528137423857
  endloop
endfacet
facet normal -0.4304593345768838 -0.7933533402912338 -0.4304593345768773
  outer loop
    vertex 270.6568542494924 19.232050807568868 41.31370849898478
    vertex 273.77817459305203 18.91421356237309 38.778174593052015
    vertex 270.9497474683059 18.91421356237309 41.60660171779823
  endloop
endfacet
facet normal -0.2705980500731032 0.9238795325112842 -0.27059805007310306
  outer loop
    vertex 285.87212205819424 15.568148347421861 56.52897630768669
    vertex 289.0416305603425 15.767949192431121 54.04163056034262
    vertex 288.70054918294045 15.568148347421861 53.700549182940506
  endloop
endfacet
facet normal -0.2705980500731032 0.9238795325112842 -0.27059805007310306
  outer loop
    vertex 289.0416305603425 15.767949192431121 54.04163056034262
    vertex 285.87212205819424 15.568148347421861 56.52897630768669
    vertex 286.21320343559637 15.767949192431121 56.87005768508881
  endloop
endfacet
facet normal -0.6532814824381815 0.38268343236512964 -0.6532814824381716
  outer loop
    vertex 271.3157728720903 16.98236190979496 41.97262712158266
    vertex 274.0029194644436 16.500000000000007 39.0029194644436
    vertex 271.17449233969745 16.500000000000007 41.83134658918981
  endloop
endfacet
facet normal -0.6532814824381815 0.38268343236512964 -0.6532814824381716
  outer loop
    vertex 274.0029194644436 16.500000000000007 39.0029194644436
    vertex 271.3157728720903 16.98236190979496 41.97262712158266
    vertex 274.14419999683645 16.98236190979496 39.14419999683645
  endloop
endfacet
facet normal -0.430459334576883 0.7933533402912313 -0.4304593345768831
  outer loop
    vertex 286.21320343559637 15.767949192431121 56.87005768508881
    vertex 289.334523779156 16.085786437626904 54.33452377915607
    vertex 289.0416305603425 15.767949192431121 54.04163056034262
  endloop
endfacet
facet normal -0.430459334576883 0.7933533402912313 -0.4304593345768831
  outer loop
    vertex 289.334523779156 16.085786437626904 54.33452377915607
    vertex 286.21320343559637 15.767949192431121 56.87005768508881
    vertex 286.5060966544098 16.085786437626904 57.16295090390226
  endloop
endfacet
facet normal -0.5609855267969341 0.6087614290087147 -0.5609855267969345
  outer loop
    vertex 286.5060966544098 16.085786437626904 57.16295090390226
    vertex 289.55926865054755 16.499999999999996 54.559268650547665
    vertex 289.334523779156 16.085786437626904 54.33452377915607
  endloop
endfacet
facet normal -0.5609855267969341 0.6087614290087147 -0.5609855267969345
  outer loop
    vertex 289.55926865054755 16.499999999999996 54.559268650547665
    vertex 286.5060966544098 16.085786437626904 57.16295090390226
    vertex 286.7308415258014 16.499999999999996 57.38769577529385
  endloop
endfacet
facet normal -0.653281482438177 0.3826834323651278 -0.6532814824381774
  outer loop
    vertex 286.87212205819424 16.982361909794957 57.528976307686705
    vertex 289.55926865054755 16.499999999999996 54.559268650547665
    vertex 286.7308415258014 16.499999999999996 57.38769577529385
  endloop
endfacet
facet normal -0.653281482438177 0.3826834323651278 -0.6532814824381774
  outer loop
    vertex 289.55926865054755 16.499999999999996 54.559268650547665
    vertex 286.87212205819424 16.982361909794957 57.528976307686705
    vertex 289.70054918294045 16.982361909794957 54.70054918294051
  endloop
endfacet
facet normal -0.7010573846499795 0.130526192220031 -0.7010573846499802
  outer loop
    vertex 286.9203102167829 17.5 57.577164466275356
    vertex 289.70054918294045 16.982361909794957 54.70054918294051
    vertex 286.87212205819424 16.982361909794957 57.528976307686705
  endloop
endfacet
facet normal -0.7010573846499795 0.130526192220031 -0.7010573846499802
  outer loop
    vertex 289.70054918294045 16.982361909794957 54.70054918294051
    vertex 286.9203102167829 17.5 57.577164466275356
    vertex 289.7487373415291 17.5 54.74873734152917
  endloop
endfacet
facet normal -0.701057384649985 0.13052619222003242 -0.7010573846499744
  outer loop
    vertex 271.363961030679 17.5 42.02081528017132
    vertex 274.14419999683645 16.98236190979496 39.14419999683645
    vertex 271.3157728720903 16.98236190979496 41.97262712158266
  endloop
endfacet
facet normal -0.701057384649985 0.13052619222003242 -0.7010573846499744
  outer loop
    vertex 274.14419999683645 16.98236190979496 39.14419999683645
    vertex 271.363961030679 17.5 42.02081528017132
    vertex 274.1923881554251 17.5 39.1923881554251
  endloop
endfacet
facet normal -0.6532814824381815 -0.38268343236512964 -0.6532814824381716
  outer loop
    vertex 271.17449233969745 18.499999999999996 41.83134658918981
    vertex 274.14419999683645 18.017638090205043 39.14419999683645
    vertex 271.3157728720903 18.017638090205043 41.97262712158266
  endloop
endfacet
facet normal -0.6532814824381815 -0.38268343236512964 -0.6532814824381716
  outer loop
    vertex 274.14419999683645 18.017638090205043 39.14419999683645
    vertex 271.17449233969745 18.499999999999996 41.83134658918981
    vertex 274.0029194644436 18.499999999999996 39.0029194644436
  endloop
endfacet
facet normal -0.701057384649985 -0.13052619222003242 -0.7010573846499744
  outer loop
    vertex 271.3157728720903 18.017638090205043 41.97262712158266
    vertex 274.1923881554251 17.5 39.1923881554251
    vertex 271.363961030679 17.5 42.02081528017132
  endloop
endfacet
facet normal -0.701057384649985 -0.13052619222003242 -0.7010573846499744
  outer loop
    vertex 274.1923881554251 17.5 39.1923881554251
    vertex 271.3157728720903 18.017638090205043 41.97262712158266
    vertex 274.14419999683645 18.017638090205043 39.14419999683645
  endloop
endfacet
facet normal -0.5609855267969424 -0.6087614290087076 -0.5609855267969338
  outer loop
    vertex 274.0029194644436 18.499999999999996 39.0029194644436
    vertex 270.9497474683059 18.91421356237309 41.60660171779823
    vertex 273.77817459305203 18.91421356237309 38.778174593052015
  endloop
endfacet
facet normal -0.5609855267969424 -0.6087614290087076 -0.5609855267969338
  outer loop
    vertex 270.9497474683059 18.91421356237309 41.60660171779823
    vertex 274.0029194644436 18.499999999999996 39.0029194644436
    vertex 271.17449233969745 18.499999999999996 41.83134658918981
  endloop
endfacet
facet normal -0.7010573846499795 -0.1305261922200317 -0.7010573846499801
  outer loop
    vertex 289.70054918294045 18.017638090205043 54.70054918294051
    vertex 286.9203102167829 17.5 57.577164466275356
    vertex 286.87212205819424 18.017638090205043 57.528976307686705
  endloop
endfacet
facet normal -0.7010573846499795 -0.1305261922200317 -0.7010573846499801
  outer loop
    vertex 286.9203102167829 17.5 57.577164466275356
    vertex 289.70054918294045 18.017638090205043 54.70054918294051
    vertex 289.7487373415291 17.5 54.74873734152917
  endloop
endfacet
facet normal 0.701057384649985 -0.13052619222003242 0.7010573846499744
  outer loop
    vertex 271.41214918926755 18.017638090205043 36.4121491892676
    vertex 268.53553390593277 17.5 39.192388155425164
    vertex 271.3639610306789 17.5 36.36396103067895
  endloop
endfacet
facet normal 0.701057384649985 -0.13052619222003242 0.7010573846499744
  outer loop
    vertex 268.53553390593277 17.5 39.192388155425164
    vertex 271.41214918926755 18.017638090205043 36.4121491892676
    vertex 268.5837220645214 18.017638090205043 39.24057631401382
  endloop
endfacet
facet normal 0.7071067811865479 3.1325286722402474e-16 -0.7071067811865472
  outer loop
    vertex 285.14007125062534 15.568148347421861 55.79692550011781
    vertex 285.87212205819424 15.568148347421861 56.52897630768669
    vertex 285.5060966544098 15.499999999999996 56.16295090390226
  endloop
endfacet
facet normal 0.7071067811865479 3.1325286722402474e-16 -0.7071067811865472
  outer loop
    vertex 285.87212205819424 15.568148347421861 56.52897630768669
    vertex 285.14007125062534 15.568148347421861 55.79692550011781
    vertex 284.79898987322326 15.767949192431121 55.45584412271571
  endloop
endfacet
facet normal 0.7071067811865479 3.1325286722402474e-16 -0.7071067811865472
  outer loop
    vertex 285.87212205819424 15.568148347421861 56.52897630768669
    vertex 284.79898987322326 15.767949192431121 55.45584412271571
    vertex 286.21320343559637 15.767949192431121 56.87005768508881
  endloop
endfacet
facet normal 0.7071067811865479 3.1325286722402474e-16 -0.7071067811865472
  outer loop
    vertex 286.21320343559637 15.767949192431121 56.87005768508881
    vertex 284.79898987322326 15.767949192431121 55.45584412271571
    vertex 284.5060966544098 16.085786437626904 55.16295090390226
  endloop
endfacet
facet normal 0.7071067811865479 3.1325286722402474e-16 -0.7071067811865472
  outer loop
    vertex 286.21320343559637 15.767949192431121 56.87005768508881
    vertex 284.5060966544098 16.085786437626904 55.16295090390226
    vertex 286.5060966544098 16.085786437626904 57.16295090390226
  endloop
endfacet
facet normal 0.7071067811865479 3.1325286722402474e-16 -0.7071067811865472
  outer loop
    vertex 286.5060966544098 16.085786437626904 57.16295090390226
    vertex 284.5060966544098 16.085786437626904 55.16295090390226
    vertex 284.28135178301824 16.5 54.938206032510664
  endloop
endfacet
facet normal 0.7071067811865479 3.1325286722402474e-16 -0.7071067811865472
  outer loop
    vertex 286.5060966544098 16.085786437626904 57.16295090390226
    vertex 284.28135178301824 16.5 54.938206032510664
    vertex 286.7308415258014 16.499999999999996 57.38769577529385
  endloop
endfacet
facet normal 0.7071067811865479 3.1325286722402474e-16 -0.7071067811865472
  outer loop
    vertex 286.7308415258014 16.499999999999996 57.38769577529385
    vertex 284.28135178301824 16.5 54.938206032510664
    vertex 286.87212205819424 16.982361909794957 57.528976307686705
  endloop
endfacet
facet normal 0.7071067811865479 3.1325286722402474e-16 -0.7071067811865472
  outer loop
    vertex 286.87212205819424 16.982361909794957 57.528976307686705
    vertex 284.28135178301824 16.5 54.938206032510664
    vertex 284.14007125062534 16.98236190979496 54.796925500117815
  endloop
endfacet
facet normal 0.7071067811865479 3.1325286722402474e-16 -0.7071067811865472
  outer loop
    vertex 286.87212205819424 16.982361909794957 57.528976307686705
    vertex 284.14007125062534 16.98236190979496 54.796925500117815
    vertex 286.9203102167829 17.5 57.577164466275356
  endloop
endfacet
facet normal 0.7071067811865479 3.1325286722402474e-16 -0.7071067811865472
  outer loop
    vertex 286.9203102167829 17.5 57.577164466275356
    vertex 284.14007125062534 16.98236190979496 54.796925500117815
    vertex 284.0918830920367 17.5 54.74873734152916
  endloop
endfacet
facet normal 0.7071067811865479 3.1325286722402474e-16 -0.7071067811865472
  outer loop
    vertex 286.9203102167829 17.5 57.577164466275356
    vertex 284.0918830920367 17.5 54.74873734152916
    vertex 284.14007125062534 18.017638090205043 54.796925500117815
  endloop
endfacet
facet normal 0.7071067811865479 3.1325286722402474e-16 -0.7071067811865472
  outer loop
    vertex 286.9203102167829 17.5 57.577164466275356
    vertex 284.14007125062534 18.017638090205043 54.796925500117815
    vertex 286.87212205819424 18.017638090205043 57.528976307686705
  endloop
endfacet
facet normal 0.7071067811865479 3.1325286722402474e-16 -0.7071067811865472
  outer loop
    vertex 286.87212205819424 18.017638090205043 57.528976307686705
    vertex 284.14007125062534 18.017638090205043 54.796925500117815
    vertex 284.28135178301824 18.500000000000007 54.938206032510664
  endloop
endfacet
facet normal 0.7071067811865479 3.1325286722402474e-16 -0.7071067811865472
  outer loop
    vertex 286.87212205819424 18.017638090205043 57.528976307686705
    vertex 284.28135178301824 18.500000000000007 54.938206032510664
    vertex 286.7308415258014 18.500000000000004 57.38769577529385
  endloop
endfacet
facet normal 0.7071067811865479 3.1325286722402474e-16 -0.7071067811865472
  outer loop
    vertex 286.7308415258014 18.500000000000004 57.38769577529385
    vertex 284.28135178301824 18.500000000000007 54.938206032510664
    vertex 286.5060966544098 18.9142135623731 57.16295090390226
  endloop
endfacet
facet normal 0.7071067811865479 3.1325286722402474e-16 -0.7071067811865472
  outer loop
    vertex 286.5060966544098 18.9142135623731 57.16295090390226
    vertex 284.28135178301824 18.500000000000007 54.938206032510664
    vertex 284.5060966544098 18.9142135623731 55.16295090390226
  endloop
endfacet
facet normal 0.7071067811865479 3.1325286722402474e-16 -0.7071067811865472
  outer loop
    vertex 286.5060966544098 18.9142135623731 57.16295090390226
    vertex 284.5060966544098 18.9142135623731 55.16295090390226
    vertex 284.79898987322326 19.232050807568882 55.45584412271571
  endloop
endfacet
facet normal 0.7071067811865479 3.1325286722402474e-16 -0.7071067811865472
  outer loop
    vertex 286.5060966544098 18.9142135623731 57.16295090390226
    vertex 284.79898987322326 19.232050807568882 55.45584412271571
    vertex 286.21320343559637 19.232050807568882 56.87005768508881
  endloop
endfacet
facet normal 0.7071067811865479 3.1325286722402474e-16 -0.7071067811865472
  outer loop
    vertex 286.21320343559637 19.232050807568882 56.87005768508881
    vertex 284.79898987322326 19.232050807568882 55.45584412271571
    vertex 285.14007125062534 19.431851652578143 55.79692550011782
  endloop
endfacet
facet normal 0.7071067811865479 3.1325286722402474e-16 -0.7071067811865472
  outer loop
    vertex 286.21320343559637 19.232050807568882 56.87005768508881
    vertex 285.14007125062534 19.431851652578143 55.79692550011782
    vertex 285.87212205819424 19.431851652578143 56.52897630768669
  endloop
endfacet
facet normal 0.7071067811865479 3.1325286722402474e-16 -0.7071067811865472
  outer loop
    vertex 285.87212205819424 19.431851652578143 56.52897630768669
    vertex 285.14007125062534 19.431851652578143 55.79692550011782
    vertex 285.5060966544098 19.500000000000007 56.16295090390226
  endloop
endfacet
facet normal 0.7071067811865421 1.0304370632366791e-17 -0.7071067811865529
  outer loop
    vertex 268.5837220645214 18.017638090205043 39.24057631401382
    vertex 268.5837220645214 16.982361909794964 39.24057631401382
    vertex 268.53553390593277 17.5 39.192388155425164
  endloop
endfacet
facet normal 0.7071067811865421 1.0304370632366791e-17 -0.7071067811865529
  outer loop
    vertex 268.5837220645214 16.982361909794964 39.24057631401382
    vertex 268.5837220645214 18.017638090205043 39.24057631401382
    vertex 268.7250025969143 18.499999999999996 39.38185684640667
  endloop
endfacet
facet normal 0.7071067811865421 1.0304370632366791e-17 -0.7071067811865529
  outer loop
    vertex 268.5837220645214 16.982361909794964 39.24057631401382
    vertex 268.7250025969143 18.499999999999996 39.38185684640667
    vertex 268.7250025969143 16.50000000000001 39.38185684640667
  endloop
endfacet
facet normal 0.7071067811865421 1.0304370632366791e-17 -0.7071067811865529
  outer loop
    vertex 268.7250025969143 16.50000000000001 39.38185684640667
    vertex 268.7250025969143 18.499999999999996 39.38185684640667
    vertex 268.9497474683059 18.91421356237309 39.606601717798256
  endloop
endfacet
facet normal 0.7071067811865421 1.0304370632366791e-17 -0.7071067811865529
  outer loop
    vertex 268.7250025969143 16.50000000000001 39.38185684640667
    vertex 268.9497474683059 18.91421356237309 39.606601717798256
    vertex 268.9497474683059 16.085786437626915 39.606601717798256
  endloop
endfacet
facet normal 0.7071067811865421 1.0304370632366791e-17 -0.7071067811865529
  outer loop
    vertex 268.9497474683059 16.085786437626915 39.606601717798256
    vertex 268.9497474683059 18.91421356237309 39.606601717798256
    vertex 269.2426406871193 19.232050807568868 39.8994949366117
  endloop
endfacet
facet normal 0.7071067811865421 1.0304370632366791e-17 -0.7071067811865529
  outer loop
    vertex 268.9497474683059 16.085786437626915 39.606601717798256
    vertex 269.2426406871193 19.232050807568868 39.8994949366117
    vertex 269.2426406871193 15.767949192431134 39.8994949366117
  endloop
endfacet
facet normal 0.7071067811865421 1.0304370632366791e-17 -0.7071067811865529
  outer loop
    vertex 269.2426406871193 15.767949192431134 39.8994949366117
    vertex 269.2426406871193 19.232050807568868 39.8994949366117
    vertex 269.5837220645214 19.43185165257813 40.24057631401381
  endloop
endfacet
facet normal 0.7071067811865421 1.0304370632366791e-17 -0.7071067811865529
  outer loop
    vertex 269.2426406871193 15.767949192431134 39.8994949366117
    vertex 269.5837220645214 19.43185165257813 40.24057631401381
    vertex 269.5837220645214 15.568148347421877 40.24057631401381
  endloop
endfacet
facet normal 0.7071067811865421 1.0304370632366791e-17 -0.7071067811865529
  outer loop
    vertex 269.5837220645214 15.568148347421877 40.24057631401381
    vertex 269.5837220645214 19.43185165257813 40.24057631401381
    vertex 269.9497474683059 19.49999999999999 40.60660171779824
  endloop
endfacet
facet normal 0.7071067811865421 1.0304370632366791e-17 -0.7071067811865529
  outer loop
    vertex 269.5837220645214 15.568148347421877 40.24057631401381
    vertex 269.9497474683059 19.49999999999999 40.60660171779824
    vertex 269.9497474683059 15.500000000000014 40.60660171779824
  endloop
endfacet
facet normal 0.7071067811865421 1.0304370632366791e-17 -0.7071067811865529
  outer loop
    vertex 269.9497474683059 15.500000000000014 40.60660171779824
    vertex 269.9497474683059 19.49999999999999 40.60660171779824
    vertex 270.3157728720903 19.43185165257813 40.972627121582676
  endloop
endfacet
facet normal 0.7071067811865421 1.0304370632366791e-17 -0.7071067811865529
  outer loop
    vertex 269.9497474683059 15.500000000000014 40.60660171779824
    vertex 270.3157728720903 19.43185165257813 40.972627121582676
    vertex 270.3157728720903 15.568148347421875 40.972627121582676
  endloop
endfacet
facet normal 0.7071067811865421 1.0304370632366791e-17 -0.7071067811865529
  outer loop
    vertex 270.3157728720903 15.568148347421875 40.972627121582676
    vertex 270.3157728720903 19.43185165257813 40.972627121582676
    vertex 270.6568542494924 19.232050807568868 41.31370849898478
  endloop
endfacet
facet normal 0.7071067811865421 1.0304370632366791e-17 -0.7071067811865529
  outer loop
    vertex 270.3157728720903 15.568148347421875 40.972627121582676
    vertex 270.6568542494924 19.232050807568868 41.31370849898478
    vertex 270.6568542494924 15.767949192431134 41.31370849898478
  endloop
endfacet
facet normal 0.7071067811865421 1.0304370632366791e-17 -0.7071067811865529
  outer loop
    vertex 270.6568542494924 15.767949192431134 41.31370849898478
    vertex 270.6568542494924 19.232050807568868 41.31370849898478
    vertex 270.9497474683059 18.91421356237309 41.60660171779823
  endloop
endfacet
facet normal 0.7071067811865421 1.0304370632366791e-17 -0.7071067811865529
  outer loop
    vertex 270.6568542494924 15.767949192431134 41.31370849898478
    vertex 270.9497474683059 18.91421356237309 41.60660171779823
    vertex 270.9497474683059 16.085786437626915 41.60660171779823
  endloop
endfacet
facet normal 0.7071067811865421 1.0304370632366791e-17 -0.7071067811865529
  outer loop
    vertex 270.9497474683059 16.085786437626915 41.60660171779823
    vertex 270.9497474683059 18.91421356237309 41.60660171779823
    vertex 271.17449233969745 18.499999999999996 41.83134658918981
  endloop
endfacet
facet normal 0.7071067811865421 1.0304370632366791e-17 -0.7071067811865529
  outer loop
    vertex 270.9497474683059 16.085786437626915 41.60660171779823
    vertex 271.17449233969745 18.499999999999996 41.83134658918981
    vertex 271.17449233969745 16.500000000000007 41.83134658918981
  endloop
endfacet
facet normal 0.7071067811865421 1.0304370632366791e-17 -0.7071067811865529
  outer loop
    vertex 271.17449233969745 16.500000000000007 41.83134658918981
    vertex 271.17449233969745 18.499999999999996 41.83134658918981
    vertex 271.3157728720903 18.017638090205043 41.97262712158266
  endloop
endfacet
facet normal 0.7071067811865421 1.0304370632366791e-17 -0.7071067811865529
  outer loop
    vertex 271.17449233969745 16.500000000000007 41.83134658918981
    vertex 271.3157728720903 18.017638090205043 41.97262712158266
    vertex 271.3157728720903 16.98236190979496 41.97262712158266
  endloop
endfacet
facet normal 0.7071067811865421 1.0304370632366791e-17 -0.7071067811865529
  outer loop
    vertex 271.3157728720903 16.98236190979496 41.97262712158266
    vertex 271.3157728720903 18.017638090205043 41.97262712158266
    vertex 271.363961030679 17.5 42.02081528017132
  endloop
endfacet
facet normal 0.0 -1.0 0.0
  outer loop
    vertex 304.112698372208 0.0 35.0
    vertex 293.85846124933653 0.0 42.82774338516862
    vertex 269.99999999999994 0.0 35.0
  endloop
endfacet
facet normal 0.0 -1.0 0.0
  outer loop
    vertex 293.85846124933653 0.0 42.82774338516862
    vertex 304.112698372208 0.0 35.0
    vertex 294.35107904634185 0.0 43.00072053903892
  endloop
endfacet
facet normal 0.0 -1.0 0.0
  outer loop
    vertex 294.35107904634185 0.0 43.00072053903892
    vertex 304.112698372208 0.0 35.0
    vertex 294.78214151716963 0.0 43.295302507141656
  endloop
endfacet
facet normal 0.0 -1.0 0.0
  outer loop
    vertex 294.78214151716963 0.0 43.295302507141656
    vertex 304.112698372208 0.0 35.0
    vertex 295.1222724667974 0.0 43.69141401517034
  endloop
endfacet
facet normal 0.0 -1.0 0.0
  outer loop
    vertex 295.1222724667974 0.0 43.69141401517034
    vertex 304.112698372208 0.0 35.0
    vertex 304.112698372208 0.0 61.1126983722081
  endloop
endfacet
facet normal 0.0 -1.0 0.0
  outer loop
    vertex 269.99999999999994 0.0 35.0
    vertex 293.85846124933653 0.0 42.82774338516862
    vertex 293.3378592149302 0.0 42.78815915270873
  endloop
endfacet
facet normal 0.0 -1.0 0.0
  outer loop
    vertex 295.1222724667974 0.0 43.69141401517034
    vertex 304.112698372208 0.0 61.1126983722081
    vertex 295.3482925331011 0.0 44.16206071845803
  endloop
endfacet
facet normal 0.0 -1.0 0.0
  outer loop
    vertex 295.3482925331011 0.0 44.16206071845803
    vertex 304.112698372208 0.0 61.1126983722081
    vertex 295.4447988220777 0.0 44.67516882195612
  endloop
endfacet
facet normal 0.0 -1.0 0.0
  outer loop
    vertex 295.4447988220777 0.0 44.67516882195612
    vertex 304.112698372208 0.0 61.1126983722081
    vertex 295.4052145896178 0.0 45.19577085636246
  endloop
endfacet
facet normal 0.0 -1.0 0.0
  outer loop
    vertex 295.4052145896178 0.0 45.19577085636246
    vertex 304.112698372208 0.0 61.1126983722081
    vertex 295.2322374357475 0.0 45.68838865336779
  endloop
endfacet
facet normal 0.0 -1.0 0.0
  outer loop
    vertex 295.2322374357475 0.0 45.68838865336779
    vertex 304.112698372208 0.0 61.1126983722081
    vertex 294.9376554676448 0.0 46.11945112419559
  endloop
endfacet
facet normal 0.0 -1.0 0.0
  outer loop
    vertex 294.9376554676448 0.0 46.11945112419559
    vertex 304.112698372208 0.0 61.1126983722081
    vertex 294.5415439596161 0.0 46.45958207382338
  endloop
endfacet
facet normal 0.0 -1.0 0.0
  outer loop
    vertex 294.5415439596161 0.0 46.45958207382338
    vertex 304.112698372208 0.0 61.1126983722081
    vertex 294.0708972563284 0.0 46.68560214012698
  endloop
endfacet
facet normal 0.0 -1.0 0.0
  outer loop
    vertex 294.0708972563284 0.0 46.68560214012698
    vertex 304.112698372208 0.0 61.1126983722081
    vertex 293.5577891528303 0.0 46.78210842910363
  endloop
endfacet
facet normal 0.0 -1.0 0.0
  outer loop
    vertex 269.99999999999994 0.0 35.0
    vertex 291.54735583465947 0.0 45.40820686335433
    vertex 296.11269837220806 0.0 61.1126983722081
  endloop
endfacet
facet normal 0.0 -1.0 0.0
  outer loop
    vertex 291.54735583465947 0.0 45.40820686335433
    vertex 269.99999999999994 0.0 35.0
    vertex 291.45084954568284 0.0 44.89509875985623
  endloop
endfacet
facet normal 0.0 -1.0 0.0
  outer loop
    vertex 291.45084954568284 0.0 44.89509875985623
    vertex 269.99999999999994 0.0 35.0
    vertex 291.4904337781427 0.0 44.374496725449895
  endloop
endfacet
facet normal 0.0 -1.0 0.0
  outer loop
    vertex 291.4904337781427 0.0 44.374496725449895
    vertex 269.99999999999994 0.0 35.0
    vertex 291.663410932013 0.0 43.88187892844457
  endloop
endfacet
facet normal 0.0 -1.0 0.0
  outer loop
    vertex 291.663410932013 0.0 43.88187892844457
    vertex 269.99999999999994 0.0 35.0
    vertex 291.95799290011576 0.0 43.45081645761677
  endloop
endfacet
facet normal 0.0 -1.0 0.0
  outer loop
    vertex 291.95799290011576 0.0 43.45081645761677
    vertex 269.99999999999994 0.0 35.0
    vertex 292.3541044081444 0.0 43.110685507988975
  endloop
endfacet
facet normal 0.0 -1.0 0.0
  outer loop
    vertex 292.3541044081444 0.0 43.110685507988975
    vertex 269.99999999999994 0.0 35.0
    vertex 292.8247511114321 0.0 42.88466544168538
  endloop
endfacet
facet normal 0.0 -1.0 0.0
  outer loop
    vertex 292.8247511114321 0.0 42.88466544168538
    vertex 269.99999999999994 0.0 35.0
    vertex 293.3378592149302 0.0 42.78815915270873
  endloop
endfacet
facet normal 0.0 -1.0 0.0
  outer loop
    vertex 296.11269837220806 0.0 61.1126983722081
    vertex 291.54735583465947 0.0 45.40820686335433
    vertex 291.77337590096306 0.0 45.878853566642015
  endloop
endfacet
facet normal 0.0 -1.0 0.0
  outer loop
    vertex 296.11269837220806 0.0 61.1126983722081
    vertex 291.77337590096306 0.0 45.878853566642015
    vertex 292.11350685059085 0.0 46.274965074670696
  endloop
endfacet
facet normal 0.0 -1.0 0.0
  outer loop
    vertex 296.11269837220806 0.0 61.1126983722081
    vertex 292.11350685059085 0.0 46.274965074670696
    vertex 292.54456932141863 0.0 46.56954704277343
  endloop
endfacet
facet normal 0.0 -1.0 0.0
  outer loop
    vertex 296.11269837220806 0.0 61.1126983722081
    vertex 292.54456932141863 0.0 46.56954704277343
    vertex 293.03718711842396 0.0 46.74252419664374
  endloop
endfacet
facet normal 0.0 -1.0 0.0
  outer loop
    vertex 296.11269837220806 0.0 61.1126983722081
    vertex 293.03718711842396 0.0 46.74252419664374
    vertex 293.5577891528303 0.0 46.78210842910363
  endloop
endfacet
facet normal 0.0 -1.0 0.0
  outer loop
    vertex 296.11269837220806 0.0 61.1126983722081
    vertex 293.5577891528303 0.0 46.78210842910363
    vertex 304.112698372208 0.0 61.1126983722081
  endloop
endfacet
facet normal 0.6532814824381815 -0.38268343236512964 0.6532814824381716
  outer loop
    vertex 271.55342972166045 18.499999999999996 36.55342972166046
    vertex 268.5837220645214 18.017638090205043 39.24057631401382
    vertex 271.41214918926755 18.017638090205043 36.4121491892676
  endloop
endfacet
facet normal 0.6532814824381815 -0.38268343236512964 0.6532814824381716
  outer loop
    vertex 268.5837220645214 18.017638090205043 39.24057631401382
    vertex 271.55342972166045 18.499999999999996 36.55342972166046
    vertex 268.7250025969143 18.499999999999996 39.38185684640667
  endloop
endfacet
facet normal 0.3313073623926352 0.0 -0.9435228834662333
  outer loop
    vertex 293.03718711842396 5.0 46.74252419664374
    vertex 292.54456932141863 0.0 46.56954704277343
    vertex 292.54456932141863 5.0 46.56954704277343
  endloop
endfacet
facet normal 0.3313073623926352 0.0 -0.9435228834662333
  outer loop
    vertex 292.54456932141863 0.0 46.56954704277343
    vertex 293.03718711842396 5.0 46.74252419664374
    vertex 293.03718711842396 0.0 46.74252419664374
  endloop
endfacet
facet normal 0.5642200295058454 0.0 -0.8256244656648828
  outer loop
    vertex 292.54456932141863 5.0 46.56954704277343
    vertex 292.11350685059085 0.0 46.274965074670696
    vertex 292.11350685059085 5.0 46.274965074670696
  endloop
endfacet
facet normal 0.5642200295058454 0.0 -0.8256244656648828
  outer loop
    vertex 292.11350685059085 0.0 46.274965074670696
    vertex 292.54456932141863 5.0 46.56954704277343
    vertex 292.54456932141863 0.0 46.56954704277343
  endloop
endfacet
facet normal 0.7586820340259209 0.0 -0.6514611049374256
  outer loop
    vertex 291.77337590096306 5.0 45.878853566642015
    vertex 292.11350685059085 0.0 46.274965074670696
    vertex 291.77337590096306 0.0 45.878853566642015
  endloop
endfacet
facet normal 0.7586820340259209 0.0 -0.6514611049374256
  outer loop
    vertex 292.11350685059085 0.0 46.274965074670696
    vertex 291.77337590096306 5.0 45.878853566642015
    vertex 292.11350685059085 5.0 46.274965074670696
  endloop
endfacet
facet normal -0.5642200295058527 0.0 0.8256244656648777
  outer loop
    vertex 294.78214151716963 0.0 43.295302507141656
    vertex 294.35107904634185 5.0 43.00072053903892
    vertex 294.35107904634185 0.0 43.00072053903892
  endloop
endfacet
facet normal -0.5642200295058527 0.0 0.8256244656648777
  outer loop
    vertex 294.35107904634185 5.0 43.00072053903892
    vertex 294.78214151716963 0.0 43.295302507141656
    vertex 294.78214151716963 5.0 43.295302507141656
  endloop
endfacet
facet normal 0.07581664604363457 0.0 -0.9971217760046635
  outer loop
    vertex 293.5577891528303 5.0 46.78210842910363
    vertex 293.03718711842396 0.0 46.74252419664374
    vertex 293.03718711842396 5.0 46.74252419664374
  endloop
endfacet
facet normal 0.07581664604363457 0.0 -0.9971217760046635
  outer loop
    vertex 293.03718711842396 0.0 46.74252419664374
    vertex 293.5577891528303 5.0 46.78210842910363
    vertex 293.5577891528303 0.0 46.78210842910363
  endloop
endfacet
facet normal -0.1848408494403028 -0.0 -0.9827684673300152
  outer loop
    vertex 294.0708972563284 5.0 46.68560214012698
    vertex 293.5577891528303 0.0 46.78210842910363
    vertex 293.5577891528303 5.0 46.78210842910363
  endloop
endfacet
facet normal -0.1848408494403028 -0.0 -0.9827684673300152
  outer loop
    vertex 293.5577891528303 0.0 46.78210842910363
    vertex 294.0708972563284 5.0 46.68560214012698
    vertex 294.0708972563284 0.0 46.68560214012698
  endloop
endfacet
facet normal 0.9014411117085155 0.0 -0.43290174649880503
  outer loop
    vertex 291.54735583465947 5.0 45.40820686335433
    vertex 291.77337590096306 0.0 45.878853566642015
    vertex 291.54735583465947 0.0 45.40820686335433
  endloop
endfacet
facet normal 0.9014411117085155 0.0 -0.43290174649880503
  outer loop
    vertex 291.77337590096306 0.0 45.878853566642015
    vertex 291.54735583465947 5.0 45.40820686335433
    vertex 291.77337590096306 5.0 45.878853566642015
  endloop
endfacet
facet normal 0.9827684673300242 0.0 -0.1848408494402552
  outer loop
    vertex 291.45084954568284 5.0 44.89509875985623
    vertex 291.54735583465947 0.0 45.40820686335433
    vertex 291.45084954568284 0.0 44.89509875985623
  endloop
endfacet
facet normal 0.9827684673300242 0.0 -0.1848408494402552
  outer loop
    vertex 291.54735583465947 0.0 45.40820686335433
    vertex 291.45084954568284 5.0 44.89509875985623
    vertex 291.54735583465947 5.0 45.40820686335433
  endloop
endfacet
facet normal 0.9971217760046648 0.0 0.07581664604361718
  outer loop
    vertex 291.4904337781427 5.0 44.374496725449895
    vertex 291.45084954568284 0.0 44.89509875985623
    vertex 291.4904337781427 0.0 44.374496725449895
  endloop
endfacet
facet normal 0.9971217760046648 0.0 0.07581664604361718
  outer loop
    vertex 291.45084954568284 0.0 44.89509875985623
    vertex 291.4904337781427 5.0 44.374496725449895
    vertex 291.45084954568284 5.0 44.89509875985623
  endloop
endfacet
facet normal -0.9435228834662358 -0.0 -0.3313073623926279
  outer loop
    vertex 295.2322374357475 5.0 45.68838865336779
    vertex 295.4052145896178 0.0 45.19577085636246
    vertex 295.2322374357475 0.0 45.68838865336779
  endloop
endfacet
facet normal -0.9435228834662358 -0.0 -0.3313073623926279
  outer loop
    vertex 295.4052145896178 0.0 45.19577085636246
    vertex 295.2322374357475 5.0 45.68838865336779
    vertex 295.4052145896178 5.0 45.19577085636246
  endloop
endfacet
facet normal -0.9827684673300239 0.0 0.18484084944025717
  outer loop
    vertex 295.4447988220777 5.0 44.67516882195612
    vertex 295.3482925331011 0.0 44.16206071845803
    vertex 295.4447988220777 0.0 44.67516882195612
  endloop
endfacet
facet normal -0.9827684673300239 0.0 0.18484084944025717
  outer loop
    vertex 295.3482925331011 0.0 44.16206071845803
    vertex 295.4447988220777 5.0 44.67516882195612
    vertex 295.3482925331011 5.0 44.16206071845803
  endloop
endfacet
facet normal -0.997121776004665 -0.0 -0.07581664604361638
  outer loop
    vertex 295.4052145896178 5.0 45.19577085636246
    vertex 295.4447988220777 0.0 44.67516882195612
    vertex 295.4052145896178 0.0 45.19577085636246
  endloop
endfacet
facet normal -0.997121776004665 -0.0 -0.07581664604361638
  outer loop
    vertex 295.4447988220777 0.0 44.67516882195612
    vertex 295.4052145896178 5.0 45.19577085636246
    vertex 295.4447988220777 5.0 44.67516882195612
  endloop
endfacet
facet normal 0.9435228834662358 0.0 0.3313073623926279
  outer loop
    vertex 291.663410932013 5.0 43.88187892844457
    vertex 291.4904337781427 0.0 44.374496725449895
    vertex 291.663410932013 0.0 43.88187892844457
  endloop
endfacet
facet normal 0.9435228834662358 0.0 0.3313073623926279
  outer loop
    vertex 291.4904337781427 0.0 44.374496725449895
    vertex 291.663410932013 5.0 43.88187892844457
    vertex 291.4904337781427 5.0 44.374496725449895
  endloop
endfacet
facet normal 0.8256244656648893 0.0 0.5642200295058356
  outer loop
    vertex 291.95799290011576 5.0 43.45081645761677
    vertex 291.663410932013 0.0 43.88187892844457
    vertex 291.95799290011576 0.0 43.45081645761677
  endloop
endfacet
facet normal 0.8256244656648893 0.0 0.5642200295058356
  outer loop
    vertex 291.663410932013 0.0 43.88187892844457
    vertex 291.95799290011576 5.0 43.45081645761677
    vertex 291.663410932013 5.0 43.88187892844457
  endloop
endfacet
facet normal -0.7586820340259209 0.0 0.6514611049374256
  outer loop
    vertex 295.1222724667974 5.0 43.69141401517034
    vertex 294.78214151716963 0.0 43.295302507141656
    vertex 295.1222724667974 0.0 43.69141401517034
  endloop
endfacet
facet normal -0.7586820340259209 0.0 0.6514611049374256
  outer loop
    vertex 294.78214151716963 0.0 43.295302507141656
    vertex 295.1222724667974 5.0 43.69141401517034
    vertex 294.78214151716963 5.0 43.295302507141656
  endloop
endfacet
facet normal -0.8256244656648893 -0.0 -0.5642200295058356
  outer loop
    vertex 294.9376554676448 5.0 46.11945112419559
    vertex 295.2322374357475 0.0 45.68838865336779
    vertex 294.9376554676448 0.0 46.11945112419559
  endloop
endfacet
facet normal -0.8256244656648893 -0.0 -0.5642200295058356
  outer loop
    vertex 295.2322374357475 0.0 45.68838865336779
    vertex 294.9376554676448 5.0 46.11945112419559
    vertex 295.2322374357475 5.0 45.68838865336779
  endloop
endfacet
facet normal 0.651461104937406 0.0 0.7586820340259376
  outer loop
    vertex 292.3541044081444 0.0 43.110685507988975
    vertex 291.95799290011576 5.0 43.45081645761677
    vertex 291.95799290011576 0.0 43.45081645761677
  endloop
endfacet
facet normal 0.651461104937406 0.0 0.7586820340259376
  outer loop
    vertex 291.95799290011576 5.0 43.45081645761677
    vertex 292.3541044081444 0.0 43.110685507988975
    vertex 292.3541044081444 5.0 43.110685507988975
  endloop
endfacet
facet normal 0.432901746498818 0.0 0.9014411117085094
  outer loop
    vertex 292.8247511114321 0.0 42.88466544168538
    vertex 292.3541044081444 5.0 43.110685507988975
    vertex 292.3541044081444 0.0 43.110685507988975
  endloop
endfacet
facet normal 0.432901746498818 0.0 0.9014411117085094
  outer loop
    vertex 292.3541044081444 5.0 43.110685507988975
    vertex 292.8247511114321 0.0 42.88466544168538
    vertex 292.8247511114321 5.0 42.88466544168538
  endloop
endfacet
facet normal -0.33130736239262554 0.0 0.9435228834662366
  outer loop
    vertex 294.35107904634185 0.0 43.00072053903892
    vertex 293.85846124933653 5.0 42.82774338516862
    vertex 293.85846124933653 0.0 42.82774338516862
  endloop
endfacet
facet normal -0.33130736239262554 0.0 0.9435228834662366
  outer loop
    vertex 293.85846124933653 5.0 42.82774338516862
    vertex 294.35107904634185 0.0 43.00072053903892
    vertex 294.35107904634185 5.0 43.00072053903892
  endloop
endfacet
facet normal 0.1848408494403028 0.0 0.9827684673300152
  outer loop
    vertex 293.3378592149302 0.0 42.78815915270873
    vertex 292.8247511114321 5.0 42.88466544168538
    vertex 292.8247511114321 0.0 42.88466544168538
  endloop
endfacet
facet normal 0.1848408494403028 0.0 0.9827684673300152
  outer loop
    vertex 292.8247511114321 5.0 42.88466544168538
    vertex 293.3378592149302 0.0 42.78815915270873
    vertex 293.3378592149302 5.0 42.78815915270873
  endloop
endfacet
facet normal -0.9014411117085155 0.0 0.43290174649880503
  outer loop
    vertex 295.3482925331011 5.0 44.16206071845803
    vertex 295.1222724667974 0.0 43.69141401517034
    vertex 295.3482925331011 0.0 44.16206071845803
  endloop
endfacet
facet normal -0.9014411117085155 0.0 0.43290174649880503
  outer loop
    vertex 295.1222724667974 0.0 43.69141401517034
    vertex 295.3482925331011 5.0 44.16206071845803
    vertex 295.1222724667974 5.0 43.69141401517034
  endloop
endfacet
facet normal -0.651461104937406 -0.0 -0.7586820340259376
  outer loop
    vertex 294.9376554676448 5.0 46.11945112419559
    vertex 294.5415439596161 0.0 46.45958207382338
    vertex 294.5415439596161 5.0 46.45958207382338
  endloop
endfacet
facet normal -0.651461104937406 -0.0 -0.7586820340259376
  outer loop
    vertex 294.5415439596161 0.0 46.45958207382338
    vertex 294.9376554676448 5.0 46.11945112419559
    vertex 294.9376554676448 0.0 46.11945112419559
  endloop
endfacet
facet normal -0.07581664604363457 0.0 0.9971217760046635
  outer loop
    vertex 293.85846124933653 0.0 42.82774338516862
    vertex 293.3378592149302 5.0 42.78815915270873
    vertex 293.3378592149302 0.0 42.78815915270873
  endloop
endfacet
facet normal -0.07581664604363457 0.0 0.9971217760046635
  outer loop
    vertex 293.3378592149302 5.0 42.78815915270873
    vertex 293.85846124933653 0.0 42.82774338516862
    vertex 293.85846124933653 5.0 42.82774338516862
  endloop
endfacet
facet normal -0.432901746498818 -0.0 -0.9014411117085094
  outer loop
    vertex 294.5415439596161 5.0 46.45958207382338
    vertex 294.0708972563284 0.0 46.68560214012698
    vertex 294.0708972563284 5.0 46.68560214012698
  endloop
endfacet
facet normal -0.432901746498818 -0.0 -0.9014411117085094
  outer loop
    vertex 294.0708972563284 0.0 46.68560214012698
    vertex 294.5415439596161 5.0 46.45958207382338
    vertex 294.5415439596161 0.0 46.45958207382338
  endloop
endfacet
endsolid faience_pusherv2_002
