solid faience_pusherv2_002
facet normal 1.0 0.0 0.0
  outer loop
    vertex 421.2898240560281 20.000000000000004 -51.32449508074622
    vertex 421.2898240560281 -10.0 -21.324495080746217
    vertex 421.2898240560281 -10.0 -51.32449508074622
  endloop
endfacet
facet normal 1.0 0.0 0.0
  outer loop
    vertex 421.2898240560281 -10.0 -21.324495080746217
    vertex 421.2898240560281 20.000000000000004 -51.32449508074622
    vertex 421.2898240560281 5.000000000000001 -36.32449508074622
  endloop
endfacet
facet normal 1.0 0.0 0.0
  outer loop
    vertex 421.2898240560281 5.000000000000001 -36.32449508074622
    vertex 421.2898240560281 20.000000000000004 -51.32449508074622
    vertex 421.2898240560281 20.000000000000004 -36.32449508074622
  endloop
endfacet
facet normal 1.0 0.0 0.0
  outer loop
    vertex 421.2898240560281 5.000000000000001 -21.324495080746217
    vertex 421.2898240560281 -10.0 -21.324495080746217
    vertex 421.2898240560281 5.000000000000001 -36.32449508074622
  endloop
endfacet
facet normal 0.0 1.0 0.0
  outer loop
    vertex 416.28982405602807 20.000000000000004 -41.32449508074622
    vertex 421.2898240560281 20.000000000000004 -51.32449508074622
    vertex 416.28982405602807 20.000000000000004 -51.32449508074622
  endloop
endfacet
facet normal 0.0 1.0 0.0
  outer loop
    vertex 421.2898240560281 20.000000000000004 -51.32449508074622
    vertex 416.28982405602807 20.000000000000004 -41.32449508074622
    vertex 421.2898240560281 20.000000000000004 -36.32449508074622
  endloop
endfacet
facet normal 0.0 1.0 0.0
  outer loop
    vertex 421.2898240560281 20.000000000000004 -36.32449508074622
    vertex 416.28982405602807 20.000000000000004 -41.32449508074622
    vertex 396.28982405602807 20.000000000000004 -40.83876734248078
  endloop
endfacet
facet normal 0.0 1.0 0.0
  outer loop
    vertex 421.2898240560281 20.000000000000004 -36.32449508074622
    vertex 396.28982405602807 20.000000000000004 -40.83876734248078
    vertex 396.28982405602807 20.000000000000004 -36.32449508074622
  endloop
endfacet
facet normal 0.0 0.0 1.0
  outer loop
    vertex 396.28982405602807 5.000000000000001 -36.32449508074622
    vertex 404.875610493655 11.085786437626906 -36.32449508074622
    vertex 396.28982405602807 20.000000000000004 -36.32449508074622
  endloop
endfacet
facet normal 0.0 0.0 1.0
  outer loop
    vertex 404.875610493655 11.085786437626906 -36.32449508074622
    vertex 396.28982405602807 5.000000000000001 -36.32449508074622
    vertex 405.2898240560281 10.767949192431123 -36.32449508074622
  endloop
endfacet
facet normal 0.0 0.0 1.0
  outer loop
    vertex 405.2898240560281 10.767949192431123 -36.32449508074622
    vertex 396.28982405602807 5.000000000000001 -36.32449508074622
    vertex 405.7721859658231 10.568148347421866 -36.32449508074622
  endloop
endfacet
facet normal 0.0 0.0 1.0
  outer loop
    vertex 405.7721859658231 10.568148347421866 -36.32449508074622
    vertex 396.28982405602807 5.000000000000001 -36.32449508074622
    vertex 421.2898240560281 5.000000000000001 -36.32449508074622
  endloop
endfacet
facet normal 0.0 0.0 1.0
  outer loop
    vertex 396.28982405602807 20.000000000000004 -36.32449508074622
    vertex 404.875610493655 11.085786437626906 -36.32449508074622
    vertex 404.5577732484592 11.5 -36.32449508074622
  endloop
endfacet
facet normal 0.0 0.0 1.0
  outer loop
    vertex 396.28982405602807 20.000000000000004 -36.32449508074622
    vertex 404.5577732484592 11.5 -36.32449508074622
    vertex 404.35797240345 11.982361909794959 -36.32449508074622
  endloop
endfacet
facet normal 0.0 0.0 1.0
  outer loop
    vertex 396.28982405602807 20.000000000000004 -36.32449508074622
    vertex 404.35797240345 11.982361909794959 -36.32449508074622
    vertex 404.2898240560281 12.500000000000002 -36.32449508074622
  endloop
endfacet
facet normal 0.0 0.0 1.0
  outer loop
    vertex 405.7721859658231 10.568148347421866 -36.32449508074622
    vertex 421.2898240560281 5.000000000000001 -36.32449508074622
    vertex 406.2898240560281 10.500000000000002 -36.32449508074622
  endloop
endfacet
facet normal 0.0 0.0 1.0
  outer loop
    vertex 406.2898240560281 10.500000000000002 -36.32449508074622
    vertex 421.2898240560281 5.000000000000001 -36.32449508074622
    vertex 406.80746214623315 10.568148347421866 -36.32449508074622
  endloop
endfacet
facet normal 0.0 0.0 1.0
  outer loop
    vertex 406.80746214623315 10.568148347421866 -36.32449508074622
    vertex 421.2898240560281 5.000000000000001 -36.32449508074622
    vertex 407.2898240560281 10.767949192431125 -36.32449508074622
  endloop
endfacet
facet normal 0.0 0.0 1.0
  outer loop
    vertex 407.2898240560281 10.767949192431125 -36.32449508074622
    vertex 421.2898240560281 5.000000000000001 -36.32449508074622
    vertex 407.70403761840123 11.085786437626906 -36.32449508074622
  endloop
endfacet
facet normal 0.0 0.0 1.0
  outer loop
    vertex 407.70403761840123 11.085786437626906 -36.32449508074622
    vertex 421.2898240560281 5.000000000000001 -36.32449508074622
    vertex 408.02187486359696 11.5 -36.32449508074622
  endloop
endfacet
facet normal 0.0 0.0 1.0
  outer loop
    vertex 408.02187486359696 11.5 -36.32449508074622
    vertex 421.2898240560281 5.000000000000001 -36.32449508074622
    vertex 408.22167570860626 11.982361909794959 -36.32449508074622
  endloop
endfacet
facet normal 0.0 0.0 1.0
  outer loop
    vertex 408.22167570860626 11.982361909794959 -36.32449508074622
    vertex 421.2898240560281 5.000000000000001 -36.32449508074622
    vertex 408.2898240560281 12.500000000000002 -36.32449508074622
  endloop
endfacet
facet normal 0.0 0.0 1.0
  outer loop
    vertex 396.28982405602807 20.000000000000004 -36.32449508074622
    vertex 405.7721859658231 14.431851652578137 -36.32449508074622
    vertex 421.2898240560281 20.000000000000004 -36.32449508074622
  endloop
endfacet
facet normal 0.0 0.0 1.0
  outer loop
    vertex 405.7721859658231 14.431851652578137 -36.32449508074622
    vertex 396.28982405602807 20.000000000000004 -36.32449508074622
    vertex 405.2898240560281 14.232050807568879 -36.32449508074622
  endloop
endfacet
facet normal 0.0 0.0 1.0
  outer loop
    vertex 405.2898240560281 14.232050807568879 -36.32449508074622
    vertex 396.28982405602807 20.000000000000004 -36.32449508074622
    vertex 404.875610493655 13.914213562373098 -36.32449508074622
  endloop
endfacet
facet normal 0.0 0.0 1.0
  outer loop
    vertex 404.875610493655 13.914213562373098 -36.32449508074622
    vertex 396.28982405602807 20.000000000000004 -36.32449508074622
    vertex 404.5577732484592 13.500000000000004 -36.32449508074622
  endloop
endfacet
facet normal 0.0 0.0 1.0
  outer loop
    vertex 404.5577732484592 13.500000000000004 -36.32449508074622
    vertex 396.28982405602807 20.000000000000004 -36.32449508074622
    vertex 404.35797240345 13.017638090205045 -36.32449508074622
  endloop
endfacet
facet normal 0.0 0.0 1.0
  outer loop
    vertex 404.35797240345 13.017638090205045 -36.32449508074622
    vertex 396.28982405602807 20.000000000000004 -36.32449508074622
    vertex 404.2898240560281 12.500000000000002 -36.32449508074622
  endloop
endfacet
facet normal 0.0 0.0 1.0
  outer loop
    vertex 421.2898240560281 20.000000000000004 -36.32449508074622
    vertex 405.7721859658231 14.431851652578137 -36.32449508074622
    vertex 406.2898240560281 14.500000000000002 -36.32449508074622
  endloop
endfacet
facet normal 0.0 0.0 1.0
  outer loop
    vertex 421.2898240560281 20.000000000000004 -36.32449508074622
    vertex 406.2898240560281 14.500000000000002 -36.32449508074622
    vertex 406.80746214623315 14.431851652578137 -36.32449508074622
  endloop
endfacet
facet normal 0.0 0.0 1.0
  outer loop
    vertex 421.2898240560281 20.000000000000004 -36.32449508074622
    vertex 406.80746214623315 14.431851652578137 -36.32449508074622
    vertex 407.2898240560281 14.232050807568879 -36.32449508074622
  endloop
endfacet
facet normal 0.0 0.0 1.0
  outer loop
    vertex 421.2898240560281 20.000000000000004 -36.32449508074622
    vertex 407.2898240560281 14.232050807568879 -36.32449508074622
    vertex 407.70403761840123 13.914213562373098 -36.32449508074622
  endloop
endfacet
facet normal 0.0 0.0 1.0
  outer loop
    vertex 421.2898240560281 20.000000000000004 -36.32449508074622
    vertex 407.70403761840123 13.914213562373098 -36.32449508074622
    vertex 408.02187486359696 13.500000000000004 -36.32449508074622
  endloop
endfacet
facet normal 0.0 0.0 1.0
  outer loop
    vertex 421.2898240560281 20.000000000000004 -36.32449508074622
    vertex 408.02187486359696 13.500000000000004 -36.32449508074622
    vertex 408.22167570860626 13.017638090205045 -36.32449508074622
  endloop
endfacet
facet normal 0.0 0.0 1.0
  outer loop
    vertex 421.2898240560281 20.000000000000004 -36.32449508074622
    vertex 408.22167570860626 13.017638090205045 -36.32449508074622
    vertex 408.2898240560281 12.500000000000002 -36.32449508074622
  endloop
endfacet
facet normal 0.0 0.0 1.0
  outer loop
    vertex 421.2898240560281 20.000000000000004 -36.32449508074622
    vertex 408.2898240560281 12.500000000000002 -36.32449508074622
    vertex 421.2898240560281 5.000000000000001 -36.32449508074622
  endloop
endfacet
facet normal -1.0 -0.0 -0.0
  outer loop
    vertex 416.28982405602807 0.0 -21.324495080746217
    vertex 416.28982405602807 -10.0 -41.32449508074622
    vertex 416.28982405602807 -10.0 -21.324495080746217
  endloop
endfacet
facet normal -1.0 -0.0 -0.0
  outer loop
    vertex 416.28982405602807 -10.0 -41.32449508074622
    vertex 416.28982405602807 0.0 -21.324495080746217
    vertex 416.28982405602807 0.0 -41.32449508074622
  endloop
endfacet
facet normal 0.0 -1.0 0.0
  outer loop
    vertex 421.2898240560281 -10.0 -21.324495080746217
    vertex 416.28982405602807 -10.0 -51.32449508074622
    vertex 421.2898240560281 -10.0 -51.32449508074622
  endloop
endfacet
facet normal 0.0 -1.0 0.0
  outer loop
    vertex 416.28982405602807 -10.0 -51.32449508074622
    vertex 421.2898240560281 -10.0 -21.324495080746217
    vertex 416.28982405602807 -10.0 -41.32449508074622
  endloop
endfacet
facet normal 0.0 -1.0 0.0
  outer loop
    vertex 416.28982405602807 -10.0 -41.32449508074622
    vertex 421.2898240560281 -10.0 -21.324495080746217
    vertex 416.28982405602807 -10.0 -21.324495080746217
  endloop
endfacet
facet normal -1.0 -0.0 -0.0
  outer loop
    vertex 396.28982405602807 5.000000000000001 -21.324495080746217
    vertex 396.28982405602807 0.0 -40.83876734248078
    vertex 396.28982405602807 0.0 -21.324495080746217
  endloop
endfacet
facet normal -1.0 -0.0 -0.0
  outer loop
    vertex 396.28982405602807 0.0 -40.83876734248078
    vertex 396.28982405602807 5.000000000000001 -21.324495080746217
    vertex 396.28982405602807 5.000000000000001 -36.32449508074622
  endloop
endfacet
facet normal -1.0 -0.0 -0.0
  outer loop
    vertex 396.28982405602807 0.0 -40.83876734248078
    vertex 396.28982405602807 5.000000000000001 -36.32449508074622
    vertex 396.28982405602807 20.000000000000004 -40.83876734248078
  endloop
endfacet
facet normal -1.0 -0.0 -0.0
  outer loop
    vertex 396.28982405602807 20.000000000000004 -40.83876734248078
    vertex 396.28982405602807 5.000000000000001 -36.32449508074622
    vertex 396.28982405602807 20.000000000000004 -36.32449508074622
  endloop
endfacet
facet normal 0.0 0.0 1.0
  outer loop
    vertex 416.28982405602807 0.0 -21.324495080746217
    vertex 396.28982405602807 5.000000000000001 -21.324495080746217
    vertex 396.28982405602807 0.0 -21.324495080746217
  endloop
endfacet
facet normal 0.0 0.0 1.0
  outer loop
    vertex 396.28982405602807 5.000000000000001 -21.324495080746217
    vertex 416.28982405602807 0.0 -21.324495080746217
    vertex 416.28982405602807 5.000000000000001 -21.324495080746217
  endloop
endfacet
facet normal 0.0 1.0 0.0
  outer loop
    vertex 396.28982405602807 5.000000000000001 -36.32449508074622
    vertex 405.7721859658231 5.000000000000001 -30.75634673332435
    vertex 421.2898240560281 5.000000000000001 -36.32449508074622
  endloop
endfacet
facet normal 0.0 1.0 0.0
  outer loop
    vertex 405.7721859658231 5.000000000000001 -30.75634673332435
    vertex 396.28982405602807 5.000000000000001 -36.32449508074622
    vertex 405.2898240560281 5.000000000000001 -30.55654588831509
  endloop
endfacet
facet normal 0.0 1.0 0.0
  outer loop
    vertex 405.2898240560281 5.000000000000001 -30.55654588831509
    vertex 396.28982405602807 5.000000000000001 -36.32449508074622
    vertex 404.875610493655 5.000000000000001 -30.23870864311931
  endloop
endfacet
facet normal 0.0 1.0 0.0
  outer loop
    vertex 404.875610493655 5.000000000000001 -30.23870864311931
    vertex 396.28982405602807 5.000000000000001 -36.32449508074622
    vertex 396.28982405602807 5.000000000000001 -21.324495080746217
  endloop
endfacet
facet normal 0.0 1.0 0.0
  outer loop
    vertex 421.2898240560281 5.000000000000001 -36.32449508074622
    vertex 405.7721859658231 5.000000000000001 -30.75634673332435
    vertex 406.2898240560281 5.000000000000001 -30.824495080746214
  endloop
endfacet
facet normal 0.0 1.0 0.0
  outer loop
    vertex 404.875610493655 5.000000000000001 -30.23870864311931
    vertex 396.28982405602807 5.000000000000001 -21.324495080746217
    vertex 404.5577732484592 5.000000000000001 -29.824495080746214
  endloop
endfacet
facet normal 0.0 1.0 0.0
  outer loop
    vertex 404.5577732484592 5.000000000000001 -29.824495080746214
    vertex 396.28982405602807 5.000000000000001 -21.324495080746217
    vertex 404.35797240345 5.000000000000001 -29.342133170951257
  endloop
endfacet
facet normal 0.0 1.0 0.0
  outer loop
    vertex 404.35797240345 5.000000000000001 -29.342133170951257
    vertex 396.28982405602807 5.000000000000001 -21.324495080746217
    vertex 404.2898240560281 5.000000000000001 -28.824495080746217
  endloop
endfacet
facet normal 0.0 1.0 0.0
  outer loop
    vertex 404.2898240560281 5.000000000000001 -28.824495080746217
    vertex 396.28982405602807 5.000000000000001 -21.324495080746217
    vertex 404.35797240345 5.000000000000001 -28.306856990541178
  endloop
endfacet
facet normal 0.0 1.0 0.0
  outer loop
    vertex 404.35797240345 5.000000000000001 -28.306856990541178
    vertex 396.28982405602807 5.000000000000001 -21.324495080746217
    vertex 404.5577732484592 5.000000000000001 -27.824495080746217
  endloop
endfacet
facet normal 0.0 1.0 0.0
  outer loop
    vertex 404.5577732484592 5.000000000000001 -27.824495080746217
    vertex 396.28982405602807 5.000000000000001 -21.324495080746217
    vertex 404.875610493655 5.000000000000001 -27.410281518373125
  endloop
endfacet
facet normal 0.0 1.0 0.0
  outer loop
    vertex 404.875610493655 5.000000000000001 -27.410281518373125
    vertex 396.28982405602807 5.000000000000001 -21.324495080746217
    vertex 405.2898240560281 5.000000000000001 -27.092444273177342
  endloop
endfacet
facet normal 0.0 1.0 0.0
  outer loop
    vertex 405.2898240560281 5.000000000000001 -27.092444273177342
    vertex 396.28982405602807 5.000000000000001 -21.324495080746217
    vertex 405.7721859658231 5.000000000000001 -26.892643428168082
  endloop
endfacet
facet normal 0.0 1.0 0.0
  outer loop
    vertex 405.7721859658231 5.000000000000001 -26.892643428168082
    vertex 396.28982405602807 5.000000000000001 -21.324495080746217
    vertex 406.2898240560281 5.000000000000001 -26.82449508074622
  endloop
endfacet
facet normal 0.0 1.0 0.0
  outer loop
    vertex 421.2898240560281 5.000000000000001 -36.32449508074622
    vertex 407.28982405602807 5.000000000000001 -30.55654588831509
    vertex 421.2898240560281 5.000000000000001 -21.324495080746217
  endloop
endfacet
facet normal 0.0 1.0 0.0
  outer loop
    vertex 407.28982405602807 5.000000000000001 -30.55654588831509
    vertex 421.2898240560281 5.000000000000001 -36.32449508074622
    vertex 406.80746214623315 5.000000000000001 -30.75634673332435
  endloop
endfacet
facet normal 0.0 1.0 0.0
  outer loop
    vertex 406.80746214623315 5.000000000000001 -30.75634673332435
    vertex 421.2898240560281 5.000000000000001 -36.32449508074622
    vertex 406.2898240560281 5.000000000000001 -30.824495080746214
  endloop
endfacet
facet normal 0.0 1.0 0.0
  outer loop
    vertex 421.2898240560281 5.000000000000001 -21.324495080746217
    vertex 407.28982405602807 5.000000000000001 -30.55654588831509
    vertex 407.70403761840123 5.000000000000001 -30.23870864311931
  endloop
endfacet
facet normal 0.0 1.0 0.0
  outer loop
    vertex 421.2898240560281 5.000000000000001 -21.324495080746217
    vertex 407.70403761840123 5.000000000000001 -30.23870864311931
    vertex 408.02187486359696 5.000000000000001 -29.824495080746214
  endloop
endfacet
facet normal 0.0 1.0 0.0
  outer loop
    vertex 421.2898240560281 5.000000000000001 -21.324495080746217
    vertex 408.02187486359696 5.000000000000001 -29.824495080746214
    vertex 408.22167570860626 5.000000000000001 -29.342133170951257
  endloop
endfacet
facet normal 0.0 1.0 0.0
  outer loop
    vertex 421.2898240560281 5.000000000000001 -21.324495080746217
    vertex 408.22167570860626 5.000000000000001 -29.342133170951257
    vertex 408.2898240560281 5.000000000000001 -28.824495080746217
  endloop
endfacet
facet normal 0.0 1.0 0.0
  outer loop
    vertex 421.2898240560281 5.000000000000001 -21.324495080746217
    vertex 408.2898240560281 5.000000000000001 -28.824495080746217
    vertex 408.22167570860626 5.000000000000001 -28.306856990541178
  endloop
endfacet
facet normal 0.0 1.0 0.0
  outer loop
    vertex 421.2898240560281 5.000000000000001 -21.324495080746217
    vertex 408.22167570860626 5.000000000000001 -28.306856990541178
    vertex 408.02187486359696 5.000000000000001 -27.824495080746217
  endloop
endfacet
facet normal 0.0 1.0 0.0
  outer loop
    vertex 421.2898240560281 5.000000000000001 -21.324495080746217
    vertex 408.02187486359696 5.000000000000001 -27.824495080746217
    vertex 407.70403761840123 5.000000000000001 -27.410281518373125
  endloop
endfacet
facet normal 0.0 1.0 0.0
  outer loop
    vertex 421.2898240560281 5.000000000000001 -21.324495080746217
    vertex 407.70403761840123 5.000000000000001 -27.410281518373125
    vertex 407.2898240560281 5.000000000000001 -27.092444273177342
  endloop
endfacet
facet normal 0.0 1.0 0.0
  outer loop
    vertex 421.2898240560281 5.000000000000001 -21.324495080746217
    vertex 407.2898240560281 5.000000000000001 -27.092444273177342
    vertex 406.80746214623315 5.000000000000001 -26.892643428168082
  endloop
endfacet
facet normal 0.0 1.0 0.0
  outer loop
    vertex 421.2898240560281 5.000000000000001 -21.324495080746217
    vertex 406.80746214623315 5.000000000000001 -26.892643428168082
    vertex 406.2898240560281 5.000000000000001 -26.82449508074622
  endloop
endfacet
facet normal 0.0 1.0 0.0
  outer loop
    vertex 421.2898240560281 5.000000000000001 -21.324495080746217
    vertex 406.2898240560281 5.000000000000001 -26.82449508074622
    vertex 396.28982405602807 5.000000000000001 -21.324495080746217
  endloop
endfacet
facet normal 0.0 1.0 0.0
  outer loop
    vertex 421.2898240560281 5.000000000000001 -21.324495080746217
    vertex 396.28982405602807 5.000000000000001 -21.324495080746217
    vertex 416.28982405602807 5.000000000000001 -21.324495080746217
  endloop
endfacet
facet normal -0.024279227677491706 -0.0 -0.9997052161029193
  outer loop
    vertex 416.28982405602807 20.000000000000004 -41.32449508074622
    vertex 396.28982405602807 0.0 -40.83876734248078
    vertex 396.28982405602807 20.000000000000004 -40.83876734248078
  endloop
endfacet
facet normal -0.024279227677491706 -0.0 -0.9997052161029193
  outer loop
    vertex 396.28982405602807 0.0 -40.83876734248078
    vertex 416.28982405602807 20.000000000000004 -41.32449508074622
    vertex 416.28982405602807 0.0 -41.32449508074622
  endloop
endfacet
facet normal -1.0 0.0 0.0
  outer loop
    vertex 416.28982405602807 0.0 -41.32449508074622
    vertex 416.28982405602807 -10.0 -51.32449508074622
    vertex 416.28982405602807 -10.0 -41.32449508074622
  endloop
endfacet
facet normal -1.0 0.0 0.0
  outer loop
    vertex 416.28982405602807 -10.0 -51.32449508074622
    vertex 416.28982405602807 0.0 -41.32449508074622
    vertex 416.28982405602807 20.000000000000004 -51.32449508074622
  endloop
endfacet
facet normal -1.0 0.0 0.0
  outer loop
    vertex 416.28982405602807 20.000000000000004 -51.32449508074622
    vertex 416.28982405602807 0.0 -41.32449508074622
    vertex 416.28982405602807 20.000000000000004 -41.32449508074622
  endloop
endfacet
facet normal 0.0 0.0 -1.0
  outer loop
    vertex 421.2898240560281 20.000000000000004 -51.32449508074622
    vertex 416.28982405602807 -10.0 -51.32449508074622
    vertex 416.28982405602807 20.000000000000004 -51.32449508074622
  endloop
endfacet
facet normal 0.0 0.0 -1.0
  outer loop
    vertex 416.28982405602807 -10.0 -51.32449508074622
    vertex 421.2898240560281 20.000000000000004 -51.32449508074622
    vertex 421.2898240560281 -10.0 -51.32449508074622
  endloop
endfacet
facet normal 0.0 -1.0 0.0
  outer loop
    vertex 416.28982405602807 0.0 -41.32449508074622
    vertex 407.70403761840123 1.4099832412739487e-15 -30.23870864311931
    vertex 396.28982405602807 0.0 -40.83876734248078
  endloop
endfacet
facet normal 0.0 -1.0 0.0
  outer loop
    vertex 407.70403761840123 1.4099832412739487e-15 -30.23870864311931
    vertex 416.28982405602807 0.0 -41.32449508074622
    vertex 416.28982405602807 0.0 -21.324495080746217
  endloop
endfacet
facet normal 0.0 -1.0 0.0
  outer loop
    vertex 396.28982405602807 0.0 -40.83876734248078
    vertex 407.70403761840123 1.4099832412739487e-15 -30.23870864311931
    vertex 407.28982405602807 1.4099832412739487e-15 -30.55654588831509
  endloop
endfacet
facet normal 0.0 -1.0 0.0
  outer loop
    vertex 396.28982405602807 0.0 -40.83876734248078
    vertex 407.28982405602807 1.4099832412739487e-15 -30.55654588831509
    vertex 406.80746214623315 1.4099832412739487e-15 -30.75634673332435
  endloop
endfacet
facet normal 0.0 -1.0 0.0
  outer loop
    vertex 396.28982405602807 0.0 -40.83876734248078
    vertex 406.80746214623315 1.4099832412739487e-15 -30.75634673332435
    vertex 406.2898240560281 1.4099832412739487e-15 -30.824495080746214
  endloop
endfacet
facet normal 0.0 -1.0 0.0
  outer loop
    vertex 407.70403761840123 1.4099832412739487e-15 -30.23870864311931
    vertex 416.28982405602807 0.0 -21.324495080746217
    vertex 408.02187486359696 1.4099832412739487e-15 -29.824495080746214
  endloop
endfacet
facet normal 0.0 -1.0 0.0
  outer loop
    vertex 408.02187486359696 1.4099832412739487e-15 -29.824495080746214
    vertex 416.28982405602807 0.0 -21.324495080746217
    vertex 408.22167570860626 1.4099832412739487e-15 -29.342133170951257
  endloop
endfacet
facet normal 0.0 -1.0 0.0
  outer loop
    vertex 408.22167570860626 1.4099832412739487e-15 -29.342133170951257
    vertex 416.28982405602807 0.0 -21.324495080746217
    vertex 408.2898240560281 1.4099832412739487e-15 -28.824495080746217
  endloop
endfacet
facet normal 0.0 -1.0 0.0
  outer loop
    vertex 408.2898240560281 1.4099832412739487e-15 -28.824495080746217
    vertex 416.28982405602807 0.0 -21.324495080746217
    vertex 408.22167570860626 1.4099832412739487e-15 -28.306856990541178
  endloop
endfacet
facet normal 0.0 -1.0 0.0
  outer loop
    vertex 408.22167570860626 1.4099832412739487e-15 -28.306856990541178
    vertex 416.28982405602807 0.0 -21.324495080746217
    vertex 408.02187486359696 1.4099832412739487e-15 -27.824495080746217
  endloop
endfacet
facet normal 0.0 -1.0 0.0
  outer loop
    vertex 408.02187486359696 1.4099832412739487e-15 -27.824495080746217
    vertex 416.28982405602807 0.0 -21.324495080746217
    vertex 407.70403761840123 1.4099832412739487e-15 -27.410281518373125
  endloop
endfacet
facet normal 0.0 -1.0 0.0
  outer loop
    vertex 407.70403761840123 1.4099832412739487e-15 -27.410281518373125
    vertex 416.28982405602807 0.0 -21.324495080746217
    vertex 407.2898240560281 1.4099832412739487e-15 -27.092444273177342
  endloop
endfacet
facet normal 0.0 -1.0 0.0
  outer loop
    vertex 407.2898240560281 1.4099832412739487e-15 -27.092444273177342
    vertex 416.28982405602807 0.0 -21.324495080746217
    vertex 406.80746214623315 1.4099832412739487e-15 -26.892643428168082
  endloop
endfacet
facet normal 0.0 -1.0 0.0
  outer loop
    vertex 406.80746214623315 1.4099832412739487e-15 -26.892643428168082
    vertex 416.28982405602807 0.0 -21.324495080746217
    vertex 406.2898240560281 1.4099832412739487e-15 -26.82449508074622
  endloop
endfacet
facet normal 0.0 -1.0 0.0
  outer loop
    vertex 396.28982405602807 0.0 -40.83876734248078
    vertex 404.875610493655 1.4099832412739487e-15 -30.23870864311931
    vertex 396.28982405602807 0.0 -21.324495080746217
  endloop
endfacet
facet normal 0.0 -1.0 0.0
  outer loop
    vertex 404.875610493655 1.4099832412739487e-15 -30.23870864311931
    vertex 396.28982405602807 0.0 -40.83876734248078
    vertex 405.2898240560281 1.4099832412739487e-15 -30.55654588831509
  endloop
endfacet
facet normal 0.0 -1.0 0.0
  outer loop
    vertex 405.2898240560281 1.4099832412739487e-15 -30.55654588831509
    vertex 396.28982405602807 0.0 -40.83876734248078
    vertex 405.7721859658231 1.4099832412739487e-15 -30.75634673332435
  endloop
endfacet
facet normal 0.0 -1.0 0.0
  outer loop
    vertex 405.7721859658231 1.4099832412739487e-15 -30.75634673332435
    vertex 396.28982405602807 0.0 -40.83876734248078
    vertex 406.2898240560281 1.4099832412739487e-15 -30.824495080746214
  endloop
endfacet
facet normal 0.0 -1.0 0.0
  outer loop
    vertex 396.28982405602807 0.0 -21.324495080746217
    vertex 404.875610493655 1.4099832412739487e-15 -30.23870864311931
    vertex 404.5577732484592 1.4099832412739487e-15 -29.824495080746214
  endloop
endfacet
facet normal 0.0 -1.0 0.0
  outer loop
    vertex 396.28982405602807 0.0 -21.324495080746217
    vertex 404.5577732484592 1.4099832412739487e-15 -29.824495080746214
    vertex 404.35797240345 1.4099832412739487e-15 -29.342133170951257
  endloop
endfacet
facet normal 0.0 -1.0 0.0
  outer loop
    vertex 396.28982405602807 0.0 -21.324495080746217
    vertex 404.35797240345 1.4099832412739487e-15 -29.342133170951257
    vertex 404.2898240560281 1.4099832412739487e-15 -28.824495080746217
  endloop
endfacet
facet normal 0.0 -1.0 0.0
  outer loop
    vertex 396.28982405602807 0.0 -21.324495080746217
    vertex 404.2898240560281 1.4099832412739487e-15 -28.824495080746217
    vertex 404.35797240345 1.4099832412739487e-15 -28.306856990541178
  endloop
endfacet
facet normal 0.0 -1.0 0.0
  outer loop
    vertex 396.28982405602807 0.0 -21.324495080746217
    vertex 404.35797240345 1.4099832412739487e-15 -28.306856990541178
    vertex 404.5577732484592 1.4099832412739487e-15 -27.824495080746217
  endloop
endfacet
facet normal 0.0 -1.0 0.0
  outer loop
    vertex 396.28982405602807 0.0 -21.324495080746217
    vertex 404.5577732484592 1.4099832412739487e-15 -27.824495080746217
    vertex 404.875610493655 1.4099832412739487e-15 -27.410281518373125
  endloop
endfacet
facet normal 0.0 -1.0 0.0
  outer loop
    vertex 396.28982405602807 0.0 -21.324495080746217
    vertex 404.875610493655 1.4099832412739487e-15 -27.410281518373125
    vertex 405.2898240560281 1.4099832412739487e-15 -27.092444273177342
  endloop
endfacet
facet normal 0.0 -1.0 0.0
  outer loop
    vertex 396.28982405602807 0.0 -21.324495080746217
    vertex 405.2898240560281 1.4099832412739487e-15 -27.092444273177342
    vertex 405.7721859658231 1.4099832412739487e-15 -26.892643428168082
  endloop
endfacet
facet normal 0.0 -1.0 0.0
  outer loop
    vertex 396.28982405602807 0.0 -21.324495080746217
    vertex 405.7721859658231 1.4099832412739487e-15 -26.892643428168082
    vertex 406.2898240560281 1.4099832412739487e-15 -26.82449508074622
  endloop
endfacet
facet normal 0.0 -1.0 0.0
  outer loop
    vertex 396.28982405602807 0.0 -21.324495080746217
    vertex 406.2898240560281 1.4099832412739487e-15 -26.82449508074622
    vertex 416.28982405602807 0.0 -21.324495080746217
  endloop
endfacet
facet normal 0.0 0.0 1.0
  outer loop
    vertex 421.2898240560281 -10.0 -21.324495080746217
    vertex 416.28982405602807 0.0 -21.324495080746217
    vertex 416.28982405602807 -10.0 -21.324495080746217
  endloop
endfacet
facet normal 0.0 0.0 1.0
  outer loop
    vertex 416.28982405602807 0.0 -21.324495080746217
    vertex 421.2898240560281 -10.0 -21.324495080746217
    vertex 416.28982405602807 5.000000000000001 -21.324495080746217
  endloop
endfacet
facet normal 0.0 0.0 1.0
  outer loop
    vertex 416.28982405602807 5.000000000000001 -21.324495080746217
    vertex 421.2898240560281 -10.0 -21.324495080746217
    vertex 421.2898240560281 5.000000000000001 -21.324495080746217
  endloop
endfacet
facet normal 0.13052619222005635 0.0 -0.9914448613738099
  outer loop
    vertex 406.2898240560281 5.000000000000001 -26.82449508074622
    vertex 405.7721859658231 1.4099832412739487e-15 -26.892643428168082
    vertex 405.7721859658231 5.000000000000001 -26.892643428168082
  endloop
endfacet
facet normal 0.13052619222005635 0.0 -0.9914448613738099
  outer loop
    vertex 405.7721859658231 1.4099832412739487e-15 -26.892643428168082
    vertex 406.2898240560281 5.000000000000001 -26.82449508074622
    vertex 406.2898240560281 1.4099832412739487e-15 -26.82449508074622
  endloop
endfacet
facet normal -0.13052619222004516 -0.0 -0.9914448613738113
  outer loop
    vertex 406.80746214623315 5.000000000000001 -26.892643428168082
    vertex 406.2898240560281 1.4099832412739487e-15 -26.82449508074622
    vertex 406.2898240560281 5.000000000000001 -26.82449508074622
  endloop
endfacet
facet normal -0.13052619222004516 -0.0 -0.9914448613738113
  outer loop
    vertex 406.2898240560281 1.4099832412739487e-15 -26.82449508074622
    vertex 406.80746214623315 5.000000000000001 -26.892643428168082
    vertex 406.80746214623315 1.4099832412739487e-15 -26.892643428168082
  endloop
endfacet
facet normal -0.38268343236507985 -0.0 -0.923879532511291
  outer loop
    vertex 407.2898240560281 5.000000000000001 -27.092444273177342
    vertex 406.80746214623315 1.4099832412739487e-15 -26.892643428168082
    vertex 406.80746214623315 5.000000000000001 -26.892643428168082
  endloop
endfacet
facet normal -0.38268343236507985 -0.0 -0.923879532511291
  outer loop
    vertex 406.80746214623315 1.4099832412739487e-15 -26.892643428168082
    vertex 407.2898240560281 5.000000000000001 -27.092444273177342
    vertex 407.2898240560281 1.4099832412739487e-15 -27.092444273177342
  endloop
endfacet
facet normal -0.6087614290087544 -0.0 -0.7933533402912093
  outer loop
    vertex 407.70403761840123 5.000000000000001 -27.410281518373125
    vertex 407.2898240560281 1.4099832412739487e-15 -27.092444273177342
    vertex 407.2898240560281 5.000000000000001 -27.092444273177342
  endloop
endfacet
facet normal -0.6087614290087544 -0.0 -0.7933533402912093
  outer loop
    vertex 407.2898240560281 1.4099832412739487e-15 -27.092444273177342
    vertex 407.70403761840123 5.000000000000001 -27.410281518373125
    vertex 407.70403761840123 1.4099832412739487e-15 -27.410281518373125
  endloop
endfacet
facet normal -0.7933533402912477 -0.0 -0.6087614290087043
  outer loop
    vertex 407.70403761840123 5.000000000000001 -27.410281518373125
    vertex 408.02187486359696 1.4099832412739487e-15 -27.824495080746217
    vertex 407.70403761840123 1.4099832412739487e-15 -27.410281518373125
  endloop
endfacet
facet normal -0.7933533402912477 -0.0 -0.6087614290087043
  outer loop
    vertex 408.02187486359696 1.4099832412739487e-15 -27.824495080746217
    vertex 407.70403761840123 5.000000000000001 -27.410281518373125
    vertex 408.02187486359696 5.000000000000001 -27.824495080746217
  endloop
endfacet
facet normal -0.9238795325112594 -0.0 -0.38268343236515584
  outer loop
    vertex 408.02187486359696 5.000000000000001 -27.824495080746217
    vertex 408.22167570860626 1.4099832412739487e-15 -28.306856990541178
    vertex 408.02187486359696 1.4099832412739487e-15 -27.824495080746217
  endloop
endfacet
facet normal -0.9238795325112594 -0.0 -0.38268343236515584
  outer loop
    vertex 408.22167570860626 1.4099832412739487e-15 -28.306856990541178
    vertex 408.02187486359696 5.000000000000001 -27.824495080746217
    vertex 408.22167570860626 5.000000000000001 -28.306856990541178
  endloop
endfacet
facet normal -0.9914448613738187 -0.0 -0.13052619221998843
  outer loop
    vertex 408.22167570860626 5.000000000000001 -28.306856990541178
    vertex 408.2898240560281 1.4099832412739487e-15 -28.824495080746217
    vertex 408.22167570860626 1.4099832412739487e-15 -28.306856990541178
  endloop
endfacet
facet normal -0.9914448613738187 -0.0 -0.13052619221998843
  outer loop
    vertex 408.2898240560281 1.4099832412739487e-15 -28.824495080746217
    vertex 408.22167570860626 5.000000000000001 -28.306856990541178
    vertex 408.2898240560281 5.000000000000001 -28.824495080746217
  endloop
endfacet
facet normal -0.9914448613738187 0.0 0.13052619221998843
  outer loop
    vertex 408.2898240560281 5.000000000000001 -28.824495080746217
    vertex 408.22167570860626 1.4099832412739487e-15 -29.342133170951257
    vertex 408.2898240560281 1.4099832412739487e-15 -28.824495080746217
  endloop
endfacet
facet normal -0.9914448613738187 0.0 0.13052619221998843
  outer loop
    vertex 408.22167570860626 1.4099832412739487e-15 -29.342133170951257
    vertex 408.2898240560281 5.000000000000001 -28.824495080746217
    vertex 408.22167570860626 5.000000000000001 -29.342133170951257
  endloop
endfacet
facet normal -0.9238795325112594 0.0 0.38268343236515584
  outer loop
    vertex 408.22167570860626 5.000000000000001 -29.342133170951257
    vertex 408.02187486359696 1.4099832412739487e-15 -29.824495080746214
    vertex 408.22167570860626 1.4099832412739487e-15 -29.342133170951257
  endloop
endfacet
facet normal -0.9238795325112594 0.0 0.38268343236515584
  outer loop
    vertex 408.02187486359696 1.4099832412739487e-15 -29.824495080746214
    vertex 408.22167570860626 5.000000000000001 -29.342133170951257
    vertex 408.02187486359696 5.000000000000001 -29.824495080746214
  endloop
endfacet
facet normal -0.7933533402912477 0.0 0.6087614290087043
  outer loop
    vertex 408.02187486359696 5.000000000000001 -29.824495080746214
    vertex 407.70403761840123 1.4099832412739487e-15 -30.23870864311931
    vertex 408.02187486359696 1.4099832412739487e-15 -29.824495080746214
  endloop
endfacet
facet normal -0.7933533402912477 0.0 0.6087614290087043
  outer loop
    vertex 407.70403761840123 1.4099832412739487e-15 -30.23870864311931
    vertex 408.02187486359696 5.000000000000001 -29.824495080746214
    vertex 407.70403761840123 5.000000000000001 -30.23870864311931
  endloop
endfacet
facet normal -0.608761429008671 0.0 0.7933533402912735
  outer loop
    vertex 407.70403761840123 1.4099832412739487e-15 -30.23870864311931
    vertex 407.28982405602807 5.000000000000001 -30.55654588831509
    vertex 407.28982405602807 1.4099832412739487e-15 -30.55654588831509
  endloop
endfacet
facet normal -0.608761429008671 0.0 0.7933533402912735
  outer loop
    vertex 407.28982405602807 5.000000000000001 -30.55654588831509
    vertex 407.70403761840123 1.4099832412739487e-15 -30.23870864311931
    vertex 407.70403761840123 5.000000000000001 -30.23870864311931
  endloop
endfacet
facet normal -0.38268343236514096 0.0 0.9238795325112655
  outer loop
    vertex 407.28982405602807 1.4099832412739487e-15 -30.55654588831509
    vertex 406.80746214623315 5.000000000000001 -30.75634673332435
    vertex 406.80746214623315 1.4099832412739487e-15 -30.75634673332435
  endloop
endfacet
facet normal -0.38268343236514096 0.0 0.9238795325112655
  outer loop
    vertex 406.80746214623315 5.000000000000001 -30.75634673332435
    vertex 407.28982405602807 1.4099832412739487e-15 -30.55654588831509
    vertex 407.28982405602807 5.000000000000001 -30.55654588831509
  endloop
endfacet
facet normal -0.13052619222004516 0.0 0.9914448613738113
  outer loop
    vertex 406.80746214623315 1.4099832412739487e-15 -30.75634673332435
    vertex 406.2898240560281 5.000000000000001 -30.824495080746214
    vertex 406.2898240560281 1.4099832412739487e-15 -30.824495080746214
  endloop
endfacet
facet normal -0.13052619222004516 0.0 0.9914448613738113
  outer loop
    vertex 406.2898240560281 5.000000000000001 -30.824495080746214
    vertex 406.80746214623315 1.4099832412739487e-15 -30.75634673332435
    vertex 406.80746214623315 5.000000000000001 -30.75634673332435
  endloop
endfacet
facet normal 0.13052619222005635 0.0 0.9914448613738099
  outer loop
    vertex 406.2898240560281 1.4099832412739487e-15 -30.824495080746214
    vertex 405.7721859658231 5.000000000000001 -30.75634673332435
    vertex 405.7721859658231 1.4099832412739487e-15 -30.75634673332435
  endloop
endfacet
facet normal 0.13052619222005635 0.0 0.9914448613738099
  outer loop
    vertex 405.7721859658231 5.000000000000001 -30.75634673332435
    vertex 406.2898240560281 1.4099832412739487e-15 -30.824495080746214
    vertex 406.2898240560281 5.000000000000001 -30.824495080746214
  endloop
endfacet
facet normal 0.38268343236507985 0.0 0.923879532511291
  outer loop
    vertex 405.7721859658231 1.4099832412739487e-15 -30.75634673332435
    vertex 405.2898240560281 5.000000000000001 -30.55654588831509
    vertex 405.2898240560281 1.4099832412739487e-15 -30.55654588831509
  endloop
endfacet
facet normal 0.38268343236507985 0.0 0.923879532511291
  outer loop
    vertex 405.2898240560281 5.000000000000001 -30.55654588831509
    vertex 405.7721859658231 1.4099832412739487e-15 -30.75634673332435
    vertex 405.7721859658231 5.000000000000001 -30.75634673332435
  endloop
endfacet
facet normal 0.6087614290087128 0.0 0.7933533402912413
  outer loop
    vertex 405.2898240560281 1.4099832412739487e-15 -30.55654588831509
    vertex 404.875610493655 5.000000000000001 -30.23870864311931
    vertex 404.875610493655 1.4099832412739487e-15 -30.23870864311931
  endloop
endfacet
facet normal 0.6087614290087128 0.0 0.7933533402912413
  outer loop
    vertex 404.875610493655 5.000000000000001 -30.23870864311931
    vertex 405.2898240560281 1.4099832412739487e-15 -30.55654588831509
    vertex 405.2898240560281 5.000000000000001 -30.55654588831509
  endloop
endfacet
facet normal 0.7933533402912477 0.0 0.6087614290087043
  outer loop
    vertex 404.875610493655 5.000000000000001 -30.23870864311931
    vertex 404.5577732484592 1.4099832412739487e-15 -29.824495080746214
    vertex 404.875610493655 1.4099832412739487e-15 -30.23870864311931
  endloop
endfacet
facet normal 0.7933533402912477 0.0 0.6087614290087043
  outer loop
    vertex 404.5577732484592 1.4099832412739487e-15 -29.824495080746214
    vertex 404.875610493655 5.000000000000001 -30.23870864311931
    vertex 404.5577732484592 5.000000000000001 -29.824495080746214
  endloop
endfacet
facet normal 0.92387953251129 0.0 0.38268343236508207
  outer loop
    vertex 404.5577732484592 5.000000000000001 -29.824495080746214
    vertex 404.35797240345 1.4099832412739487e-15 -29.342133170951257
    vertex 404.5577732484592 1.4099832412739487e-15 -29.824495080746214
  endloop
endfacet
facet normal 0.92387953251129 0.0 0.38268343236508207
  outer loop
    vertex 404.35797240345 1.4099832412739487e-15 -29.342133170951257
    vertex 404.5577732484592 5.000000000000001 -29.824495080746214
    vertex 404.35797240345 5.000000000000001 -29.342133170951257
  endloop
endfacet
facet normal 0.9914448613738077 0.0 0.13052619222007342
  outer loop
    vertex 404.35797240345 5.000000000000001 -29.342133170951257
    vertex 404.2898240560281 1.4099832412739487e-15 -28.824495080746217
    vertex 404.35797240345 1.4099832412739487e-15 -29.342133170951257
  endloop
endfacet
facet normal 0.9914448613738077 0.0 0.13052619222007342
  outer loop
    vertex 404.2898240560281 1.4099832412739487e-15 -28.824495080746217
    vertex 404.35797240345 5.000000000000001 -29.342133170951257
    vertex 404.2898240560281 5.000000000000001 -28.824495080746217
  endloop
endfacet
facet normal 0.9914448613738077 0.0 -0.13052619222007342
  outer loop
    vertex 404.2898240560281 5.000000000000001 -28.824495080746217
    vertex 404.35797240345 1.4099832412739487e-15 -28.306856990541178
    vertex 404.2898240560281 1.4099832412739487e-15 -28.824495080746217
  endloop
endfacet
facet normal 0.9914448613738077 0.0 -0.13052619222007342
  outer loop
    vertex 404.35797240345 1.4099832412739487e-15 -28.306856990541178
    vertex 404.2898240560281 5.000000000000001 -28.824495080746217
    vertex 404.35797240345 5.000000000000001 -28.306856990541178
  endloop
endfacet
facet normal 0.92387953251129 0.0 -0.38268343236508207
  outer loop
    vertex 404.35797240345 5.000000000000001 -28.306856990541178
    vertex 404.5577732484592 1.4099832412739487e-15 -27.824495080746217
    vertex 404.35797240345 1.4099832412739487e-15 -28.306856990541178
  endloop
endfacet
facet normal 0.92387953251129 0.0 -0.38268343236508207
  outer loop
    vertex 404.5577732484592 1.4099832412739487e-15 -27.824495080746217
    vertex 404.35797240345 5.000000000000001 -28.306856990541178
    vertex 404.5577732484592 5.000000000000001 -27.824495080746217
  endloop
endfacet
facet normal 0.7933533402912477 0.0 -0.6087614290087043
  outer loop
    vertex 404.5577732484592 5.000000000000001 -27.824495080746217
    vertex 404.875610493655 1.4099832412739487e-15 -27.410281518373125
    vertex 404.5577732484592 1.4099832412739487e-15 -27.824495080746217
  endloop
endfacet
facet normal 0.7933533402912477 0.0 -0.6087614290087043
  outer loop
    vertex 404.875610493655 1.4099832412739487e-15 -27.410281518373125
    vertex 404.5577732484592 5.000000000000001 -27.824495080746217
    vertex 404.875610493655 5.000000000000001 -27.410281518373125
  endloop
endfacet
facet normal 0.6087614290087128 0.0 -0.7933533402912413
  outer loop
    vertex 405.2898240560281 5.000000000000001 -27.092444273177342
    vertex 404.875610493655 1.4099832412739487e-15 -27.410281518373125
    vertex 404.875610493655 5.000000000000001 -27.410281518373125
  endloop
endfacet
facet normal 0.6087614290087128 0.0 -0.7933533402912413
  outer loop
    vertex 404.875610493655 1.4099832412739487e-15 -27.410281518373125
    vertex 405.2898240560281 5.000000000000001 -27.092444273177342
    vertex 405.2898240560281 1.4099832412739487e-15 -27.092444273177342
  endloop
endfacet
facet normal 0.38268343236507985 0.0 -0.923879532511291
  outer loop
    vertex 405.7721859658231 5.000000000000001 -26.892643428168082
    vertex 405.2898240560281 1.4099832412739487e-15 -27.092444273177342
    vertex 405.2898240560281 5.000000000000001 -27.092444273177342
  endloop
endfacet
facet normal 0.38268343236507985 0.0 -0.923879532511291
  outer loop
    vertex 405.2898240560281 1.4099832412739487e-15 -27.092444273177342
    vertex 405.7721859658231 5.000000000000001 -26.892643428168082
    vertex 405.7721859658231 1.4099832412739487e-15 -26.892643428168082
  endloop
endfacet
facet normal 0.0 0.0 1.0
  outer loop
    vertex 404.35797240345 11.982361909794959 -41.32449508074622
    vertex 404.35797240345 13.017638090205045 -41.32449508074622
    vertex 404.2898240560281 12.500000000000002 -41.32449508074622
  endloop
endfacet
facet normal 0.0 0.0 1.0
  outer loop
    vertex 404.35797240345 13.017638090205045 -41.32449508074622
    vertex 404.35797240345 11.982361909794959 -41.32449508074622
    vertex 404.5577732484592 11.5 -41.32449508074622
  endloop
endfacet
facet normal 0.0 0.0 1.0
  outer loop
    vertex 404.35797240345 13.017638090205045 -41.32449508074622
    vertex 404.5577732484592 11.5 -41.32449508074622
    vertex 404.5577732484592 13.500000000000004 -41.32449508074622
  endloop
endfacet
facet normal 0.0 0.0 1.0
  outer loop
    vertex 404.5577732484592 13.500000000000004 -41.32449508074622
    vertex 404.5577732484592 11.5 -41.32449508074622
    vertex 404.875610493655 11.085786437626906 -41.32449508074622
  endloop
endfacet
facet normal 0.0 0.0 1.0
  outer loop
    vertex 404.5577732484592 13.500000000000004 -41.32449508074622
    vertex 404.875610493655 11.085786437626906 -41.32449508074622
    vertex 404.875610493655 13.914213562373098 -41.32449508074622
  endloop
endfacet
facet normal 0.0 0.0 1.0
  outer loop
    vertex 404.875610493655 13.914213562373098 -41.32449508074622
    vertex 404.875610493655 11.085786437626906 -41.32449508074622
    vertex 405.2898240560281 10.767949192431123 -41.32449508074622
  endloop
endfacet
facet normal 0.0 0.0 1.0
  outer loop
    vertex 404.875610493655 13.914213562373098 -41.32449508074622
    vertex 405.2898240560281 10.767949192431123 -41.32449508074622
    vertex 405.2898240560281 14.232050807568879 -41.32449508074622
  endloop
endfacet
facet normal 0.0 0.0 1.0
  outer loop
    vertex 405.2898240560281 14.232050807568879 -41.32449508074622
    vertex 405.2898240560281 10.767949192431123 -41.32449508074622
    vertex 405.7721859658231 10.568148347421866 -41.32449508074622
  endloop
endfacet
facet normal 0.0 0.0 1.0
  outer loop
    vertex 405.2898240560281 14.232050807568879 -41.32449508074622
    vertex 405.7721859658231 10.568148347421866 -41.32449508074622
    vertex 405.7721859658231 14.431851652578137 -41.32449508074622
  endloop
endfacet
facet normal 0.0 0.0 1.0
  outer loop
    vertex 405.7721859658231 14.431851652578137 -41.32449508074622
    vertex 405.7721859658231 10.568148347421866 -41.32449508074622
    vertex 406.2898240560281 10.500000000000002 -41.32449508074622
  endloop
endfacet
facet normal 0.0 0.0 1.0
  outer loop
    vertex 405.7721859658231 14.431851652578137 -41.32449508074622
    vertex 406.2898240560281 10.500000000000002 -41.32449508074622
    vertex 406.2898240560281 14.500000000000002 -41.32449508074622
  endloop
endfacet
facet normal 0.0 0.0 1.0
  outer loop
    vertex 406.2898240560281 14.500000000000002 -41.32449508074622
    vertex 406.2898240560281 10.500000000000002 -41.32449508074622
    vertex 406.80746214623315 10.568148347421866 -41.32449508074622
  endloop
endfacet
facet normal 0.0 0.0 1.0
  outer loop
    vertex 406.2898240560281 14.500000000000002 -41.32449508074622
    vertex 406.80746214623315 10.568148347421866 -41.32449508074622
    vertex 406.80746214623315 14.431851652578137 -41.32449508074622
  endloop
endfacet
facet normal 0.0 0.0 1.0
  outer loop
    vertex 406.80746214623315 14.431851652578137 -41.32449508074622
    vertex 406.80746214623315 10.568148347421866 -41.32449508074622
    vertex 407.2898240560281 10.767949192431125 -41.32449508074622
  endloop
endfacet
facet normal 0.0 0.0 1.0
  outer loop
    vertex 406.80746214623315 14.431851652578137 -41.32449508074622
    vertex 407.2898240560281 10.767949192431125 -41.32449508074622
    vertex 407.2898240560281 14.232050807568879 -41.32449508074622
  endloop
endfacet
facet normal 0.0 0.0 1.0
  outer loop
    vertex 407.2898240560281 14.232050807568879 -41.32449508074622
    vertex 407.2898240560281 10.767949192431125 -41.32449508074622
    vertex 407.70403761840123 11.085786437626906 -41.32449508074622
  endloop
endfacet
facet normal 0.0 0.0 1.0
  outer loop
    vertex 407.2898240560281 14.232050807568879 -41.32449508074622
    vertex 407.70403761840123 11.085786437626906 -41.32449508074622
    vertex 407.70403761840123 13.914213562373098 -41.32449508074622
  endloop
endfacet
facet normal 0.0 0.0 1.0
  outer loop
    vertex 407.70403761840123 13.914213562373098 -41.32449508074622
    vertex 407.70403761840123 11.085786437626906 -41.32449508074622
    vertex 408.02187486359696 11.5 -41.32449508074622
  endloop
endfacet
facet normal 0.0 0.0 1.0
  outer loop
    vertex 407.70403761840123 13.914213562373098 -41.32449508074622
    vertex 408.02187486359696 11.5 -41.32449508074622
    vertex 408.02187486359696 13.500000000000004 -41.32449508074622
  endloop
endfacet
facet normal 0.0 0.0 1.0
  outer loop
    vertex 408.02187486359696 13.500000000000004 -41.32449508074622
    vertex 408.02187486359696 11.5 -41.32449508074622
    vertex 408.22167570860626 11.982361909794959 -41.32449508074622
  endloop
endfacet
facet normal 0.0 0.0 1.0
  outer loop
    vertex 408.02187486359696 13.500000000000004 -41.32449508074622
    vertex 408.22167570860626 11.982361909794959 -41.32449508074622
    vertex 408.22167570860626 13.017638090205045 -41.32449508074622
  endloop
endfacet
facet normal 0.0 0.0 1.0
  outer loop
    vertex 408.22167570860626 13.017638090205045 -41.32449508074622
    vertex 408.22167570860626 11.982361909794959 -41.32449508074622
    vertex 408.2898240560281 12.500000000000002 -41.32449508074622
  endloop
endfacet
facet normal 0.13052619222005635 0.9914448613738099 0.0
  outer loop
    vertex 405.7721859658231 10.568148347421866 -36.32449508074622
    vertex 406.2898240560281 10.500000000000002 -41.32449508074622
    vertex 405.7721859658231 10.568148347421866 -41.32449508074622
  endloop
endfacet
facet normal 0.13052619222005635 0.9914448613738099 0.0
  outer loop
    vertex 406.2898240560281 10.500000000000002 -41.32449508074622
    vertex 405.7721859658231 10.568148347421866 -36.32449508074622
    vertex 406.2898240560281 10.500000000000002 -36.32449508074622
  endloop
endfacet
facet normal -0.13052619222004516 0.9914448613738113 0.0
  outer loop
    vertex 406.2898240560281 10.500000000000002 -36.32449508074622
    vertex 406.80746214623315 10.568148347421866 -41.32449508074622
    vertex 406.2898240560281 10.500000000000002 -41.32449508074622
  endloop
endfacet
facet normal -0.13052619222004516 0.9914448613738113 0.0
  outer loop
    vertex 406.80746214623315 10.568148347421866 -41.32449508074622
    vertex 406.2898240560281 10.500000000000002 -36.32449508074622
    vertex 406.80746214623315 10.568148347421866 -36.32449508074622
  endloop
endfacet
facet normal -0.38268343236507985 0.923879532511291 0.0
  outer loop
    vertex 406.80746214623315 10.568148347421866 -36.32449508074622
    vertex 407.2898240560281 10.767949192431125 -41.32449508074622
    vertex 406.80746214623315 10.568148347421866 -41.32449508074622
  endloop
endfacet
facet normal -0.38268343236507985 0.923879532511291 0.0
  outer loop
    vertex 407.2898240560281 10.767949192431125 -41.32449508074622
    vertex 406.80746214623315 10.568148347421866 -36.32449508074622
    vertex 407.2898240560281 10.767949192431125 -36.32449508074622
  endloop
endfacet
facet normal -0.6087614290087562 0.793353340291208 0.0
  outer loop
    vertex 407.2898240560281 10.767949192431125 -36.32449508074622
    vertex 407.70403761840123 11.085786437626906 -41.32449508074622
    vertex 407.2898240560281 10.767949192431125 -41.32449508074622
  endloop
endfacet
facet normal -0.6087614290087562 0.793353340291208 0.0
  outer loop
    vertex 407.70403761840123 11.085786437626906 -41.32449508074622
    vertex 407.2898240560281 10.767949192431125 -36.32449508074622
    vertex 407.70403761840123 11.085786437626906 -36.32449508074622
  endloop
endfacet
facet normal -0.7933533402912488 0.6087614290087031 0.0
  outer loop
    vertex 408.02187486359696 11.5 -36.32449508074622
    vertex 407.70403761840123 11.085786437626906 -41.32449508074622
    vertex 407.70403761840123 11.085786437626906 -36.32449508074622
  endloop
endfacet
facet normal -0.7933533402912488 0.6087614290087031 0.0
  outer loop
    vertex 407.70403761840123 11.085786437626906 -41.32449508074622
    vertex 408.02187486359696 11.5 -36.32449508074622
    vertex 408.02187486359696 11.5 -41.32449508074622
  endloop
endfacet
facet normal -0.9238795325112594 0.38268343236515584 0.0
  outer loop
    vertex 408.22167570860626 11.982361909794959 -36.32449508074622
    vertex 408.02187486359696 11.5 -41.32449508074622
    vertex 408.02187486359696 11.5 -36.32449508074622
  endloop
endfacet
facet normal -0.9238795325112594 0.38268343236515584 0.0
  outer loop
    vertex 408.02187486359696 11.5 -41.32449508074622
    vertex 408.22167570860626 11.982361909794959 -36.32449508074622
    vertex 408.22167570860626 11.982361909794959 -41.32449508074622
  endloop
endfacet
facet normal -0.9914448613738189 0.1305261922199881 0.0
  outer loop
    vertex 408.2898240560281 12.500000000000002 -36.32449508074622
    vertex 408.22167570860626 11.982361909794959 -41.32449508074622
    vertex 408.22167570860626 11.982361909794959 -36.32449508074622
  endloop
endfacet
facet normal -0.9914448613738189 0.1305261922199881 0.0
  outer loop
    vertex 408.22167570860626 11.982361909794959 -41.32449508074622
    vertex 408.2898240560281 12.500000000000002 -36.32449508074622
    vertex 408.2898240560281 12.500000000000002 -41.32449508074622
  endloop
endfacet
facet normal -0.9914448613738189 -0.1305261922199881 -0.0
  outer loop
    vertex 408.22167570860626 13.017638090205045 -36.32449508074622
    vertex 408.2898240560281 12.500000000000002 -41.32449508074622
    vertex 408.2898240560281 12.500000000000002 -36.32449508074622
  endloop
endfacet
facet normal -0.9914448613738189 -0.1305261922199881 -0.0
  outer loop
    vertex 408.2898240560281 12.500000000000002 -41.32449508074622
    vertex 408.22167570860626 13.017638090205045 -36.32449508074622
    vertex 408.22167570860626 13.017638090205045 -41.32449508074622
  endloop
endfacet
facet normal -0.9238795325112594 -0.38268343236515584 -0.0
  outer loop
    vertex 408.02187486359696 13.500000000000004 -36.32449508074622
    vertex 408.22167570860626 13.017638090205045 -41.32449508074622
    vertex 408.22167570860626 13.017638090205045 -36.32449508074622
  endloop
endfacet
facet normal -0.9238795325112594 -0.38268343236515584 -0.0
  outer loop
    vertex 408.22167570860626 13.017638090205045 -41.32449508074622
    vertex 408.02187486359696 13.500000000000004 -36.32449508074622
    vertex 408.02187486359696 13.500000000000004 -41.32449508074622
  endloop
endfacet
facet normal -0.7933533402912477 -0.6087614290087043 -0.0
  outer loop
    vertex 407.70403761840123 13.914213562373098 -36.32449508074622
    vertex 408.02187486359696 13.500000000000004 -41.32449508074622
    vertex 408.02187486359696 13.500000000000004 -36.32449508074622
  endloop
endfacet
facet normal -0.7933533402912477 -0.6087614290087043 -0.0
  outer loop
    vertex 408.02187486359696 13.500000000000004 -41.32449508074622
    vertex 407.70403761840123 13.914213562373098 -36.32449508074622
    vertex 407.70403761840123 13.914213562373098 -41.32449508074622
  endloop
endfacet
facet normal -0.6087614290087578 -0.7933533402912067 -0.0
  outer loop
    vertex 407.70403761840123 13.914213562373098 -36.32449508074622
    vertex 407.2898240560281 14.232050807568879 -41.32449508074622
    vertex 407.70403761840123 13.914213562373098 -41.32449508074622
  endloop
endfacet
facet normal -0.6087614290087578 -0.7933533402912067 -0.0
  outer loop
    vertex 407.2898240560281 14.232050807568879 -41.32449508074622
    vertex 407.70403761840123 13.914213562373098 -36.32449508074622
    vertex 407.2898240560281 14.232050807568879 -36.32449508074622
  endloop
endfacet
facet normal -0.38268343236507985 -0.923879532511291 -0.0
  outer loop
    vertex 407.2898240560281 14.232050807568879 -36.32449508074622
    vertex 406.80746214623315 14.431851652578137 -41.32449508074622
    vertex 407.2898240560281 14.232050807568879 -41.32449508074622
  endloop
endfacet
facet normal -0.38268343236507985 -0.923879532511291 -0.0
  outer loop
    vertex 406.80746214623315 14.431851652578137 -41.32449508074622
    vertex 407.2898240560281 14.232050807568879 -36.32449508074622
    vertex 406.80746214623315 14.431851652578137 -36.32449508074622
  endloop
endfacet
facet normal -0.13052619222004516 -0.9914448613738113 -0.0
  outer loop
    vertex 406.80746214623315 14.431851652578137 -36.32449508074622
    vertex 406.2898240560281 14.500000000000002 -41.32449508074622
    vertex 406.80746214623315 14.431851652578137 -41.32449508074622
  endloop
endfacet
facet normal -0.13052619222004516 -0.9914448613738113 -0.0
  outer loop
    vertex 406.2898240560281 14.500000000000002 -41.32449508074622
    vertex 406.80746214623315 14.431851652578137 -36.32449508074622
    vertex 406.2898240560281 14.500000000000002 -36.32449508074622
  endloop
endfacet
facet normal 0.13052619222005635 -0.9914448613738099 0.0
  outer loop
    vertex 406.2898240560281 14.500000000000002 -36.32449508074622
    vertex 405.7721859658231 14.431851652578137 -41.32449508074622
    vertex 406.2898240560281 14.500000000000002 -41.32449508074622
  endloop
endfacet
facet normal 0.13052619222005635 -0.9914448613738099 0.0
  outer loop
    vertex 405.7721859658231 14.431851652578137 -41.32449508074622
    vertex 406.2898240560281 14.500000000000002 -36.32449508074622
    vertex 405.7721859658231 14.431851652578137 -36.32449508074622
  endloop
endfacet
facet normal 0.38268343236507985 -0.923879532511291 0.0
  outer loop
    vertex 405.7721859658231 14.431851652578137 -36.32449508074622
    vertex 405.2898240560281 14.232050807568879 -41.32449508074622
    vertex 405.7721859658231 14.431851652578137 -41.32449508074622
  endloop
endfacet
facet normal 0.38268343236507985 -0.923879532511291 0.0
  outer loop
    vertex 405.2898240560281 14.232050807568879 -41.32449508074622
    vertex 405.7721859658231 14.431851652578137 -36.32449508074622
    vertex 405.2898240560281 14.232050807568879 -36.32449508074622
  endloop
endfacet
facet normal 0.6087614290087162 -0.7933533402912388 0.0
  outer loop
    vertex 405.2898240560281 14.232050807568879 -36.32449508074622
    vertex 404.875610493655 13.914213562373098 -41.32449508074622
    vertex 405.2898240560281 14.232050807568879 -41.32449508074622
  endloop
endfacet
facet normal 0.6087614290087162 -0.7933533402912388 0.0
  outer loop
    vertex 404.875610493655 13.914213562373098 -41.32449508074622
    vertex 405.2898240560281 14.232050807568879 -36.32449508074622
    vertex 404.875610493655 13.914213562373098 -36.32449508074622
  endloop
endfacet
facet normal 0.7933533402912477 -0.6087614290087043 0.0
  outer loop
    vertex 404.875610493655 13.914213562373098 -41.32449508074622
    vertex 404.5577732484592 13.500000000000004 -36.32449508074622
    vertex 404.5577732484592 13.500000000000004 -41.32449508074622
  endloop
endfacet
facet normal 0.7933533402912477 -0.6087614290087043 0.0
  outer loop
    vertex 404.5577732484592 13.500000000000004 -36.32449508074622
    vertex 404.875610493655 13.914213562373098 -41.32449508074622
    vertex 404.875610493655 13.914213562373098 -36.32449508074622
  endloop
endfacet
facet normal 0.92387953251129 -0.38268343236508207 0.0
  outer loop
    vertex 404.5577732484592 13.500000000000004 -41.32449508074622
    vertex 404.35797240345 13.017638090205045 -36.32449508074622
    vertex 404.35797240345 13.017638090205045 -41.32449508074622
  endloop
endfacet
facet normal 0.92387953251129 -0.38268343236508207 0.0
  outer loop
    vertex 404.35797240345 13.017638090205045 -36.32449508074622
    vertex 404.5577732484592 13.500000000000004 -41.32449508074622
    vertex 404.5577732484592 13.500000000000004 -36.32449508074622
  endloop
endfacet
facet normal 0.9914448613738077 -0.13052619222007306 0.0
  outer loop
    vertex 404.35797240345 13.017638090205045 -41.32449508074622
    vertex 404.2898240560281 12.500000000000002 -36.32449508074622
    vertex 404.2898240560281 12.500000000000002 -41.32449508074622
  endloop
endfacet
facet normal 0.9914448613738077 -0.13052619222007306 0.0
  outer loop
    vertex 404.2898240560281 12.500000000000002 -36.32449508074622
    vertex 404.35797240345 13.017638090205045 -41.32449508074622
    vertex 404.35797240345 13.017638090205045 -36.32449508074622
  endloop
endfacet
facet normal 0.9914448613738077 0.1305261922200727 0.0
  outer loop
    vertex 404.2898240560281 12.500000000000002 -41.32449508074622
    vertex 404.35797240345 11.982361909794959 -36.32449508074622
    vertex 404.35797240345 11.982361909794959 -41.32449508074622
  endloop
endfacet
facet normal 0.9914448613738077 0.1305261922200727 0.0
  outer loop
    vertex 404.35797240345 11.982361909794959 -36.32449508074622
    vertex 404.2898240560281 12.500000000000002 -41.32449508074622
    vertex 404.2898240560281 12.500000000000002 -36.32449508074622
  endloop
endfacet
facet normal 0.92387953251129 0.38268343236508207 0.0
  outer loop
    vertex 404.35797240345 11.982361909794959 -41.32449508074622
    vertex 404.5577732484592 11.5 -36.32449508074622
    vertex 404.5577732484592 11.5 -41.32449508074622
  endloop
endfacet
facet normal 0.92387953251129 0.38268343236508207 0.0
  outer loop
    vertex 404.5577732484592 11.5 -36.32449508074622
    vertex 404.35797240345 11.982361909794959 -41.32449508074622
    vertex 404.35797240345 11.982361909794959 -36.32449508074622
  endloop
endfacet
facet normal 0.7933533402912477 0.6087614290087043 0.0
  outer loop
    vertex 404.5577732484592 11.5 -41.32449508074622
    vertex 404.875610493655 11.085786437626906 -36.32449508074622
    vertex 404.875610493655 11.085786437626906 -41.32449508074622
  endloop
endfacet
facet normal 0.7933533402912477 0.6087614290087043 0.0
  outer loop
    vertex 404.875610493655 11.085786437626906 -36.32449508074622
    vertex 404.5577732484592 11.5 -41.32449508074622
    vertex 404.5577732484592 11.5 -36.32449508074622
  endloop
endfacet
facet normal 0.6087614290087162 0.7933533402912388 0.0
  outer loop
    vertex 404.875610493655 11.085786437626906 -36.32449508074622
    vertex 405.2898240560281 10.767949192431123 -41.32449508074622
    vertex 404.875610493655 11.085786437626906 -41.32449508074622
  endloop
endfacet
facet normal 0.6087614290087162 0.7933533402912388 0.0
  outer loop
    vertex 405.2898240560281 10.767949192431123 -41.32449508074622
    vertex 404.875610493655 11.085786437626906 -36.32449508074622
    vertex 405.2898240560281 10.767949192431123 -36.32449508074622
  endloop
endfacet
facet normal 0.38268343236507757 0.9238795325112918 0.0
  outer loop
    vertex 405.2898240560281 10.767949192431123 -36.32449508074622
    vertex 405.7721859658231 10.568148347421866 -41.32449508074622
    vertex 405.2898240560281 10.767949192431123 -41.32449508074622
  endloop
endfacet
facet normal 0.38268343236507757 0.9238795325112918 0.0
  outer loop
    vertex 405.7721859658231 10.568148347421866 -41.32449508074622
    vertex 405.2898240560281 10.767949192431123 -36.32449508074622
    vertex 405.7721859658231 10.568148347421866 -36.32449508074622
  endloop
endfacet
endsolid faience_pusherv2_002
