solid faience_pusherv2_002
facet normal 1.0 7.900663330193142e-32 -5.65804844494645e-32
  outer loop
    vertex 15.0 30.0 -26.578615149362676
    vertex 15.0 5.0 0.0
    vertex 15.0 5.0 -26.578615149362676
  endloop
endfacet
facet normal 1.0 7.900663330193142e-32 -5.65804844494645e-32
  outer loop
    vertex 15.0 5.0 0.0
    vertex 15.0 30.0 -26.578615149362676
    vertex 15.0 15.767949192431123 -7.644653787340669
  endloop
endfacet
facet normal 1.0 7.900663330193142e-32 -5.65804844494645e-32
  outer loop
    vertex 15.0 5.0 0.0
    vertex 15.0 15.767949192431123 -7.644653787340669
    vertex 15.0 15.568148347421863 -7.1622918775457105
  endloop
endfacet
facet normal 1.0 7.900663330193142e-32 -5.65804844494645e-32
  outer loop
    vertex 15.0 5.0 0.0
    vertex 15.0 15.568148347421863 -7.1622918775457105
    vertex 15.0 15.5 -6.644653787340671
  endloop
endfacet
facet normal 1.0 7.900663330193142e-32 -5.65804844494645e-32
  outer loop
    vertex 15.0 15.767949192431123 -7.644653787340669
    vertex 15.0 30.0 -26.578615149362676
    vertex 15.0 16.085786437626908 -8.058867349713763
  endloop
endfacet
facet normal 1.0 7.900663330193142e-32 -5.65804844494645e-32
  outer loop
    vertex 15.0 16.085786437626908 -8.058867349713763
    vertex 15.0 30.0 -26.578615149362676
    vertex 15.0 16.5 -8.37670459490955
  endloop
endfacet
facet normal 1.0 7.900663330193142e-32 -5.65804844494645e-32
  outer loop
    vertex 15.0 16.5 -8.37670459490955
    vertex 15.0 30.0 -26.578615149362676
    vertex 15.0 16.98236190979496 -8.576505439918806
  endloop
endfacet
facet normal 1.0 7.900663330193142e-32 -5.65804844494645e-32
  outer loop
    vertex 15.0 16.98236190979496 -8.576505439918806
    vertex 15.0 30.0 -26.578615149362676
    vertex 15.0 17.5 -8.644653787340669
  endloop
endfacet
facet normal 1.0 7.900663330193142e-32 -5.65804844494645e-32
  outer loop
    vertex 15.0 17.5 -8.644653787340669
    vertex 15.0 30.0 -26.578615149362676
    vertex 15.0 18.017638090205043 -8.576505439918806
  endloop
endfacet
facet normal 1.0 7.900663330193142e-32 -5.65804844494645e-32
  outer loop
    vertex 15.0 18.017638090205043 -8.576505439918806
    vertex 15.0 30.0 -26.578615149362676
    vertex 15.0 18.500000000000004 -8.376704594909546
  endloop
endfacet
facet normal 1.0 7.900663330193142e-32 -5.65804844494645e-32
  outer loop
    vertex 15.0 18.500000000000004 -8.376704594909546
    vertex 15.0 30.0 -26.578615149362676
    vertex 15.0 18.914213562373096 -8.058867349713763
  endloop
endfacet
facet normal 1.0 7.900663330193142e-32 -5.65804844494645e-32
  outer loop
    vertex 15.0 18.914213562373096 -8.058867349713763
    vertex 15.0 30.0 -26.578615149362676
    vertex 15.0 19.23205080756888 -7.644653787340669
  endloop
endfacet
facet normal 1.0 7.900663330193142e-32 -5.65804844494645e-32
  outer loop
    vertex 15.0 19.23205080756888 -7.644653787340669
    vertex 15.0 30.0 -26.578615149362676
    vertex 15.0 19.43185165257814 -7.1622918775457105
  endloop
endfacet
facet normal 1.0 7.900663330193142e-32 -5.65804844494645e-32
  outer loop
    vertex 15.0 19.43185165257814 -7.1622918775457105
    vertex 15.0 30.0 -26.578615149362676
    vertex 15.0 19.500000000000004 -6.644653787340671
  endloop
endfacet
facet normal 1.0 7.900663330193142e-32 -5.65804844494645e-32
  outer loop
    vertex 15.0 5.0 0.0
    vertex 15.0 16.98236190979496 -4.712802134762532
    vertex 15.0 30.0 0.0
  endloop
endfacet
facet normal 1.0 7.900663330193142e-32 -5.65804844494645e-32
  outer loop
    vertex 15.0 16.98236190979496 -4.712802134762532
    vertex 15.0 5.0 0.0
    vertex 15.0 16.5 -4.912602979771792
  endloop
endfacet
facet normal 1.0 7.900663330193142e-32 -5.65804844494645e-32
  outer loop
    vertex 15.0 16.5 -4.912602979771792
    vertex 15.0 5.0 0.0
    vertex 15.0 16.085786437626908 -5.230440224967572
  endloop
endfacet
facet normal 1.0 7.900663330193142e-32 -5.65804844494645e-32
  outer loop
    vertex 15.0 16.085786437626908 -5.230440224967572
    vertex 15.0 5.0 0.0
    vertex 15.0 15.767949192431123 -5.644653787340666
  endloop
endfacet
facet normal 1.0 7.900663330193142e-32 -5.65804844494645e-32
  outer loop
    vertex 15.0 15.767949192431123 -5.644653787340666
    vertex 15.0 5.0 0.0
    vertex 15.0 15.568148347421863 -6.12701569713563
  endloop
endfacet
facet normal 1.0 7.900663330193142e-32 -5.65804844494645e-32
  outer loop
    vertex 15.0 15.568148347421863 -6.12701569713563
    vertex 15.0 5.0 0.0
    vertex 15.0 15.5 -6.644653787340671
  endloop
endfacet
facet normal 1.0 7.900663330193142e-32 -5.65804844494645e-32
  outer loop
    vertex 15.0 30.0 0.0
    vertex 15.0 16.98236190979496 -4.712802134762532
    vertex 15.0 17.5 -4.644653787340668
  endloop
endfacet
facet normal 1.0 7.900663330193142e-32 -5.65804844494645e-32
  outer loop
    vertex 15.0 30.0 0.0
    vertex 15.0 17.5 -4.644653787340668
    vertex 15.0 18.017638090205043 -4.712802134762532
  endloop
endfacet
facet normal 1.0 7.900663330193142e-32 -5.65804844494645e-32
  outer loop
    vertex 15.0 30.0 0.0
    vertex 15.0 18.017638090205043 -4.712802134762532
    vertex 15.0 18.500000000000004 -4.912602979771792
  endloop
endfacet
facet normal 1.0 7.900663330193142e-32 -5.65804844494645e-32
  outer loop
    vertex 15.0 30.0 0.0
    vertex 15.0 18.500000000000004 -4.912602979771792
    vertex 15.0 18.914213562373096 -5.230440224967572
  endloop
endfacet
facet normal 1.0 7.900663330193142e-32 -5.65804844494645e-32
  outer loop
    vertex 15.0 30.0 0.0
    vertex 15.0 18.914213562373096 -5.230440224967572
    vertex 15.0 19.23205080756888 -5.644653787340666
  endloop
endfacet
facet normal 1.0 7.900663330193142e-32 -5.65804844494645e-32
  outer loop
    vertex 15.0 30.0 0.0
    vertex 15.0 19.23205080756888 -5.644653787340666
    vertex 15.0 19.43185165257814 -6.127015697135625
  endloop
endfacet
facet normal 1.0 7.900663330193142e-32 -5.65804844494645e-32
  outer loop
    vertex 15.0 30.0 0.0
    vertex 15.0 19.43185165257814 -6.127015697135625
    vertex 15.0 19.500000000000004 -6.644653787340671
  endloop
endfacet
facet normal 1.0 7.900663330193142e-32 -5.65804844494645e-32
  outer loop
    vertex 15.0 30.0 0.0
    vertex 15.0 19.500000000000004 -6.644653787340671
    vertex 15.0 30.0 -26.578615149362676
  endloop
endfacet
facet normal 0.0 0.0 1.0
  outer loop
    vertex 10.0 0.0 0.0
    vertex 15.0 5.0 0.0
    vertex 10.0 30.0 0.0
  endloop
endfacet
facet normal 0.0 0.0 1.0
  outer loop
    vertex 15.0 5.0 0.0
    vertex 10.0 0.0 0.0
    vertex 35.0 0.0 0.0
  endloop
endfacet
facet normal 0.0 0.0 1.0
  outer loop
    vertex 15.0 5.0 0.0
    vertex 35.0 0.0 0.0
    vertex 35.0 5.0 0.0
  endloop
endfacet
facet normal 0.0 0.0 1.0
  outer loop
    vertex 15.0 30.0 0.0
    vertex 10.0 30.0 0.0
    vertex 15.0 5.0 0.0
  endloop
endfacet
facet normal 4.4031551095497546e-34 1.0 -4.541438974835056e-32
  outer loop
    vertex 15.0 5.0 0.0
    vertex 35.0 5.0 -26.578615149362676
    vertex 15.0 5.0 -26.578615149362676
  endloop
endfacet
facet normal 4.4031551095497546e-34 1.0 -4.541438974835056e-32
  outer loop
    vertex 35.0 5.0 -26.578615149362676
    vertex 15.0 5.0 0.0
    vertex 23.585786437626908 5.0 -8.058867349713763
  endloop
endfacet
facet normal 4.4031551095497546e-34 1.0 -4.541438974835056e-32
  outer loop
    vertex 35.0 5.0 -26.578615149362676
    vertex 23.585786437626908 5.0 -8.058867349713763
    vertex 24.0 5.0 -8.376704594909546
  endloop
endfacet
facet normal 4.4031551095497546e-34 1.0 -4.541438974835056e-32
  outer loop
    vertex 35.0 5.0 -26.578615149362676
    vertex 24.0 5.0 -8.376704594909546
    vertex 24.48236190979496 5.0 -8.576505439918803
  endloop
endfacet
facet normal 4.4031551095497546e-34 1.0 -4.541438974835056e-32
  outer loop
    vertex 35.0 5.0 -26.578615149362676
    vertex 24.48236190979496 5.0 -8.576505439918803
    vertex 25.000000000000004 5.0 -8.644653787340667
  endloop
endfacet
facet normal 4.4031551095497546e-34 1.0 -4.541438974835056e-32
  outer loop
    vertex 23.585786437626908 5.0 -8.058867349713763
    vertex 15.0 5.0 0.0
    vertex 23.267949192431125 5.0 -7.644653787340669
  endloop
endfacet
facet normal 4.4031551095497546e-34 1.0 -4.541438974835056e-32
  outer loop
    vertex 23.267949192431125 5.0 -7.644653787340669
    vertex 15.0 5.0 0.0
    vertex 23.068148347421868 5.0 -7.1622918775457105
  endloop
endfacet
facet normal 4.4031551095497546e-34 1.0 -4.541438974835056e-32
  outer loop
    vertex 23.068148347421868 5.0 -7.1622918775457105
    vertex 15.0 5.0 0.0
    vertex 23.000000000000004 5.0 -6.644653787340671
  endloop
endfacet
facet normal 4.4031551095497546e-34 1.0 -4.541438974835056e-32
  outer loop
    vertex 23.000000000000004 5.0 -6.644653787340671
    vertex 15.0 5.0 0.0
    vertex 23.068148347421868 5.0 -6.127015697135625
  endloop
endfacet
facet normal 4.4031551095497546e-34 1.0 -4.541438974835056e-32
  outer loop
    vertex 23.068148347421868 5.0 -6.127015697135625
    vertex 15.0 5.0 0.0
    vertex 23.267949192431125 5.0 -5.644653787340666
  endloop
endfacet
facet normal 4.4031551095497546e-34 1.0 -4.541438974835056e-32
  outer loop
    vertex 23.267949192431125 5.0 -5.644653787340666
    vertex 15.0 5.0 0.0
    vertex 23.585786437626908 5.0 -5.230440224967572
  endloop
endfacet
facet normal 4.4031551095497546e-34 1.0 -4.541438974835056e-32
  outer loop
    vertex 23.585786437626908 5.0 -5.230440224967572
    vertex 15.0 5.0 0.0
    vertex 24.0 5.0 -4.912602979771792
  endloop
endfacet
facet normal 4.4031551095497546e-34 1.0 -4.541438974835056e-32
  outer loop
    vertex 24.0 5.0 -4.912602979771792
    vertex 15.0 5.0 0.0
    vertex 24.48236190979496 5.0 -4.712802134762532
  endloop
endfacet
facet normal 4.4031551095497546e-34 1.0 -4.541438974835056e-32
  outer loop
    vertex 24.48236190979496 5.0 -4.712802134762532
    vertex 15.0 5.0 0.0
    vertex 25.000000000000004 5.0 -4.644653787340668
  endloop
endfacet
facet normal 4.4031551095497546e-34 1.0 -4.541438974835056e-32
  outer loop
    vertex 35.0 5.0 -26.578615149362676
    vertex 26.4142135623731 5.0 -8.058867349713763
    vertex 35.0 5.0 0.0
  endloop
endfacet
facet normal 4.4031551095497546e-34 1.0 -4.541438974835056e-32
  outer loop
    vertex 26.4142135623731 5.0 -8.058867349713763
    vertex 35.0 5.0 -26.578615149362676
    vertex 26.000000000000004 5.0 -8.376704594909546
  endloop
endfacet
facet normal 4.4031551095497546e-34 1.0 -4.541438974835056e-32
  outer loop
    vertex 26.000000000000004 5.0 -8.376704594909546
    vertex 35.0 5.0 -26.578615149362676
    vertex 25.517638090205043 5.0 -8.576505439918806
  endloop
endfacet
facet normal 4.4031551095497546e-34 1.0 -4.541438974835056e-32
  outer loop
    vertex 25.517638090205043 5.0 -8.576505439918806
    vertex 35.0 5.0 -26.578615149362676
    vertex 25.000000000000004 5.0 -8.644653787340667
  endloop
endfacet
facet normal 4.4031551095497546e-34 1.0 -4.541438974835056e-32
  outer loop
    vertex 35.0 5.0 0.0
    vertex 26.4142135623731 5.0 -8.058867349713763
    vertex 26.732050807568882 5.0 -7.644653787340669
  endloop
endfacet
facet normal 4.4031551095497546e-34 1.0 -4.541438974835056e-32
  outer loop
    vertex 35.0 5.0 0.0
    vertex 26.732050807568882 5.0 -7.644653787340669
    vertex 26.931851652578143 5.0 -7.1622918775457105
  endloop
endfacet
facet normal 4.4031551095497546e-34 1.0 -4.541438974835056e-32
  outer loop
    vertex 35.0 5.0 0.0
    vertex 26.931851652578143 5.0 -7.1622918775457105
    vertex 27.000000000000007 5.0 -6.644653787340671
  endloop
endfacet
facet normal 4.4031551095497546e-34 1.0 -4.541438974835056e-32
  outer loop
    vertex 35.0 5.0 0.0
    vertex 27.000000000000007 5.0 -6.644653787340671
    vertex 26.931851652578143 5.0 -6.12701569713563
  endloop
endfacet
facet normal 4.4031551095497546e-34 1.0 -4.541438974835056e-32
  outer loop
    vertex 35.0 5.0 0.0
    vertex 26.931851652578143 5.0 -6.12701569713563
    vertex 26.732050807568882 5.0 -5.644653787340673
  endloop
endfacet
facet normal 4.4031551095497546e-34 1.0 -4.541438974835056e-32
  outer loop
    vertex 35.0 5.0 0.0
    vertex 26.732050807568882 5.0 -5.644653787340673
    vertex 26.4142135623731 5.0 -5.230440224967578
  endloop
endfacet
facet normal 4.4031551095497546e-34 1.0 -4.541438974835056e-32
  outer loop
    vertex 35.0 5.0 0.0
    vertex 26.4142135623731 5.0 -5.230440224967578
    vertex 26.000000000000004 5.0 -4.912602979771792
  endloop
endfacet
facet normal 4.4031551095497546e-34 1.0 -4.541438974835056e-32
  outer loop
    vertex 35.0 5.0 0.0
    vertex 26.000000000000004 5.0 -4.912602979771792
    vertex 25.51763809020505 5.0 -4.712802134762532
  endloop
endfacet
facet normal 4.4031551095497546e-34 1.0 -4.541438974835056e-32
  outer loop
    vertex 35.0 5.0 0.0
    vertex 25.51763809020505 5.0 -4.712802134762532
    vertex 25.000000000000004 5.0 -4.644653787340668
  endloop
endfacet
facet normal 4.4031551095497546e-34 1.0 -4.541438974835056e-32
  outer loop
    vertex 35.0 5.0 0.0
    vertex 25.000000000000004 5.0 -4.644653787340668
    vertex 15.0 5.0 0.0
  endloop
endfacet
facet normal -1.0 0.0 0.0
  outer loop
    vertex 10.0 0.0 0.0
    vertex 10.000000000000002 15.767949192431123 -5.644653787340666
    vertex 10.0 0.0 -31.456929588547574
  endloop
endfacet
facet normal -1.0 0.0 0.0
  outer loop
    vertex 10.000000000000002 15.767949192431123 -5.644653787340666
    vertex 10.0 0.0 0.0
    vertex 10.000000000000002 16.085786437626908 -5.230440224967572
  endloop
endfacet
facet normal -1.0 0.0 0.0
  outer loop
    vertex 10.000000000000002 16.085786437626908 -5.230440224967572
    vertex 10.0 0.0 0.0
    vertex 10.000000000000002 16.5 -4.912602979771792
  endloop
endfacet
facet normal -1.0 0.0 0.0
  outer loop
    vertex 10.000000000000002 16.5 -4.912602979771792
    vertex 10.0 0.0 0.0
    vertex 10.000000000000002 16.98236190979496 -4.712802134762532
  endloop
endfacet
facet normal -1.0 0.0 0.0
  outer loop
    vertex 10.000000000000002 16.98236190979496 -4.712802134762532
    vertex 10.0 0.0 0.0
    vertex 10.0 30.0 0.0
  endloop
endfacet
facet normal -1.0 0.0 0.0
  outer loop
    vertex 10.0 0.0 -31.456929588547574
    vertex 10.000000000000002 15.767949192431123 -5.644653787340666
    vertex 10.000000000000002 15.568148347421863 -6.12701569713563
  endloop
endfacet
facet normal -1.0 0.0 0.0
  outer loop
    vertex 10.0 0.0 -31.456929588547574
    vertex 10.000000000000002 15.568148347421863 -6.12701569713563
    vertex 10.000000000000002 15.5 -6.644653787340671
  endloop
endfacet
facet normal -1.0 0.0 0.0
  outer loop
    vertex 10.000000000000002 16.98236190979496 -4.712802134762532
    vertex 10.0 30.0 0.0
    vertex 10.000000000000002 17.5 -4.644653787340668
  endloop
endfacet
facet normal -1.0 0.0 0.0
  outer loop
    vertex 10.000000000000002 17.5 -4.644653787340668
    vertex 10.0 30.0 0.0
    vertex 10.000000000000002 18.017638090205043 -4.712802134762532
  endloop
endfacet
facet normal -1.0 0.0 0.0
  outer loop
    vertex 10.000000000000002 18.017638090205043 -4.712802134762532
    vertex 10.0 30.0 0.0
    vertex 10.000000000000002 18.500000000000004 -4.912602979771792
  endloop
endfacet
facet normal -1.0 0.0 0.0
  outer loop
    vertex 10.000000000000002 18.500000000000004 -4.912602979771792
    vertex 10.0 30.0 0.0
    vertex 10.000000000000002 18.914213562373096 -5.230440224967572
  endloop
endfacet
facet normal -1.0 0.0 0.0
  outer loop
    vertex 10.000000000000002 18.914213562373096 -5.230440224967572
    vertex 10.0 30.0 0.0
    vertex 10.000000000000002 19.23205080756888 -5.644653787340666
  endloop
endfacet
facet normal -1.0 0.0 0.0
  outer loop
    vertex 10.000000000000002 19.23205080756888 -5.644653787340666
    vertex 10.0 30.0 0.0
    vertex 10.000000000000002 19.43185165257814 -6.127015697135625
  endloop
endfacet
facet normal -1.0 0.0 0.0
  outer loop
    vertex 10.000000000000002 19.43185165257814 -6.127015697135625
    vertex 10.0 30.0 0.0
    vertex 10.000000000000002 19.500000000000004 -6.644653787340671
  endloop
endfacet
facet normal -1.0 0.0 0.0
  outer loop
    vertex 10.0 0.0 -31.456929588547574
    vertex 10.000000000000002 15.767949192431123 -7.644653787340669
    vertex 10.0 30.0 -31.456929588547574
  endloop
endfacet
facet normal -1.0 0.0 0.0
  outer loop
    vertex 10.000000000000002 15.767949192431123 -7.644653787340669
    vertex 10.0 0.0 -31.456929588547574
    vertex 10.000000000000002 15.568148347421863 -7.1622918775457105
  endloop
endfacet
facet normal -1.0 0.0 0.0
  outer loop
    vertex 10.000000000000002 15.568148347421863 -7.1622918775457105
    vertex 10.0 0.0 -31.456929588547574
    vertex 10.000000000000002 15.5 -6.644653787340671
  endloop
endfacet
facet normal -1.0 0.0 0.0
  outer loop
    vertex 10.0 30.0 -31.456929588547574
    vertex 10.000000000000002 15.767949192431123 -7.644653787340669
    vertex 10.000000000000002 16.085786437626908 -8.058867349713763
  endloop
endfacet
facet normal -1.0 0.0 0.0
  outer loop
    vertex 10.0 30.0 -31.456929588547574
    vertex 10.000000000000002 16.085786437626908 -8.058867349713763
    vertex 10.000000000000002 16.5 -8.37670459490955
  endloop
endfacet
facet normal -1.0 0.0 0.0
  outer loop
    vertex 10.0 30.0 -31.456929588547574
    vertex 10.000000000000002 16.5 -8.37670459490955
    vertex 10.000000000000002 16.98236190979496 -8.576505439918806
  endloop
endfacet
facet normal -1.0 0.0 0.0
  outer loop
    vertex 10.0 30.0 -31.456929588547574
    vertex 10.000000000000002 16.98236190979496 -8.576505439918806
    vertex 10.000000000000002 17.5 -8.644653787340669
  endloop
endfacet
facet normal -1.0 0.0 0.0
  outer loop
    vertex 10.0 30.0 -31.456929588547574
    vertex 10.000000000000002 17.5 -8.644653787340669
    vertex 10.000000000000002 18.017638090205043 -8.576505439918806
  endloop
endfacet
facet normal -1.0 0.0 0.0
  outer loop
    vertex 10.0 30.0 -31.456929588547574
    vertex 10.000000000000002 18.017638090205043 -8.576505439918806
    vertex 10.000000000000002 18.500000000000004 -8.376704594909546
  endloop
endfacet
facet normal -1.0 0.0 0.0
  outer loop
    vertex 10.0 30.0 -31.456929588547574
    vertex 10.000000000000002 18.500000000000004 -8.376704594909546
    vertex 10.000000000000002 18.914213562373096 -8.058867349713763
  endloop
endfacet
facet normal -1.0 0.0 0.0
  outer loop
    vertex 10.0 30.0 -31.456929588547574
    vertex 10.000000000000002 18.914213562373096 -8.058867349713763
    vertex 10.000000000000002 19.23205080756888 -7.644653787340669
  endloop
endfacet
facet normal -1.0 0.0 0.0
  outer loop
    vertex 10.0 30.0 -31.456929588547574
    vertex 10.000000000000002 19.23205080756888 -7.644653787340669
    vertex 10.000000000000002 19.43185165257814 -7.1622918775457105
  endloop
endfacet
facet normal -1.0 0.0 0.0
  outer loop
    vertex 10.0 30.0 -31.456929588547574
    vertex 10.000000000000002 19.43185165257814 -7.1622918775457105
    vertex 10.000000000000002 19.500000000000004 -6.644653787340671
  endloop
endfacet
facet normal -1.0 0.0 0.0
  outer loop
    vertex 10.0 30.0 -31.456929588547574
    vertex 10.000000000000002 19.500000000000004 -6.644653787340671
    vertex 10.0 30.0 0.0
  endloop
endfacet
facet normal -0.024329907987840883 -2.916888556501409e-19 -0.9997039839759083
  outer loop
    vertex 15.0 30.0 -31.57861514936268
    vertex 10.0 0.0 -31.456929588547574
    vertex 10.0 30.0 -31.456929588547574
  endloop
endfacet
facet normal -0.024329907987840883 -2.916888556501409e-19 -0.9997039839759083
  outer loop
    vertex 10.0 0.0 -31.456929588547574
    vertex 15.0 30.0 -31.57861514936268
    vertex 15.0 0.0 -31.57861514936268
  endloop
endfacet
facet normal -0.024329907987840883 -2.916888556501409e-19 -0.9997039839759083
  outer loop
    vertex 15.0 0.0 -31.57861514936268
    vertex 15.0 30.0 -31.57861514936268
    vertex 15.0 5.0 -31.57861514936268
  endloop
endfacet
facet normal 0.0 0.0 -1.0
  outer loop
    vertex 35.0 5.0 -31.57861514936268
    vertex 15.0 0.0 -31.57861514936268
    vertex 15.0 5.0 -31.57861514936268
  endloop
endfacet
facet normal 0.0 0.0 -1.0
  outer loop
    vertex 15.0 0.0 -31.57861514936268
    vertex 35.0 5.0 -31.57861514936268
    vertex 35.0 0.0 -31.57861514936268
  endloop
endfacet
facet normal 0.0 1.0 0.0
  outer loop
    vertex 10.0 30.0 -31.456929588547574
    vertex 15.0 30.0 -26.578615149362676
    vertex 15.0 30.0 -31.57861514936268
  endloop
endfacet
facet normal 0.0 1.0 0.0
  outer loop
    vertex 15.0 30.0 -26.578615149362676
    vertex 10.0 30.0 -31.456929588547574
    vertex 10.0 30.0 0.0
  endloop
endfacet
facet normal 0.0 1.0 0.0
  outer loop
    vertex 15.0 30.0 -26.578615149362676
    vertex 10.0 30.0 0.0
    vertex 15.0 30.0 0.0
  endloop
endfacet
facet normal 0.0 -1.0 0.0
  outer loop
    vertex 35.0 0.0 0.0
    vertex 15.0 0.0 -31.57861514936268
    vertex 35.0 0.0 -31.57861514936268
  endloop
endfacet
facet normal 0.0 -1.0 0.0
  outer loop
    vertex 15.0 0.0 -31.57861514936268
    vertex 35.0 0.0 0.0
    vertex 10.0 0.0 -31.456929588547574
  endloop
endfacet
facet normal 0.0 -1.0 0.0
  outer loop
    vertex 10.0 0.0 -31.456929588547574
    vertex 35.0 0.0 0.0
    vertex 26.4142135623731 0.0 -8.058867349713763
  endloop
endfacet
facet normal 0.0 -1.0 0.0
  outer loop
    vertex 10.0 0.0 -31.456929588547574
    vertex 26.4142135623731 0.0 -8.058867349713763
    vertex 26.000000000000004 0.0 -8.376704594909546
  endloop
endfacet
facet normal 0.0 -1.0 0.0
  outer loop
    vertex 10.0 0.0 -31.456929588547574
    vertex 26.000000000000004 0.0 -8.376704594909546
    vertex 25.517638090205043 0.0 -8.576505439918806
  endloop
endfacet
facet normal 0.0 -1.0 0.0
  outer loop
    vertex 10.0 0.0 -31.456929588547574
    vertex 25.517638090205043 0.0 -8.576505439918806
    vertex 25.000000000000004 0.0 -8.644653787340667
  endloop
endfacet
facet normal 0.0 -1.0 0.0
  outer loop
    vertex 26.4142135623731 0.0 -8.058867349713763
    vertex 35.0 0.0 0.0
    vertex 26.732050807568882 0.0 -7.644653787340669
  endloop
endfacet
facet normal 0.0 -1.0 0.0
  outer loop
    vertex 26.732050807568882 0.0 -7.644653787340669
    vertex 35.0 0.0 0.0
    vertex 26.931851652578143 0.0 -7.1622918775457105
  endloop
endfacet
facet normal 0.0 -1.0 0.0
  outer loop
    vertex 26.931851652578143 0.0 -7.1622918775457105
    vertex 35.0 0.0 0.0
    vertex 27.000000000000007 0.0 -6.644653787340671
  endloop
endfacet
facet normal 0.0 -1.0 0.0
  outer loop
    vertex 27.000000000000007 0.0 -6.644653787340671
    vertex 35.0 0.0 0.0
    vertex 26.931851652578143 0.0 -6.12701569713563
  endloop
endfacet
facet normal 0.0 -1.0 0.0
  outer loop
    vertex 26.931851652578143 0.0 -6.12701569713563
    vertex 35.0 0.0 0.0
    vertex 26.732050807568882 0.0 -5.644653787340673
  endloop
endfacet
facet normal 0.0 -1.0 0.0
  outer loop
    vertex 26.732050807568882 0.0 -5.644653787340673
    vertex 35.0 0.0 0.0
    vertex 26.4142135623731 0.0 -5.230440224967578
  endloop
endfacet
facet normal 0.0 -1.0 0.0
  outer loop
    vertex 26.4142135623731 0.0 -5.230440224967578
    vertex 35.0 0.0 0.0
    vertex 26.000000000000004 0.0 -4.912602979771792
  endloop
endfacet
facet normal 0.0 -1.0 0.0
  outer loop
    vertex 26.000000000000004 0.0 -4.912602979771792
    vertex 35.0 0.0 0.0
    vertex 25.51763809020505 0.0 -4.712802134762532
  endloop
endfacet
facet normal 0.0 -1.0 0.0
  outer loop
    vertex 25.51763809020505 0.0 -4.712802134762532
    vertex 35.0 0.0 0.0
    vertex 25.000000000000004 0.0 -4.644653787340668
  endloop
endfacet
facet normal 0.0 -1.0 0.0
  outer loop
    vertex 10.0 0.0 -31.456929588547574
    vertex 24.0 0.0 -8.376704594909546
    vertex 10.0 0.0 0.0
  endloop
endfacet
facet normal 0.0 -1.0 0.0
  outer loop
    vertex 24.0 0.0 -8.376704594909546
    vertex 10.0 0.0 -31.456929588547574
    vertex 24.48236190979496 0.0 -8.576505439918803
  endloop
endfacet
facet normal 0.0 -1.0 0.0
  outer loop
    vertex 24.48236190979496 0.0 -8.576505439918803
    vertex 10.0 0.0 -31.456929588547574
    vertex 25.000000000000004 0.0 -8.644653787340667
  endloop
endfacet
facet normal 0.0 -1.0 0.0
  outer loop
    vertex 10.0 0.0 0.0
    vertex 24.0 0.0 -8.376704594909546
    vertex 23.585786437626908 0.0 -8.058867349713763
  endloop
endfacet
facet normal 0.0 -1.0 0.0
  outer loop
    vertex 10.0 0.0 0.0
    vertex 23.585786437626908 0.0 -8.058867349713763
    vertex 23.267949192431125 0.0 -7.644653787340669
  endloop
endfacet
facet normal 0.0 -1.0 0.0
  outer loop
    vertex 10.0 0.0 0.0
    vertex 23.267949192431125 0.0 -7.644653787340669
    vertex 23.068148347421868 0.0 -7.1622918775457105
  endloop
endfacet
facet normal 0.0 -1.0 0.0
  outer loop
    vertex 10.0 0.0 0.0
    vertex 23.068148347421868 0.0 -7.1622918775457105
    vertex 23.000000000000004 0.0 -6.644653787340671
  endloop
endfacet
facet normal 0.0 -1.0 0.0
  outer loop
    vertex 10.0 0.0 0.0
    vertex 23.000000000000004 0.0 -6.644653787340671
    vertex 23.068148347421868 0.0 -6.127015697135625
  endloop
endfacet
facet normal 0.0 -1.0 0.0
  outer loop
    vertex 10.0 0.0 0.0
    vertex 23.068148347421868 0.0 -6.127015697135625
    vertex 23.267949192431125 0.0 -5.644653787340666
  endloop
endfacet
facet normal 0.0 -1.0 0.0
  outer loop
    vertex 10.0 0.0 0.0
    vertex 23.267949192431125 0.0 -5.644653787340666
    vertex 23.585786437626908 0.0 -5.230440224967572
  endloop
endfacet
facet normal 0.0 -1.0 0.0
  outer loop
    vertex 10.0 0.0 0.0
    vertex 23.585786437626908 0.0 -5.230440224967572
    vertex 24.0 0.0 -4.912602979771792
  endloop
endfacet
facet normal 0.0 -1.0 0.0
  outer loop
    vertex 10.0 0.0 0.0
    vertex 24.0 0.0 -4.912602979771792
    vertex 24.48236190979496 0.0 -4.712802134762532
  endloop
endfacet
facet normal 0.0 -1.0 0.0
  outer loop
    vertex 10.0 0.0 0.0
    vertex 24.48236190979496 0.0 -4.712802134762532
    vertex 25.000000000000004 0.0 -4.644653787340668
  endloop
endfacet
facet normal 0.0 -1.0 0.0
  outer loop
    vertex 10.0 0.0 0.0
    vertex 25.000000000000004 0.0 -4.644653787340668
    vertex 35.0 0.0 0.0
  endloop
endfacet
facet normal 0.0 0.0 -1.0
  outer loop
    vertex 26.364221292374808 26.390652559528387 -31.57861514936268
    vertex 26.33679896407187 19.809020539077334 -31.57861514936268
    vertex 24.015254079309205 26.43932671194812 -31.57861514936268
  endloop
endfacet
facet normal 0.0 0.0 -1.0
  outer loop
    vertex 26.33679896407187 19.809020539077334 -31.57861514936268
    vertex 26.364221292374808 26.390652559528387 -31.57861514936268
    vertex 26.36869086631605 20.280441138739754 -31.57861514936268
  endloop
endfacet
facet normal 0.0 0.0 -1.0
  outer loop
    vertex 26.36869086631605 20.280441138739754 -31.57861514936268
    vertex 26.364221292374808 26.390652559528387 -31.57861514936268
    vertex 26.52150870778948 20.727544239313023 -31.57861514936268
  endloop
endfacet
facet normal 0.0 0.0 -1.0
  outer loop
    vertex 26.52150870778948 20.727544239313023 -31.57861514936268
    vertex 26.364221292374808 26.390652559528387 -31.57861514936268
    vertex 28.620551590930674 25.735679487570675 -31.57861514936268
  endloop
endfacet
facet normal 0.0 0.0 -1.0
  outer loop
    vertex 26.52150870778948 20.727544239313023 -31.57861514936268
    vertex 28.620551590930674 25.735679487570675 -31.57861514936268
    vertex 26.78483820513916 21.11986050336588 -31.57861514936268
  endloop
endfacet
facet normal 0.0 0.0 -1.0
  outer loop
    vertex 26.78483820513916 21.11986050336588 -31.57861514936268
    vertex 28.620551590930674 25.735679487570675 -31.57861514936268
    vertex 27.14073388829329 21.43065422583641 -31.57861514936268
  endloop
endfacet
facet normal 0.0 0.0 -1.0
  outer loop
    vertex 27.14073388829329 21.43065422583641 -31.57861514936268
    vertex 28.620551590930674 25.735679487570675 -31.57861514936268
    vertex 27.564942054590333 21.638745328149145 -31.57861514936268
  endloop
endfacet
facet normal 0.0 0.0 -1.0
  outer loop
    vertex 27.564942054590333 21.638745328149145 -31.57861514936268
    vertex 28.620551590930674 25.735679487570675 -31.57861514936268
    vertex 28.028553618534286 21.729952745568287 -31.57861514936268
  endloop
endfacet
facet normal 0.0 0.0 -1.0
  outer loop
    vertex 28.028553618534286 21.729952745568287 -31.57861514936268
    vertex 28.620551590930674 25.735679487570675 -31.57861514936268
    vertex 28.49997421819671 21.698060843324104 -31.57861514936268
  endloop
endfacet
facet normal 0.0 0.0 -1.0
  outer loop
    vertex 28.49997421819671 21.698060843324104 -31.57861514936268
    vertex 28.620551590930674 25.735679487570675 -31.57861514936268
    vertex 28.947077318769978 21.545243001850675 -31.57861514936268
  endloop
endfacet
facet normal 0.0 0.0 -1.0
  outer loop
    vertex 28.947077318769978 21.545243001850675 -31.57861514936268
    vertex 28.620551590930674 25.735679487570675 -31.57861514936268
    vertex 30.630479793892345 24.51904282853471 -31.57861514936268
  endloop
endfacet
facet normal 0.0 0.0 -1.0
  outer loop
    vertex 28.947077318769978 21.545243001850675 -31.57861514936268
    vertex 30.630479793892345 24.51904282853471 -31.57861514936268
    vertex 29.339393582822836 21.28191350450099 -31.57861514936268
  endloop
endfacet
facet normal 0.0 0.0 -1.0
  outer loop
    vertex 29.339393582822836 21.28191350450099 -31.57861514936268
    vertex 30.630479793892345 24.51904282853471 -31.57861514936268
    vertex 29.65018730529336 20.926017821346864 -31.57861514936268
  endloop
endfacet
facet normal 0.0 0.0 -1.0
  outer loop
    vertex 29.65018730529336 20.926017821346864 -31.57861514936268
    vertex 30.630479793892345 24.51904282853471 -31.57861514936268
    vertex 29.8582784076061 20.501809655049822 -31.57861514936268
  endloop
endfacet
facet normal 0.0 0.0 -1.0
  outer loop
    vertex 29.8582784076061 20.501809655049822 -31.57861514936268
    vertex 30.630479793892345 24.51904282853471 -31.57861514936268
    vertex 29.94948582502524 20.03819809110587 -31.57861514936268
  endloop
endfacet
facet normal 0.0 0.0 -1.0
  outer loop
    vertex 29.94948582502524 20.03819809110587 -31.57861514936268
    vertex 30.630479793892345 24.51904282853471 -31.57861514936268
    vertex 30.601656305334274 10.497929618332156 -31.57861514936268
  endloop
endfacet
facet normal 0.0 0.0 -1.0
  outer loop
    vertex 30.601656305334274 10.497929618332156 -31.57861514936268
    vertex 30.630479793892345 24.51904282853471 -31.57861514936268
    vertex 32.03002111657544 11.868300396325346 -31.57861514936268
  endloop
endfacet
facet normal 0.0 0.0 -1.0
  outer loop
    vertex 32.03002111657544 11.868300396325346 -31.57861514936268
    vertex 30.630479793892345 24.51904282853471 -31.57861514936268
    vertex 32.2570326157914 22.823654360146655 -31.57861514936268
  endloop
endfacet
facet normal 0.0 0.0 -1.0
  outer loop
    vertex 32.03002111657544 11.868300396325346 -31.57861514936268
    vertex 32.2570326157914 22.823654360146655 -31.57861514936268
    vertex 33.2466577756114 13.87822859928702 -31.57861514936268
  endloop
endfacet
facet normal 0.0 0.0 -1.0
  outer loop
    vertex 33.2466577756114 13.87822859928702 -31.57861514936268
    vertex 32.2570326157914 22.823654360146655 -31.57861514936268
    vertex 33.38936316982104 20.76505200476525 -31.57861514936268
  endloop
endfacet
facet normal 0.0 0.0 -1.0
  outer loop
    vertex 33.2466577756114 13.87822859928702 -31.57861514936268
    vertex 33.38936316982104 20.76505200476525 -31.57861514936268
    vertex 33.901630847569116 16.134558897842883 -31.57861514936268
  endloop
endfacet
facet normal 0.0 0.0 -1.0
  outer loop
    vertex 33.901630847569116 16.134558897842883 -31.57861514936268
    vertex 33.38936316982104 20.76505200476525 -31.57861514936268
    vertex 33.95030499998885 18.483526110908485 -31.57861514936268
  endloop
endfacet
facet normal 0.0 0.0 -1.0
  outer loop
    vertex 19.40810217292415 24.48987228384481 -31.57861514936268
    vertex 15.0 5.0 -31.57861514936268
    vertex 15.0 30.0 -31.57861514936268
  endloop
endfacet
facet normal 0.0 0.0 -1.0
  outer loop
    vertex 15.0 5.0 -31.57861514936268
    vertex 19.40810217292415 24.48987228384481 -31.57861514936268
    vertex 30.601656305334274 10.497929618332156 -31.57861514936268
  endloop
endfacet
facet normal 0.0 0.0 -1.0
  outer loop
    vertex 15.0 5.0 -31.57861514936268
    vertex 30.601656305334274 10.497929618332156 -31.57861514936268
    vertex 35.0 5.0 -31.57861514936268
  endloop
endfacet
facet normal 0.0 0.0 -1.0
  outer loop
    vertex 30.601656305334274 10.497929618332156 -31.57861514936268
    vertex 19.40810217292415 24.48987228384481 -31.57861514936268
    vertex 19.675125830071035 24.74605432775067 -31.57861514936268
  endloop
endfacet
facet normal 0.0 0.0 -1.0
  outer loop
    vertex 30.601656305334274 10.497929618332156 -31.57861514936268
    vertex 19.675125830071035 24.74605432775067 -31.57861514936268
    vertex 21.73372818545244 25.8783848817803 -31.57861514936268
  endloop
endfacet
facet normal 0.0 0.0 -1.0
  outer loop
    vertex 30.601656305334274 10.497929618332156 -31.57861514936268
    vertex 21.73372818545244 25.8783848817803 -31.57861514936268
    vertex 26.42800638149101 19.34540897513338 -31.57861514936268
  endloop
endfacet
facet normal 0.0 0.0 -1.0
  outer loop
    vertex 26.42800638149101 19.34540897513338 -31.57861514936268
    vertex 21.73372818545244 25.8783848817803 -31.57861514936268
    vertex 24.015254079309205 26.43932671194812 -31.57861514936268
  endloop
endfacet
facet normal 0.0 0.0 -1.0
  outer loop
    vertex 26.42800638149101 19.34540897513338 -31.57861514936268
    vertex 24.015254079309205 26.43932671194812 -31.57861514936268
    vertex 26.33679896407187 19.809020539077334 -31.57861514936268
  endloop
endfacet
facet normal 0.0 0.0 -1.0
  outer loop
    vertex 30.601656305334274 10.497929618332156 -31.57861514936268
    vertex 26.42800638149101 19.34540897513338 -31.57861514936268
    vertex 26.63609748380375 18.92120080883634 -31.57861514936268
  endloop
endfacet
facet normal 0.0 0.0 -1.0
  outer loop
    vertex 30.601656305334274 10.497929618332156 -31.57861514936268
    vertex 26.63609748380375 18.92120080883634 -31.57861514936268
    vertex 26.946891206274273 18.56530512568221 -31.57861514936268
  endloop
endfacet
facet normal 0.0 0.0 -1.0
  outer loop
    vertex 30.601656305334274 10.497929618332156 -31.57861514936268
    vertex 26.946891206274273 18.56530512568221 -31.57861514936268
    vertex 27.339207470327132 18.301975628332528 -31.57861514936268
  endloop
endfacet
facet normal 0.0 0.0 -1.0
  outer loop
    vertex 30.601656305334274 10.497929618332156 -31.57861514936268
    vertex 27.339207470327132 18.301975628332528 -31.57861514936268
    vertex 27.7863105709004 18.1491577868591 -31.57861514936268
  endloop
endfacet
facet normal 0.0 0.0 -1.0
  outer loop
    vertex 30.601656305334274 10.497929618332156 -31.57861514936268
    vertex 27.7863105709004 18.1491577868591 -31.57861514936268
    vertex 28.257731170562817 18.117265884614916 -31.57861514936268
  endloop
endfacet
facet normal 0.0 0.0 -1.0
  outer loop
    vertex 30.601656305334274 10.497929618332156 -31.57861514936268
    vertex 28.257731170562817 18.117265884614916 -31.57861514936268
    vertex 28.721342734506777 18.208473302034058 -31.57861514936268
  endloop
endfacet
facet normal 0.0 0.0 -1.0
  outer loop
    vertex 30.601656305334274 10.497929618332156 -31.57861514936268
    vertex 28.721342734506777 18.208473302034058 -31.57861514936268
    vertex 29.145550900803816 18.416564404346794 -31.57861514936268
  endloop
endfacet
facet normal 0.0 0.0 -1.0
  outer loop
    vertex 30.601656305334274 10.497929618332156 -31.57861514936268
    vertex 29.145550900803816 18.416564404346794 -31.57861514936268
    vertex 29.501446583957947 18.727358126817318 -31.57861514936268
  endloop
endfacet
facet normal 0.0 0.0 -1.0
  outer loop
    vertex 30.601656305334274 10.497929618332156 -31.57861514936268
    vertex 29.501446583957947 18.727358126817318 -31.57861514936268
    vertex 29.76477608130763 19.11967439087018 -31.57861514936268
  endloop
endfacet
facet normal 0.0 0.0 -1.0
  outer loop
    vertex 30.601656305334274 10.497929618332156 -31.57861514936268
    vertex 29.76477608130763 19.11967439087018 -31.57861514936268
    vertex 29.91759392278106 19.56677749144345 -31.57861514936268
  endloop
endfacet
facet normal 0.0 0.0 -1.0
  outer loop
    vertex 30.601656305334274 10.497929618332156 -31.57861514936268
    vertex 29.91759392278106 19.56677749144345 -31.57861514936268
    vertex 29.94948582502524 20.03819809110587 -31.57861514936268
  endloop
endfacet
facet normal 1.0 0.0 0.0
  outer loop
    vertex 35.0 5.0 -31.57861514936268
    vertex 35.0 0.0 0.0
    vertex 35.0 0.0 -31.57861514936268
  endloop
endfacet
facet normal 1.0 0.0 0.0
  outer loop
    vertex 35.0 0.0 0.0
    vertex 35.0 5.0 -31.57861514936268
    vertex 35.0 5.0 0.0
  endloop
endfacet
facet normal 1.0 0.0 0.0
  outer loop
    vertex 35.0 5.0 0.0
    vertex 35.0 5.0 -31.57861514936268
    vertex 35.0 5.0 -26.578615149362676
  endloop
endfacet
facet normal 0.27877464490188225 0.9603565469969106 0.0
  outer loop
    vertex 26.364221292374808 26.390652559528387 -26.578615149362676
    vertex 28.620551590930674 25.735679487570675 -31.57861514936268
    vertex 26.364221292374808 26.390652559528387 -31.57861514936268
  endloop
endfacet
facet normal 0.27877464490188225 0.9603565469969106 0.0
  outer loop
    vertex 28.620551590930674 25.735679487570675 -31.57861514936268
    vertex 26.364221292374808 26.390652559528387 -26.578615149362676
    vertex 28.620551590930674 25.735679487570675 -26.578615149362676
  endloop
endfacet
facet normal 1.0 0.0 0.0
  outer loop
    vertex 15.0 30.0 -31.57861514936268
    vertex 15.0 5.0 -26.578615149362676
    vertex 15.0 5.0 -31.57861514936268
  endloop
endfacet
facet normal 1.0 0.0 0.0
  outer loop
    vertex 15.0 5.0 -26.578615149362676
    vertex 15.0 30.0 -31.57861514936268
    vertex 15.0 30.0 -26.578615149362676
  endloop
endfacet
facet normal 0.0 1.0 0.0
  outer loop
    vertex 15.0 5.0 -26.578615149362676
    vertex 35.0 5.0 -31.57861514936268
    vertex 15.0 5.0 -31.57861514936268
  endloop
endfacet
facet normal 0.0 1.0 0.0
  outer loop
    vertex 35.0 5.0 -31.57861514936268
    vertex 15.0 5.0 -26.578615149362676
    vertex 35.0 5.0 -26.578615149362676
  endloop
endfacet
facet normal 0.9710804888409703 0.23875234908243773 0.0
  outer loop
    vertex 33.38936316982104 20.76505200476525 -31.57861514936268
    vertex 33.95030499998885 18.483526110908485 -26.578615149362676
    vertex 33.95030499998885 18.483526110908485 -31.57861514936268
  endloop
endfacet
facet normal 0.9710804888409703 0.23875234908243773 0.0
  outer loop
    vertex 33.95030499998885 18.483526110908485 -26.578615149362676
    vertex 33.38936316982104 20.76505200476525 -31.57861514936268
    vertex 33.38936316982104 20.76505200476525 -26.578615149362676
  endloop
endfacet
facet normal 0.876198068571406 0.4819511849054192 0.0
  outer loop
    vertex 32.2570326157914 22.823654360146655 -31.57861514936268
    vertex 33.38936316982104 20.76505200476525 -26.578615149362676
    vertex 33.38936316982104 20.76505200476525 -31.57861514936268
  endloop
endfacet
facet normal 0.876198068571406 0.4819511849054192 0.0
  outer loop
    vertex 33.38936316982104 20.76505200476525 -26.578615149362676
    vertex 32.2570326157914 22.823654360146655 -31.57861514936268
    vertex 32.2570326157914 22.823654360146655 -26.578615149362676
  endloop
endfacet
facet normal 0.7216041979144725 0.6923058439390866 0.0
  outer loop
    vertex 30.630479793892345 24.51904282853471 -31.57861514936268
    vertex 32.2570326157914 22.823654360146655 -26.578615149362676
    vertex 32.2570326157914 22.823654360146655 -31.57861514936268
  endloop
endfacet
facet normal 0.7216041979144725 0.6923058439390866 0.0
  outer loop
    vertex 32.2570326157914 22.823654360146655 -26.578615149362676
    vertex 30.630479793892345 24.51904282853471 -31.57861514936268
    vertex 31.443756204841876 23.67134859434068 -26.578615149362676
  endloop
endfacet
facet normal 0.7216041979144725 0.6923058439390866 0.0
  outer loop
    vertex 31.443756204841876 23.67134859434068 -26.578615149362676
    vertex 30.630479793892345 24.51904282853471 -31.57861514936268
    vertex 30.630479793892345 24.51904282853471 -26.578615149362676
  endloop
endfacet
facet normal 0.517834193676988 0.8554810037978071 0.0
  outer loop
    vertex 28.620551590930674 25.735679487570675 -26.578615149362676
    vertex 30.630479793892345 24.51904282853471 -31.57861514936268
    vertex 28.620551590930674 25.735679487570675 -31.57861514936268
  endloop
endfacet
facet normal 0.517834193676988 0.8554810037978071 0.0
  outer loop
    vertex 30.630479793892345 24.51904282853471 -31.57861514936268
    vertex 28.620551590930674 25.735679487570675 -26.578615149362676
    vertex 30.630479793892345 24.51904282853471 -26.578615149362676
  endloop
endfacet
facet normal 0.0 0.0 1.0
  outer loop
    vertex 35.0 5.0 -26.578615149362676
    vertex 15.0 30.0 -26.578615149362676
    vertex 15.0 5.0 -26.578615149362676
  endloop
endfacet
facet normal 0.0 0.0 1.0
  outer loop
    vertex 15.0 30.0 -26.578615149362676
    vertex 35.0 5.0 -26.578615149362676
    vertex 26.63609748380375 18.92120080883634 -26.578615149362676
  endloop
endfacet
facet normal 0.0 0.0 1.0
  outer loop
    vertex 15.0 30.0 -26.578615149362676
    vertex 26.63609748380375 18.92120080883634 -26.578615149362676
    vertex 26.42800638149101 19.34540897513338 -26.578615149362676
  endloop
endfacet
facet normal 0.0 0.0 1.0
  outer loop
    vertex 15.0 30.0 -26.578615149362676
    vertex 26.42800638149101 19.34540897513338 -26.578615149362676
    vertex 26.33679896407187 19.809020539077334 -26.578615149362676
  endloop
endfacet
facet normal 0.0 0.0 1.0
  outer loop
    vertex 26.63609748380375 18.92120080883634 -26.578615149362676
    vertex 35.0 5.0 -26.578615149362676
    vertex 26.946891206274273 18.56530512568221 -26.578615149362676
  endloop
endfacet
facet normal 0.0 0.0 1.0
  outer loop
    vertex 26.946891206274273 18.56530512568221 -26.578615149362676
    vertex 35.0 5.0 -26.578615149362676
    vertex 27.339207470327132 18.301975628332528 -26.578615149362676
  endloop
endfacet
facet normal 0.0 0.0 1.0
  outer loop
    vertex 27.339207470327132 18.301975628332528 -26.578615149362676
    vertex 35.0 5.0 -26.578615149362676
    vertex 27.7863105709004 18.1491577868591 -26.578615149362676
  endloop
endfacet
facet normal 0.0 0.0 1.0
  outer loop
    vertex 27.7863105709004 18.1491577868591 -26.578615149362676
    vertex 35.0 5.0 -26.578615149362676
    vertex 28.257731170562817 18.117265884614916 -26.578615149362676
  endloop
endfacet
facet normal 0.0 0.0 1.0
  outer loop
    vertex 28.257731170562817 18.117265884614916 -26.578615149362676
    vertex 35.0 5.0 -26.578615149362676
    vertex 28.721342734506777 18.208473302034058 -26.578615149362676
  endloop
endfacet
facet normal 0.0 0.0 1.0
  outer loop
    vertex 28.721342734506777 18.208473302034058 -26.578615149362676
    vertex 35.0 5.0 -26.578615149362676
    vertex 29.145550900803816 18.416564404346794 -26.578615149362676
  endloop
endfacet
facet normal 0.0 0.0 1.0
  outer loop
    vertex 29.145550900803816 18.416564404346794 -26.578615149362676
    vertex 35.0 5.0 -26.578615149362676
    vertex 29.501446583957947 18.727358126817318 -26.578615149362676
  endloop
endfacet
facet normal 0.0 0.0 1.0
  outer loop
    vertex 29.501446583957947 18.727358126817318 -26.578615149362676
    vertex 35.0 5.0 -26.578615149362676
    vertex 29.76477608130763 19.11967439087018 -26.578615149362676
  endloop
endfacet
facet normal 0.0 0.0 1.0
  outer loop
    vertex 29.76477608130763 19.11967439087018 -26.578615149362676
    vertex 35.0 5.0 -26.578615149362676
    vertex 29.91759392278106 19.56677749144345 -26.578615149362676
  endloop
endfacet
facet normal 0.0 0.0 1.0
  outer loop
    vertex 29.91759392278106 19.56677749144345 -26.578615149362676
    vertex 35.0 5.0 -26.578615149362676
    vertex 29.94948582502524 20.03819809110587 -26.578615149362676
  endloop
endfacet
facet normal 0.0 0.0 1.0
  outer loop
    vertex 29.94948582502524 20.03819809110587 -26.578615149362676
    vertex 35.0 5.0 -26.578615149362676
    vertex 30.630479793892345 24.51904282853471 -26.578615149362676
  endloop
endfacet
facet normal 0.0 0.0 1.0
  outer loop
    vertex 30.630479793892345 24.51904282853471 -26.578615149362676
    vertex 35.0 5.0 -26.578615149362676
    vertex 31.443756204841876 23.67134859434068 -26.578615149362676
  endloop
endfacet
facet normal 0.0 0.0 1.0
  outer loop
    vertex 31.443756204841876 23.67134859434068 -26.578615149362676
    vertex 35.0 5.0 -26.578615149362676
    vertex 32.2570326157914 22.823654360146655 -26.578615149362676
  endloop
endfacet
facet normal 0.0 0.0 1.0
  outer loop
    vertex 32.2570326157914 22.823654360146655 -26.578615149362676
    vertex 35.0 5.0 -26.578615149362676
    vertex 33.38936316982104 20.76505200476525 -26.578615149362676
  endloop
endfacet
facet normal 0.0 0.0 1.0
  outer loop
    vertex 33.38936316982104 20.76505200476525 -26.578615149362676
    vertex 35.0 5.0 -26.578615149362676
    vertex 33.95030499998885 18.483526110908485 -26.578615149362676
  endloop
endfacet
facet normal 0.0 0.0 1.0
  outer loop
    vertex 26.33679896407187 19.809020539077334 -26.578615149362676
    vertex 26.364221292374808 26.390652559528387 -26.578615149362676
    vertex 15.0 30.0 -26.578615149362676
  endloop
endfacet
facet normal 0.0 0.0 1.0
  outer loop
    vertex 26.364221292374808 26.390652559528387 -26.578615149362676
    vertex 26.33679896407187 19.809020539077334 -26.578615149362676
    vertex 26.36869086631605 20.280441138739754 -26.578615149362676
  endloop
endfacet
facet normal 0.0 0.0 1.0
  outer loop
    vertex 26.364221292374808 26.390652559528387 -26.578615149362676
    vertex 26.36869086631605 20.280441138739754 -26.578615149362676
    vertex 26.52150870778948 20.727544239313023 -26.578615149362676
  endloop
endfacet
facet normal 0.0 0.0 1.0
  outer loop
    vertex 26.364221292374808 26.390652559528387 -26.578615149362676
    vertex 26.52150870778948 20.727544239313023 -26.578615149362676
    vertex 28.620551590930674 25.735679487570675 -26.578615149362676
  endloop
endfacet
facet normal 0.0 0.0 1.0
  outer loop
    vertex 28.620551590930674 25.735679487570675 -26.578615149362676
    vertex 26.52150870778948 20.727544239313023 -26.578615149362676
    vertex 26.78483820513916 21.11986050336588 -26.578615149362676
  endloop
endfacet
facet normal 0.0 0.0 1.0
  outer loop
    vertex 28.620551590930674 25.735679487570675 -26.578615149362676
    vertex 26.78483820513916 21.11986050336588 -26.578615149362676
    vertex 27.14073388829329 21.43065422583641 -26.578615149362676
  endloop
endfacet
facet normal 0.0 0.0 1.0
  outer loop
    vertex 28.620551590930674 25.735679487570675 -26.578615149362676
    vertex 27.14073388829329 21.43065422583641 -26.578615149362676
    vertex 27.564942054590333 21.638745328149145 -26.578615149362676
  endloop
endfacet
facet normal 0.0 0.0 1.0
  outer loop
    vertex 28.620551590930674 25.735679487570675 -26.578615149362676
    vertex 27.564942054590333 21.638745328149145 -26.578615149362676
    vertex 28.028553618534286 21.729952745568287 -26.578615149362676
  endloop
endfacet
facet normal 0.0 0.0 1.0
  outer loop
    vertex 28.620551590930674 25.735679487570675 -26.578615149362676
    vertex 28.028553618534286 21.729952745568287 -26.578615149362676
    vertex 28.49997421819671 21.698060843324104 -26.578615149362676
  endloop
endfacet
facet normal 0.0 0.0 1.0
  outer loop
    vertex 28.620551590930674 25.735679487570675 -26.578615149362676
    vertex 28.49997421819671 21.698060843324104 -26.578615149362676
    vertex 28.947077318769978 21.545243001850675 -26.578615149362676
  endloop
endfacet
facet normal 0.0 0.0 1.0
  outer loop
    vertex 28.620551590930674 25.735679487570675 -26.578615149362676
    vertex 28.947077318769978 21.545243001850675 -26.578615149362676
    vertex 30.630479793892345 24.51904282853471 -26.578615149362676
  endloop
endfacet
facet normal 0.0 0.0 1.0
  outer loop
    vertex 30.630479793892345 24.51904282853471 -26.578615149362676
    vertex 28.947077318769978 21.545243001850675 -26.578615149362676
    vertex 29.339393582822836 21.28191350450099 -26.578615149362676
  endloop
endfacet
facet normal 0.0 0.0 1.0
  outer loop
    vertex 30.630479793892345 24.51904282853471 -26.578615149362676
    vertex 29.339393582822836 21.28191350450099 -26.578615149362676
    vertex 29.65018730529336 20.926017821346864 -26.578615149362676
  endloop
endfacet
facet normal 0.0 0.0 1.0
  outer loop
    vertex 30.630479793892345 24.51904282853471 -26.578615149362676
    vertex 29.65018730529336 20.926017821346864 -26.578615149362676
    vertex 29.8582784076061 20.501809655049822 -26.578615149362676
  endloop
endfacet
facet normal 0.0 0.0 1.0
  outer loop
    vertex 30.630479793892345 24.51904282853471 -26.578615149362676
    vertex 29.8582784076061 20.501809655049822 -26.578615149362676
    vertex 29.94948582502524 20.03819809110587 -26.578615149362676
  endloop
endfacet
facet normal 0.9969833794696961 0.07761534037278989 0.0
  outer loop
    vertex 33.95030499998885 18.483526110908485 -31.57861514936268
    vertex 35.0 5.0 -26.578615149362676
    vertex 35.0 5.0 -31.57861514936268
  endloop
endfacet
facet normal 0.9969833794696961 0.07761534037278989 0.0
  outer loop
    vertex 35.0 5.0 -26.578615149362676
    vertex 33.95030499998885 18.483526110908485 -31.57861514936268
    vertex 33.95030499998885 18.483526110908485 -26.578615149362676
  endloop
endfacet
facet normal 0.0 0.0 -1.0
  outer loop
    vertex 32.03002111657544 11.868300396325346 -31.57861514936268
    vertex 35.0 5.0 -31.57861514936268
    vertex 30.601656305334274 10.497929618332156 -31.57861514936268
  endloop
endfacet
facet normal 0.0 0.0 -1.0
  outer loop
    vertex 35.0 5.0 -31.57861514936268
    vertex 32.03002111657544 11.868300396325346 -31.57861514936268
    vertex 33.2466577756114 13.87822859928702 -31.57861514936268
  endloop
endfacet
facet normal 0.0 0.0 -1.0
  outer loop
    vertex 35.0 5.0 -31.57861514936268
    vertex 33.2466577756114 13.87822859928702 -31.57861514936268
    vertex 33.901630847569116 16.134558897842883 -31.57861514936268
  endloop
endfacet
facet normal 0.0 0.0 -1.0
  outer loop
    vertex 35.0 5.0 -31.57861514936268
    vertex 33.901630847569116 16.134558897842883 -31.57861514936268
    vertex 33.95030499998885 18.483526110908485 -31.57861514936268
  endloop
endfacet
facet normal 0.3027054614161762 0.9530841534874136 0.0
  outer loop
    vertex 15.0 30.0 -26.578615149362676
    vertex 26.364221292374808 26.390652559528387 -31.57861514936268
    vertex 15.0 30.0 -31.57861514936268
  endloop
endfacet
facet normal 0.3027054614161762 0.9530841534874136 0.0
  outer loop
    vertex 26.364221292374808 26.390652559528387 -31.57861514936268
    vertex 15.0 30.0 -26.578615149362676
    vertex 26.364221292374808 26.390652559528387 -26.578615149362676
  endloop
endfacet
facet normal 0.0 0.0 -1.0
  outer loop
    vertex 15.0 30.0 -31.57861514936268
    vertex 19.675125830071035 24.74605432775067 -31.57861514936268
    vertex 19.40810217292415 24.48987228384481 -31.57861514936268
  endloop
endfacet
facet normal 0.0 0.0 -1.0
  outer loop
    vertex 19.675125830071035 24.74605432775067 -31.57861514936268
    vertex 15.0 30.0 -31.57861514936268
    vertex 21.73372818545244 25.8783848817803 -31.57861514936268
  endloop
endfacet
facet normal 0.0 0.0 -1.0
  outer loop
    vertex 21.73372818545244 25.8783848817803 -31.57861514936268
    vertex 15.0 30.0 -31.57861514936268
    vertex 24.015254079309205 26.43932671194812 -31.57861514936268
  endloop
endfacet
facet normal 0.0 0.0 -1.0
  outer loop
    vertex 24.015254079309205 26.43932671194812 -31.57861514936268
    vertex 15.0 30.0 -31.57861514936268
    vertex 26.364221292374808 26.390652559528387 -31.57861514936268
  endloop
endfacet
facet normal 0.44040619985662927 -0.8977986294976411 3.632208213290028e-31
  outer loop
    vertex 27.564942054590333 21.638745328149145 -26.578615149362676
    vertex 27.14073388829329 21.43065422583641 -31.57861514936268
    vertex 27.564942054590333 21.638745328149145 -31.57861514936268
  endloop
endfacet
facet normal 0.44040619985662927 -0.8977986294976411 3.632208213290028e-31
  outer loop
    vertex 27.14073388829329 21.43065422583641 -31.57861514936268
    vertex 27.564942054590333 21.638745328149145 -26.578615149362676
    vertex 27.14073388829329 21.43065422583641 -26.578615149362676
  endloop
endfacet
facet normal 0.7532213709345816 0.657767106480272 -2.6611168786551803e-31
  outer loop
    vertex 26.63609748380375 18.92120080883634 -31.57861514936268
    vertex 26.946891206274273 18.56530512568221 -26.578615149362676
    vertex 26.946891206274273 18.56530512568221 -31.57861514936268
  endloop
endfacet
facet normal 0.7532213709345816 0.657767106480272 -2.6611168786551803e-31
  outer loop
    vertex 26.946891206274273 18.56530512568221 -26.578615149362676
    vertex 26.63609748380375 18.92120080883634 -31.57861514936268
    vertex 26.63609748380375 18.92120080883634 -26.578615149362676
  endloop
endfacet
facet normal -0.9977195205561254 0.0674963576888069 -2.730688338225954e-32
  outer loop
    vertex 29.94948582502524 20.03819809110587 -26.578615149362676
    vertex 29.91759392278106 19.56677749144345 -31.57861514936268
    vertex 29.91759392278106 19.56677749144345 -26.578615149362676
  endloop
endfacet
facet normal -0.9977195205561254 0.0674963576888069 -2.730688338225954e-32
  outer loop
    vertex 29.91759392278106 19.56677749144345 -31.57861514936268
    vertex 29.94948582502524 20.03819809110587 -26.578615149362676
    vertex 29.94948582502524 20.03819809110587 -31.57861514936268
  endloop
endfacet
facet normal -0.8303022718088289 0.5573133206994944 -2.254712754410549e-31
  outer loop
    vertex 29.76477608130763 19.11967439087018 -26.578615149362676
    vertex 29.501446583957947 18.727358126817318 -31.57861514936268
    vertex 29.501446583957947 18.727358126817318 -26.578615149362676
  endloop
endfacet
facet normal -0.8303022718088289 0.5573133206994944 -2.254712754410549e-31
  outer loop
    vertex 29.501446583957947 18.727358126817318 -31.57861514936268
    vertex 29.76477608130763 19.11967439087018 -26.578615149362676
    vertex 29.76477608130763 19.11967439087018 -31.57861514936268
  endloop
endfacet
facet normal -0.19303233851841267 0.9811923951428246 -3.9695929124436765e-31
  outer loop
    vertex 28.257731170562817 18.117265884614916 -26.578615149362676
    vertex 28.721342734506777 18.208473302034058 -31.57861514936268
    vertex 28.257731170562817 18.117265884614916 -31.57861514936268
  endloop
endfacet
facet normal -0.19303233851841267 0.9811923951428246 -3.9695929124436765e-31
  outer loop
    vertex 28.721342734506777 18.208473302034058 -31.57861514936268
    vertex 28.257731170562817 18.117265884614916 -26.578615149362676
    vertex 28.721342734506777 18.208473302034058 -26.578615149362676
  endloop
endfacet
facet normal -0.9462537094529921 0.32342528866254816 -1.3084760337884783e-31
  outer loop
    vertex 29.91759392278106 19.56677749144345 -26.578615149362676
    vertex 29.76477608130763 19.11967439087018 -31.57861514936268
    vertex 29.76477608130763 19.11967439087018 -26.578615149362676
  endloop
endfacet
facet normal -0.9462537094529921 0.32342528866254816 -1.3084760337884783e-31
  outer loop
    vertex 29.76477608130763 19.11967439087018 -31.57861514936268
    vertex 29.91759392278106 19.56677749144345 -26.578615149362676
    vertex 29.91759392278106 19.56677749144345 -31.57861514936268
  endloop
endfacet
facet normal 0.8977986294976387 0.4404061998566341 -1.7817436602662127e-31
  outer loop
    vertex 26.42800638149101 19.34540897513338 -31.57861514936268
    vertex 26.63609748380375 18.92120080883634 -26.578615149362676
    vertex 26.63609748380375 18.92120080883634 -31.57861514936268
  endloop
endfacet
facet normal 0.8977986294976387 0.4404061998566341 -1.7817436602662127e-31
  outer loop
    vertex 26.63609748380375 18.92120080883634 -26.578615149362676
    vertex 26.42800638149101 19.34540897513338 -31.57861514936268
    vertex 26.42800638149101 19.34540897513338 -26.578615149362676
  endloop
endfacet
facet normal 0.9462537094529921 -0.32342528866254816 1.3084760337884783e-31
  outer loop
    vertex 26.52150870778948 20.727544239313023 -31.57861514936268
    vertex 26.36869086631605 20.280441138739754 -26.578615149362676
    vertex 26.36869086631605 20.280441138739754 -31.57861514936268
  endloop
endfacet
facet normal 0.9462537094529921 -0.32342528866254816 1.3084760337884783e-31
  outer loop
    vertex 26.36869086631605 20.280441138739754 -26.578615149362676
    vertex 26.52150870778948 20.727544239313023 -31.57861514936268
    vertex 26.52150870778948 20.727544239313023 -26.578615149362676
  endloop
endfacet
facet normal -0.06749635768881243 -0.997719520556125 4.036456414676748e-31
  outer loop
    vertex 28.49997421819671 21.698060843324104 -26.578615149362676
    vertex 28.028553618534286 21.729952745568287 -31.57861514936268
    vertex 28.49997421819671 21.698060843324104 -31.57861514936268
  endloop
endfacet
facet normal -0.06749635768881243 -0.997719520556125 4.036456414676748e-31
  outer loop
    vertex 28.028553618534286 21.729952745568287 -31.57861514936268
    vertex 28.49997421819671 21.698060843324104 -26.578615149362676
    vertex 28.028553618534286 21.729952745568287 -26.578615149362676
  endloop
endfacet
facet normal 0.06749635768881325 0.9977195205561251 -4.036456414676748e-31
  outer loop
    vertex 27.7863105709004 18.1491577868591 -26.578615149362676
    vertex 28.257731170562817 18.117265884614916 -31.57861514936268
    vertex 27.7863105709004 18.1491577868591 -31.57861514936268
  endloop
endfacet
facet normal 0.06749635768881325 0.9977195205561251 -4.036456414676748e-31
  outer loop
    vertex 28.257731170562817 18.117265884614916 -31.57861514936268
    vertex 27.7863105709004 18.1491577868591 -26.578615149362676
    vertex 28.257731170562817 18.117265884614916 -26.578615149362676
  endloop
endfacet
facet normal -0.32342528866255343 -0.9462537094529901 3.828242082809213e-31
  outer loop
    vertex 28.947077318769978 21.545243001850675 -26.578615149362676
    vertex 28.49997421819671 21.698060843324104 -31.57861514936268
    vertex 28.947077318769978 21.545243001850675 -31.57861514936268
  endloop
endfacet
facet normal -0.32342528866255343 -0.9462537094529901 3.828242082809213e-31
  outer loop
    vertex 28.49997421819671 21.698060843324104 -31.57861514936268
    vertex 28.947077318769978 21.545243001850675 -26.578615149362676
    vertex 28.49997421819671 21.698060843324104 -26.578615149362676
  endloop
endfacet
facet normal 0.5573133206994944 0.8303022718088289 -3.3591393794674117e-31
  outer loop
    vertex 26.946891206274273 18.56530512568221 -26.578615149362676
    vertex 27.339207470327132 18.301975628332528 -31.57861514936268
    vertex 26.946891206274273 18.56530512568221 -31.57861514936268
  endloop
endfacet
facet normal 0.5573133206994944 0.8303022718088289 -3.3591393794674117e-31
  outer loop
    vertex 27.339207470327132 18.301975628332528 -31.57861514936268
    vertex 26.946891206274273 18.56530512568221 -26.578615149362676
    vertex 27.339207470327132 18.301975628332528 -26.578615149362676
  endloop
endfacet
facet normal 0.8303022718088289 -0.5573133206994944 2.254712754410549e-31
  outer loop
    vertex 26.78483820513916 21.11986050336588 -31.57861514936268
    vertex 26.52150870778948 20.727544239313023 -26.578615149362676
    vertex 26.52150870778948 20.727544239313023 -31.57861514936268
  endloop
endfacet
facet normal 0.8303022718088289 -0.5573133206994944 2.254712754410549e-31
  outer loop
    vertex 26.52150870778948 20.727544239313023 -26.578615149362676
    vertex 26.78483820513916 21.11986050336588 -31.57861514936268
    vertex 26.78483820513916 21.11986050336588 -26.578615149362676
  endloop
endfacet
facet normal -0.44040619985662927 0.8977986294976411 -3.632208213290028e-31
  outer loop
    vertex 28.721342734506777 18.208473302034058 -26.578615149362676
    vertex 29.145550900803816 18.416564404346794 -31.57861514936268
    vertex 28.721342734506777 18.208473302034058 -31.57861514936268
  endloop
endfacet
facet normal -0.44040619985662927 0.8977986294976411 -3.632208213290028e-31
  outer loop
    vertex 29.145550900803816 18.416564404346794 -31.57861514936268
    vertex 28.721342734506777 18.208473302034058 -26.578615149362676
    vertex 29.145550900803816 18.416564404346794 -26.578615149362676
  endloop
endfacet
facet normal 0.9811923951428267 0.19303233851840232 -7.809475559006352e-32
  outer loop
    vertex 26.33679896407187 19.809020539077334 -31.57861514936268
    vertex 26.42800638149101 19.34540897513338 -26.578615149362676
    vertex 26.42800638149101 19.34540897513338 -31.57861514936268
  endloop
endfacet
facet normal 0.9811923951428267 0.19303233851840232 -7.809475559006352e-32
  outer loop
    vertex 26.42800638149101 19.34540897513338 -26.578615149362676
    vertex 26.33679896407187 19.809020539077334 -31.57861514936268
    vertex 26.33679896407187 19.809020539077334 -26.578615149362676
  endloop
endfacet
facet normal -0.5573133206994944 -0.8303022718088289 3.3591393794674117e-31
  outer loop
    vertex 29.339393582822836 21.28191350450099 -26.578615149362676
    vertex 28.947077318769978 21.545243001850675 -31.57861514936268
    vertex 29.339393582822836 21.28191350450099 -31.57861514936268
  endloop
endfacet
facet normal -0.5573133206994944 -0.8303022718088289 3.3591393794674117e-31
  outer loop
    vertex 28.947077318769978 21.545243001850675 -31.57861514936268
    vertex 29.339393582822836 21.28191350450099 -26.578615149362676
    vertex 28.947077318769978 21.545243001850675 -26.578615149362676
  endloop
endfacet
facet normal 0.657767106480269 -0.7532213709345841 3.0472945269085635e-31
  outer loop
    vertex 27.14073388829329 21.43065422583641 -26.578615149362676
    vertex 26.78483820513916 21.11986050336588 -31.57861514936268
    vertex 27.14073388829329 21.43065422583641 -31.57861514936268
  endloop
endfacet
facet normal 0.657767106480269 -0.7532213709345841 3.0472945269085635e-31
  outer loop
    vertex 26.78483820513916 21.11986050336588 -31.57861514936268
    vertex 27.14073388829329 21.43065422583641 -26.578615149362676
    vertex 26.78483820513916 21.11986050336588 -26.578615149362676
  endloop
endfacet
facet normal 0.32342528866255343 0.9462537094529901 -3.828242082809213e-31
  outer loop
    vertex 27.339207470327132 18.301975628332528 -26.578615149362676
    vertex 27.7863105709004 18.1491577868591 -31.57861514936268
    vertex 27.339207470327132 18.301975628332528 -31.57861514936268
  endloop
endfacet
facet normal 0.32342528866255343 0.9462537094529901 -3.828242082809213e-31
  outer loop
    vertex 27.7863105709004 18.1491577868591 -31.57861514936268
    vertex 27.339207470327132 18.301975628332528 -26.578615149362676
    vertex 27.7863105709004 18.1491577868591 -26.578615149362676
  endloop
endfacet
facet normal 0.19303233851841495 -0.9811923951428242 3.969592912443675e-31
  outer loop
    vertex 28.028553618534286 21.729952745568287 -26.578615149362676
    vertex 27.564942054590333 21.638745328149145 -31.57861514936268
    vertex 28.028553618534286 21.729952745568287 -31.57861514936268
  endloop
endfacet
facet normal 0.19303233851841495 -0.9811923951428242 3.969592912443675e-31
  outer loop
    vertex 27.564942054590333 21.638745328149145 -31.57861514936268
    vertex 28.028553618534286 21.729952745568287 -26.578615149362676
    vertex 27.564942054590333 21.638745328149145 -26.578615149362676
  endloop
endfacet
facet normal -0.7532213709345816 -0.657767106480272 2.6611168786551803e-31
  outer loop
    vertex 29.339393582822836 21.28191350450099 -26.578615149362676
    vertex 29.65018730529336 20.926017821346864 -31.57861514936268
    vertex 29.65018730529336 20.926017821346864 -26.578615149362676
  endloop
endfacet
facet normal -0.7532213709345816 -0.657767106480272 2.6611168786551803e-31
  outer loop
    vertex 29.65018730529336 20.926017821346864 -31.57861514936268
    vertex 29.339393582822836 21.28191350450099 -26.578615149362676
    vertex 29.339393582822836 21.28191350450099 -31.57861514936268
  endloop
endfacet
facet normal -0.9811923951428267 -0.19303233851840232 7.809475559006352e-32
  outer loop
    vertex 29.8582784076061 20.501809655049822 -26.578615149362676
    vertex 29.94948582502524 20.03819809110587 -31.57861514936268
    vertex 29.94948582502524 20.03819809110587 -26.578615149362676
  endloop
endfacet
facet normal -0.9811923951428267 -0.19303233851840232 7.809475559006352e-32
  outer loop
    vertex 29.94948582502524 20.03819809110587 -31.57861514936268
    vertex 29.8582784076061 20.501809655049822 -26.578615149362676
    vertex 29.8582784076061 20.501809655049822 -31.57861514936268
  endloop
endfacet
facet normal -0.8977986294976387 -0.4404061998566341 1.7817436602662127e-31
  outer loop
    vertex 29.65018730529336 20.926017821346864 -26.578615149362676
    vertex 29.8582784076061 20.501809655049822 -31.57861514936268
    vertex 29.8582784076061 20.501809655049822 -26.578615149362676
  endloop
endfacet
facet normal -0.8977986294976387 -0.4404061998566341 1.7817436602662127e-31
  outer loop
    vertex 29.8582784076061 20.501809655049822 -31.57861514936268
    vertex 29.65018730529336 20.926017821346864 -26.578615149362676
    vertex 29.65018730529336 20.926017821346864 -31.57861514936268
  endloop
endfacet
facet normal -0.657767106480269 0.7532213709345841 -3.0472945269085635e-31
  outer loop
    vertex 29.145550900803816 18.416564404346794 -26.578615149362676
    vertex 29.501446583957947 18.727358126817318 -31.57861514936268
    vertex 29.145550900803816 18.416564404346794 -31.57861514936268
  endloop
endfacet
facet normal -0.657767106480269 0.7532213709345841 -3.0472945269085635e-31
  outer loop
    vertex 29.501446583957947 18.727358126817318 -31.57861514936268
    vertex 29.145550900803816 18.416564404346794 -26.578615149362676
    vertex 29.501446583957947 18.727358126817318 -26.578615149362676
  endloop
endfacet
facet normal 0.9977195205561254 -0.0674963576888069 2.730688338225954e-32
  outer loop
    vertex 26.36869086631605 20.280441138739754 -31.57861514936268
    vertex 26.33679896407187 19.809020539077334 -26.578615149362676
    vertex 26.33679896407187 19.809020539077334 -31.57861514936268
  endloop
endfacet
facet normal 0.9977195205561254 -0.0674963576888069 2.730688338225954e-32
  outer loop
    vertex 26.33679896407187 19.809020539077334 -26.578615149362676
    vertex 26.36869086631605 20.280441138739754 -31.57861514936268
    vertex 26.36869086631605 20.280441138739754 -26.578615149362676
  endloop
endfacet
facet normal -0.9914448613738104 -0.0 -0.13052619222005216
  outer loop
    vertex 26.931851652578143 5.0 -6.12701569713563
    vertex 27.000000000000007 0.0 -6.644653787340671
    vertex 26.931851652578143 0.0 -6.12701569713563
  endloop
endfacet
facet normal -0.9914448613738104 -0.0 -0.13052619222005216
  outer loop
    vertex 27.000000000000007 0.0 -6.644653787340671
    vertex 26.931851652578143 5.0 -6.12701569713563
    vertex 27.000000000000007 5.0 -6.644653787340671
  endloop
endfacet
facet normal -0.9914448613738104 0.0 0.13052619222005216
  outer loop
    vertex 27.000000000000007 5.0 -6.644653787340671
    vertex 26.931851652578143 0.0 -7.1622918775457105
    vertex 27.000000000000007 0.0 -6.644653787340671
  endloop
endfacet
facet normal -0.9914448613738104 0.0 0.13052619222005216
  outer loop
    vertex 26.931851652578143 0.0 -7.1622918775457105
    vertex 27.000000000000007 5.0 -6.644653787340671
    vertex 26.931851652578143 5.0 -7.1622918775457105
  endloop
endfacet
facet normal -0.9238795325112861 0.0 0.3826834323650913
  outer loop
    vertex 26.931851652578143 5.0 -7.1622918775457105
    vertex 26.732050807568882 0.0 -7.644653787340669
    vertex 26.931851652578143 0.0 -7.1622918775457105
  endloop
endfacet
facet normal -0.9238795325112861 0.0 0.3826834323650913
  outer loop
    vertex 26.732050807568882 0.0 -7.644653787340669
    vertex 26.931851652578143 5.0 -7.1622918775457105
    vertex 26.732050807568882 5.0 -7.644653787340669
  endloop
endfacet
facet normal -0.7933533402912322 0.0 0.6087614290087248
  outer loop
    vertex 26.732050807568882 5.0 -7.644653787340669
    vertex 26.4142135623731 0.0 -8.058867349713763
    vertex 26.732050807568882 0.0 -7.644653787340669
  endloop
endfacet
facet normal -0.7933533402912322 0.0 0.6087614290087248
  outer loop
    vertex 26.4142135623731 0.0 -8.058867349713763
    vertex 26.732050807568882 5.0 -7.644653787340669
    vertex 26.4142135623731 5.0 -8.058867349713763
  endloop
endfacet
facet normal -0.6087614290087213 0.0 0.7933533402912347
  outer loop
    vertex 26.4142135623731 0.0 -8.058867349713763
    vertex 26.000000000000004 5.0 -8.376704594909546
    vertex 26.000000000000004 0.0 -8.376704594909546
  endloop
endfacet
facet normal -0.6087614290087213 0.0 0.7933533402912347
  outer loop
    vertex 26.000000000000004 5.0 -8.376704594909546
    vertex 26.4142135623731 0.0 -8.058867349713763
    vertex 26.4142135623731 5.0 -8.058867349713763
  endloop
endfacet
facet normal -0.3826834323650913 0.0 0.9238795325112861
  outer loop
    vertex 26.000000000000004 0.0 -8.376704594909546
    vertex 25.517638090205043 5.0 -8.576505439918806
    vertex 25.517638090205043 0.0 -8.576505439918806
  endloop
endfacet
facet normal -0.3826834323650913 0.0 0.9238795325112861
  outer loop
    vertex 25.517638090205043 5.0 -8.576505439918806
    vertex 26.000000000000004 0.0 -8.376704594909546
    vertex 26.000000000000004 5.0 -8.376704594909546
  endloop
endfacet
facet normal -0.13052619222004685 0.0 0.9914448613738112
  outer loop
    vertex 25.517638090205043 0.0 -8.576505439918806
    vertex 25.000000000000004 5.0 -8.644653787340667
    vertex 25.000000000000004 0.0 -8.644653787340667
  endloop
endfacet
facet normal -0.13052619222004685 0.0 0.9914448613738112
  outer loop
    vertex 25.000000000000004 5.0 -8.644653787340667
    vertex 25.517638090205043 0.0 -8.576505439918806
    vertex 25.517638090205043 5.0 -8.576505439918806
  endloop
endfacet
facet normal 0.13052619222005077 0.0 0.9914448613738106
  outer loop
    vertex 25.000000000000004 0.0 -8.644653787340667
    vertex 24.48236190979496 5.0 -8.576505439918803
    vertex 24.48236190979496 0.0 -8.576505439918803
  endloop
endfacet
facet normal 0.13052619222005077 0.0 0.9914448613738106
  outer loop
    vertex 24.48236190979496 5.0 -8.576505439918803
    vertex 25.000000000000004 0.0 -8.644653787340667
    vertex 25.000000000000004 5.0 -8.644653787340667
  endloop
endfacet
facet normal 0.3826834323650867 0.0 0.9238795325112881
  outer loop
    vertex 24.48236190979496 0.0 -8.576505439918803
    vertex 24.0 5.0 -8.376704594909546
    vertex 24.0 0.0 -8.376704594909546
  endloop
endfacet
facet normal 0.3826834323650867 0.0 0.9238795325112881
  outer loop
    vertex 24.0 5.0 -8.376704594909546
    vertex 24.48236190979496 0.0 -8.576505439918803
    vertex 24.48236190979496 5.0 -8.576505439918803
  endloop
endfacet
facet normal 0.6087614290087213 0.0 0.7933533402912347
  outer loop
    vertex 24.0 0.0 -8.376704594909546
    vertex 23.585786437626908 5.0 -8.058867349713763
    vertex 23.585786437626908 0.0 -8.058867349713763
  endloop
endfacet
facet normal 0.6087614290087213 0.0 0.7933533402912347
  outer loop
    vertex 23.585786437626908 5.0 -8.058867349713763
    vertex 24.0 0.0 -8.376704594909546
    vertex 24.0 5.0 -8.376704594909546
  endloop
endfacet
facet normal 0.7933533402912374 0.0 0.608761429008718
  outer loop
    vertex 23.585786437626908 5.0 -8.058867349713763
    vertex 23.267949192431125 0.0 -7.644653787340669
    vertex 23.585786437626908 0.0 -8.058867349713763
  endloop
endfacet
facet normal 0.7933533402912374 0.0 0.608761429008718
  outer loop
    vertex 23.267949192431125 0.0 -7.644653787340669
    vertex 23.585786437626908 5.0 -8.058867349713763
    vertex 23.267949192431125 5.0 -7.644653787340669
  endloop
endfacet
facet normal 0.9238795325112861 0.0 0.3826834323650913
  outer loop
    vertex 23.267949192431125 5.0 -7.644653787340669
    vertex 23.068148347421868 0.0 -7.1622918775457105
    vertex 23.267949192431125 0.0 -7.644653787340669
  endloop
endfacet
facet normal 0.9238795325112861 0.0 0.3826834323650913
  outer loop
    vertex 23.068148347421868 0.0 -7.1622918775457105
    vertex 23.267949192431125 5.0 -7.644653787340669
    vertex 23.068148347421868 5.0 -7.1622918775457105
  endloop
endfacet
facet normal 0.9914448613738104 0.0 0.13052619222005216
  outer loop
    vertex 23.068148347421868 5.0 -7.1622918775457105
    vertex 23.000000000000004 0.0 -6.644653787340671
    vertex 23.068148347421868 0.0 -7.1622918775457105
  endloop
endfacet
facet normal 0.9914448613738104 0.0 0.13052619222005216
  outer loop
    vertex 23.000000000000004 0.0 -6.644653787340671
    vertex 23.068148347421868 5.0 -7.1622918775457105
    vertex 23.000000000000004 5.0 -6.644653787340671
  endloop
endfacet
facet normal 0.9914448613738106 0.0 -0.13052619222005077
  outer loop
    vertex 23.000000000000004 5.0 -6.644653787340671
    vertex 23.068148347421868 0.0 -6.127015697135625
    vertex 23.000000000000004 0.0 -6.644653787340671
  endloop
endfacet
facet normal 0.9914448613738106 0.0 -0.13052619222005077
  outer loop
    vertex 23.068148347421868 0.0 -6.127015697135625
    vertex 23.000000000000004 5.0 -6.644653787340671
    vertex 23.068148347421868 5.0 -6.127015697135625
  endloop
endfacet
facet normal 0.9238795325112861 0.0 -0.3826834323650913
  outer loop
    vertex 23.068148347421868 5.0 -6.127015697135625
    vertex 23.267949192431125 0.0 -5.644653787340666
    vertex 23.068148347421868 0.0 -6.127015697135625
  endloop
endfacet
facet normal 0.9238795325112861 0.0 -0.3826834323650913
  outer loop
    vertex 23.267949192431125 0.0 -5.644653787340666
    vertex 23.068148347421868 5.0 -6.127015697135625
    vertex 23.267949192431125 5.0 -5.644653787340666
  endloop
endfacet
facet normal 0.7933533402912374 0.0 -0.608761429008718
  outer loop
    vertex 23.267949192431125 5.0 -5.644653787340666
    vertex 23.585786437626908 0.0 -5.230440224967572
    vertex 23.267949192431125 0.0 -5.644653787340666
  endloop
endfacet
facet normal 0.7933533402912374 0.0 -0.608761429008718
  outer loop
    vertex 23.585786437626908 0.0 -5.230440224967572
    vertex 23.267949192431125 5.0 -5.644653787340666
    vertex 23.585786437626908 5.0 -5.230440224967572
  endloop
endfacet
facet normal 0.608761429008718 0.0 -0.7933533402912374
  outer loop
    vertex 24.0 5.0 -4.912602979771792
    vertex 23.585786437626908 0.0 -5.230440224967572
    vertex 23.585786437626908 5.0 -5.230440224967572
  endloop
endfacet
facet normal 0.608761429008718 0.0 -0.7933533402912374
  outer loop
    vertex 23.585786437626908 0.0 -5.230440224967572
    vertex 24.0 5.0 -4.912602979771792
    vertex 24.0 0.0 -4.912602979771792
  endloop
endfacet
facet normal 0.3826834323650913 0.0 -0.9238795325112861
  outer loop
    vertex 24.48236190979496 5.0 -4.712802134762532
    vertex 24.0 0.0 -4.912602979771792
    vertex 24.0 5.0 -4.912602979771792
  endloop
endfacet
facet normal 0.3826834323650913 0.0 -0.9238795325112861
  outer loop
    vertex 24.0 0.0 -4.912602979771792
    vertex 24.48236190979496 5.0 -4.712802134762532
    vertex 24.48236190979496 0.0 -4.712802134762532
  endloop
endfacet
facet normal 0.13052619222005077 0.0 -0.9914448613738106
  outer loop
    vertex 25.000000000000004 5.0 -4.644653787340668
    vertex 24.48236190979496 0.0 -4.712802134762532
    vertex 24.48236190979496 5.0 -4.712802134762532
  endloop
endfacet
facet normal 0.13052619222005077 0.0 -0.9914448613738106
  outer loop
    vertex 24.48236190979496 0.0 -4.712802134762532
    vertex 25.000000000000004 5.0 -4.644653787340668
    vertex 25.000000000000004 0.0 -4.644653787340668
  endloop
endfacet
facet normal -0.13052619222005077 -0.0 -0.9914448613738106
  outer loop
    vertex 25.51763809020505 5.0 -4.712802134762532
    vertex 25.000000000000004 0.0 -4.644653787340668
    vertex 25.000000000000004 5.0 -4.644653787340668
  endloop
endfacet
facet normal -0.13052619222005077 -0.0 -0.9914448613738106
  outer loop
    vertex 25.000000000000004 0.0 -4.644653787340668
    vertex 25.51763809020505 5.0 -4.712802134762532
    vertex 25.51763809020505 0.0 -4.712802134762532
  endloop
endfacet
facet normal -0.3826834323650951 -0.0 -0.9238795325112845
  outer loop
    vertex 26.000000000000004 5.0 -4.912602979771792
    vertex 25.51763809020505 0.0 -4.712802134762532
    vertex 25.51763809020505 5.0 -4.712802134762532
  endloop
endfacet
facet normal -0.3826834323650951 -0.0 -0.9238795325112845
  outer loop
    vertex 25.51763809020505 0.0 -4.712802134762532
    vertex 26.000000000000004 5.0 -4.912602979771792
    vertex 26.000000000000004 0.0 -4.912602979771792
  endloop
endfacet
facet normal -0.6087614290087248 -0.0 -0.7933533402912322
  outer loop
    vertex 26.4142135623731 5.0 -5.230440224967578
    vertex 26.000000000000004 0.0 -4.912602979771792
    vertex 26.000000000000004 5.0 -4.912602979771792
  endloop
endfacet
facet normal -0.6087614290087248 -0.0 -0.7933533402912322
  outer loop
    vertex 26.000000000000004 0.0 -4.912602979771792
    vertex 26.4142135623731 5.0 -5.230440224967578
    vertex 26.4142135623731 0.0 -5.230440224967578
  endloop
endfacet
facet normal -0.7933533402912322 -0.0 -0.6087614290087248
  outer loop
    vertex 26.4142135623731 5.0 -5.230440224967578
    vertex 26.732050807568882 0.0 -5.644653787340673
    vertex 26.4142135623731 0.0 -5.230440224967578
  endloop
endfacet
facet normal -0.7933533402912322 -0.0 -0.6087614290087248
  outer loop
    vertex 26.732050807568882 0.0 -5.644653787340673
    vertex 26.4142135623731 5.0 -5.230440224967578
    vertex 26.732050807568882 5.0 -5.644653787340673
  endloop
endfacet
facet normal -0.9238795325112861 -0.0 -0.3826834323650913
  outer loop
    vertex 26.732050807568882 5.0 -5.644653787340673
    vertex 26.931851652578143 0.0 -6.12701569713563
    vertex 26.732050807568882 0.0 -5.644653787340673
  endloop
endfacet
facet normal -0.9238795325112861 -0.0 -0.3826834323650913
  outer loop
    vertex 26.931851652578143 0.0 -6.12701569713563
    vertex 26.732050807568882 5.0 -5.644653787340673
    vertex 26.931851652578143 5.0 -6.12701569713563
  endloop
endfacet
facet normal 0.0 0.9914448613738104 -0.13052619222005216
  outer loop
    vertex 10.000000000000002 15.568148347421863 -6.12701569713563
    vertex 15.0 15.5 -6.644653787340671
    vertex 10.000000000000002 15.5 -6.644653787340671
  endloop
endfacet
facet normal 0.0 0.9914448613738104 -0.13052619222005216
  outer loop
    vertex 15.0 15.5 -6.644653787340671
    vertex 10.000000000000002 15.568148347421863 -6.12701569713563
    vertex 15.0 15.568148347421863 -6.12701569713563
  endloop
endfacet
facet normal 0.0 0.9914448613738104 0.13052619222005216
  outer loop
    vertex 10.000000000000002 15.5 -6.644653787340671
    vertex 15.0 15.568148347421863 -7.1622918775457105
    vertex 10.000000000000002 15.568148347421863 -7.1622918775457105
  endloop
endfacet
facet normal 0.0 0.9914448613738104 0.13052619222005216
  outer loop
    vertex 15.0 15.568148347421863 -7.1622918775457105
    vertex 10.000000000000002 15.5 -6.644653787340671
    vertex 15.0 15.5 -6.644653787340671
  endloop
endfacet
facet normal 0.0 0.9238795325112861 0.3826834323650913
  outer loop
    vertex 10.000000000000002 15.568148347421863 -7.1622918775457105
    vertex 15.0 15.767949192431123 -7.644653787340669
    vertex 10.000000000000002 15.767949192431123 -7.644653787340669
  endloop
endfacet
facet normal 0.0 0.9238795325112861 0.3826834323650913
  outer loop
    vertex 15.0 15.767949192431123 -7.644653787340669
    vertex 10.000000000000002 15.568148347421863 -7.1622918775457105
    vertex 15.0 15.568148347421863 -7.1622918775457105
  endloop
endfacet
facet normal 0.0 0.7933533402912347 0.6087614290087213
  outer loop
    vertex 10.000000000000002 15.767949192431123 -7.644653787340669
    vertex 15.0 16.085786437626908 -8.058867349713763
    vertex 10.000000000000002 16.085786437626908 -8.058867349713763
  endloop
endfacet
facet normal 0.0 0.7933533402912347 0.6087614290087213
  outer loop
    vertex 15.0 16.085786437626908 -8.058867349713763
    vertex 10.000000000000002 15.767949192431123 -7.644653787340669
    vertex 15.0 15.767949192431123 -7.644653787340669
  endloop
endfacet
facet normal 0.0 0.6087614290087248 0.7933533402912322
  outer loop
    vertex 15.0 16.085786437626908 -8.058867349713763
    vertex 10.000000000000002 16.5 -8.37670459490955
    vertex 10.000000000000002 16.085786437626908 -8.058867349713763
  endloop
endfacet
facet normal 0.0 0.6087614290087248 0.7933533402912322
  outer loop
    vertex 10.000000000000002 16.5 -8.37670459490955
    vertex 15.0 16.085786437626908 -8.058867349713763
    vertex 15.0 16.5 -8.37670459490955
  endloop
endfacet
facet normal 0.0 0.3826834323650867 0.9238795325112881
  outer loop
    vertex 15.0 16.5 -8.37670459490955
    vertex 10.000000000000002 16.98236190979496 -8.576505439918806
    vertex 10.000000000000002 16.5 -8.37670459490955
  endloop
endfacet
facet normal 0.0 0.3826834323650867 0.9238795325112881
  outer loop
    vertex 10.000000000000002 16.98236190979496 -8.576505439918806
    vertex 15.0 16.5 -8.37670459490955
    vertex 15.0 16.98236190979496 -8.576505439918806
  endloop
endfacet
facet normal 0.0 0.13052619222005143 0.9914448613738105
  outer loop
    vertex 15.0 16.98236190979496 -8.576505439918806
    vertex 10.000000000000002 17.5 -8.644653787340669
    vertex 10.000000000000002 16.98236190979496 -8.576505439918806
  endloop
endfacet
facet normal 0.0 0.13052619222005143 0.9914448613738105
  outer loop
    vertex 10.000000000000002 17.5 -8.644653787340669
    vertex 15.0 16.98236190979496 -8.576505439918806
    vertex 15.0 17.5 -8.644653787340669
  endloop
endfacet
facet normal 0.0 -0.13052619222005143 0.9914448613738105
  outer loop
    vertex 15.0 17.5 -8.644653787340669
    vertex 10.000000000000002 18.017638090205043 -8.576505439918806
    vertex 10.000000000000002 17.5 -8.644653787340669
  endloop
endfacet
facet normal 0.0 -0.13052619222005143 0.9914448613738105
  outer loop
    vertex 10.000000000000002 18.017638090205043 -8.576505439918806
    vertex 15.0 17.5 -8.644653787340669
    vertex 15.0 18.017638090205043 -8.576505439918806
  endloop
endfacet
facet normal 0.0 -0.3826834323650913 0.9238795325112861
  outer loop
    vertex 15.0 18.017638090205043 -8.576505439918806
    vertex 10.000000000000002 18.500000000000004 -8.376704594909546
    vertex 10.000000000000002 18.017638090205043 -8.576505439918806
  endloop
endfacet
facet normal 0.0 -0.3826834323650913 0.9238795325112861
  outer loop
    vertex 10.000000000000002 18.500000000000004 -8.376704594909546
    vertex 15.0 18.017638090205043 -8.576505439918806
    vertex 15.0 18.500000000000004 -8.376704594909546
  endloop
endfacet
facet normal 0.0 -0.6087614290087213 0.7933533402912347
  outer loop
    vertex 15.0 18.500000000000004 -8.376704594909546
    vertex 10.000000000000002 18.914213562373096 -8.058867349713763
    vertex 10.000000000000002 18.500000000000004 -8.376704594909546
  endloop
endfacet
facet normal 0.0 -0.6087614290087213 0.7933533402912347
  outer loop
    vertex 10.000000000000002 18.914213562373096 -8.058867349713763
    vertex 15.0 18.500000000000004 -8.376704594909546
    vertex 15.0 18.914213562373096 -8.058867349713763
  endloop
endfacet
facet normal 0.0 -0.7933533402912347 0.6087614290087213
  outer loop
    vertex 15.0 19.23205080756888 -7.644653787340669
    vertex 10.000000000000002 18.914213562373096 -8.058867349713763
    vertex 15.0 18.914213562373096 -8.058867349713763
  endloop
endfacet
facet normal 0.0 -0.7933533402912347 0.6087614290087213
  outer loop
    vertex 10.000000000000002 18.914213562373096 -8.058867349713763
    vertex 15.0 19.23205080756888 -7.644653787340669
    vertex 10.000000000000002 19.23205080756888 -7.644653787340669
  endloop
endfacet
facet normal 0.0 -0.9238795325112861 0.3826834323650913
  outer loop
    vertex 15.0 19.43185165257814 -7.1622918775457105
    vertex 10.000000000000002 19.23205080756888 -7.644653787340669
    vertex 15.0 19.23205080756888 -7.644653787340669
  endloop
endfacet
facet normal 0.0 -0.9238795325112861 0.3826834323650913
  outer loop
    vertex 10.000000000000002 19.23205080756888 -7.644653787340669
    vertex 15.0 19.43185165257814 -7.1622918775457105
    vertex 10.000000000000002 19.43185165257814 -7.1622918775457105
  endloop
endfacet
facet normal 0.0 -0.9914448613738104 0.13052619222005216
  outer loop
    vertex 15.0 19.500000000000004 -6.644653787340671
    vertex 10.000000000000002 19.43185165257814 -7.1622918775457105
    vertex 15.0 19.43185165257814 -7.1622918775457105
  endloop
endfacet
facet normal 0.0 -0.9914448613738104 0.13052619222005216
  outer loop
    vertex 10.000000000000002 19.43185165257814 -7.1622918775457105
    vertex 15.0 19.500000000000004 -6.644653787340671
    vertex 10.000000000000002 19.500000000000004 -6.644653787340671
  endloop
endfacet
facet normal -0.0 -0.9914448613738099 -0.13052619222005607
  outer loop
    vertex 15.0 19.43185165257814 -6.127015697135625
    vertex 10.000000000000002 19.500000000000004 -6.644653787340671
    vertex 15.0 19.500000000000004 -6.644653787340671
  endloop
endfacet
facet normal -0.0 -0.9914448613738099 -0.13052619222005607
  outer loop
    vertex 10.000000000000002 19.500000000000004 -6.644653787340671
    vertex 15.0 19.43185165257814 -6.127015697135625
    vertex 10.000000000000002 19.43185165257814 -6.127015697135625
  endloop
endfacet
facet normal -0.0 -0.9238795325112881 -0.3826834323650867
  outer loop
    vertex 15.0 19.23205080756888 -5.644653787340666
    vertex 10.000000000000002 19.43185165257814 -6.127015697135625
    vertex 15.0 19.43185165257814 -6.127015697135625
  endloop
endfacet
facet normal -0.0 -0.9238795325112881 -0.3826834323650867
  outer loop
    vertex 10.000000000000002 19.43185165257814 -6.127015697135625
    vertex 15.0 19.23205080756888 -5.644653787340666
    vertex 10.000000000000002 19.23205080756888 -5.644653787340666
  endloop
endfacet
facet normal -0.0 -0.7933533402912347 -0.6087614290087213
  outer loop
    vertex 15.0 18.914213562373096 -5.230440224967572
    vertex 10.000000000000002 19.23205080756888 -5.644653787340666
    vertex 15.0 19.23205080756888 -5.644653787340666
  endloop
endfacet
facet normal -0.0 -0.7933533402912347 -0.6087614290087213
  outer loop
    vertex 10.000000000000002 19.23205080756888 -5.644653787340666
    vertex 15.0 18.914213562373096 -5.230440224967572
    vertex 10.000000000000002 18.914213562373096 -5.230440224967572
  endloop
endfacet
facet normal -0.0 -0.608761429008718 -0.7933533402912374
  outer loop
    vertex 15.0 18.914213562373096 -5.230440224967572
    vertex 10.000000000000002 18.500000000000004 -4.912602979771792
    vertex 10.000000000000002 18.914213562373096 -5.230440224967572
  endloop
endfacet
facet normal -0.0 -0.608761429008718 -0.7933533402912374
  outer loop
    vertex 10.000000000000002 18.500000000000004 -4.912602979771792
    vertex 15.0 18.914213562373096 -5.230440224967572
    vertex 15.0 18.500000000000004 -4.912602979771792
  endloop
endfacet
facet normal -0.0 -0.3826834323650894 -0.923879532511287
  outer loop
    vertex 15.0 18.500000000000004 -4.912602979771792
    vertex 10.000000000000002 18.017638090205043 -4.712802134762532
    vertex 10.000000000000002 18.500000000000004 -4.912602979771792
  endloop
endfacet
facet normal -0.0 -0.3826834323650894 -0.923879532511287
  outer loop
    vertex 10.000000000000002 18.017638090205043 -4.712802134762532
    vertex 15.0 18.500000000000004 -4.912602979771792
    vertex 15.0 18.017638090205043 -4.712802134762532
  endloop
endfacet
facet normal -0.0 -0.13052619222005216 -0.9914448613738104
  outer loop
    vertex 15.0 18.017638090205043 -4.712802134762532
    vertex 10.000000000000002 17.5 -4.644653787340668
    vertex 10.000000000000002 18.017638090205043 -4.712802134762532
  endloop
endfacet
facet normal -0.0 -0.13052619222005216 -0.9914448613738104
  outer loop
    vertex 10.000000000000002 17.5 -4.644653787340668
    vertex 15.0 18.017638090205043 -4.712802134762532
    vertex 15.0 17.5 -4.644653787340668
  endloop
endfacet
facet normal 0.0 0.13052619222005143 -0.9914448613738105
  outer loop
    vertex 15.0 17.5 -4.644653787340668
    vertex 10.000000000000002 16.98236190979496 -4.712802134762532
    vertex 10.000000000000002 17.5 -4.644653787340668
  endloop
endfacet
facet normal 0.0 0.13052619222005143 -0.9914448613738105
  outer loop
    vertex 10.000000000000002 16.98236190979496 -4.712802134762532
    vertex 15.0 17.5 -4.644653787340668
    vertex 15.0 16.98236190979496 -4.712802134762532
  endloop
endfacet
facet normal 0.0 0.3826834323650913 -0.9238795325112861
  outer loop
    vertex 15.0 16.98236190979496 -4.712802134762532
    vertex 10.000000000000002 16.5 -4.912602979771792
    vertex 10.000000000000002 16.98236190979496 -4.712802134762532
  endloop
endfacet
facet normal 0.0 0.3826834323650913 -0.9238795325112861
  outer loop
    vertex 10.000000000000002 16.5 -4.912602979771792
    vertex 15.0 16.98236190979496 -4.712802134762532
    vertex 15.0 16.5 -4.912602979771792
  endloop
endfacet
facet normal 0.0 0.608761429008718 -0.7933533402912374
  outer loop
    vertex 15.0 16.5 -4.912602979771792
    vertex 10.000000000000002 16.085786437626908 -5.230440224967572
    vertex 10.000000000000002 16.5 -4.912602979771792
  endloop
endfacet
facet normal 0.0 0.608761429008718 -0.7933533402912374
  outer loop
    vertex 10.000000000000002 16.085786437626908 -5.230440224967572
    vertex 15.0 16.5 -4.912602979771792
    vertex 15.0 16.085786437626908 -5.230440224967572
  endloop
endfacet
facet normal 0.0 0.7933533402912347 -0.6087614290087213
  outer loop
    vertex 10.000000000000002 16.085786437626908 -5.230440224967572
    vertex 15.0 15.767949192431123 -5.644653787340666
    vertex 10.000000000000002 15.767949192431123 -5.644653787340666
  endloop
endfacet
facet normal 0.0 0.7933533402912347 -0.6087614290087213
  outer loop
    vertex 15.0 15.767949192431123 -5.644653787340666
    vertex 10.000000000000002 16.085786437626908 -5.230440224967572
    vertex 15.0 16.085786437626908 -5.230440224967572
  endloop
endfacet
facet normal 0.0 0.9238795325112878 -0.38268343236508756
  outer loop
    vertex 10.000000000000002 15.767949192431123 -5.644653787340666
    vertex 15.0 15.568148347421863 -6.12701569713563
    vertex 10.000000000000002 15.568148347421863 -6.12701569713563
  endloop
endfacet
facet normal 0.0 0.9238795325112878 -0.38268343236508756
  outer loop
    vertex 15.0 15.568148347421863 -6.12701569713563
    vertex 10.000000000000002 15.767949192431123 -5.644653787340666
    vertex 15.0 15.767949192431123 -5.644653787340666
  endloop
endfacet
endsolid faience_pusherv2_002
